<svg width="105" height="100" viewBox="0 0 105 100" fill="none" xmlns="http://www.w3.org/2000/svg">
<path d="M89.5212 37.4237C84.0881 16.0594 65.3149 0.637389 43.2793 0.0188263C31.6298 -0.308192 19.3712 3.55545 10.446 17.0757C-5.5087 41.2447 11.4265 57.9462 23.2332 65.8825C28.9373 69.7243 34.077 74.3439 38.5034 79.6073C46.4785 89.071 61.8207 100.831 80.0926 82.4049C93.336 69.0497 93.1402 51.6544 89.5212 37.4237Z" fill="#EEF4F9"/>
<path d="M104.268 85.0007C104.268 90.2449 81.3837 99.9998 52.5575 99.9998C23.7312 99.9998 0 90.8497 0 85.6055C0 80.3614 23.7312 81.009 52.5575 81.009C81.3837 81.009 104.268 79.7566 104.268 85.0007Z" fill="#3F3D56"/>
<path opacity="0.1" d="M104.268 85.0007C104.268 90.2449 81.3837 99.9998 52.5575 99.9998C23.7312 99.9998 0 90.8497 0 85.6055C0 80.3614 23.7312 81.009 52.5575 81.009C81.3837 81.009 104.268 79.7566 104.268 85.0007Z" fill="#223B55"/>
<path d="M52.1946 95.0404C81.0208 95.0404 104.389 90.7892 104.389 85.545C104.389 80.3008 81.0208 76.0496 52.1946 76.0496C23.3683 76.0496 0 80.3008 0 85.545C0 90.7892 23.3683 95.0404 52.1946 95.0404Z" fill="#223B55"/>
<path d="M71.9546 53.2515V78.6465L76.2024 85.5692L76.5257 86.0957H93.2864L93.6249 53.2515H71.9546Z" fill="#223B55"/>
<path opacity="0.1" d="M71.9546 53.2515V78.6464L76.2024 85.5691L76.463 53.2515H71.9546Z" fill="black"/>
<path d="M31.4919 52.5742V77.9693L27.2441 84.892L26.9208 85.4185H10.16L9.82141 52.5742H31.4919Z" fill="#223B55"/>
<path opacity="0.1" d="M31.4919 52.5742V77.9692L27.2441 84.8919L26.9833 52.5742H31.4919Z" fill="black"/>
<path d="M98.704 52.0665V53.5902H7.62051V51.3893L16.0855 46.9875H91.2547L98.704 52.0665Z" fill="#223B55"/>
<path opacity="0.1" d="M98.704 52.0663V53.59H7.62051V51.3892L98.704 52.0663Z" fill="white"/>
<path opacity="0.1" d="M20.6566 59.6849H16.5934L14.9005 58.4998H22.5189L20.6566 59.6849Z" fill="black"/>
<path opacity="0.1" d="M20.6566 64.5946H16.5934L14.9005 63.4094H22.5189L20.6566 64.5946Z" fill="black"/>
<path opacity="0.1" d="M20.6566 71.5358H16.5934L14.9005 70.3506H22.5189L20.6566 71.5358Z" fill="black"/>
<path opacity="0.1" d="M20.6566 78.4773H16.5934L14.9005 77.2922H22.5189L20.6566 78.4773Z" fill="black"/>
<path opacity="0.1" d="M82.7898 60.3621H86.853L88.546 59.177H80.9275L82.7898 60.3621Z" fill="black"/>
<path opacity="0.1" d="M82.7898 65.2717H86.853L88.546 64.0867H80.9275L82.7898 65.2717Z" fill="black"/>
<path opacity="0.1" d="M82.7898 72.2131H86.853L88.546 71.0281H80.9275L82.7898 72.2131Z" fill="black"/>
<path opacity="0.1" d="M82.7898 79.1544H86.853L88.546 77.9692H80.9275L82.7898 79.1544Z" fill="black"/>
<path d="M64.4135 42.7509L63.8488 46.3564C63.8488 46.3564 61.0686 47.8334 63.0234 47.8768C64.9782 47.9203 74.1876 47.8768 74.1876 47.8768C74.1876 47.8768 75.9686 47.8768 73.145 46.313L72.5803 42.5337L64.4135 42.7509Z" fill="#617487"/>
<path opacity="0.1" d="M62.6301 47.8377C63.0098 47.5308 63.4179 47.2607 63.8487 47.0311L64.4135 43.4255L72.5802 43.4332L73.1449 46.9876C73.6089 47.2271 74.0464 47.515 74.4499 47.8463C74.8126 47.7636 75.2089 47.4561 73.1449 46.313L72.5802 42.5337L64.4135 42.7509L63.8487 46.3564C63.8487 46.3564 61.5126 47.5977 62.6301 47.8377Z" fill="black"/>
<path d="M85.5568 17.6206H51.3502C50.6357 17.6206 50.0565 18.1998 50.0565 18.9143V41.9567C50.0565 42.6712 50.6357 43.2504 51.3502 43.2504H85.5568C86.2712 43.2504 86.8504 42.6712 86.8504 41.9567V18.9143C86.8504 18.1998 86.2712 17.6206 85.5568 17.6206Z" fill="#223B55"/>
<path d="M85.6123 18.9888H51.2946V38.1894H85.6123V18.9888Z" fill="#F2F2F2"/>
<path d="M68.4535 18.598C68.5734 18.598 68.6707 18.5007 68.6707 18.3808C68.6707 18.2608 68.5734 18.1636 68.4535 18.1636C68.3335 18.1636 68.2363 18.2608 68.2363 18.3808C68.2363 18.5007 68.3335 18.598 68.4535 18.598Z" fill="#F2F2F2"/>
<path d="M86.8504 39.71V41.9567C86.8504 42.1266 86.817 42.2948 86.752 42.4518C86.687 42.6087 86.5917 42.7514 86.4716 42.8715C86.3514 42.9916 86.2088 43.0869 86.0518 43.1519C85.8949 43.2169 85.7266 43.2504 85.5568 43.2503H51.3502C51.1803 43.2504 51.012 43.2169 50.8551 43.1519C50.6981 43.0869 50.5555 42.9916 50.4354 42.8715C50.3152 42.7514 50.22 42.6087 50.1549 42.4518C50.0899 42.2948 50.0565 42.1266 50.0565 41.9567V39.71H86.8504Z" fill="#617487"/>
<path d="M68.4535 42.3163C68.9093 42.3163 69.2788 41.9467 69.2788 41.4909C69.2788 41.0351 68.9093 40.6655 68.4535 40.6655C67.9976 40.6655 67.6281 41.0351 67.6281 41.4909C67.6281 41.9467 67.9976 42.3163 68.4535 42.3163Z" fill="#F2F2F2"/>
<path d="M67.1672 50.2225V50.6569H43.7964V50.3094L43.8286 50.2225L44.4046 48.6587H66.6894L67.1672 50.2225Z" fill="#3F3D56"/>
<path d="M76.1612 49.797C76.1186 49.9791 75.9579 50.1711 75.5947 50.3527C74.2915 51.0043 71.6416 50.1789 71.6416 50.1789C71.6416 50.1789 69.5999 49.8314 69.5999 48.9191C69.6572 48.8799 69.717 48.8443 69.7789 48.8127C70.3268 48.5228 72.1435 47.8075 75.3646 48.843C75.6019 48.9175 75.8139 49.0564 75.9769 49.2442C76.0491 49.3152 76.1035 49.4024 76.1355 49.4985C76.1676 49.5946 76.1763 49.6969 76.1612 49.797Z" fill="#3F3D56"/>
<path opacity="0.1" d="M76.1612 49.797C74.5661 50.4083 73.1443 50.4539 71.6851 49.4404C70.9492 48.9295 70.2807 48.8031 69.7789 48.8127C70.3268 48.5228 72.1435 47.8075 75.3647 48.843C75.602 48.9175 75.8139 49.0564 75.977 49.2442C76.0492 49.3152 76.1035 49.4024 76.1356 49.4985C76.1676 49.5946 76.1764 49.6969 76.1612 49.797Z" fill="#617487"/>
<path d="M74.1612 49.4405C74.4731 49.4405 74.7259 49.3627 74.7259 49.2668C74.7259 49.1708 74.4731 49.093 74.1612 49.093C73.8493 49.093 73.5964 49.1708 73.5964 49.2668C73.5964 49.3627 73.8493 49.4405 74.1612 49.4405Z" fill="#F2F2F2"/>
<path opacity="0.1" d="M67.1672 50.2224V50.6569H43.7964V50.3094L43.8286 50.2224H67.1672Z" fill="black"/>
<path d="M80.5228 28.057C80.3384 27.8726 77.9721 24.8916 77.5726 24.3999C77.1423 23.9082 76.9579 24.0004 76.6813 24.0312C76.4048 24.0619 73.4238 24.5843 73.0857 24.6151C72.7477 24.6765 72.5325 24.7995 72.7477 25.1068C72.9321 25.3834 74.8989 28.1492 75.3291 28.7946L67.4925 30.6692L61.2847 20.2511C61.0389 19.8824 60.9774 19.7594 60.4242 19.7902C59.871 19.8209 55.5379 20.1897 55.2305 20.1897C54.9232 20.2204 54.5852 20.3433 54.8925 21.0809C55.1998 21.8185 60.1169 32.3902 60.2398 32.6975C60.3628 33.0048 60.7315 33.4965 61.5613 33.3122C62.4218 33.097 65.372 32.3287 67.0008 31.8985C67.8613 33.4351 69.5823 36.5697 69.9203 37.0307C70.3506 37.6453 70.6579 37.5224 71.3033 37.338C71.8257 37.1844 79.355 34.48 79.6931 34.3263C80.0311 34.1726 80.2462 34.0804 80.0004 33.7424C79.816 33.4965 77.8491 30.8229 76.8043 29.4399C77.5111 29.2556 80.0618 28.5795 80.3384 28.4873C80.6457 28.3951 80.7072 28.2414 80.5228 28.057V28.057ZM66.294 30.9765C66.2018 31.0073 61.8071 32.0522 61.592 32.1136C61.3462 32.1751 61.3462 32.1444 61.3462 32.0522C61.2847 31.96 56.1218 21.2653 56.0296 21.1424C55.9681 21.0194 55.9681 20.8965 56.0296 20.8965C56.091 20.8965 60.1784 20.5277 60.3013 20.5277C60.4549 20.5277 60.4242 20.5585 60.4857 20.6507C60.4857 20.6507 66.2325 30.577 66.3247 30.7307C66.4476 30.8843 66.3862 30.9458 66.294 30.9765V30.9765ZM78.6482 33.2814C78.7096 33.4044 78.8018 33.4658 78.556 33.5273C78.3409 33.6195 71.1496 36.0473 70.996 36.1088C70.8423 36.1702 70.7501 36.2009 70.5657 35.9244C70.3813 35.6478 68.0457 31.6219 68.0457 31.6219L75.6979 29.6243C75.8823 29.5629 75.9438 29.5321 76.0667 29.7165C76.1896 29.9317 78.5867 33.1892 78.6482 33.2814V33.2814ZM79.1399 27.8726C78.9555 27.9034 76.1589 28.6102 76.1589 28.6102L73.854 25.4756C73.7925 25.3834 73.7311 25.2912 73.8847 25.2604C74.0384 25.2297 76.6506 24.7687 76.7735 24.738C76.8965 24.7073 76.9887 24.6765 77.1423 24.8917C77.296 25.076 79.2628 27.596 79.355 27.6882C79.4472 27.7804 79.3243 27.8419 79.1399 27.8726V27.8726Z" fill="#FB503B"/>
<path d="M47.7358 23.4834C50.2909 23.4834 52.3622 21.4121 52.3622 18.8571C52.3622 16.302 50.2909 14.2307 47.7358 14.2307C45.1808 14.2307 43.1095 16.302 43.1095 18.8571C43.1095 21.4121 45.1808 23.4834 47.7358 23.4834Z" fill="#FFB9B9"/>
<path d="M44.327 21.1703V28.475H51.8752C51.8752 28.475 50.9012 22.3877 51.3882 20.5615L44.327 21.1703Z" fill="#FFB9B9"/>
<path d="M59.3017 31.0316C59.3017 31.0316 52.1187 27.501 52.1187 27.2575C52.1187 27.014 51.3882 25.4313 50.9012 25.4313C50.4142 25.4313 46.2749 24.0921 43.9617 26.04L43.7182 27.6227L34.8307 33.4665L37.2657 42.354C37.2657 42.354 38.8484 44.0584 38.3614 45.2759C37.8744 46.4933 38.7266 52.7024 38.7266 52.7024L57.8407 52.0936V43.8149C57.8407 43.8149 58.4494 41.867 58.8147 41.2583C59.1799 40.6495 58.8147 38.8233 58.8147 38.8233L61.7366 35.171C61.7366 35.171 61.3714 31.7621 59.3017 31.0316Z" fill="#D0CDE1"/>
<path opacity="0.1" d="M35.1352 36.4493L35.683 33.4666C35.683 33.4666 32.5176 47.2238 32.8829 48.8065C33.2481 50.3892 35.9265 52.8242 36.2917 52.9459C36.657 53.0677 40.0659 42.4758 40.0659 42.4758L35.1352 36.4493Z" fill="black"/>
<path d="M36.9005 33.1013L34.8308 33.4666C34.8308 33.4666 31.6654 47.2239 32.0306 48.8066C32.3959 50.3893 35.0743 52.8242 35.4395 52.9459C35.8047 53.0677 39.2136 42.4758 39.2136 42.4758L36.9005 33.1013Z" fill="#D0CDE1"/>
<path opacity="0.1" d="M59.9713 37.18L61.0062 35.1711C61.0062 35.1711 62.4671 48.9284 61.4931 50.2677C60.5192 51.6069 56.6664 52.108 56.6664 52.108L56.6233 42.1107L59.9713 37.18Z" fill="black"/>
<path d="M60.1539 33.5884L61.7366 35.1711C61.7366 35.1711 63.1976 48.9284 62.2236 50.2676C61.2496 51.6068 57.3969 52.1079 57.3969 52.1079L57.3538 42.1106L60.1539 33.5884Z" fill="#D0CDE1"/>
<path d="M36.5352 54.5288C36.5352 54.5288 33.0046 53.1896 32.3959 55.7462C31.7871 58.3029 33.8568 69.747 33.8568 69.747C33.8568 69.747 35.196 78.391 36.0483 78.6345C36.9005 78.878 40.6746 78.9997 41.2833 77.904C41.8921 76.8083 39.4571 65.6077 39.4571 65.6077L53.5797 65.3642C53.5797 65.3642 52.7274 75.1038 52.2405 75.9561C51.7535 76.8083 51.7535 79.7302 52.2405 79.7302C52.7274 79.7302 58.0843 79.4867 58.4495 78.7562C58.8147 78.0257 60.8844 61.59 60.8844 61.59C60.8844 61.59 62.5889 55.868 60.6409 56.2332C58.693 56.5985 36.5352 54.5288 36.5352 54.5288Z" fill="#3F3D56"/>
<path d="M57.3538 78.2691C57.3538 78.2691 58.5712 77.4169 59.18 78.2691C59.7887 79.1214 60.0322 80.0953 57.3538 81.5563C54.6754 83.0173 52.6057 82.652 52.6057 82.4085V78.8779L57.3538 78.2691Z" fill="#2F2E41"/>
<path d="M36.2917 77.9039C36.2917 77.9039 35.0743 77.0517 34.4655 77.9039C33.8568 78.7561 33.6133 79.7301 36.2917 81.1911C38.9701 82.652 41.0398 82.2868 41.0398 82.0433V78.5127L36.2917 77.9039Z" fill="#2F2E41"/>
<path d="M47.7658 13.0238C47.305 13.0078 46.845 13.0734 46.407 13.2175C46.0674 13.354 45.743 13.5257 45.439 13.7297L43.3965 14.9998C43.2231 15.0748 43.0759 15.1995 42.9732 15.3582C42.8706 15.5169 42.8173 15.7023 42.82 15.8913L42.5648 17.8027C42.5004 18.285 42.441 18.8009 42.6569 19.237C42.8372 19.601 43.1809 19.8501 43.4635 20.1418C43.9158 20.6107 44.2202 21.2021 44.3388 21.8427C44.4849 22.6407 44.3914 23.6017 45.0229 24.111C45.3649 24.3868 45.831 24.4389 46.2695 24.4646C47.4687 24.5346 48.6719 24.4883 49.8621 24.3263C50.0514 24.3121 50.2359 24.2604 50.405 24.1742C50.6197 24.0472 50.7548 23.823 50.8812 23.6079C51.3373 22.8314 51.8074 22.0053 51.8024 21.1048C51.8 20.6593 51.686 20.1808 51.8999 19.79C52.0129 19.6238 52.1356 19.4645 52.2673 19.3128C52.5322 18.9406 52.5837 18.4624 52.6269 18.0076C52.7648 16.5551 52.6206 15.4497 51.5501 14.4264C50.5507 13.4713 49.1288 13.0326 47.7658 13.0238Z" fill="#2F2E41"/>
<path d="M36.4016 68.9116L32.3384 89.5663H34.3699L38.2639 69.2503L36.4016 68.9116Z" fill="#2F2E41"/>
<path d="M49.4376 70.6047L51.9772 94.3068H53.6701L52.1464 69.9275L49.4376 70.6047Z" fill="#2F2E41"/>
<path d="M56.379 69.9274L59.9343 85.6724H61.6272L58.2413 69.5889L56.379 69.9274Z" fill="#2F2E41"/>
<path d="M42.835 69.9275L42.3271 82.4558H43.6815L44.6973 69.9275H42.835Z" fill="#2F2E41"/>
<path d="M33.5234 66.7108C33.5234 66.7108 30.8146 48.5957 38.4331 48.0878C46.0516 47.5799 56.8869 48.0878 56.8869 48.0878C56.8869 48.0878 63.151 47.5799 61.2887 66.7108C61.2887 66.7108 62.9817 72.2977 47.7447 71.7898C32.5076 71.2819 33.5234 66.7108 33.5234 66.7108Z" fill="#3EE5B2"/>
<path d="M102.938 74.1085C102.938 77.2674 101.06 78.3704 98.7431 78.3704C96.4266 78.3704 94.5486 77.2674 94.5486 74.1085C94.5486 70.9496 98.7431 66.9309 98.7431 66.9309C98.7431 66.9309 102.938 70.9496 102.938 74.1085Z" fill="#1CD49C"/>
<path d="M98.6334 75.2432L100.421 71.9725L98.64 74.8284L98.6594 73.6397L99.8915 71.2734L98.6645 73.3251L98.6992 71.1871L100.019 69.3033L98.7046 70.851L98.7264 66.9307L98.5959 71.8982L97.2597 69.8531L98.5797 72.3173L98.4547 74.705L98.451 74.6417L96.9045 72.4809L98.4463 74.8656L98.4306 75.1642L98.4279 75.1687L98.4292 75.1932L98.112 78.3796H98.5358L98.5866 78.1222L100.125 75.7433L98.5903 77.8869L98.6334 75.2432Z" fill="#3F3D56"/>
<path d="M101.422 85.2228H96.4214L95.129 77.9185H102.433L101.422 85.2228Z" fill="#223B55"/>
<path d="M27.9419 35.8408H17.5393V48.037H27.9419V35.8408Z" fill="#3F3D56"/>
<path d="M26.3277 37.7334H19.1535V46.1446H26.3277V37.7334Z" fill="#F2F2F2"/>
<path d="M23.4597 39.5195L22.7311 40.7813L22.0025 39.5195H19.5766L22.7311 44.9834L25.8856 39.5195H23.4597Z" fill="#4DBA87"/>
<path d="M23.4596 39.5195L22.7311 40.7813L22.0025 39.5195H20.8384L22.7311 42.7977L24.6238 39.5195H23.4596Z" fill="#435466"/>
</svg>
