<svg width="144" height="101" viewBox="0 0 144 101" fill="none" xmlns="http://www.w3.org/2000/svg">
<path d="M96.214 97.4552C96.214 97.4552 97.3729 93.5546 92.9646 91.3337L96.214 97.4552Z" fill="#EEF4F9"/>
<path d="M96.3586 97.476C96.3586 97.476 96.8182 93.6263 101.953 93.385L96.3586 97.476Z" fill="#EEF4F9"/>
<path d="M136.388 98.5885C135.573 101.943 92.7638 101.662 92.8286 98.5885C93.6439 95.2339 136.453 95.5155 136.388 98.5885Z" fill="#EEF4F9"/>
<path d="M15.7813 10.5758C16.1631 10.5758 16.4725 10.2663 16.4725 9.88458C16.4725 9.50283 16.1631 9.19336 15.7813 9.19336C15.3996 9.19336 15.0901 9.50283 15.0901 9.88458C15.0901 10.2663 15.3996 10.5758 15.7813 10.5758Z" fill="white"/>
<path d="M18.4048 10.5758C18.7865 10.5758 19.096 10.2663 19.096 9.88458C19.096 9.50283 18.7865 9.19336 18.4048 9.19336C18.023 9.19336 17.7136 9.50283 17.7136 9.88458C17.7136 10.2663 18.023 10.5758 18.4048 10.5758Z" fill="white"/>
<path d="M21.0282 10.5758C21.4099 10.5758 21.7194 10.2663 21.7194 9.88458C21.7194 9.50283 21.4099 9.19336 21.0282 9.19336C20.6464 9.19336 20.337 9.50283 20.337 9.88458C20.337 10.2663 20.6464 10.5758 21.0282 10.5758Z" fill="white"/>
<path d="M101.877 11.5085H14.1019V11.9964H101.877V11.5085Z" fill="white"/>
<path d="M127.253 81.5134C127.253 81.5134 126.745 79.7917 127.573 80.3534C128.401 80.915 130.81 81.7585 129.942 83.1093C129.074 84.4602 123.878 91.9268 123.038 90.4473C122.572 89.6259 124.197 82.6586 124.197 82.6586C124.197 82.6586 125.353 82.3914 125.519 82.6586C125.685 82.9258 127.253 81.5134 127.253 81.5134Z" fill="#223B55"/>
<path d="M119.799 37.5723L119.644 40.3664L117.625 44.4032L124.302 44.0927L123.836 39.9006L124.147 38.1927L119.799 37.5723Z" fill="#FFB8B8"/>
<path d="M119.023 42.3848C119.023 42.3848 120.11 43.6269 122.905 42.2295L125.078 52.7867L125.389 62.2577L116.073 61.9472L116.228 52.3209L119.023 42.3848Z" fill="#617487"/>
<path d="M113.815 62.484C113.815 62.484 114.818 67.4115 116.694 66.2177C118.569 65.0239 116.289 61.5645 116.289 61.5645L113.815 62.484Z" fill="#FFB8B8"/>
<path d="M123.06 88.9641L122.904 91.6036L125.389 92.3799V88.8088L123.06 88.9641Z" fill="#FFB8B8"/>
<path d="M114.831 61.3274V76.8536L123.681 84.4616L125.854 80.7351L119.644 75.6117L121.197 71.7301L127.718 67.5379V61.4827L114.831 61.3274Z" fill="#223B55"/>
<path d="M121.352 70.9535L122.283 78.8719L122.594 89.4291H126.631C126.631 89.4291 128.028 80.1133 126.475 77.7844L127.717 67.5385L126.475 63.5017L121.352 70.9535Z" fill="#223B55"/>
<path d="M124.923 91.4482C124.923 91.4482 125.078 90.8271 123.991 90.8271C122.904 90.8271 122.439 90.9824 122.439 91.1377C122.402 91.3993 122.35 91.6585 122.283 91.914C122.283 91.914 119.489 98.9008 122.283 98.5903C125.078 98.2798 125.544 96.8827 125.544 96.8827L125.854 92.3801C125.854 92.3801 125.544 91.9999 125.389 92.0348C125.233 92.0697 124.923 91.4482 124.923 91.4482Z" fill="#223B55"/>
<path d="M122.283 39.1247C124.17 39.1247 125.699 37.5955 125.699 35.709C125.699 33.8225 124.17 32.2932 122.283 32.2932C120.397 32.2932 118.868 33.8225 118.868 35.709C118.868 37.5955 120.397 39.1247 122.283 39.1247Z" fill="#FFB8B8"/>
<path d="M122.904 43.3169L121.818 42.0748L123.919 39.4448L124.768 40.3656L129.737 42.5393L128.34 56.2024C128.34 56.2024 128.184 60.2392 129.116 63.0339C129.116 63.0339 127.098 65.5181 123.992 64.897L119.955 65.6734C119.955 65.6734 119.489 45.6458 122.904 43.3169Z" fill="#575A89"/>
<path d="M119.489 42.5406L119.667 39.9529L118.868 40.9878L114.676 44.0931L115.142 61.3272L116.539 62.1036L118.868 43.6282L119.489 42.5406Z" fill="#575A89"/>
<path d="M115.763 43.938L114.676 44.0933C114.676 44.0933 113.899 45.4903 113.899 45.6459C113.899 45.8015 113.589 53.8748 113.589 53.8748C113.589 53.8748 113.045 62.026 113.977 63.5787L116.726 60.6214L115.763 57.9116V43.938Z" fill="#575A89"/>
<path opacity="0.3" d="M122.202 78.177L122.416 83.374L121.77 82.8183L122.202 78.177Z" fill="black"/>
<path opacity="0.3" d="M127.363 80.2502L127.137 80.3625L126.894 87.3247L127.455 86.6024L127.363 80.2502Z" fill="black"/>
<path d="M131.91 63.1904C131.91 63.1904 131.133 68.1595 133.307 67.693C135.48 67.2266 134.549 63.1904 134.549 63.1904H131.91Z" fill="#FFB8B8"/>
<path d="M128.339 42.5405H129.736C129.736 42.5405 130.667 43.0063 130.822 44.4037C130.978 45.801 133.151 52.0115 133.151 52.0115C133.151 52.0115 135.636 62.2588 135.48 63.6562H131.599L131.909 60.8621L127.717 49.6832L128.339 42.5405Z" fill="#575A89"/>
<path d="M119.378 32.4276L118.727 32.167C118.727 32.167 120.089 30.668 121.983 30.7983L121.45 30.2117C121.45 30.2117 122.752 29.6904 123.936 31.059C124.559 31.7785 125.279 32.6242 125.728 33.5767H126.425L126.134 34.2176L127.153 34.8585L126.107 34.7434C126.17 35.0946 126.179 35.4531 126.136 35.8071C126.091 36.1609 125.91 36.4835 125.632 36.7067C125.632 36.7067 124.825 35.0352 124.825 34.7745V35.4262C124.825 35.4262 124.174 34.8396 124.174 34.4486L123.819 34.9049L123.641 34.1879L121.45 34.9049L121.805 34.3183L120.444 34.5138L120.976 33.7969C120.976 33.7969 119.437 34.6442 119.378 35.361C119.312 35.8579 119.138 36.3345 118.868 36.7572C118.868 36.7572 117.661 33.4053 119.378 32.4276Z" fill="#223B55"/>
<g filter="url(#filter0_d)">
<path d="M101.953 1.05713H1.04303V65.684H101.953V1.05713Z" fill="#EEF4F9"/>
</g>
<path d="M101.91 1H1V5.28702H101.91V1Z" fill="#3EE5B2"/>
<path d="M99.1505 8.74487H4.0119V33.3812H99.1505V8.74487Z" fill="white"/>
<path d="M99.2106 37.4297H4.07202V62.0661H99.2106V37.4297Z" fill="white"/>
<path d="M87.6279 14.1948H36.1388V16.4896H87.6279V14.1948Z" fill="#EEF4F9"/>
<path d="M54.4971 19.9319H36.1388V22.2267H54.4971V19.9319Z" fill="#EEF4F9"/>
<path d="M72.7119 25.6687H36.1388V27.9635H72.7119V25.6687Z" fill="#EEF4F9"/>
<path d="M32.6846 21.0745C32.6874 22.7441 32.2013 24.378 31.2865 25.7747C31.0948 26.0692 30.8847 26.3514 30.6575 26.6194C30.1246 27.2506 29.504 27.8021 28.8145 28.257C28.627 28.3813 28.4343 28.4977 28.2363 28.6063C27.2058 29.1762 26.0684 29.5265 24.8958 29.635C24.6292 29.661 24.3582 29.6734 24.0849 29.6734C23.3357 29.6741 22.5896 29.5766 21.8658 29.3832C21.4555 29.2754 21.0541 29.1361 20.6653 28.9665C20.4665 28.8806 20.2723 28.7873 20.0825 28.6864C19.6261 28.4468 19.1925 28.1659 18.7872 27.8474C18.5986 27.7006 18.4168 27.5459 18.2417 27.3832C17.194 26.4128 16.4045 25.1967 15.9444 23.8447C15.4843 22.4927 15.3682 21.0475 15.6065 19.6394C15.8448 18.2313 16.43 16.9047 17.3094 15.7795C18.1887 14.6542 19.3345 13.7656 20.6432 13.194C21.9519 12.6224 23.3824 12.3857 24.8055 12.5053C26.2286 12.6249 27.5995 13.0971 28.7944 13.8792C29.9893 14.6613 30.9707 15.7286 31.6498 16.9849C32.329 18.2412 32.6845 19.6468 32.6845 21.0749L32.6846 21.0745Z" fill="#EEF4F9"/>
<path d="M22.0009 21.8512C22.0009 21.8512 22.7837 24.0262 22.1755 25.2435C21.5673 26.4609 23.1323 27.853 23.1323 27.853C23.1323 27.853 27.2206 25.7654 26.6986 24.7215C26.1766 23.6777 25.3069 22.2861 25.4808 21.4163L22.0009 21.8512Z" fill="#FFB8B8"/>
<path d="M23.5232 22.6775C25.0605 22.6775 26.3067 21.4313 26.3067 19.894C26.3067 18.3568 25.0605 17.1106 23.5232 17.1106C21.9859 17.1106 20.7397 18.3568 20.7397 19.894C20.7397 21.4313 21.9859 22.6775 23.5232 22.6775Z" fill="#FFB8B8"/>
<path d="M21.8658 29.3827C21.4555 29.2749 21.0541 29.1356 20.6653 28.966L20.7399 26.8529L21.5226 25.1127C21.6985 25.2505 21.8868 25.3718 22.085 25.4751C22.1327 25.5011 22.1803 25.5259 22.233 25.5508C22.9671 25.9055 24.1663 26.2176 25.3287 25.3476C25.7558 25.0151 26.1183 24.6071 26.3982 24.1438L28.5687 25.3737L28.6827 26.7063L28.8148 28.2568C28.6274 28.3811 28.4346 28.4975 28.2366 28.6061C27.2061 29.176 26.0687 29.5263 24.8961 29.6348C24.6295 29.6608 24.3586 29.6732 24.0852 29.6732C23.3359 29.6739 22.5897 29.5762 21.8658 29.3827Z" fill="#575A89"/>
<path d="M22.4 23.8108V23.8141L22.2904 24.9502L22.2328 25.5509L22.1482 26.4442L21.8659 29.3828C21.4556 29.275 21.0543 29.1356 20.6654 28.966C20.4667 28.8802 20.2724 28.7869 20.0826 28.686C19.6262 28.4463 19.1927 28.1655 18.7873 27.847L18.4779 26.4182L18.5016 26.4023L22.4 23.8108Z" fill="#575A89"/>
<path d="M28.2361 28.6058C27.2056 29.1757 26.0682 29.526 24.8956 29.6345C24.9591 28.5775 25.0515 27.5565 25.1564 26.6475C25.2106 26.1811 25.2676 25.7452 25.3281 25.3476C25.5167 24.0705 25.7199 23.203 25.8656 23.0857L26.8278 23.7207L30.7421 25.112L30.6573 26.6186C30.1245 27.2498 29.5038 27.8013 28.8143 28.2562C28.6269 28.3809 28.4341 28.4974 28.2361 28.6058Z" fill="#575A89"/>
<path d="M18.7872 27.8469C18.5986 27.7001 18.4168 27.5454 18.2417 27.3827L18.3908 26.4183L18.5019 26.4024L18.9999 26.3313L20.083 28.686C19.6266 28.4463 19.193 28.1655 18.7877 27.8469H18.7872Z" fill="#575A89"/>
<path d="M31.2866 25.7746C31.0949 26.0691 30.8848 26.3512 30.6576 26.6193C30.1248 27.2505 29.5042 27.802 28.8147 28.2569C28.6272 28.3811 28.4345 28.4975 28.2365 28.6061L28.1338 28.1578L28.6826 26.7066L29.3511 24.9392L30.7424 25.1138C30.9353 25.3244 31.1169 25.5449 31.2866 25.7746Z" fill="#575A89"/>
<path d="M26.1774 17.3768C25.7566 16.6934 25.0979 16.1898 24.328 15.9628L23.7626 16.4153L23.9824 15.8875C23.7975 15.8595 23.6104 15.8489 23.4235 15.8558L22.9147 16.51L23.1253 15.8782C22.6838 15.9331 22.2584 16.0788 21.876 16.3063C21.4936 16.5338 21.1625 16.838 20.9036 17.1998C20.256 18.1336 20.1466 19.4322 20.7837 20.3733C20.9583 19.8359 21.1707 19.3317 21.3457 18.7944C21.4831 18.8131 21.6224 18.8138 21.76 18.7964L21.9728 18.3L22.0321 18.7753C22.6914 18.7178 23.6695 18.5918 24.2945 18.4762L24.2337 18.1111L24.5975 18.4141C24.7889 18.37 24.9027 18.33 24.8932 18.2995C25.358 19.049 25.8188 19.5276 26.2836 20.2771C26.4596 19.2205 26.7711 18.3413 26.1774 17.3768Z" fill="#2F2E41"/>
<path d="M26.0233 20.1837C26.1273 20.1837 26.2117 20.015 26.2117 19.8068C26.2117 19.5987 26.1273 19.4299 26.0233 19.4299C25.9192 19.4299 25.8348 19.5987 25.8348 19.8068C25.8348 20.015 25.9192 20.1837 26.0233 20.1837Z" fill="#FFB8B8"/>
<path d="M32.2663 49.6216C32.269 51.2924 31.7826 52.9274 30.8672 54.3251C30.6753 54.6198 30.4651 54.9022 30.2377 55.1704C29.7045 55.8021 29.0834 56.3539 28.3934 56.8091C28.2058 56.9335 28.0129 57.0499 27.8148 57.1584C26.7836 57.7287 25.6453 58.0793 24.4719 58.1879C24.2052 58.2139 23.934 58.2263 23.6605 58.2263C22.9108 58.2271 22.1642 58.1294 21.4398 57.9359C21.0293 57.8281 20.6276 57.6886 20.2385 57.5189C20.0397 57.433 19.8453 57.3396 19.6554 57.2387C19.1987 56.9988 18.7648 56.7178 18.3592 56.399C18.1705 56.2521 17.9886 56.0973 17.8134 55.9345C16.7653 54.9634 15.9756 53.7465 15.5156 52.3938C15.0555 51.0411 14.9395 49.5951 15.1781 48.1863C15.4166 46.7775 16.0023 45.4504 16.8821 44.3246C17.762 43.1988 18.9083 42.3098 20.2177 41.7379C21.5271 41.166 22.9582 40.9292 24.382 41.0488C25.8058 41.1684 27.1775 41.6406 28.3731 42.423C29.5687 43.2053 30.5506 44.2731 31.2303 45.5299C31.91 46.7867 32.2661 48.193 32.2663 49.6218V49.6216Z" fill="#3EE5B2"/>
<path d="M24.1885 45.6047H23.1336V53.6365H24.1885V45.6047Z" fill="white"/>
<path d="M27.6768 50.1482V49.0933H19.6451V50.1482H27.6768Z" fill="white"/>
<path d="M86.3372 42.8796H34.848V45.1744H86.3372V42.8796Z" fill="#EEF4F9"/>
<path d="M53.2063 48.6167H34.848V50.9115H53.2063V48.6167Z" fill="#EEF4F9"/>
<path d="M71.4212 54.3535H34.848V56.6484H71.4212V54.3535Z" fill="#EEF4F9"/>
<path d="M143.599 75.8004C143.6 77.1645 143.284 78.5102 142.678 79.732C142.072 80.9539 141.191 82.0188 140.104 82.8433C139.946 82.9631 139.785 83.0779 139.62 83.1876C139.577 83.2158 139.535 83.2428 139.493 83.2687C139.339 83.3675 139.183 83.4593 139.024 83.5461C138.96 83.5813 138.897 83.6154 138.833 83.6483C138.821 83.6553 138.809 83.6612 138.796 83.6671C138.715 83.7093 138.634 83.7506 138.552 83.7893C138.192 83.9612 137.821 84.108 137.441 84.2287C136.839 84.4203 136.218 84.5464 135.589 84.6047C135.314 84.6305 135.036 84.6434 134.755 84.6434C133.985 84.6442 133.218 84.5438 132.473 84.3449C132.091 84.2446 131.717 84.1178 131.352 83.9654C131.315 83.9495 131.276 83.9336 131.238 83.9177C131.06 83.8402 130.885 83.7568 130.713 83.6675L130.639 83.6288C130.453 83.5313 130.27 83.4271 130.092 83.3162C129.82 83.1472 129.558 82.9636 129.307 82.7663C129.179 82.6675 129.054 82.5641 128.933 82.4561C128.87 82.4021 128.807 82.345 128.746 82.2892C128.509 82.0687 128.283 81.8355 128.071 81.5907C127.986 81.4932 127.904 81.3945 127.824 81.2934C126.947 80.1873 126.348 78.8874 126.077 77.5025C125.805 76.1176 125.869 74.6877 126.262 73.3324C126.656 71.9771 127.369 70.7358 128.34 69.712C129.312 68.6883 130.514 67.912 131.847 67.4479C133.18 66.9838 134.604 66.8454 136.002 67.0443C137.399 67.2432 138.728 67.7737 139.879 68.5913C141.029 69.4089 141.967 70.4899 142.614 71.7441C143.262 72.9982 143.599 74.3891 143.599 75.8004H143.599Z" fill="#EEF4F9"/>
<path d="M137.515 79.7627C138.247 79.7627 138.841 79.1693 138.841 78.4373C138.841 77.7052 138.247 77.1118 137.515 77.1118C136.783 77.1118 136.19 77.7052 136.19 78.4373C136.19 79.1693 136.783 79.7627 137.515 79.7627Z" fill="#223B55"/>
<path d="M137.884 77.1484C138.114 77.1484 138.339 77.208 138.539 77.3212C138.738 77.4345 138.905 77.5976 139.023 77.7945C139.14 77.9915 139.205 78.2156 139.21 78.445C139.215 78.6743 139.16 78.9011 139.051 79.103C139.166 78.9592 139.25 78.7931 139.297 78.6152C139.344 78.4373 139.354 78.2515 139.325 78.0697C139.296 77.8879 139.23 77.7141 139.131 77.5593C139.031 77.4045 138.901 77.2721 138.747 77.1705C138.594 77.069 138.421 77.0006 138.239 76.9696C138.058 76.9386 137.872 76.9458 137.693 76.9906C137.515 77.0354 137.348 77.1169 137.202 77.2299C137.057 77.3429 136.937 77.4849 136.85 77.6469C136.974 77.4913 137.131 77.3657 137.31 77.2794C137.489 77.1931 137.686 77.1483 137.885 77.1484H137.884Z" fill="#223B55"/>
<path d="M135.038 78.4342C137.189 78.4342 138.932 76.691 138.932 74.5406C138.932 72.3902 137.189 70.647 135.038 70.647C132.888 70.647 131.145 72.3902 131.145 74.5406C131.145 76.691 132.888 78.4342 135.038 78.4342Z" fill="#223B55"/>
<path d="M131.982 72.1251C132.653 71.3705 133.591 70.9062 134.598 70.83C135.605 70.7538 136.602 71.0718 137.378 71.7167C137.347 71.6864 137.315 71.6559 137.282 71.6266C136.9 71.2846 136.455 71.0213 135.971 70.8519C135.487 70.6825 134.975 70.6102 134.463 70.6393C133.951 70.6684 133.45 70.7983 132.989 71.0214C132.527 71.2446 132.115 71.5567 131.774 71.9398C131.434 72.3228 131.172 72.7694 131.004 73.2538C130.837 73.7382 130.767 74.2509 130.798 74.7625C130.829 75.2742 130.96 75.7746 131.185 76.2352C131.41 76.6958 131.724 77.1074 132.108 77.4465C132.141 77.4759 132.175 77.5037 132.209 77.5318C131.478 76.8359 131.045 75.883 131.003 74.8742C130.961 73.8655 131.312 72.8797 131.983 72.1251H131.982Z" fill="#223B55"/>
<path d="M135.005 78.4014C136.39 78.4014 137.513 77.2786 137.513 75.8937C137.513 74.5087 136.39 73.386 135.005 73.386C133.62 73.386 132.498 74.5087 132.498 75.8937C132.498 77.2786 133.62 78.4014 135.005 78.4014Z" fill="#B16771"/>
<path d="M133.223 76.6857C133.223 76.6857 133.553 79.7214 133.025 80.0513C132.498 80.3812 136.061 80.8432 136.061 80.8432C136.061 80.8432 135.533 77.5435 136.853 76.6855L133.223 76.6857Z" fill="#B16771"/>
<path d="M139.493 82.4274V83.3861C139.339 83.4849 139.182 83.5766 139.024 83.6635C138.96 83.6987 138.897 83.7328 138.833 83.7657V83.7844H138.796C138.715 83.8267 138.634 83.8678 138.551 83.9067C138.192 84.0786 137.821 84.2254 137.441 84.3461C136.839 84.5377 136.218 84.6637 135.589 84.722C135.314 84.7479 135.036 84.7608 134.755 84.7608C133.985 84.7615 133.217 84.6612 132.473 84.4623C132.091 84.362 131.717 84.2352 131.352 84.0827C131.315 84.0669 131.276 84.051 131.238 84.0351C131.06 83.9575 130.885 83.8741 130.713 83.7849L130.639 83.7462C130.452 83.6487 130.27 83.5445 130.091 83.4336C129.82 83.2646 129.558 83.081 129.307 82.8837C129.179 82.7849 129.054 82.6815 128.933 82.5735C128.869 82.5193 128.807 82.4623 128.746 82.4066C128.508 82.1861 128.283 81.9529 128.07 81.7081C128.098 81.5088 128.145 81.3125 128.209 81.1218L128.21 81.1207C128.228 81.0708 128.249 81.0221 128.274 80.9749C128.558 80.4426 129.071 80.311 129.711 80.2829C130.07 80.2671 130.469 80.2841 130.89 80.2794C131.113 80.2783 131.342 80.2701 131.573 80.249C133.025 80.1174 132.761 79.2596 132.827 78.7978C132.892 78.3501 133.295 78.7379 133.322 78.7636L133.323 78.7648C134.145 79.1497 135.054 79.3095 135.958 79.2277H135.96C136.114 79.2079 136.27 79.1962 136.426 79.1925C136.835 79.1877 136.746 79.3052 136.606 79.4015C136.537 79.4466 136.465 79.487 136.391 79.5225C136.391 79.5225 136.325 79.9184 136.259 80.513C136.196 81.0816 137.285 81.3483 137.375 81.3683C137.377 81.3697 137.379 81.3705 137.381 81.3707C137.779 81.2674 138.198 81.2779 138.59 81.4012C138.814 81.4836 139.014 81.6206 139.171 81.7997C139.329 81.9788 139.439 82.1944 139.493 82.4269V82.4274Z" fill="#1CD49C"/>
<path d="M131.368 83.7843C131.364 83.8913 131.358 83.9907 131.352 84.0828C131.314 84.0669 131.275 84.051 131.238 84.0352C131.059 83.9576 130.884 83.8742 130.713 83.785L130.639 83.7462C130.452 83.6488 130.269 83.5446 130.091 83.4336C130.097 83.34 130.107 83.2467 130.122 83.1541C130.264 82.1776 130.122 81.1808 129.71 80.2836C129.679 80.219 129.66 80.1838 129.66 80.1838C129.66 80.1838 130.122 79.7878 130.781 80.1838C130.823 80.2096 130.859 80.2421 130.89 80.2801C131.328 80.7975 131.413 82.6635 131.368 83.7843Z" fill="#223B55"/>
<path d="M138.557 83.7844C138.556 83.8244 138.554 83.8655 138.551 83.9066C138.192 84.0785 137.821 84.2253 137.441 84.346L137.419 83.7844L137.334 81.5543C137.331 81.4899 137.345 81.4257 137.375 81.3688C137.405 81.3097 137.451 81.2601 137.508 81.2255C137.565 81.1909 137.63 81.1727 137.696 81.1729H138.502C138.542 81.1729 138.571 81.254 138.589 81.4008C138.641 81.8093 138.616 82.7223 138.557 83.7844Z" fill="#223B55"/>
<path d="M132.86 72.759V75.2673H133.441L134.18 74.4755L134.081 75.2673H136.648L136.49 74.4755L136.807 75.2673H137.216V72.759H132.86Z" fill="#223B55"/>
<path d="M132.465 75.7287C132.574 75.7287 132.663 75.5663 132.663 75.3658C132.663 75.1654 132.574 75.0029 132.465 75.0029C132.355 75.0029 132.267 75.1654 132.267 75.3658C132.267 75.5663 132.355 75.7287 132.465 75.7287Z" fill="#A0616A"/>
<path d="M137.546 75.7287C137.655 75.7287 137.744 75.5663 137.744 75.3658C137.744 75.1654 137.655 75.0029 137.546 75.0029C137.437 75.0029 137.348 75.1654 137.348 75.3658C137.348 75.5663 137.437 75.7287 137.546 75.7287Z" fill="#A0616A"/>
<path d="M140.104 82.9608C139.946 83.0807 139.785 83.1955 139.619 83.3052C139.577 83.3334 139.535 83.3605 139.492 83.3863C139.338 83.485 139.182 83.5768 139.024 83.6636C138.96 83.6989 138.897 83.733 138.833 83.7659V81.8989C138.833 81.8989 139.088 82.1021 139.492 82.4406C139.67 82.5897 139.877 82.7659 140.104 82.9608Z" fill="#3EE5B2"/>
<path d="M7.67388 3.84166C8.06554 3.84166 8.38304 3.52415 8.38304 3.1325C8.38304 2.74084 8.06554 2.42334 7.67388 2.42334C7.28222 2.42334 6.96472 2.74084 6.96472 3.1325C6.96472 3.52415 7.28222 3.84166 7.67388 3.84166Z" fill="white"/>
<path d="M10.3657 3.84166C10.7574 3.84166 11.0749 3.52415 11.0749 3.1325C11.0749 2.74084 10.7574 2.42334 10.3657 2.42334C9.97406 2.42334 9.65656 2.74084 9.65656 3.1325C9.65656 3.52415 9.97406 3.84166 10.3657 3.84166Z" fill="white"/>
<path d="M4.97503 3.84166C5.36668 3.84166 5.68418 3.52415 5.68418 3.1325C5.68418 2.74084 5.36668 2.42334 4.97503 2.42334C4.58337 2.42334 4.26587 2.74084 4.26587 3.1325C4.26587 3.52415 4.58337 3.84166 4.97503 3.84166Z" fill="white"/>
<defs>
<filter id="filter0_d" x="0.0430298" y="0.557129" width="102.91" height="66.6269" filterUnits="userSpaceOnUse" color-interpolation-filters="sRGB">
<feFlood flood-opacity="0" result="BackgroundImageFix"/>
<feColorMatrix in="SourceAlpha" type="matrix" values="0 0 0 0 0 0 0 0 0 0 0 0 0 0 0 0 0 0 127 0"/>
<feOffset dy="0.5"/>
<feGaussianBlur stdDeviation="0.5"/>
<feColorMatrix type="matrix" values="0 0 0 0 0 0 0 0 0 0 0 0 0 0 0 0 0 0 0.2 0"/>
<feBlend mode="normal" in2="BackgroundImageFix" result="effect1_dropShadow"/>
<feBlend mode="normal" in="SourceGraphic" in2="effect1_dropShadow" result="shape"/>
</filter>
</defs>
</svg>
