<svg width="98" height="87" viewBox="0 0 98 87" fill="none" xmlns="http://www.w3.org/2000/svg">
<path opacity="0.18" d="M2.21975 81.4755C5.07375 84.9195 9.86775 86.0995 14.3408 86.1815C19.2657 86.2673 24.1504 85.2805 28.6558 83.2895C32.8768 81.4205 36.7158 78.6895 41.0968 77.2315C50.2218 74.1995 60.1327 77.0915 69.7497 77.1115C76.4977 77.1265 83.4307 75.6115 88.8988 71.6455C94.3668 67.6795 98.1338 61.0455 97.5407 54.3235C97.0542 50.3174 95.4726 46.523 92.9697 43.3575C86.6547 34.8875 76.6248 29.9915 69.4228 22.2815C64.7318 17.2655 60.9228 10.8405 54.5048 8.41047C51.3949 7.41122 48.1264 6.99855 44.8658 7.19347C41.7361 7.07721 38.6131 7.56161 35.6658 8.62047C32.5294 10.0669 29.8566 12.3564 27.9458 15.2335C22.3278 23.1335 21.0028 33.2405 16.9458 42.0475C14.1768 48.0805 10.1458 53.4665 7.36676 59.4965C4.68376 65.3605 -2.86925 75.3295 2.21975 81.4755Z" fill="#1CD39B"/>
<path opacity="0.18" d="M57.1591 41.9316L54.0352 43.3916L76.1152 54.2206L79.2411 52.7636L57.1591 41.9316Z" fill="#469DF4"/>
<path d="M74.6114 27.7885C74.5388 27.7329 74.4523 27.6983 74.3614 27.6885C74.3173 27.6842 74.2731 27.6937 74.2346 27.7155C74.1961 27.7373 74.1653 27.7705 74.1464 27.8105C74.1214 27.8825 74.1464 27.9705 74.1014 28.0305C74.0772 28.0529 74.0483 28.0697 74.0168 28.0795C73.9854 28.0894 73.9521 28.0921 73.9194 28.0875C73.6295 28.0844 73.342 28.0355 73.0674 27.9425C72.9423 27.8924 72.8112 27.8588 72.6774 27.8425C72.6105 27.8347 72.5428 27.845 72.4813 27.8723C72.4197 27.8995 72.3666 27.9428 72.3274 27.9975C72.273 28.1182 72.2686 28.2556 72.3154 28.3795C72.4588 28.8701 72.7423 29.3081 73.1312 29.6398C73.5201 29.9714 73.9973 30.1823 74.5044 30.2465C74.6629 30.2824 74.8283 30.2721 74.9811 30.2168C75.1339 30.1615 75.2676 30.0635 75.3664 29.9345C75.4748 29.5425 75.4606 29.1267 75.3256 28.743C75.1906 28.3594 74.9413 28.0263 74.6114 27.7885Z" fill="url(#paint0_linear)"/>
<path d="M75.101 28.6562C75.174 29.1883 74.616 29.6013 74.509 30.1283C74.372 30.7803 74.941 31.3452 75.454 31.7702C77.3167 33.3925 79.3056 34.8638 81.402 36.1702C81.7376 36.4141 82.1442 36.5406 82.559 36.5303C82.8141 36.4615 83.0503 36.3357 83.2498 36.1625C83.4494 35.9893 83.607 35.7732 83.711 35.5303C84.041 34.9533 85.053 33.0302 84.671 32.3592C84.371 31.8342 82.671 31.7922 82.071 31.6092C79.6721 30.8137 77.3413 29.8261 75.101 28.6562Z" fill="#469DF4"/>
<path d="M75.101 28.6562C75.174 29.1883 74.616 29.6013 74.509 30.1283C74.372 30.7803 74.941 31.3452 75.454 31.7702C77.3167 33.3925 79.3056 34.8638 81.402 36.1702C81.7376 36.4141 82.1442 36.5406 82.559 36.5303C82.8141 36.4615 83.0503 36.3357 83.2498 36.1625C83.4494 35.9893 83.607 35.7732 83.711 35.5303C84.041 34.9533 85.053 33.0302 84.671 32.3592C84.371 31.8342 82.671 31.7922 82.071 31.6092C79.6721 30.8137 77.3413 29.8261 75.101 28.6562Z" fill="url(#paint1_linear)"/>
<path d="M43.8684 37.1337C44.2376 41.674 44.0944 46.2415 43.4414 50.7497C43.3779 50.9542 43.3643 51.171 43.4017 51.3818C43.4391 51.5927 43.5264 51.7915 43.6564 51.9617C43.8085 52.0738 43.9924 52.1343 44.1814 52.1343C44.3703 52.1343 44.5543 52.0738 44.7064 51.9617C45.0034 51.7269 45.24 51.4245 45.3964 51.0797C46.3614 49.1662 47.1681 47.1769 47.8084 45.1317C48.7561 42.8295 49.272 40.3726 49.3304 37.8837C49.2634 36.1617 48.7554 34.4697 48.8304 32.7477C49.1073 32.9549 49.3415 33.2137 49.5204 33.5097C50.4855 34.7156 51.1956 36.105 51.6074 37.5937C51.7336 38.3313 51.7839 39.0799 51.7574 39.8277C51.7387 43.133 51.583 46.4331 51.2904 49.7277C51.1903 50.2596 51.2466 50.8091 51.4524 51.3097C51.5095 51.4291 51.5911 51.5353 51.6918 51.6213C51.7925 51.7072 51.9101 51.7711 52.037 51.8088C52.164 51.8465 52.2974 51.8572 52.4287 51.8401C52.56 51.823 52.6863 51.7786 52.7994 51.7097C52.9382 51.5739 53.0457 51.4094 53.1144 51.2277C54.4429 47.9182 55.2563 44.4247 55.5264 40.8687C55.9013 38.65 55.8884 36.383 55.4884 34.1687C55.2152 33.1301 54.8615 32.1143 54.4304 31.1307L52.5614 26.5367C52.5071 26.3389 52.414 26.1538 52.2875 25.9922C52.161 25.8307 52.0037 25.6959 51.8247 25.5957C51.6457 25.4955 51.4485 25.4318 51.2447 25.4085C51.0409 25.3851 50.8344 25.4026 50.6374 25.4597C48.998 25.471 47.362 25.5544 45.7294 25.7097C45.2774 25.7547 44.3224 25.6677 43.9504 25.9967C43.5784 26.3257 43.5654 27.3587 43.5054 27.8537C43.1364 30.9387 43.6184 34.0497 43.8684 37.1337Z" fill="#1CD39B"/>
<path d="M7.75042 65.4065C9.00042 70.8175 8.31242 76.4605 8.48042 82.0065C8.50042 82.5985 8.59242 83.3015 9.12042 83.5705C9.35758 83.6504 9.60989 83.6751 9.85806 83.6427C10.1062 83.6103 10.3437 83.5217 10.5524 83.3835C11.3168 83.0096 12.0498 82.5749 12.7444 82.0835C12.9794 81.9165 13.2444 81.6585 13.1444 81.3835C13.0694 81.1565 12.7944 81.0765 12.5574 81.0385C12.0128 80.9532 11.4612 80.9214 10.9104 80.9435L12.4104 69.4675C12.6149 68.3752 12.6403 67.2569 12.4854 66.1565C12.3734 65.5895 12.1854 64.9315 12.5524 64.4845C13.8594 66.5765 16.3614 67.8335 17.2604 70.1325C17.6127 71.2266 17.7634 72.3755 17.7054 73.5235L17.8054 84.1605C17.7733 84.436 17.8505 84.7132 18.0204 84.9325C18.1622 85.0325 18.3278 85.0937 18.5006 85.1099C18.6735 85.126 18.8475 85.0966 19.0054 85.0245C20.0194 84.738 20.9659 84.2518 21.7894 83.5945C22.0144 83.4145 22.2444 83.0945 22.0644 82.8775C21.9597 82.7796 21.8227 82.7237 21.6794 82.7205L19.8404 82.4705C20.7368 78.5313 21.1322 74.4947 21.0174 70.4565C21.0573 69.5292 21.0181 68.6001 20.9004 67.6795C20.6492 66.3896 20.2405 65.1356 19.6834 63.9455C18.8868 62.0495 18.0737 60.1601 17.2444 58.2775C17.1849 58.0898 17.0645 57.9272 16.9024 57.8155C16.7553 57.7528 16.5936 57.732 16.4354 57.7555L11.4524 58.0055C10.3004 58.0675 8.66342 57.8605 7.64142 58.5275C5.60342 59.8885 7.34842 63.6565 7.75042 65.4065Z" fill="#1CD39B"/>
<path d="M9.04422 34.1542C9.76083 33.1765 10.6142 32.307 11.5782 31.5722C12.6443 30.5449 13.9567 29.809 15.3892 29.4352C15.7962 29.3237 16.2272 29.3354 16.6275 29.4689C17.0278 29.6024 17.3796 29.8517 17.6382 30.1852C17.8151 30.6237 17.8328 31.1103 17.6881 31.5605C17.5434 32.0106 17.2455 32.3959 16.8462 32.6492C16.0353 33.1327 15.1801 33.5379 14.2922 33.8592C13.4935 34.2207 12.8158 34.8046 12.3402 35.5412C12.0863 36.0086 11.8732 36.4971 11.7032 37.0012C11.4505 37.7187 11.0629 38.3813 10.5612 38.9532C10.3092 39.2373 10.0018 39.467 9.65792 39.6281C9.31401 39.7892 8.94082 39.8784 8.56122 39.8902C8.00922 39.8902 6.56122 43.3342 6.23722 42.8692C5.83722 42.2972 6.96422 38.2692 7.26722 37.7162C7.91722 36.5612 8.30722 35.2662 9.04422 34.1542Z" fill="#469DF4"/>
<path d="M16.2948 31.6465C16.5448 31.6465 16.8498 31.6985 16.9618 31.9285C17.0968 32.2005 16.8669 32.5105 16.6399 32.7085C16.1283 33.1381 15.5553 33.4886 14.9398 33.7485C14.6178 33.8935 14.2878 34.0185 13.9548 34.1385C13.7448 34.2135 13.2048 34.5135 12.9848 34.4535C12.4528 34.3035 12.9448 33.2535 13.1098 32.9535C13.3062 32.6272 13.601 32.3716 13.9518 32.2235C14.6748 31.8447 15.4787 31.6467 16.2948 31.6465Z" fill="url(#paint2_linear)"/>
<path d="M82.2222 27.099C82.1307 27.319 82.0857 27.5557 82.0901 27.794C82.1576 28.0343 82.2586 28.2639 82.3902 28.476C82.5972 28.956 82.5422 29.576 82.9322 29.918C83.0914 30.0261 83.2721 30.0987 83.4618 30.131C83.6516 30.1633 83.8461 30.1544 84.0322 30.105C84.1075 30.0801 84.1888 30.0801 84.2642 30.105C84.3086 30.132 84.3436 30.1722 84.3642 30.22C84.4434 30.4754 84.4772 30.7428 84.4642 31.01C84.4684 31.0662 84.4874 31.1204 84.5192 31.167C84.5547 31.2021 84.5974 31.2292 84.6443 31.2464C84.6912 31.2637 84.7413 31.2707 84.7912 31.267C85.1393 31.261 85.4843 31.1996 85.8132 31.085C86.0871 31.0339 86.3386 30.8994 86.5332 30.7C86.6566 30.5109 86.7242 30.2908 86.7281 30.065C86.7645 29.3102 86.7006 28.5539 86.5382 27.816C86.4559 27.249 86.2873 26.6979 86.0382 26.182C85.9117 25.9238 85.7349 25.6934 85.5182 25.5045C85.3015 25.3156 85.0492 25.172 84.7761 25.082C84.5929 25.0352 84.4051 25.0084 84.2161 25.002C83.8541 24.9842 83.4912 24.9966 83.1312 25.039C82.9092 25.064 82.6061 25.086 82.4661 25.289C82.3664 25.5185 82.3318 25.7711 82.3661 26.019C82.3626 26.3835 82.3143 26.7462 82.2222 27.099Z" fill="url(#paint3_linear)"/>
<path d="M85.4509 23.4392C84.5286 23.4735 83.6127 23.2732 82.7889 22.8572C82.5846 22.7154 82.3359 22.6525 82.0889 22.6802C81.9664 22.7254 81.8609 22.8073 81.7866 22.9147C81.7123 23.022 81.673 23.1497 81.6738 23.2802C81.6849 23.5418 81.7532 23.7978 81.8739 24.0302C82.0525 24.5 82.293 24.9439 82.5889 25.3502C83.0289 25.9052 83.6658 26.3252 83.9158 26.9842C83.9508 27.0742 83.9978 27.1842 84.0928 27.1842C84.1878 27.1842 84.2579 27.0242 84.3179 26.9122C84.3469 26.8627 84.3862 26.82 84.4332 26.787C84.4802 26.7541 84.5337 26.7316 84.5902 26.7212C84.6466 26.7107 84.7047 26.7126 84.7604 26.7266C84.816 26.7405 84.868 26.7663 84.9129 26.8022C84.9825 26.8765 85.0306 26.9683 85.052 27.0678C85.0735 27.1673 85.0676 27.2708 85.0349 27.3672C84.9675 27.559 84.8839 27.7447 84.7849 27.9222C84.7544 27.9776 84.7367 28.0391 84.7329 28.1022C84.7329 28.2722 84.8979 28.3842 85.0249 28.4972C85.1484 28.6053 85.2503 28.736 85.3248 28.8822C85.382 29.0278 85.4669 29.161 85.5748 29.2742C85.6678 29.3408 85.7762 29.3828 85.8898 29.3962C86.1833 29.448 86.4856 29.4096 86.7569 29.2862C86.9773 29.1667 87.168 28.999 87.3147 28.7955C87.4613 28.5921 87.5602 28.3582 87.6039 28.1112C87.6901 27.6142 87.6826 27.1055 87.5819 26.6112C87.5299 26.2692 87.4669 25.9262 87.3919 25.5892C87.3265 25.0765 87.0959 24.5991 86.7348 24.2292C86.4621 24.0684 86.2102 23.8746 85.9848 23.6522C85.7978 23.6192 85.6229 23.4322 85.4509 23.4392Z" fill="#3E3E54"/>
<path d="M45.0097 8.16851L43.8296 8.70351C43.5104 8.82757 43.2101 8.99588 42.9376 9.20351C42.601 9.50395 42.3617 9.89815 42.2507 10.3355C42.1429 10.7708 42.1057 11.2205 42.1407 11.6675C42.3607 15.3535 41.9637 18.8955 42.1407 22.5865C42.1279 23.29 42.2456 23.9898 42.4877 24.6505C42.8059 25.2538 43.2768 25.7632 43.8534 26.1276C44.43 26.4921 45.0921 26.6989 45.7736 26.7275C47.1364 26.7632 48.4949 26.5601 49.7877 26.1275C50.8598 25.953 51.8468 25.4367 52.6017 24.6555C53.5787 23.3855 53.1366 21.5785 52.7586 20.0215C52.1963 17.7065 51.8739 15.3396 51.7966 12.9585C51.7695 12.8717 51.7642 12.7795 51.7812 12.6901C51.7981 12.6008 51.8368 12.517 51.8939 12.4461C51.9509 12.3752 52.0245 12.3195 52.1082 12.2838C52.1919 12.2481 52.283 12.2336 52.3737 12.2415L62.4736 10.9265C62.6424 10.7511 62.7715 10.5415 62.8523 10.3119C62.933 10.0823 62.9636 9.83799 62.9418 9.59556C62.9199 9.35314 62.8463 9.11822 62.7259 8.9067C62.6054 8.69518 62.441 8.51199 62.2436 8.36951C61.4136 7.60451 52.2817 7.10251 49.0227 7.77751C47.7407 8.05151 46.1887 7.63651 45.0097 8.16851Z" fill="#469DF4"/>
<path d="M52.4265 19.4953L52.5085 20.5803C52.5085 20.5803 45.9955 19.9133 44.9085 18.6613C43.8215 17.4093 44.5735 26.3443 44.5735 26.3443C44.5735 26.3443 42.8245 27.0113 40.8245 23.9223C38.8245 20.8333 42.1015 10.7113 42.2565 10.3443C42.4115 9.97733 52.4265 19.4953 52.4265 19.4953Z" fill="url(#paint4_linear)"/>
<path d="M62.4707 8.75077C62.3114 8.78919 62.1654 8.86982 62.048 8.98421C61.9307 9.09859 61.8463 9.24249 61.8037 9.40077C61.7855 9.58174 61.8182 9.76421 61.898 9.92763C61.9779 10.0911 62.1018 10.2289 62.2557 10.3258C62.5682 10.5128 62.9046 10.6564 63.2557 10.7528C63.9116 11.0694 64.6132 11.281 65.3348 11.3798C65.5848 11.3798 65.8898 11.3228 65.9868 11.0878C66.0127 10.9718 66.0078 10.8512 65.9727 10.7377C65.9376 10.6242 65.8735 10.5219 65.7868 10.4408C65.5248 10.1209 65.2103 9.84799 64.8568 9.63377C64.8017 9.60739 64.7544 9.56706 64.7198 9.51677C64.6198 9.34477 64.8648 9.14677 64.8298 8.95177C64.8083 8.88325 64.7631 8.82468 64.7022 8.7867C64.6412 8.74872 64.5687 8.73384 64.4977 8.74477C64.3563 8.76766 64.2181 8.80693 64.0858 8.86177C63.5228 9.04277 63.0727 8.58777 62.4707 8.75077Z" fill="url(#paint5_linear)"/>
<path d="M43.1138 51.9266C42.9386 52.2702 42.88 52.6616 42.9468 53.0416C43.0299 53.4008 43.2158 53.7281 43.4818 53.9836C43.7484 54.2373 44.0477 54.4542 44.3718 54.6286C44.9489 55.0086 45.6248 55.211 46.3158 55.2106C46.4195 55.2079 46.5216 55.1841 46.6158 55.1406C46.7312 55.0666 46.8195 54.9573 46.8677 54.8289C46.9158 54.7006 46.9211 54.5602 46.8828 54.4286C46.7975 54.1676 46.6558 53.9286 46.4678 53.7286C46.1489 53.366 45.8798 52.9624 45.6678 52.5286C45.5428 52.2436 45.4678 51.9416 45.3478 51.6566C45.2394 51.3633 45.0363 51.1146 44.7708 50.9496C44.0758 50.5796 43.3868 51.3836 43.1138 51.9266Z" fill="#1CD49C"/>
<path d="M50.8334 52.8661C50.8409 52.9929 50.8805 53.1157 50.9485 53.2231C51.0541 53.3394 51.1887 53.4256 51.3384 53.4731C52.5389 54.0397 53.8034 54.4594 55.1045 54.7231C55.4495 54.7801 55.9044 54.7551 56.0194 54.4231C56.0423 54.3188 56.0413 54.2107 56.0168 54.1069C55.9922 54.003 55.9446 53.906 55.8774 53.8231C55.3037 53.1507 54.6921 52.5116 54.0454 51.9091C53.7853 51.528 53.4936 51.1694 53.1734 50.8371C51.7654 49.6231 50.6764 51.5951 50.8334 52.8661Z" fill="#1CD49C"/>
<path opacity="0.18" d="M79.2402 52.763L57.1602 41.932V0L79.2402 12.636V52.763Z" fill="#469DF4"/>
<path opacity="0.18" d="M76.1152 54.22L54.0352 43.391V1.45703L76.1152 14.093V54.22Z" fill="#469DF4"/>
<path d="M14.2698 32.1173C14.4348 32.2073 14.6298 32.2973 14.6818 32.4773C14.7638 32.7593 14.4318 32.9773 14.2918 33.2273C14.1804 33.5481 14.1411 33.8895 14.1768 34.2273C14.1526 34.5069 14.0571 34.7756 13.8996 35.0079C13.742 35.2402 13.5277 35.4283 13.2768 35.5543C12.973 35.6552 12.6813 35.7894 12.4068 35.9543C11.8618 36.3863 11.9298 37.2993 11.4068 37.7483C11.2192 37.8945 10.9989 37.993 10.7648 38.0353C10.445 38.1269 10.1033 38.105 9.79784 37.9733C9.49414 37.7974 9.26301 37.5191 9.14584 37.1883C8.90653 36.4946 8.78815 35.765 8.79584 35.0313C8.60724 33.4105 8.98034 31.7741 9.85284 30.3953C10.0159 30.1695 10.2222 29.9785 10.4598 29.8333C10.8741 29.6485 11.3329 29.5872 11.7811 29.6568C12.2294 29.7263 12.648 29.9237 12.9868 30.2253C13.163 30.4701 13.2925 30.7454 13.3688 31.0373C13.5361 31.4901 13.8543 31.8715 14.2698 32.1173Z" fill="url(#paint6_linear)"/>
<path d="M12.4489 31.7145C12.2185 31.9733 11.9092 32.149 11.5689 32.2145C11.2739 32.2465 10.9339 32.1495 10.6989 32.3345C10.6054 32.4287 10.542 32.5486 10.5167 32.6789C10.4914 32.8092 10.5054 32.9441 10.5569 33.0665C10.6419 33.3165 10.8069 33.5415 10.8869 33.7915C11.023 34.4141 10.9345 35.0648 10.6369 35.6285C10.566 35.8992 10.41 36.14 10.1919 36.3155C10.0193 36.4136 9.82348 36.4637 9.62491 36.4604C9.24003 36.495 8.85347 36.4161 8.51291 36.2335C8.1537 35.991 7.88062 35.6409 7.73292 35.2335C7.38765 34.2564 7.25569 33.2168 7.34591 32.1845C7.34737 31.7763 7.38924 31.3693 7.47091 30.9695C7.63002 30.349 7.96283 29.7869 8.43029 29.349C8.89774 28.9111 9.48042 28.6157 10.1099 28.4975C10.8154 28.4347 11.5238 28.4107 12.2319 28.4255C12.6319 28.3975 13.3689 28.0855 13.6639 28.5205C13.9589 28.9555 13.6039 29.7875 13.4469 30.1875C13.2216 30.759 12.882 31.2786 12.4489 31.7145Z" fill="#3E3E54"/>
<path d="M7.57636 38.4331C7.12042 38.9931 6.78753 39.6429 6.59936 40.3401C5.87566 43.1542 5.61392 46.0671 5.82436 48.9651L5.95936 56.2131C5.85695 57.2844 6.13679 58.3573 6.74936 59.2421C7.14846 59.5985 7.6153 59.8707 8.122 60.0425C8.62869 60.2143 9.16483 60.2822 9.69836 60.2421C11.7629 60.2851 13.8149 59.911 15.7314 59.1421C16.401 58.9276 16.9974 58.5304 17.4534 57.9951C18.2034 56.9781 17.9534 55.5581 17.6804 54.3211C16.947 51.1125 16.2114 47.9045 15.4734 44.6971C14.9734 42.4851 14.2864 40.0971 12.5844 38.4691C11.9176 37.8142 11.0222 37.4443 10.0876 37.4376C9.15306 37.4309 8.25249 37.7879 7.57636 38.4331Z" fill="#469DF4"/>
<path d="M15.6842 46.091C15.6842 46.091 13.7422 43.712 12.4352 44.651C11.1282 45.59 16.5692 55.672 14.9352 59.306C15.4372 59.3575 15.9431 59.2608 16.3908 59.028C16.8384 58.7952 17.2081 58.4365 17.4542 57.996C18.1912 56.486 18.1292 56.174 17.8792 55.547C17.6292 54.92 15.6842 46.091 15.6842 46.091Z" fill="url(#paint7_linear)"/>
<path d="M13.0685 39.7171C12.8147 39.7002 12.5601 39.7325 12.3185 39.8121C12.0954 39.9189 11.8978 40.0724 11.7391 40.2622C11.5804 40.4519 11.4642 40.6736 11.3985 40.9121C11.1836 41.7988 11.2512 42.7306 11.5919 43.5771C11.9326 44.4235 12.5292 45.1424 13.2985 45.6331C14.7835 46.6831 15.3255 46.1681 17.1295 46.4131C17.478 46.4868 17.838 46.4868 18.1865 46.4131C18.7453 46.1743 19.1983 45.7407 19.4615 45.193C20.3765 43.706 22.9455 39.4821 22.8325 38.9201C22.6805 38.1431 22.5105 38.34 21.8655 37.878C21.7902 37.7912 21.6944 37.7245 21.587 37.6838C21.4795 37.643 21.3636 37.6296 21.2496 37.6447C21.1357 37.6597 21.0272 37.7028 20.934 37.7701C20.8408 37.8373 20.7657 37.9267 20.7155 38.0301L17.4865 41.8141C17.3615 41.9611 17.2015 42.1211 17.0095 42.0991C16.899 42.0733 16.7979 42.0172 16.7175 41.9371C15.5625 40.9641 14.6455 39.7171 13.0685 39.7171Z" fill="#469DF4"/>
<path d="M20.2182 36.571C20.1923 36.5481 20.1721 36.5194 20.1591 36.4873C20.146 36.4552 20.1406 36.4206 20.1432 36.386C20.1582 36.301 20.2532 36.261 20.3382 36.236C20.5109 36.1885 20.6891 36.1633 20.8682 36.161C20.9878 36.1715 21.1081 36.1519 21.2182 36.104C21.3253 36.0292 21.4003 35.9167 21.4282 35.789C21.5427 35.0937 21.5427 34.3844 21.4282 33.689C21.4282 33.542 21.4632 33.347 21.6082 33.332C21.8706 33.8394 22.063 34.38 22.1802 34.939C22.2028 35.0766 22.2421 35.211 22.2972 35.339C22.3967 35.4999 22.5236 35.642 22.6722 35.759C22.9138 35.9526 23.1006 36.206 23.2142 36.494C23.2605 36.7157 23.2622 36.9443 23.2193 37.1667C23.1764 37.389 23.0897 37.6005 22.9642 37.789C22.9141 37.9 22.8252 37.9889 22.7142 38.039C22.6325 38.0621 22.5459 38.0621 22.4642 38.039C22.0307 37.9531 21.6389 37.7234 21.3522 37.387C21.0332 37.052 20.5382 36.93 20.2182 36.571Z" fill="url(#paint8_linear)"/>
<path d="M18.1259 33.0955C18.2559 33.2175 18.4209 33.3455 18.5929 33.2955C18.8149 33.2405 18.8749 32.9435 18.8099 32.7235C18.7123 32.517 18.6288 32.3042 18.5599 32.0865C18.5459 32.0286 18.553 31.9676 18.5799 31.9145C18.6162 31.8686 18.6647 31.8339 18.7199 31.8145C19.2265 31.5982 19.7693 31.4794 20.3199 31.4645C20.4699 31.4645 20.6769 31.3795 20.6419 31.2325C20.6069 31.0855 20.4669 31.0975 20.3519 31.0975H19.3799C19.3142 31.1046 19.2481 31.0887 19.1929 31.0525C19.1495 31.0009 19.1227 30.9375 19.1159 30.8705C19.0475 30.6677 18.9233 30.4884 18.7576 30.353C18.5918 30.2177 18.3912 30.1319 18.1789 30.1055C17.7577 30.063 17.3323 30.1073 16.9289 30.2355C16.6776 30.2705 16.4479 30.3969 16.2839 30.5905C16.2157 30.7542 16.1923 30.933 16.216 31.1087C16.2397 31.2845 16.3098 31.4507 16.4189 31.5905C16.6489 31.9805 16.8759 31.9705 17.2139 32.1625C17.5519 32.3545 17.8329 32.8275 18.1259 33.0955Z" fill="url(#paint9_linear)"/>
<path d="M55.0319 18.3057C55.1254 18.3346 55.208 18.391 55.2689 18.4677C55.3059 18.5358 55.3248 18.6122 55.3238 18.6897C55.339 19.0607 55.2812 19.431 55.1539 19.7797C55.1366 19.8494 55.096 19.9112 55.0388 19.9547C54.9905 19.9804 54.9366 19.9941 54.8818 19.9947C51.0708 20.1197 47.3819 18.6227 44.0279 16.8287C43.5821 16.641 43.2001 16.3285 42.9279 15.9287C42.766 15.5781 42.6971 15.1917 42.7279 14.8067C42.7846 13.594 42.952 12.389 43.2279 11.2067C43.3029 10.8397 43.5199 10.3417 43.9779 10.5867C44.3281 10.8824 44.6426 11.218 44.9149 11.5867C45.6215 12.2834 46.3595 12.95 47.1289 13.5867C48.6427 14.8198 50.2665 15.9114 51.9799 16.8477C52.9702 17.3884 53.989 17.8751 55.0319 18.3057Z" fill="#469DF4"/>
<path d="M56.8417 18.2087C56.9767 18.1287 57.1687 18.0467 57.2617 18.1717C57.3547 18.2967 57.2297 18.4537 57.1117 18.5487C56.9937 18.6437 56.8617 18.7987 56.9347 18.9207C56.977 18.9796 57.0392 19.0212 57.1097 19.0377C57.9581 19.1896 58.8221 19.235 59.6817 19.1727C59.751 19.1739 59.8192 19.1899 59.8817 19.2197C59.9402 19.2622 59.9868 19.319 60.017 19.3847C60.0471 19.4504 60.0597 19.5227 60.0537 19.5947C60.0444 19.7678 59.9974 19.9367 59.9158 20.0895C59.8343 20.2424 59.7202 20.3756 59.5817 20.4797C59.3025 20.6856 58.9844 20.8325 58.6467 20.9117C58.2287 21.0517 57.7829 21.0885 57.3476 21.0188C56.9123 20.9492 56.5003 20.7752 56.1467 20.5117C55.6947 20.2317 55.2767 19.8967 54.8217 19.6247C54.7271 19.5821 54.6471 19.5125 54.5917 19.4247C54.5686 19.3729 54.5573 19.3165 54.5587 19.2597C54.5568 19.1656 54.5749 19.0722 54.6118 18.9856C54.6487 18.899 54.7036 18.8213 54.7728 18.7575C54.842 18.6937 54.9239 18.6453 55.0132 18.6155C55.1025 18.5857 55.1971 18.5752 55.2907 18.5847C55.8327 18.6069 56.3701 18.4767 56.8417 18.2087Z" fill="url(#paint10_linear)"/>
<path d="M49.3611 5.90388C49.3895 6.37337 49.3214 6.84371 49.1611 7.28588C49.0781 7.50412 48.9406 7.69746 48.7617 7.84749C48.5828 7.99751 48.3684 8.0992 48.1391 8.14288C48.0356 8.1431 47.9334 8.16526 47.8391 8.20788C47.7755 8.26697 47.7273 8.34063 47.6985 8.42251C47.6698 8.50439 47.6614 8.59203 47.6741 8.67788L47.6441 9.55988C47.6544 9.68244 47.6302 9.80544 47.5741 9.91489C47.4979 10.0117 47.3928 10.0818 47.2741 10.1149C46.9999 10.2266 46.6958 10.2415 46.4121 10.1569C46.1644 10.0501 45.9509 9.87711 45.7951 9.65688C45.3712 9.12549 45.1023 8.48737 45.0181 7.81288C45.0448 7.22762 44.9135 6.64596 44.6381 6.12888C44.4928 5.98583 44.3667 5.82448 44.2631 5.64888C44.1831 5.46188 44.2631 5.18388 44.4631 5.16688C44.6631 5.14988 44.7901 5.34888 44.9751 5.34388C44.8876 4.91291 44.8484 4.47354 44.8581 4.03388C44.8688 3.59087 45.024 3.1635 45.3001 2.81688C45.497 2.61352 45.7334 2.45255 45.9948 2.34387C46.2562 2.23519 46.537 2.18109 46.8201 2.18488C47.2187 2.15429 47.6188 2.2222 47.985 2.38263C48.3512 2.54307 48.6723 2.7911 48.9201 3.10488C49.2914 3.98844 49.4428 4.94894 49.3611 5.90388Z" fill="url(#paint11_linear)"/>
<path d="M49.2996 3.59139C49.426 3.26441 49.4822 2.9145 49.4646 2.56439V1.31639C49.4804 1.08152 49.4386 0.84634 49.3426 0.631387C49.1871 0.432747 48.9757 0.285173 48.7357 0.207651C48.4956 0.130129 48.2379 0.126207 47.9956 0.196387C47.3186 0.348172 46.6683 0.601005 46.0666 0.946388C45.5563 1.18092 45.0803 1.48369 44.6516 1.84639C44.2174 2.21606 43.9476 2.74297 43.9016 3.31139C43.909 3.46078 43.9013 3.61054 43.8786 3.75839C43.8019 3.95668 43.704 4.14612 43.5866 4.32339C43.4823 4.61164 43.4557 4.92228 43.5096 5.22405C43.5635 5.52582 43.6959 5.80807 43.8936 6.04239C44.2486 6.54239 44.7306 6.94239 45.0686 7.45239C45.1228 7.39972 45.1609 7.33279 45.1786 7.25934C45.1963 7.1859 45.1928 7.10894 45.1686 7.03739C45.1164 6.89553 45.0414 6.76313 44.9466 6.64539C44.7303 6.36711 44.5829 6.04156 44.5166 5.69539C44.4911 5.5591 44.5122 5.41819 44.5766 5.29539C44.6116 5.23592 44.666 5.19033 44.7306 5.16628C44.7953 5.14224 44.8663 5.14122 44.9316 5.16339C44.9895 5.19875 45.0403 5.24452 45.0816 5.29839C45.1958 5.42437 45.3278 5.53286 45.4736 5.62039C45.4941 5.63611 45.5199 5.64327 45.5456 5.64039C45.5856 5.64039 45.5976 5.58339 45.6026 5.54039C45.6546 4.98839 45.3526 4.43339 45.4676 3.89139C45.4761 3.83622 45.5012 3.78494 45.5396 3.74439C45.5809 3.71373 45.6302 3.69567 45.6816 3.69239C46.4316 3.59239 47.2466 4.19239 47.9586 3.86239C48.19 3.72153 48.3907 3.53549 48.5486 3.31539C48.6486 3.19339 48.7686 2.96539 48.9336 3.03039C49.0763 3.20181 49.1979 3.38983 49.2956 3.59039L49.2996 3.59139Z" fill="#B7A451"/>
<path d="M80.7165 40.8763C78.7875 42.9503 75.5835 43.6103 72.9165 44.5653C72.4561 43.8581 72.0716 43.1042 71.7695 42.3163C72.8352 42.1116 73.7961 41.5415 74.4865 40.7043C76.9705 38.2503 79.1645 35.5213 81.4165 32.8543C81.8246 32.3397 82.2843 31.8682 82.7885 31.4473C84.1803 30.5151 85.8135 30.0088 87.4885 29.9903C88.7155 29.8903 88.9885 31.6993 89.1885 32.9143C89.7122 36.7442 89.8852 40.6139 89.7055 44.4753C89.7074 45.6248 89.6466 46.7735 89.5235 47.9163C89.5258 48.2359 89.4527 48.5516 89.3103 48.8378C89.1678 49.1239 88.9599 49.3725 88.7035 49.5633C88.4399 49.6773 88.1557 49.7358 87.8685 49.7353C85.4684 49.9194 83.0556 49.8557 80.6685 49.5453C80.2764 49.5378 79.8994 49.3926 79.6035 49.1353C79.4322 48.9263 79.3293 48.6697 79.3085 48.4003C79.3058 47.3035 79.5164 46.2167 79.9285 45.2003C80.2865 43.8503 80.9765 42.2533 80.7165 40.8763Z" fill="#469DF4"/>
<path d="M88.6664 48.9132C88.0989 53.5799 87.8177 58.2771 87.8244 62.9782C87.8664 65.0352 88.0244 67.0942 87.9014 69.1492C87.9223 69.4172 87.8816 69.6865 87.7824 69.9364C87.6833 70.1864 87.5283 70.4103 87.3294 70.5912C87.0907 70.7025 86.8294 70.7568 86.5662 70.7499C86.3029 70.7429 86.0449 70.6749 85.8124 70.5512C85.0325 70.2619 84.2798 69.9039 83.5634 69.4812C83.455 69.4348 83.3664 69.3516 83.3134 69.2462C83.2971 69.1706 83.3031 69.092 83.3306 69.0198C83.3581 68.9475 83.406 68.8848 83.4684 68.8392C83.9684 68.3992 84.9484 68.6222 85.2524 68.0222C85.3212 67.8646 85.3553 67.6941 85.3524 67.5222C85.5038 65.3272 85.3812 63.1219 84.9874 60.9572C84.8354 60.2072 84.6324 59.4422 84.4754 58.6832C84.2884 57.7912 84.1654 56.8832 84.0404 55.9832L83.6684 53.2832C82.5637 55.5499 81.3524 57.7592 80.0344 59.9112C80.0094 63.7552 79.5974 67.8732 79.5194 71.7112C79.5411 71.8957 79.5248 72.0828 79.4715 72.2608C79.4182 72.4388 79.329 72.604 79.2094 72.7462C79.0081 72.9009 78.7632 72.9884 78.5094 72.9962C77.0994 73.1462 75.4574 72.4962 75.0754 71.1242C75.0191 70.9822 75.0191 70.8242 75.0754 70.6822C75.3254 70.2322 76.0624 70.7172 76.5104 70.4672C76.624 70.3723 76.7144 70.2527 76.7745 70.1175C76.8347 69.9823 76.863 69.8351 76.8574 69.6872C77.1846 66.278 77.0629 62.8407 76.4954 59.4632C76.2592 58.3966 76.1451 57.3066 76.1554 56.2142C76.3548 54.6456 76.8581 53.131 77.6374 51.7552L78.8374 49.2862C78.9738 48.9221 79.2094 48.6034 79.5174 48.3662C79.7993 48.2159 80.113 48.1353 80.4324 48.1312C83.2002 48.0029 85.9722 48.2661 88.6664 48.9132Z" fill="#1CD39B"/>
<path d="M70.2457 42.2385C69.7234 41.9772 69.1558 41.8187 68.5737 41.7715C68.5458 41.8165 68.5311 41.8685 68.5311 41.9215C68.5311 41.9745 68.5458 42.0264 68.5737 42.0715C68.6187 42.1715 68.6937 42.2515 68.7387 42.3485C68.7473 42.362 68.7529 42.3772 68.7551 42.3931C68.7574 42.4089 68.7562 42.4251 68.7517 42.4405C68.7317 42.4775 68.6817 42.4855 68.6397 42.4875L66.5527 42.6025C66.5993 42.9273 66.7209 43.2369 66.9078 43.5066C67.0947 43.7763 67.3419 43.9988 67.6297 44.1565C68.2111 44.4689 68.864 44.624 69.5237 44.6065C69.8803 44.6188 70.2368 44.5766 70.5807 44.4815C71.0807 44.3365 71.5057 44.0395 71.9807 43.8545C72.1166 43.8138 72.2455 43.7524 72.3627 43.6725C72.4487 43.5866 72.5124 43.4809 72.5481 43.3647C72.5839 43.2485 72.5906 43.1253 72.5677 43.006C72.5448 42.8866 72.493 42.7746 72.4168 42.6799C72.3406 42.5851 72.2424 42.5105 72.1307 42.4625C71.884 42.4124 71.6309 42.4013 71.3807 42.4295C70.9949 42.4242 70.6121 42.3597 70.2457 42.2385Z" fill="url(#paint12_linear)"/>
<path opacity="0.18" d="M54.0352 1.457L57.1591 0L79.2372 12.636L76.1152 14.093L54.0352 1.457Z" fill="#469DF4"/>
<path opacity="0.57" d="M64.7513 17.5527L58.7383 23.2757L65.0733 27.8397C65.0733 27.8397 71.5863 21.8917 71.2963 21.7967C71.0063 21.7017 64.7513 17.5527 64.7513 17.5527Z" fill="#469DF4"/>
<path opacity="0.82" d="M58.7363 23.2773L61.3583 31.3573L66.2863 35.0313L65.0743 27.8373L58.7363 23.2773Z" fill="#469DF4"/>
<path opacity="0.39" d="M71.2952 21.7949L72.3322 27.9949L66.2862 35.0299L65.0742 27.8369L71.2952 21.7949Z" fill="#469DF4"/>
<defs>
<linearGradient id="paint0_linear" x1="72.2895" y1="28.9775" x2="75.4447" y2="28.9775" gradientUnits="userSpaceOnUse">
<stop stop-color="#E5C5D5"/>
<stop offset="0.42" stop-color="#EAD4D1"/>
<stop offset="1" stop-color="#F0E9CB"/>
</linearGradient>
<linearGradient id="paint1_linear" x1="74.4883" y1="32.5935" x2="84.7559" y2="32.5935" gradientUnits="userSpaceOnUse">
<stop stop-opacity="0"/>
<stop offset="0.99"/>
</linearGradient>
<linearGradient id="paint2_linear" x1="14.1918" y1="31.4241" x2="14.8744" y2="35.2848" gradientUnits="userSpaceOnUse">
<stop stop-opacity="0"/>
<stop offset="0.99"/>
</linearGradient>
<linearGradient id="paint3_linear" x1="82.0852" y1="28.131" x2="86.7473" y2="28.131" gradientUnits="userSpaceOnUse">
<stop stop-color="#E5C5D5"/>
<stop offset="0.42" stop-color="#EAD4D1"/>
<stop offset="1" stop-color="#F0E9CB"/>
</linearGradient>
<linearGradient id="paint4_linear" x1="40.1674" y1="18.3695" x2="52.5085" y2="18.3695" gradientUnits="userSpaceOnUse">
<stop stop-opacity="0"/>
<stop offset="0.99"/>
</linearGradient>
<linearGradient id="paint5_linear" x1="61.7904" y1="10.0553" x2="66.0158" y2="10.0553" gradientUnits="userSpaceOnUse">
<stop stop-color="#E5C5D5"/>
<stop offset="0.42" stop-color="#EAD4D1"/>
<stop offset="1" stop-color="#F0E9CB"/>
</linearGradient>
<linearGradient id="paint6_linear" x1="8.75399" y1="33.8684" x2="14.6947" y2="33.8684" gradientUnits="userSpaceOnUse">
<stop stop-color="#867580"/>
<stop offset="0.57" stop-color="#9B8F8E"/>
</linearGradient>
<linearGradient id="paint7_linear" x1="18.9752" y1="58.5453" x2="-5.75344" y2="52.5245" gradientUnits="userSpaceOnUse">
<stop stop-opacity="0"/>
<stop offset="0.99"/>
</linearGradient>
<linearGradient id="paint8_linear" x1="20.1395" y1="35.6989" x2="23.2441" y2="35.6989" gradientUnits="userSpaceOnUse">
<stop stop-color="#867580"/>
<stop offset="0.57" stop-color="#9B8F8E"/>
</linearGradient>
<linearGradient id="paint9_linear" x1="16.1982" y1="31.6982" x2="20.6503" y2="31.6982" gradientUnits="userSpaceOnUse">
<stop stop-color="#867580"/>
<stop offset="0.57" stop-color="#9B8F8E"/>
</linearGradient>
<linearGradient id="paint10_linear" x1="54.5531" y1="19.5803" x2="60.0552" y2="19.5803" gradientUnits="userSpaceOnUse">
<stop stop-color="#E5C5D5"/>
<stop offset="0.42" stop-color="#EAD4D1"/>
<stop offset="1" stop-color="#F0E9CB"/>
</linearGradient>
<linearGradient id="paint11_linear" x1="44.2427" y1="6.19439" x2="49.3775" y2="6.19439" gradientUnits="userSpaceOnUse">
<stop stop-color="#E5C5D5"/>
<stop offset="0.42" stop-color="#EAD4D1"/>
<stop offset="1" stop-color="#F0E9CB"/>
</linearGradient>
<linearGradient id="paint12_linear" x1="66.5407" y1="43.19" x2="72.5689" y2="43.19" gradientUnits="userSpaceOnUse">
<stop stop-color="#E5C5D5"/>
<stop offset="0.42" stop-color="#EAD4D1"/>
<stop offset="1" stop-color="#F0E9CB"/>
</linearGradient>
</defs>
</svg>
