<svg width="163" height="100" viewBox="0 0 163 100" fill="none" xmlns="http://www.w3.org/2000/svg">
<path d="M131.712 24.5589L49.9258 0L30.1959 65.7046L111.982 90.2635L131.712 24.5589Z" fill="#EEF4F9"/>
<path d="M39.1788 100C60.8167 100 78.3577 98.1386 78.3577 95.8423C78.3577 93.5461 60.8167 91.6846 39.1788 91.6846C17.541 91.6846 0 93.5461 0 95.8423C0 98.1386 17.541 100 39.1788 100Z" fill="#223B55"/>
<path d="M42.8156 10.9646H33.3051V24.8247H42.8156V10.9646Z" fill="#2F2E41"/>
<path d="M35.1431 17.3582C35.1431 17.3582 35.5009 24.201 32.3369 24.4816C30.1231 24.6779 36.6541 30.7416 36.6541 30.7416L42.2665 22.9706C42.2665 22.9706 38.0595 23.4014 40.7555 18.6533L35.1431 17.3582Z" fill="#FFB8B8"/>
<path opacity="0.1" d="M42.2667 22.9714L40.4933 25.4276L36.6538 30.7415C36.6538 30.7415 33.4475 27.764 32.2897 25.9154C31.8548 25.2197 31.7077 24.684 32.1298 24.5257C32.1317 24.5244 32.134 24.5239 32.1362 24.5241C32.1968 24.5014 32.2604 24.4874 32.3249 24.4825C32.3286 24.4817 32.3323 24.4812 32.3361 24.4809C32.5205 24.4654 32.7018 24.4245 32.875 24.3594C35.4592 23.3935 35.1426 17.3584 35.1426 17.3584L40.7556 18.6537C38.9565 21.8216 40.231 22.6851 41.2785 22.9074C41.5084 22.9553 41.7425 22.98 41.9773 22.981C42.1548 22.9826 42.2667 22.9714 42.2667 22.9714Z" fill="#223B55"/>
<path d="M43.9164 11.7381C42.8889 14.7805 41.3132 17.5526 38.102 17.5526C34.8908 17.5526 32.4685 14.9443 32.2876 11.7381C32.0564 7.64136 34.8167 5.90673 38.102 5.92371C41.9831 5.94375 45.1359 8.12758 43.9164 11.7381Z" fill="#223B55"/>
<path d="M30.1782 61.178L31.6892 71.7552C31.6892 71.7552 30.3941 78.231 31.0417 82.7641L31.6892 87.5131H34.7113L35.5748 82.5483C35.5748 82.5483 36.4382 77.3676 36.4382 74.9931C36.4382 74.9931 38.8127 64.2 37.3016 62.0414L30.1782 61.178Z" fill="#FFB8B8"/>
<path d="M48.5265 60.5303L47.0154 71.7551C47.0154 71.7551 48.3106 78.2309 47.663 82.764L47.0154 87.513H43.9934L43.1299 82.5481C43.1299 82.5481 42.2665 77.3675 42.2665 74.993C42.2665 74.993 39.892 63.5523 41.403 61.3937L48.5265 60.5303Z" fill="#FFB8B8"/>
<path d="M45.5044 86.8655C45.5044 86.8655 47.2313 86.2179 47.4471 87.0813C47.663 87.9448 48.0947 92.4778 48.0947 92.4778C48.0947 92.4778 49.3899 94.4206 50.2533 94.6365C51.1168 94.8523 53.0595 97.6585 50.6851 97.8744C48.3106 98.0902 45.9361 97.2268 45.9361 96.7951C45.9361 96.3633 45.0727 96.1475 44.6409 96.1475C44.2092 96.1475 42.6982 95.4999 42.914 94.8523C43.1299 94.2047 43.7775 86.6496 43.7775 86.6496L45.5044 86.8655Z" fill="#F6F9FC"/>
<path d="M33.2003 86.8655C33.2003 86.8655 31.4734 86.2179 31.2576 87.0813C31.0417 87.9448 30.61 92.4778 30.61 92.4778C30.61 92.4778 29.3148 94.4206 28.4514 94.6365C27.5879 94.8523 25.6452 97.6585 28.0196 97.8744C30.3941 98.0902 32.7686 97.2268 32.7686 96.7951C32.7686 96.3633 33.632 96.1475 34.0638 96.1475C34.4955 96.1475 36.0065 95.4999 35.7907 94.8523C35.5748 94.2047 34.9272 86.6496 34.9272 86.6496L33.2003 86.8655Z" fill="#F6F9FC"/>
<path d="M38.3809 19.8913C40.8529 19.8913 42.8568 17.8873 42.8568 15.4154C42.8568 12.9434 40.8529 10.9395 38.3809 10.9395C35.909 10.9395 33.905 12.9434 33.905 15.4154C33.905 17.8873 35.909 19.8913 38.3809 19.8913Z" fill="#FFB8B8"/>
<path d="M55.2181 40.0227C55.2181 40.0227 46.1526 43.9086 45.2891 39.8068C44.7581 37.2435 44.3975 34.6477 44.2097 32.0366C44.2088 32.0358 44.2077 32.0352 44.2065 32.035C44.0802 31.9583 39.6138 29.2174 40.4933 25.4274C40.698 24.6065 41.0825 23.8412 41.6191 23.187C41.6191 23.187 41.7518 23.1007 41.9773 22.9807C42.2416 22.8396 42.5145 22.7151 42.7944 22.6081C44.3184 22.0277 46.8531 21.6998 47.4463 25.5601C48.3099 31.1731 48.3099 37.2178 48.3099 37.2178C48.3099 37.2178 50.9005 38.729 54.3546 37.2178C57.8087 35.7067 61.2629 36.5702 61.4788 38.5131C61.6946 40.4545 55.2181 40.0227 55.2181 40.0227Z" fill="#FFB8B8"/>
<path d="M32.3361 24.4807L32.2897 25.9151L31.7748 42.0856L31.6884 44.7722L24.1341 53.1916C24.1341 53.1916 22.6229 57.7235 19.3847 58.3712C16.1464 59.0188 21.5435 52.1122 21.5435 52.1122L28.8836 41.318L28.8947 40.955C28.9774 37.9307 28.7254 34.9064 28.1431 31.9375C27.9277 30.8324 27.8862 29.7004 28.02 28.5825C28.3207 26.1742 30.302 25.13 31.4726 24.719C31.6877 24.6418 31.9072 24.5772 32.1298 24.5255C32.1317 24.5242 32.1339 24.5237 32.1362 24.5239C32.2337 24.4999 32.2993 24.4871 32.3249 24.4823C32.3286 24.4815 32.3323 24.4809 32.3361 24.4807Z" fill="#FFB8B8"/>
<path d="M44.4256 40.0227V40.8863C41.2785 44.7322 34.3127 42.9156 31.7748 42.0856C31.1784 41.8905 30.8265 41.7498 30.8265 41.7498C30.9557 41.4794 31.0292 41.1857 31.0424 40.8863V38.9449C31.0424 38.2973 31.2567 38.729 31.4726 38.5131C31.6885 38.2973 30.8265 37.002 30.8265 37.002C28.6677 35.7067 29.963 32.0367 29.963 32.0367L31.4726 28.7984V24.719C31.6878 24.6419 31.9072 24.5772 32.1298 24.5255C32.1317 24.5242 32.134 24.5237 32.1362 24.5239C32.1969 24.5012 32.2604 24.4872 32.3249 24.4823C32.3286 24.4815 32.3324 24.481 32.3361 24.4807C32.5205 24.4652 32.7019 24.4243 32.875 24.3592C33.2796 25.194 34.1591 26.2926 36.0061 26.4237C38.2178 26.582 40.3142 24.1977 41.2785 22.9072C41.5084 22.9551 41.7425 22.9798 41.9773 22.9808C42.2416 22.8396 42.5146 22.7151 42.7945 22.6082L41.835 26.6396C40.9859 28.7616 44.0994 31.9247 44.2065 32.0351C44.2077 32.0352 44.2089 32.0358 44.2097 32.0367V34.4114L43.9938 37.002L43.7779 37.6496L44.2097 38.2973L43.9938 38.9449L44.2097 39.3767C44.4256 39.8068 44.4256 39.5926 44.4256 40.0227Z" fill="#D4DBE0"/>
<path d="M31.2575 41.5347L30.6099 41.3189C30.6099 41.3189 22.8389 60.7464 28.0196 61.6098C33.2002 62.4733 37.0857 63.9843 37.9492 62.4733C38.8126 60.9623 38.3809 55.5657 38.3809 55.5657L39.2444 55.3499C39.2444 55.3499 37.7333 63.3367 40.7554 62.6891C43.7774 62.0416 52.196 60.9623 52.196 60.0988C52.196 59.2354 44.425 40.5872 44.425 40.5872C44.425 40.5872 41.1871 42.614 31.2575 41.5347Z" fill="#617487"/>
<path d="M38.1021 7.14772C39.3697 7.14772 40.3973 6.12013 40.3973 4.85254C40.3973 3.58496 39.3697 2.55737 38.1021 2.55737C36.8345 2.55737 35.8069 3.58496 35.8069 4.85254C35.8069 6.12013 36.8345 7.14772 38.1021 7.14772Z" fill="#223B55"/>
<path d="M35.3479 3.62843C35.3479 3.05947 35.5593 2.5108 35.941 2.08885C36.3226 1.66691 36.8474 1.40176 37.4135 1.34484C37.338 1.33734 37.2615 1.33325 37.184 1.33325C36.5753 1.33325 35.9915 1.57507 35.5611 2.00549C35.1307 2.43592 34.8889 3.01971 34.8889 3.62842C34.8889 4.23714 35.1307 4.82093 35.5611 5.25136C35.9915 5.68178 36.5753 5.9236 37.184 5.9236C37.2615 5.9236 37.338 5.91951 37.4135 5.91201C36.8474 5.85509 36.3226 5.58994 35.941 5.16799C35.5593 4.74605 35.3479 4.19739 35.3479 3.62843Z" fill="#223B55"/>
<path d="M36.2539 9.65187C36.2539 9.65187 36.206 9.38509 34.3317 10.088C32.4573 10.7909 31.3338 15.9778 32.2709 19.0236C32.6486 20.2511 32.3414 21.1361 31.8399 21.7553C29.9582 24.079 30.6989 27.569 33.4399 28.764C33.5172 28.7977 33.5962 28.831 33.6767 28.864L34.8482 29.5669C34.8482 29.5669 33.3548 27.6019 34.1021 25.0883C34.7511 22.9467 34.8313 20.673 34.3347 18.4909C34.249 18.1229 34.1516 17.7434 34.0409 17.3562C33.1038 14.0761 33.5596 14.4549 36.8397 11.1748C36.8397 11.1748 38.714 12.5805 40.3541 13.2834C41.9941 13.9863 43.3999 14.6892 42.2284 17.0321C41.057 19.3751 38.2454 21.4837 40.1198 24.5295C41.9941 27.5753 42.2284 26.4039 41.9941 27.5753L41.7598 28.7468L43.1656 27.3411L42.2284 29.2154C42.2284 29.2154 45.2742 29.2154 46.2114 26.8725L46.68 27.3411C46.68 27.3411 48.5544 24.0609 45.04 21.0151C45.04 21.0151 43.8685 20.3122 45.5085 17.9693C47.1486 15.6264 45.889 10.589 43.7804 9.65187C41.6717 8.7147 36.2539 9.65187 36.2539 9.65187Z" fill="#223B55"/>
<path d="M60.597 46.1053L66.9 44.1308C66.5511 41.5095 65.7548 38.9675 64.5457 36.6157L58.2427 38.5903C59.7218 40.8225 60.5381 43.4282 60.597 46.1053Z" fill="#3EE5B2"/>
<g filter="url(#filter0_d)">
<path d="M161.673 0.533691H73.0805V36.6742H161.673V0.533691Z" fill="#223B55"/>
</g>
<path d="M85.813 13.988H79.208C78.7572 11.3823 78.7572 8.71852 79.208 6.11279H85.813C85.0689 8.68513 85.0689 11.4157 85.813 13.988Z" fill="white"/>
<path d="M91.5312 17.3425H98.1362C98.587 14.7368 98.587 12.073 98.1362 9.46729H91.5312C92.2753 12.0396 92.2753 14.7702 91.5312 17.3425Z" fill="#3EE5B2"/>
<path d="M106.217 5.78936C107.302 11.2554 107.61 16.8471 107.134 22.3994C107.009 23.845 106.83 25.2846 106.598 26.7181C106.492 27.3698 106.371 28.0184 106.247 28.6668C106.176 29.0384 106.027 29.501 106.26 29.8507C106.715 30.5319 108.275 30.3541 108.962 30.3764C110.391 30.4226 111.823 30.4304 113.253 30.4554L117.556 30.5305L119.627 30.5666C120.333 30.5789 121.106 30.6883 121.806 30.5981C122.728 30.4792 122.503 29.5141 122.489 28.797C122.462 27.3794 122.424 25.9621 122.376 24.545C122.186 18.9293 121.836 13.3221 121.326 7.72331C121.261 7.00904 121.302 6.15449 121.109 5.46385C121.031 5.18464 120.954 5.10391 120.651 5.05376C119.956 4.93887 119.128 5.05985 118.426 5.06474L116.076 5.08109L106.52 5.14759C106.457 5.14975 106.398 5.17596 106.355 5.22071C106.312 5.26546 106.288 5.32525 106.288 5.38746C106.288 5.44968 106.312 5.50947 106.355 5.55422C106.398 5.59897 106.457 5.62518 106.52 5.62734L114.353 5.57283L117.799 5.54884L119.679 5.53576C120.065 5.53307 120.426 5.41608 120.669 5.84119C120.822 6.11018 120.759 6.78283 120.788 7.09581C121.256 12.1153 121.596 17.1446 121.807 22.1836C121.86 23.4428 121.904 24.7024 121.941 25.9622C121.956 26.4871 121.97 27.012 121.982 27.537C121.99 27.852 121.997 28.167 122.003 28.482C122.01 28.8069 122.145 29.4437 122.027 29.7421C121.775 30.3786 120.654 30.1048 120.105 30.0952L118.193 30.0619L114.369 29.9951L110.544 29.9284C109.912 29.9173 109.279 29.9125 108.647 29.8856C108.437 29.8766 108.227 29.8666 108.018 29.8516C107.395 29.8073 106.724 29.9546 106.65 29.0931C106.604 28.5614 106.895 27.8282 106.985 27.2964C107.088 26.6958 107.181 26.0937 107.265 25.4901C107.422 24.3624 107.546 23.231 107.639 22.0958C108.079 16.5997 107.756 11.0694 106.679 5.66182C106.62 5.35922 106.157 5.48732 106.217 5.78935V5.78936Z" fill="#F1F1F1"/>
<path d="M137.72 5.78936C138.805 11.2554 139.113 16.8471 138.637 22.3994C138.512 23.845 138.333 25.2846 138.101 26.7181C137.995 27.3698 137.874 28.0184 137.75 28.6668C137.679 29.0384 137.529 29.501 137.763 29.8507C138.218 30.5319 139.778 30.3541 140.465 30.3764C141.894 30.4226 143.326 30.4304 144.756 30.4554L149.059 30.5305L151.13 30.5666C151.836 30.5789 152.609 30.6883 153.309 30.5981C154.231 30.4792 154.006 29.5141 153.992 28.797C153.965 27.3794 153.927 25.9621 153.879 24.545C153.689 18.9293 153.339 13.3221 152.829 7.72331C152.764 7.00904 152.805 6.15449 152.612 5.46385C152.534 5.18464 152.457 5.10391 152.154 5.05376C151.459 4.93887 150.631 5.05985 149.929 5.06474L147.579 5.08109L138.022 5.14759C137.96 5.14975 137.901 5.17596 137.858 5.22071C137.815 5.26546 137.791 5.32525 137.791 5.38746C137.791 5.44968 137.815 5.50947 137.858 5.55422C137.901 5.59897 137.96 5.62518 138.022 5.62734L145.855 5.57283L149.302 5.54884L151.182 5.53576C151.568 5.53307 151.929 5.41608 152.172 5.84119C152.325 6.11018 152.262 6.78283 152.291 7.09581C152.759 12.1153 153.099 17.1446 153.31 22.1836C153.363 23.4428 153.407 24.7024 153.444 25.9622C153.459 26.4871 153.473 27.012 153.485 27.537C153.493 27.852 153.5 28.167 153.506 28.482C153.513 28.8069 153.648 29.4437 153.53 29.7421C153.278 30.3786 152.157 30.1048 151.608 30.0952L149.696 30.0619L145.872 29.9951L142.047 29.9284C141.415 29.9173 140.782 29.9125 140.15 29.8856C139.94 29.8766 139.73 29.8666 139.521 29.8516C138.898 29.8073 138.227 29.9546 138.152 29.0931C138.107 28.5614 138.397 27.8282 138.488 27.2964C138.591 26.6958 138.684 26.0937 138.768 25.4901C138.924 24.3624 139.049 23.231 139.142 22.0958C139.582 16.5997 139.258 11.0694 138.182 5.66182C138.123 5.35922 137.66 5.48732 137.72 5.78935V5.78936Z" fill="#F1F1F1"/>
<path d="M108.423 7.02418H111.596C111.658 7.02202 111.717 6.99581 111.76 6.95106C111.803 6.90631 111.827 6.84652 111.827 6.78431C111.827 6.72209 111.803 6.6623 111.76 6.61755C111.717 6.5728 111.658 6.54659 111.596 6.54443H108.423C108.361 6.54659 108.302 6.5728 108.258 6.61755C108.215 6.6623 108.191 6.72209 108.191 6.78431C108.191 6.84652 108.215 6.90631 108.258 6.95106C108.302 6.99581 108.361 7.02202 108.423 7.02418Z" fill="#F1F1F1"/>
<path d="M108.423 8.10619L111.413 7.99313C111.721 7.9815 111.723 7.5017 111.413 7.51339L108.423 7.62645C108.115 7.63808 108.113 8.11788 108.423 8.10619Z" fill="#F1F1F1"/>
<path d="M108.423 9.01856H111.324C111.386 9.0164 111.445 8.99019 111.488 8.94544C111.531 8.90069 111.555 8.84091 111.555 8.77869C111.555 8.71647 111.531 8.65668 111.488 8.61194C111.445 8.56719 111.386 8.54097 111.324 8.53882H108.423C108.361 8.54097 108.302 8.56719 108.258 8.61194C108.215 8.65668 108.191 8.71647 108.191 8.77869C108.191 8.84091 108.215 8.90069 108.258 8.94544C108.302 8.99019 108.361 9.0164 108.423 9.01856Z" fill="#F1F1F1"/>
<path d="M118.037 6.79881C117.385 6.45905 116.794 7.01776 116.703 7.65609C116.658 7.96821 116.648 8.39481 116.847 8.65995C117.05 8.93073 117.441 9.04426 117.765 9.06428C118.384 9.1025 119.043 8.75706 119.195 8.1229C119.267 7.84137 119.232 7.54321 119.097 7.28597C118.962 7.02873 118.737 6.83063 118.464 6.72989C118.172 6.6286 118.046 7.09187 118.337 7.1925C118.471 7.24846 118.584 7.34664 118.658 7.47224C118.732 7.59784 118.763 7.74409 118.747 7.88897C118.728 8.0556 118.655 8.21145 118.539 8.33284C118.424 8.45423 118.271 8.53452 118.106 8.5615C117.71 8.65257 117.246 8.55483 117.169 8.10816C117.112 7.774 117.293 6.95168 117.794 7.21306C118.068 7.35572 118.311 6.94185 118.037 6.79882V6.79881Z" fill="#F1F1F1"/>
<path d="M139.926 7.02418H143.099C143.161 7.02202 143.22 6.99581 143.263 6.95106C143.306 6.90631 143.33 6.84652 143.33 6.78431C143.33 6.72209 143.306 6.6623 143.263 6.61755C143.22 6.5728 143.161 6.54659 143.099 6.54443H139.926C139.863 6.54659 139.804 6.5728 139.761 6.61755C139.718 6.6623 139.694 6.72209 139.694 6.78431C139.694 6.84652 139.718 6.90631 139.761 6.95106C139.804 6.99581 139.863 7.02202 139.926 7.02418Z" fill="#F1F1F1"/>
<path d="M139.925 8.10619L142.916 7.99313C143.224 7.9815 143.226 7.5017 142.916 7.51339L139.925 7.62645C139.618 7.63808 139.616 8.11788 139.925 8.10619Z" fill="#F1F1F1"/>
<path d="M139.926 9.01856H142.827C142.889 9.0164 142.948 8.99019 142.991 8.94544C143.034 8.90069 143.058 8.84091 143.058 8.77869C143.058 8.71647 143.034 8.65668 142.991 8.61194C142.948 8.56719 142.889 8.54097 142.827 8.53882H139.926C139.863 8.54097 139.804 8.56719 139.761 8.61194C139.718 8.65668 139.694 8.71647 139.694 8.77869C139.694 8.84091 139.718 8.90069 139.761 8.94544C139.804 8.99019 139.863 9.0164 139.926 9.01856Z" fill="#F1F1F1"/>
<path d="M149.539 6.79881C148.888 6.45905 148.297 7.01776 148.206 7.65609C148.161 7.96821 148.151 8.39481 148.35 8.65995C148.553 8.93073 148.944 9.04426 149.268 9.06428C149.887 9.1025 150.546 8.75706 150.698 8.1229C150.77 7.84137 150.735 7.54321 150.6 7.28597C150.465 7.02873 150.24 6.83063 149.967 6.72989C149.675 6.6286 149.549 7.09187 149.839 7.1925C149.974 7.24846 150.087 7.34664 150.161 7.47224C150.235 7.59784 150.266 7.74409 150.25 7.88897C150.231 8.0556 150.158 8.21145 150.042 8.33284C149.927 8.45423 149.774 8.53452 149.609 8.5615C149.213 8.65257 148.749 8.55483 148.672 8.10816C148.615 7.774 148.796 6.95168 149.297 7.21306C149.571 7.35572 149.814 6.94185 149.539 6.79882V6.79881Z" fill="#F1F1F1"/>
<path d="M109.057 11.6495C112.547 11.6862 116.034 11.5784 119.517 11.3262L119.286 11.0225C118.716 12.4672 118.731 13.9898 118.807 15.5181C118.826 15.901 118.946 16.4173 118.868 16.7966C118.771 17.2735 118.342 17.1595 117.917 17.1733C116.979 17.2036 116.041 17.2254 115.103 17.2386C114.216 17.2512 113.33 17.2561 112.444 17.2534C112.027 17.2521 111.61 17.2492 111.193 17.2446C110.703 17.2391 110.147 17.3813 110.02 16.8141C109.939 16.4507 110.021 15.9728 110.021 15.5992L110.022 14.2324L110.024 11.4989C110.021 11.4367 109.995 11.3778 109.951 11.3346C109.906 11.2914 109.846 11.2672 109.784 11.2672C109.722 11.2672 109.662 11.2914 109.617 11.3346C109.572 11.3778 109.546 11.4367 109.544 11.4989L109.542 14.8399L109.541 16.3585C109.54 16.6601 109.478 17.0246 109.59 17.3109C109.849 17.9697 110.969 17.7225 111.506 17.7275C112.6 17.7375 113.695 17.7359 114.79 17.7225C115.884 17.7092 116.979 17.6844 118.073 17.6479C118.544 17.6323 119.197 17.7395 119.34 17.1581C119.44 16.7505 119.323 16.2191 119.302 15.8032C119.277 15.3285 119.251 14.8538 119.245 14.3785C119.23 13.2686 119.339 12.1888 119.748 11.1501C119.758 11.1145 119.759 11.0771 119.752 11.041C119.745 11.0048 119.73 10.9707 119.707 10.9414C119.685 10.912 119.656 10.8882 119.623 10.8718C119.59 10.8553 119.554 10.8466 119.517 10.8464C116.036 11.0986 112.549 11.2064 109.057 11.1697C108.995 11.1719 108.936 11.1981 108.893 11.2428C108.85 11.2876 108.826 11.3474 108.826 11.4096C108.826 11.4718 108.85 11.5316 108.893 11.5763C108.936 11.6211 108.995 11.6473 109.057 11.6495L109.057 11.6495Z" fill="#F1F1F1"/>
<path d="M110.052 11.9103C111.546 12.439 113.002 13.068 114.412 13.793C115.676 14.4464 117.331 15.1602 118.201 16.328C118.384 16.5727 118.8 16.3338 118.616 16.0858C117.727 14.8933 116.197 14.1916 114.913 13.5138C113.386 12.7128 111.805 12.0223 110.179 11.4477C109.888 11.3439 109.763 11.8073 110.052 11.9103Z" fill="#F1F1F1"/>
<path d="M119.436 11.0559C117.85 11.7338 116.507 13.0399 115.091 14.0077C113.557 15.0553 111.978 16.0302 110.353 16.9324C110.083 17.083 110.325 17.4975 110.595 17.3467C112.217 16.4413 113.796 15.4664 115.333 14.4219C116.749 13.4543 118.093 12.1478 119.678 11.4701C119.961 11.3491 119.717 10.9357 119.436 11.0558V11.0559Z" fill="#F1F1F1"/>
<path d="M140.56 11.6495C144.05 11.6862 147.537 11.5784 151.02 11.3262L150.789 11.0225C150.219 12.4672 150.234 13.9898 150.31 15.5181C150.329 15.901 150.449 16.4173 150.371 16.7966C150.274 17.2735 149.845 17.1595 149.42 17.1733C148.482 17.2036 147.544 17.2254 146.605 17.2386C145.719 17.2512 144.833 17.2561 143.947 17.2534C143.53 17.2521 143.113 17.2492 142.696 17.2446C142.206 17.2391 141.65 17.3813 141.523 16.8141C141.442 16.4507 141.524 15.9728 141.524 15.5992L141.525 14.2324L141.527 11.4989C141.524 11.4367 141.498 11.3778 141.454 11.3346C141.409 11.2914 141.349 11.2672 141.287 11.2672C141.225 11.2672 141.165 11.2914 141.12 11.3346C141.075 11.3778 141.049 11.4367 141.047 11.4989L141.045 14.8399L141.044 16.3585C141.043 16.6601 140.981 17.0246 141.093 17.3109C141.352 17.9697 142.472 17.7225 143.009 17.7275C144.103 17.7375 145.198 17.7359 146.293 17.7225C147.387 17.7092 148.482 17.6844 149.576 17.6479C150.047 17.6323 150.7 17.7395 150.843 17.1581C150.943 16.7505 150.826 16.2191 150.805 15.8032C150.78 15.3285 150.754 14.8538 150.748 14.3785C150.733 13.2686 150.842 12.1888 151.251 11.1501C151.261 11.1145 151.262 11.0771 151.255 11.041C151.248 11.0048 151.233 10.9707 151.21 10.9414C151.188 10.912 151.159 10.8882 151.126 10.8718C151.093 10.8553 151.057 10.8466 151.02 10.8464C147.539 11.0986 144.052 11.2064 140.56 11.1697C140.498 11.1719 140.439 11.1981 140.396 11.2428C140.353 11.2876 140.329 11.3474 140.329 11.4096C140.329 11.4718 140.353 11.5316 140.396 11.5763C140.439 11.6211 140.498 11.6473 140.56 11.6495L140.56 11.6495Z" fill="#F1F1F1"/>
<path d="M141.555 11.9103C143.049 12.439 144.505 13.068 145.915 13.793C147.179 14.4464 148.834 15.1602 149.704 16.328C149.887 16.5727 150.303 16.3338 150.119 16.0858C149.23 14.8933 147.7 14.1916 146.415 13.5138C144.889 12.7128 143.307 12.0223 141.682 11.4477C141.391 11.3439 141.266 11.8073 141.555 11.9103Z" fill="#F1F1F1"/>
<path d="M150.939 11.0559C149.353 11.7338 148.01 13.0399 146.593 14.0077C145.06 15.0553 143.481 16.0302 141.856 16.9324C141.586 17.083 141.828 17.4975 142.098 17.3467C143.72 16.4413 145.299 15.4664 146.836 14.4219C148.252 13.4543 149.596 12.1478 151.181 11.4701C151.464 11.3491 151.22 10.9357 150.939 11.0558V11.0559Z" fill="#F1F1F1"/>
<path d="M140.56 21.2442C144.05 21.2809 147.537 21.1731 151.02 20.9209L150.789 20.6173C150.219 22.0619 150.234 23.5846 150.31 25.1128C150.329 25.4957 150.449 26.0121 150.371 26.3913C150.274 26.8682 149.845 26.7542 149.42 26.768C148.482 26.7983 147.544 26.8201 146.605 26.8334C145.719 26.8459 144.833 26.8508 143.947 26.8482C143.53 26.8469 143.113 26.8439 142.696 26.8393C142.206 26.8338 141.65 26.976 141.523 26.4088C141.442 26.0455 141.524 25.5676 141.524 25.1939L141.525 23.8271L141.527 21.0936C141.524 21.0314 141.498 20.9725 141.454 20.9293C141.409 20.8861 141.349 20.8619 141.287 20.8619C141.225 20.8619 141.165 20.8861 141.12 20.9293C141.075 20.9725 141.049 21.0314 141.047 21.0936L141.045 24.4346L141.044 25.9532C141.043 26.2549 140.981 26.6193 141.093 26.9057C141.352 27.5644 142.472 27.3172 143.009 27.3222C144.103 27.3323 145.198 27.3306 146.293 27.3172C147.387 27.3039 148.482 27.2791 149.576 27.2427C150.047 27.227 150.7 27.3342 150.843 26.7528C150.943 26.3453 150.826 25.8138 150.805 25.3979C150.78 24.9233 150.754 24.4485 150.748 23.9732C150.733 22.8633 150.842 21.7835 151.251 20.7448C151.261 20.7092 151.262 20.6719 151.255 20.6357C151.248 20.5995 151.233 20.5654 151.21 20.5361C151.188 20.5068 151.159 20.483 151.126 20.4665C151.093 20.45 151.057 20.4414 151.02 20.4412C147.539 20.6933 144.052 20.8011 140.56 20.7644C140.498 20.7666 140.439 20.7928 140.396 20.8376C140.353 20.8823 140.329 20.9421 140.329 21.0043C140.329 21.0665 140.353 21.1263 140.396 21.1711C140.439 21.2158 140.498 21.242 140.56 21.2442H140.56Z" fill="#F1F1F1"/>
<path d="M141.555 21.505C143.049 22.0337 144.505 22.6627 145.915 23.3877C147.179 24.0411 148.834 24.7549 149.704 25.9227C149.887 26.1675 150.303 25.9285 150.119 25.6806C149.23 24.488 147.7 23.7863 146.415 23.1085C144.889 22.3075 143.307 21.6171 141.682 21.0424C141.391 20.9386 141.266 21.402 141.555 21.505Z" fill="#F1F1F1"/>
<path d="M150.939 20.6506C149.353 21.3285 148.01 22.6346 146.593 23.6024C145.06 24.65 143.481 25.6249 141.856 26.5271C141.586 26.6777 141.828 27.0922 142.098 26.9414C143.72 26.036 145.299 25.0611 146.836 24.0167C148.252 23.049 149.596 21.7426 151.181 21.0648C151.464 20.9438 151.22 20.5304 150.939 20.6506Z" fill="#F1F1F1"/>
<path d="M109.964 20.8828C113.198 20.932 116.432 20.9191 119.665 20.8441C119.974 20.8369 119.975 20.3572 119.665 20.3643C116.432 20.4393 113.198 20.4522 109.964 20.403C109.902 20.4052 109.843 20.4314 109.8 20.4761C109.757 20.5209 109.732 20.5807 109.732 20.6429C109.732 20.7051 109.757 20.7649 109.8 20.8096C109.843 20.8544 109.902 20.8806 109.964 20.8828Z" fill="#F1F1F1"/>
<path d="M110.236 23.0578C113.561 23.1109 116.885 23.0966 120.209 23.015C120.518 23.0074 120.519 22.5277 120.209 22.5352C116.885 22.6168 113.561 22.6311 110.236 22.5781C109.927 22.5732 109.927 23.0529 110.236 23.0578Z" fill="#F1F1F1"/>
<path d="M109.872 25.4062L119.302 24.9683C119.609 24.9541 119.611 24.4742 119.302 24.4886L109.872 24.9265C109.565 24.9407 109.563 25.4206 109.872 25.4062Z" fill="#F1F1F1"/>
<path d="M124.56 18.6284H133.535C133.598 18.6263 133.656 18.6001 133.7 18.5553C133.743 18.5106 133.767 18.4508 133.767 18.3886C133.767 18.3263 133.743 18.2666 133.7 18.2218C133.656 18.1771 133.598 18.1508 133.535 18.1487H124.56C124.498 18.1508 124.439 18.1771 124.396 18.2218C124.353 18.2666 124.328 18.3263 124.328 18.3886C124.328 18.4508 124.353 18.5106 124.396 18.5553C124.439 18.6001 124.498 18.6263 124.56 18.6284Z" fill="#F1F1F1"/>
<path d="M133.142 15.8857L134.544 17.1657C134.705 17.3121 135.146 17.6143 135.246 17.8056C135.452 18.2014 135.23 18.1111 134.877 18.2482C134.01 18.5934 133.21 19.0898 132.516 19.7142C132.284 19.9187 132.625 20.2569 132.856 20.0534C133.489 19.4845 134.216 19.0302 135.005 18.7108C135.288 18.5989 135.824 18.5334 135.959 18.1964C136.123 17.784 135.599 17.4797 135.351 17.2531L133.481 15.5465C133.254 15.3387 132.914 15.677 133.142 15.8857V15.8857Z" fill="#F1F1F1"/>
<path d="M111.36 34.6133H117.965C118.416 32.0075 118.416 29.3438 117.965 26.738H111.36C112.105 29.3104 112.105 32.0409 111.36 34.6133Z" fill="#3EE5B2"/>
<path d="M83.8553 28.6965H90.4603C90.9111 26.0908 90.9111 23.427 90.4603 20.8213H83.8553C84.5995 23.3936 84.5995 26.1242 83.8553 28.6965Z" fill="#3EE5B2"/>
<path d="M125.593 11.4258H132.198C132.649 8.82003 132.649 6.15626 132.198 3.55054H125.593C126.337 6.12288 126.337 8.85341 125.593 11.4258Z" fill="#3EE5B2"/>
<defs>
<filter id="filter0_d" x="72.0805" y="0.0336914" width="90.5921" height="38.1405" filterUnits="userSpaceOnUse" color-interpolation-filters="sRGB">
<feFlood flood-opacity="0" result="BackgroundImageFix"/>
<feColorMatrix in="SourceAlpha" type="matrix" values="0 0 0 0 0 0 0 0 0 0 0 0 0 0 0 0 0 0 127 0"/>
<feOffset dy="0.5"/>
<feGaussianBlur stdDeviation="0.5"/>
<feColorMatrix type="matrix" values="0 0 0 0 0 0 0 0 0 0 0 0 0 0 0 0 0 0 0.15 0"/>
<feBlend mode="normal" in2="BackgroundImageFix" result="effect1_dropShadow"/>
<feBlend mode="normal" in="SourceGraphic" in2="effect1_dropShadow" result="shape"/>
</filter>
</defs>
</svg>
