<svg width="91" height="71" viewBox="0 0 91 71" fill="none" xmlns="http://www.w3.org/2000/svg">
<path d="M89.5257 57.7945C88.5983 59.9841 87.2436 61.9668 85.541 63.6268C83.8385 65.2868 81.8221 66.5908 79.6097 67.4625C76.6794 68.4463 73.622 69.0001 70.5328 69.1065C58.7777 70.024 46.9782 70.2364 35.1978 69.7425C25.9438 69.3545 19.4388 65.8425 11.1878 62.0245C10.0421 61.5281 8.93445 60.9482 7.87375 60.2895C3.23275 57.2415 1.02275 51.4325 0.59375 45.7325C0.763983 45.6724 0.940415 45.6315 1.11975 45.6105C3.79019 45.0783 6.52692 44.9626 9.23275 45.2675C10.9018 45.5475 12.5087 46.1466 14.1727 46.4606C18.8597 47.3546 23.5568 45.9425 28.2578 46.2525C32.2328 46.5145 36.1488 47.3915 40.1758 47.5155C44.4157 47.6495 48.6618 47.4965 52.8997 47.2985C61.3727 46.8985 69.9058 46.2745 78.3698 47.2355C79.5357 47.4175 80.7172 47.4795 81.8958 47.4205C82.8409 47.2906 83.7763 47.0979 84.6957 46.8435C85.5866 46.6343 86.4878 46.472 87.3958 46.3575C88.9263 47.6839 89.9911 49.4662 90.4338 51.4425C90.7677 53.6031 90.4517 55.8141 89.5257 57.7945Z" fill="url(#paint0_linear)"/>
<path d="M17.9462 47.8398C18.0338 47.7475 18.0994 47.6366 18.138 47.5154C18.1766 47.3941 18.1873 47.2657 18.1692 47.1398C18.1351 47.0564 18.0847 46.9807 18.021 46.917C17.9573 46.8533 17.8816 46.8029 17.7982 46.7688C17.3373 46.5971 16.8333 46.5787 16.3611 46.7163C15.8889 46.854 15.4737 47.1403 15.1772 47.5328C14.6019 48.332 14.2093 49.248 14.0272 50.2158C14.0902 47.7818 14.1272 45.2248 12.9902 43.0718C12.7732 42.6048 12.4373 42.2031 12.0162 41.9068C11.8031 41.7638 11.5539 41.684 11.2974 41.6764C11.0409 41.6688 10.7874 41.7337 10.5662 41.8638C10.374 42.0183 10.2227 42.2177 10.1256 42.4444C10.0285 42.671 9.98853 42.9181 10.0092 43.1638C10.0941 43.9734 10.2962 44.7664 10.6092 45.5178C10.9508 46.8763 11.1519 48.2662 11.2092 49.6658C11.3737 52.1852 11.7717 54.684 12.3982 57.1298C12.3722 57.0408 13.4052 56.3428 13.5112 56.1298C13.9232 55.3298 13.9322 54.1968 14.3252 53.3298C15.356 51.3895 16.5684 49.5513 17.9462 47.8398Z" fill="#469DF4"/>
<path d="M17.9462 47.8398C18.0338 47.7475 18.0994 47.6366 18.138 47.5154C18.1766 47.3941 18.1873 47.2657 18.1692 47.1398C18.1351 47.0564 18.0847 46.9807 18.021 46.917C17.9573 46.8533 17.8816 46.8029 17.7982 46.7688C17.3373 46.5971 16.8333 46.5787 16.3611 46.7163C15.8889 46.854 15.4737 47.1403 15.1772 47.5328C14.6019 48.332 14.2093 49.248 14.0272 50.2158C14.0902 47.7818 14.1272 45.2248 12.9902 43.0718C12.7732 42.6048 12.4373 42.2031 12.0162 41.9068C11.8031 41.7638 11.5539 41.684 11.2974 41.6764C11.0409 41.6688 10.7874 41.7337 10.5662 41.8638C10.374 42.0183 10.2227 42.2177 10.1256 42.4444C10.0285 42.671 9.98853 42.9181 10.0092 43.1638C10.0941 43.9734 10.2962 44.7664 10.6092 45.5178C10.9508 46.8763 11.1519 48.2662 11.2092 49.6658C11.3737 52.1852 11.7717 54.684 12.3982 57.1298C12.3722 57.0408 13.4052 56.3428 13.5112 56.1298C13.9232 55.3298 13.9322 54.1968 14.3252 53.3298C15.356 51.3895 16.5684 49.5513 17.9462 47.8398Z" fill="#1CD49C"/>
<path d="M46.5731 0.252875C47.8424 -0.138965 49.2102 -0.0626822 50.4281 0.467875C51.4224 0.849773 52.2838 1.51315 52.9071 2.37688C53.2137 2.80984 53.4256 3.30256 53.529 3.82292C53.6324 4.34328 53.6249 4.87959 53.5071 5.39688C53.2036 6.04487 53.0452 6.75133 53.0431 7.46688C53.1282 7.77048 53.2753 8.05315 53.4751 8.29705C53.6749 8.54094 53.9231 8.74075 54.2041 8.88388C54.7659 9.16691 55.3014 9.49957 55.8041 9.87787C56.2093 10.2536 56.4943 10.7409 56.6231 11.2783C56.752 11.8157 56.7189 12.3792 56.5281 12.8979C56.314 13.2617 56.2002 13.6757 56.1981 14.0979C56.2554 14.3046 56.3638 14.4935 56.5132 14.6475C56.6626 14.8014 56.8482 14.9154 57.0531 14.9789C57.4531 15.1349 57.8861 15.1869 58.2851 15.3499C58.662 15.5004 58.9949 15.7436 59.2529 16.0569C59.5109 16.3703 59.6856 16.7437 59.7609 17.1426C59.8362 17.5414 59.8096 17.9528 59.6836 18.3387C59.5576 18.7245 59.3362 19.0723 59.0401 19.3499C58.4581 19.8228 57.7666 20.1419 57.0291 20.2779C54.23 20.9811 51.332 21.205 48.4581 20.9399C46.2451 20.7339 44.0281 20.2399 41.8181 20.4929C40.4401 20.6529 39.1081 21.1029 37.7371 21.2829C37.0544 21.4157 36.3522 21.4118 35.6711 21.2714C34.99 21.131 34.3435 20.8569 33.7691 20.4649C33.2246 19.9975 32.7853 19.4202 32.4801 18.7709C31.8914 17.7198 31.6522 16.5088 31.7971 15.3129C31.8806 14.7181 32.1298 14.1589 32.5162 13.6991C32.9026 13.2393 33.4106 12.8975 33.9821 12.7129C34.5074 12.6194 35.0406 12.5778 35.5741 12.5889C36.6271 12.5306 37.6511 12.222 38.5611 11.6889C38.7056 11.623 38.8357 11.5293 38.9439 11.4131C39.0522 11.297 39.1365 11.1606 39.1921 11.0119C39.3141 10.5039 38.8341 10.0839 38.5781 9.62387C38.4654 9.39209 38.4039 9.13882 38.3976 8.8812C38.3913 8.62357 38.4404 8.3676 38.5415 8.13058C38.6427 7.89356 38.7936 7.68103 38.984 7.50735C39.1743 7.33367 39.3998 7.2029 39.6451 7.12387C40.2391 6.96987 40.9661 7.10487 41.3831 6.65587C41.9061 6.09887 41.6411 5.21288 42.2051 4.62588C42.7051 4.10288 43.4151 3.90587 43.8191 3.25487C44.6111 1.97187 44.9711 0.804875 46.5731 0.252875Z" fill="#3F3D56"/>
<path d="M46.5731 0.252875C47.8424 -0.138965 49.2102 -0.0626822 50.4281 0.467875C51.4224 0.849773 52.2838 1.51315 52.9071 2.37688C53.2137 2.80984 53.4256 3.30256 53.529 3.82292C53.6324 4.34328 53.6249 4.87959 53.5071 5.39688C53.2036 6.04487 53.0452 6.75133 53.0431 7.46688C53.1282 7.77048 53.2753 8.05315 53.4751 8.29705C53.6749 8.54094 53.9231 8.74075 54.2041 8.88388C54.7659 9.16691 55.3014 9.49957 55.8041 9.87787C56.2093 10.2536 56.4943 10.7409 56.6231 11.2783C56.752 11.8157 56.7189 12.3792 56.5281 12.8979C56.314 13.2617 56.2002 13.6757 56.1981 14.0979C56.2554 14.3046 56.3638 14.4935 56.5132 14.6475C56.6626 14.8014 56.8482 14.9154 57.0531 14.9789C57.4531 15.1349 57.8861 15.1869 58.2851 15.3499C58.662 15.5004 58.9949 15.7436 59.2529 16.0569C59.5109 16.3703 59.6856 16.7437 59.7609 17.1426C59.8362 17.5414 59.8096 17.9528 59.6836 18.3387C59.5576 18.7245 59.3362 19.0723 59.0401 19.3499C58.4581 19.8228 57.7666 20.1419 57.0291 20.2779C54.23 20.9811 51.332 21.205 48.4581 20.9399C46.2451 20.7339 44.0281 20.2399 41.8181 20.4929C40.4401 20.6529 39.1081 21.1029 37.7371 21.2829C37.0544 21.4157 36.3522 21.4118 35.6711 21.2714C34.99 21.131 34.3435 20.8569 33.7691 20.4649C33.2246 19.9975 32.7853 19.4202 32.4801 18.7709C31.8914 17.7198 31.6522 16.5088 31.7971 15.3129C31.8806 14.7181 32.1298 14.1589 32.5162 13.6991C32.9026 13.2393 33.4106 12.8975 33.9821 12.7129C34.5074 12.6194 35.0406 12.5778 35.5741 12.5889C36.6271 12.5306 37.6511 12.222 38.5611 11.6889C38.7056 11.623 38.8357 11.5293 38.9439 11.4131C39.0522 11.297 39.1365 11.1606 39.1921 11.0119C39.3141 10.5039 38.8341 10.0839 38.5781 9.62387C38.4654 9.39209 38.4039 9.13882 38.3976 8.8812C38.3913 8.62357 38.4404 8.3676 38.5415 8.13058C38.6427 7.89356 38.7936 7.68103 38.984 7.50735C39.1743 7.33367 39.3998 7.2029 39.6451 7.12387C40.2391 6.96987 40.9661 7.10487 41.3831 6.65587C41.9061 6.09887 41.6411 5.21288 42.2051 4.62588C42.7051 4.10288 43.4151 3.90587 43.8191 3.25487C44.6111 1.97187 44.9711 0.804875 46.5731 0.252875Z" fill="#1CD49C"/>
<path d="M10.998 57.4662C14.114 61.8502 19.6671 63.6252 24.8821 64.3172C78.0611 71.3672 85.482 57.9002 85.722 57.6092C86.597 56.5612 73.6831 44.7522 35.6751 47.4182C33.0171 47.6042 9.31005 55.0902 10.998 57.4662Z" fill="#EBEDF0"/>
<path d="M23.6766 51.0598C23.2878 51.2376 22.9483 51.5078 22.6877 51.8468C22.5613 52.0188 22.4923 52.2261 22.4903 52.4395C22.4883 52.6529 22.5535 52.8615 22.6766 53.0358C22.8977 53.2495 23.1797 53.3893 23.4837 53.4358C27.9404 54.5323 32.5943 54.5508 37.0596 53.4898C38.8433 52.9685 40.6527 52.5399 42.4806 52.2058C43.9754 52.0474 45.4811 52.02 46.9806 52.1238C52.5037 52.3688 58.0156 52.8658 63.5086 53.4888C66.6115 53.9609 69.7548 54.112 72.8887 53.9398C73.2016 53.9454 73.5062 53.839 73.7476 53.6398C74.2406 53.1188 73.6416 52.2688 72.9906 51.9698C72.0276 51.5228 70.7177 51.3358 70.3907 50.3228C70.3603 50.1516 70.2972 49.9879 70.2046 49.8408C70.0365 49.6853 69.8157 49.5992 69.5867 49.5998C56.9821 48.1342 44.2643 47.9081 31.6156 48.9248C28.8433 49.0364 26.131 49.7658 23.6766 51.0598Z" fill="url(#paint1_linear)"/>
<path d="M21.9566 38.8888C21.9566 38.8888 24.2476 34.5158 34.2456 37.9518C44.2436 41.3878 58.5116 47.5338 58.5116 47.5338L57.3666 51.9088C57.3666 51.9088 33.8296 49.0958 30.4956 47.2208C27.1616 45.3458 21.3316 45.1388 21.9566 38.8888Z" fill="#469DF4"/>
<path d="M21.9566 38.8888C21.9566 38.8888 24.2476 34.5158 34.2456 37.9518C44.2436 41.3878 58.5116 47.5338 58.5116 47.5338L57.3666 51.9088C57.3666 51.9088 33.8296 49.0958 30.4956 47.2208C27.1616 45.3458 21.3316 45.1388 21.9566 38.8888Z" fill="url(#paint2_linear)"/>
<path d="M37.7769 47.923C37.7769 47.923 55.1699 39.497 63.6129 38.55C72.0559 37.603 72.6739 39.487 72.9869 39.904C73.2999 40.321 76.4229 45.735 65.0709 48.34C53.7189 50.945 37.4709 52.505 37.4709 52.505C37.4709 52.505 36.6259 51.464 37.7769 47.923Z" fill="#469DF4"/>
<path d="M37.7769 47.923C37.7769 47.923 55.1699 39.497 63.6129 38.55C72.0559 37.603 72.6739 39.487 72.9869 39.904C73.2999 40.321 76.4229 45.735 65.0709 48.34C53.7189 50.945 37.4709 52.505 37.4709 52.505C37.4709 52.505 36.6259 51.464 37.7769 47.923Z" fill="url(#paint3_linear)"/>
<path d="M45.2734 14.1652C44.5527 14.6088 43.785 14.971 42.9844 15.2452C43.4087 15.939 43.9861 16.5267 44.6724 16.9632C45.7078 17.5194 46.8729 17.789 48.0474 17.7442C48.7081 17.7703 49.3688 17.6906 50.0044 17.5082C50.8439 17.1899 51.6125 16.7094 52.2664 16.0942C52.5664 15.8312 52.9014 15.4802 52.8234 15.0872C52.2005 15.1237 51.5812 14.9697 51.048 14.6457C50.5147 14.3217 50.0928 13.8429 49.8384 13.2732C49.7359 13.013 49.6526 12.7456 49.5894 12.4732C49.5423 12.1579 49.4676 11.8474 49.3664 11.5452C49.2693 11.4516 49.1515 11.3822 49.0226 11.3426C48.8937 11.303 48.7573 11.2943 48.6244 11.3172C48.0244 11.4252 47.1974 11.2172 46.7694 11.7082C46.2684 12.2672 45.9434 13.7422 45.2734 14.1652Z" fill="url(#paint4_linear)"/>
<path d="M47.1961 13.9911C47.5067 14.1938 47.877 14.2848 48.2461 14.2491C48.6171 14.2061 48.9061 13.3211 49.0851 12.9931C49.1378 12.8903 49.1826 12.7837 49.2191 12.6741C49.3777 12.2845 49.4748 11.8726 49.5071 11.4531C49.5071 11.5701 48.7331 11.6921 48.6331 11.7071C48.3101 11.7551 47.9821 11.7721 47.6571 11.8071C47.2061 11.8531 46.3051 11.8741 46.5051 12.5251C46.6051 12.8531 46.9051 13.8091 47.1961 13.9911Z" fill="url(#paint5_linear)"/>
<path d="M42.9327 14.9635C42.9327 14.9635 40.4137 15.2455 39.7327 16.6515C39.0517 18.0575 29.1577 30.8684 29.1097 31.7014C29.0617 32.5344 33.7957 37.3264 33.7957 37.3264L35.9827 32.6385L35.3057 31.1824L39.5247 25.3495L39.3577 40.4135L48.2307 43.9565L56.3477 40.8365L56.6477 25.2975C56.6477 25.2975 60.1897 30.2975 60.2927 31.5455C60.3758 32.2333 60.2296 32.9292 59.8767 33.5255L62.8967 37.8985C62.8967 37.8985 67.5827 33.0045 67.2717 30.7135C66.9607 28.4225 57.2717 16.7564 56.3467 16.2444C55.1784 15.7043 53.982 15.2269 52.7627 14.8145L42.9327 14.9635Z" fill="#469DF4"/>
<path d="M37.8205 39.5446C37.0647 39.6267 36.3158 39.7631 35.5795 39.9526C35.3275 40.0176 35.0395 40.1216 34.9595 40.3696C34.8505 40.7076 35.2065 41.0076 35.5305 41.1526C37.5435 42.0526 39.8995 41.3046 42.0775 41.6526C43.9435 41.9526 45.5855 43.0406 47.3945 43.5946C47.4804 43.6271 47.5716 43.6434 47.6635 43.6426C47.8669 43.6463 48.0702 43.6302 48.2705 43.5946C49.0851 43.2423 49.9383 42.9869 50.8125 42.8336L54.3855 42.4336C55.8785 42.2646 57.1055 41.5416 58.5915 41.3206C59.2312 41.3069 59.8661 41.206 60.4785 41.0206C60.6935 40.9206 60.9125 40.6716 60.7785 40.4806C60.7199 40.4143 60.6419 40.3681 60.5555 40.3486C59.9005 40.1771 59.2218 40.1142 58.5465 40.1626C51.6485 40.2876 44.6795 38.8026 37.8205 39.5446Z" fill="#469DF4"/>
<path d="M37.8205 39.5446C37.0647 39.6267 36.3158 39.7631 35.5795 39.9526C35.3275 40.0176 35.0395 40.1216 34.9595 40.3696C34.8505 40.7076 35.2065 41.0076 35.5305 41.1526C37.5435 42.0526 39.8995 41.3046 42.0775 41.6526C43.9435 41.9526 45.5855 43.0406 47.3945 43.5946C47.4804 43.6271 47.5716 43.6434 47.6635 43.6426C47.8669 43.6463 48.0702 43.6302 48.2705 43.5946C49.0851 43.2423 49.9383 42.9869 50.8125 42.8336L54.3855 42.4336C55.8785 42.2646 57.1055 41.5416 58.5915 41.3206C59.2312 41.3069 59.8661 41.206 60.4785 41.0206C60.6935 40.9206 60.9125 40.6716 60.7785 40.4806C60.7199 40.4143 60.6419 40.3681 60.5555 40.3486C59.9005 40.1771 59.2218 40.1142 58.5465 40.1626C51.6485 40.2876 44.6795 38.8026 37.8205 39.5446Z" fill="url(#paint6_linear)"/>
<path d="M56.248 22.623L56.422 25.174L59.576 30.074C59.8458 30.4933 60.0088 30.9723 60.0508 31.4691C60.0928 31.9659 60.0126 32.4654 59.817 32.924L59.578 33.481L61.205 34.881L62.825 31.304L56.248 22.623Z" fill="url(#paint7_linear)"/>
<path d="M40.1284 34.9728C40.4483 35.0853 40.7512 35.2414 41.0284 35.4368C41.3517 35.742 41.6072 36.1118 41.7785 36.5222C41.9497 36.9325 42.0328 37.3742 42.0224 37.8188C42.0452 37.982 42.0242 38.1484 41.9614 38.3008C41.8871 38.4143 41.7831 38.5052 41.6608 38.5637C41.5384 38.6223 41.4024 38.6461 41.2674 38.6328C40.6144 38.6328 40.0314 38.1908 39.3804 38.1328C39.0467 38.1384 38.713 38.1274 38.3804 38.0998C37.6084 37.9418 37.1804 37.1478 36.7104 36.5188C36.2786 35.9511 35.7411 35.4723 35.1274 35.1088C33.9274 34.4018 34.5704 33.0458 35.8694 33.3088C37.3349 33.7381 38.76 34.2949 40.1284 34.9728Z" fill="url(#paint8_linear)"/>
<path d="M56.1353 34.5903C55.8349 34.6415 55.5451 34.743 55.2783 34.8903C54.931 35.1788 54.6195 35.5078 54.3503 35.8703C54.0873 36.1353 53.7503 36.3703 53.6503 36.7293C53.6015 36.952 53.6297 37.1847 53.7303 37.3893C53.8867 37.7128 54.149 37.973 54.4737 38.1269C54.7984 38.2808 55.1659 38.3191 55.5153 38.2353C55.8013 38.1573 56.0593 37.9983 56.3423 37.9183C57.2233 37.6683 58.2573 38.1853 59.0423 37.7183C59.2903 37.5434 59.511 37.3328 59.6973 37.0933C60.1193 36.6255 60.6111 36.2258 61.1553 35.9083C61.2928 35.8445 61.4133 35.7492 61.5073 35.6303C61.6923 35.3373 61.4903 34.9553 61.2683 34.6883C60.6173 33.9093 60.2423 33.6363 59.2613 33.8613C58.2123 34.0983 57.1733 34.3473 56.1353 34.5903Z" fill="url(#paint9_linear)"/>
<path d="M36.3465 48.7904C34.5975 48.9644 32.8465 48.3174 31.0925 48.4824C30.4611 48.5499 29.8412 48.6995 29.2485 48.9274C28.9607 49.0155 28.6951 49.1641 28.4695 49.3634C28.2907 49.5711 28.1639 49.8183 28.0994 50.0847C28.0349 50.351 28.0346 50.6289 28.0985 50.8954C28.2101 51.4186 28.4405 51.9093 28.7718 52.3294C29.1032 52.7495 29.5266 53.0879 30.0095 53.3184C30.5988 53.6203 31.2606 53.7519 31.9205 53.6984C32.2341 53.6607 32.5444 53.5989 32.8485 53.5134C33.5328 53.37 34.1988 53.1496 34.8335 52.8564C35.2335 52.6564 35.6035 52.3924 36.0065 52.1964C36.5775 51.9184 37.2065 51.7754 37.7685 51.4804C37.8123 51.4615 37.852 51.4343 37.8855 51.4004C37.9202 51.3568 37.9461 51.3069 37.9615 51.2534C38.2402 50.4658 38.3757 49.6347 38.3615 48.7994C38.3615 48.6804 38.4005 48.4284 38.2785 48.3634C38.1835 48.3154 37.7785 48.5004 37.6665 48.5304C37.2343 48.6529 36.7929 48.7398 36.3465 48.7904Z" fill="url(#paint10_linear)"/>
<path d="M59.7572 51.2598C60.5992 51.4728 61.3642 51.9217 62.1982 52.1597C62.9166 52.3439 63.6568 52.4294 64.3982 52.4137C65.5197 52.4869 66.6405 52.2623 67.6472 51.7627C67.8032 51.6808 67.9396 51.5662 68.0472 51.4267C68.145 51.2329 68.1937 51.0181 68.1892 50.801C68.1847 50.584 68.127 50.3713 68.0212 50.1818C67.9004 49.8203 67.709 49.4866 67.458 49.1999C67.207 48.9132 66.9015 48.6793 66.5592 48.5118C65.6804 48.3158 64.7629 48.389 63.9262 48.7218C61.7892 49.2578 59.5422 49.1768 57.3812 49.6028C57.2659 49.6006 57.154 49.6426 57.0686 49.7201C56.9831 49.7975 56.9304 49.9047 56.9212 50.0198C56.8023 50.3231 56.7604 50.6512 56.7992 50.9748C56.9122 51.2868 57.2202 51.1748 57.4912 51.1608C58.2468 51.0679 59.0126 51.1013 59.7572 51.2598Z" fill="url(#paint11_linear)"/>
<path d="M61.4629 50.2657C61.3867 50.4163 61.2974 50.5599 61.1959 50.6947C61.0424 50.9153 60.9765 51.1851 61.0109 51.4517C61.054 51.6085 61.1283 51.755 61.2293 51.8825C61.3304 52.01 61.4561 52.1158 61.5989 52.1937C62.4551 52.6638 63.4228 52.8926 64.3989 52.8557C64.9188 52.8875 65.4407 52.8644 65.9559 52.7867C66.3229 52.7145 66.6847 52.618 67.0389 52.4977C67.3996 52.4096 67.7394 52.2512 68.0389 52.0317C68.2665 51.8297 68.441 51.5749 68.5469 51.2897C68.6901 50.9645 68.7289 50.6028 68.6579 50.2547C68.5778 49.9881 68.4452 49.7402 68.2679 49.5257C68.0856 49.282 67.8871 49.0508 67.6739 48.8337C67.5181 48.6599 67.3286 48.5198 67.1169 48.4217C66.8628 48.3399 66.5945 48.3113 66.3289 48.3377C64.8042 48.3748 63.285 48.5343 61.7859 48.8147C61.6685 48.8282 61.5566 48.8716 61.4609 48.9407C61.2659 49.1097 61.4609 49.3337 61.4979 49.5287C61.5641 49.7715 61.5536 50.029 61.4679 50.2657H61.4629Z" fill="#469DF4"/>
<path d="M35.6192 50.8606C35.7932 50.9816 35.9902 51.0607 36.1572 51.1947C36.2449 51.2542 36.3167 51.3344 36.3662 51.4282C36.4157 51.522 36.4415 51.6266 36.4411 51.7327C36.4171 51.9887 36.1782 52.1646 35.9592 52.2896C34.9525 52.8985 33.8628 53.358 32.7242 53.6536C32.2272 53.803 31.7084 53.8659 31.1902 53.8397C30.7671 53.7892 30.3539 53.676 29.9642 53.5037C29.2657 53.25 28.6432 52.8229 28.1552 52.2627C27.9148 51.9803 27.7501 51.6415 27.6764 51.278C27.6028 50.9145 27.6226 50.5383 27.7341 50.1847C28.0105 49.619 28.4397 49.142 28.9731 48.8076C29.2271 48.5965 29.5135 48.4277 29.8212 48.3076C30.1229 48.223 30.4359 48.1855 30.7491 48.1966C31.5711 48.1836 32.3912 48.1857 33.2132 48.1857C33.7702 48.1857 34.8731 48.1766 35.0011 48.9016C35.0601 49.2336 34.9191 49.5676 35.0011 49.9126C35.0814 50.2948 35.3019 50.633 35.6192 50.8606Z" fill="#469DF4"/>
<path d="M61.4629 50.2657C61.3867 50.4163 61.2974 50.5599 61.1959 50.6947C61.0424 50.9153 60.9765 51.1851 61.0109 51.4517C61.054 51.6085 61.1283 51.755 61.2293 51.8825C61.3304 52.01 61.4561 52.1158 61.5989 52.1937C62.4551 52.6638 63.4228 52.8926 64.3989 52.8557C64.9188 52.8875 65.4407 52.8644 65.9559 52.7867C66.3229 52.7145 66.6847 52.618 67.0389 52.4977C67.3996 52.4096 67.7394 52.2512 68.0389 52.0317C68.2665 51.8297 68.441 51.5749 68.5469 51.2897C68.6901 50.9645 68.7289 50.6028 68.6579 50.2547C68.5778 49.9881 68.4452 49.7402 68.2679 49.5257C68.0856 49.282 67.8871 49.0508 67.6739 48.8337C67.5181 48.6599 67.3286 48.5198 67.1169 48.4217C66.8628 48.3399 66.5945 48.3113 66.3289 48.3377C64.8042 48.3748 63.285 48.5343 61.7859 48.8147C61.6685 48.8282 61.5566 48.8716 61.4609 48.9407C61.2659 49.1097 61.4609 49.3337 61.4979 49.5287C61.5641 49.7715 61.5536 50.029 61.4679 50.2657H61.4629Z" fill="url(#paint12_linear)"/>
<path d="M35.6192 50.8606C35.7932 50.9816 35.9902 51.0607 36.1572 51.1947C36.2449 51.2542 36.3167 51.3344 36.3662 51.4282C36.4157 51.522 36.4415 51.6266 36.4411 51.7327C36.4171 51.9887 36.1782 52.1646 35.9592 52.2896C34.9525 52.8985 33.8628 53.358 32.7242 53.6536C32.2272 53.803 31.7084 53.8659 31.1902 53.8397C30.7671 53.7892 30.3539 53.676 29.9642 53.5037C29.2657 53.25 28.6432 52.8229 28.1552 52.2627C27.9148 51.9803 27.7501 51.6415 27.6764 51.278C27.6028 50.9145 27.6226 50.5383 27.7341 50.1847C28.0105 49.619 28.4397 49.142 28.9731 48.8076C29.2271 48.5965 29.5135 48.4277 29.8212 48.3076C30.1229 48.223 30.4359 48.1855 30.7491 48.1966C31.5711 48.1836 32.3912 48.1857 33.2132 48.1857C33.7702 48.1857 34.8731 48.1766 35.0011 48.9016C35.0601 49.2336 34.9191 49.5676 35.0011 49.9126C35.0814 50.2948 35.3019 50.633 35.6192 50.8606Z" fill="url(#paint13_linear)"/>
<path d="M44.5806 6.4268C44.5806 6.4268 44.4246 12.9888 47.8626 12.6268C51.3006 12.2648 51.4566 6.2268 51.4566 6.2268C51.4566 6.2268 50.0506 2.6848 47.0816 3.2068C46.7007 3.24116 46.3309 3.35354 45.9953 3.53696C45.6597 3.72038 45.3655 3.97091 45.1309 4.27295C44.8963 4.57499 44.7263 4.92209 44.6317 5.29264C44.537 5.66318 44.5196 6.04924 44.5806 6.4268Z" fill="url(#paint14_linear)"/>
<path d="M46.3196 3.57433C46.5835 4.55533 47.1788 5.41478 48.0043 6.00682C48.8298 6.59885 49.8348 6.88699 50.8486 6.82233C51.0229 6.82788 51.1956 6.78747 51.3494 6.70514C51.5032 6.62282 51.6326 6.50149 51.7246 6.35333C51.7743 6.20608 51.79 6.04951 51.7706 5.89533C51.7254 4.89057 51.3952 3.91942 50.8186 3.09532C50.528 2.68774 50.1555 2.34526 49.7251 2.08974C49.2946 1.83422 48.8156 1.67128 48.3186 1.61133C47.5938 1.6105 46.8783 1.77498 46.2265 2.09227C45.5748 2.40955 45.004 2.87127 44.5576 3.44232C43.9476 4.11532 42.1016 7.18433 44.1146 7.28033C44.4388 7.26934 44.7545 7.17436 45.031 7.00467C45.3074 6.83499 45.5351 6.59642 45.6916 6.31233C46.1816 5.46133 45.7636 4.36833 46.3196 3.57433Z" fill="#1CD49C"/>
<path d="M40.1064 22.7656L39.9324 25.3166L35.7154 31.1476L36.3904 32.6056L35.9004 33.5056L33.5254 31.4446L40.1064 22.7656Z" fill="url(#paint15_linear)"/>
<path d="M43.125 15.7205C43.264 16.0915 43.725 16.1955 44.118 16.2905C44.86 16.4765 45.561 16.8475 46.309 17.0325C47.0905 17.2026 47.8895 17.2784 48.689 17.2585C49.698 17.2755 50.709 17.2915 51.717 17.2195C53.0587 17.0357 54.4135 16.9661 55.767 17.0115C55.858 16.9445 55.752 16.8115 55.654 16.7535C54.954 16.3535 54.218 16.0245 53.493 15.6735C52.9318 15.4343 52.3144 15.3584 51.712 15.4545C49.885 15.5545 48.054 15.4545 46.224 15.4735C45.1863 15.4787 44.1504 15.5612 43.125 15.7205Z" fill="url(#paint16_linear)"/>
<path d="M59.2707 24.5137H37.6777V40.9247H59.2707V24.5137Z" fill="#469DF4"/>
<path d="M59.3645 24.666H37.7715V25.814H59.3645V24.666Z" fill="url(#paint17_linear)"/>
<path d="M59.3645 25.668H37.7715V40.805H59.3645V25.668Z" fill="url(#paint18_linear)"/>
<defs>
<linearGradient id="paint0_linear" x1="44.4088" y1="61.8344" x2="44.5674" y2="40.1823" gradientUnits="userSpaceOnUse">
<stop stop-color="white" stop-opacity="0"/>
<stop offset="0.76" stop-color="white" stop-opacity="0.761"/>
<stop offset="0.99" stop-color="white"/>
</linearGradient>
<linearGradient id="paint1_linear" x1="47.901" y1="42.9147" x2="47.937" y2="133.96" gradientUnits="userSpaceOnUse">
<stop stop-opacity="0"/>
<stop offset="0.99"/>
</linearGradient>
<linearGradient id="paint2_linear" x1="39.2226" y1="46.0588" x2="42.5456" y2="17.6363" gradientUnits="userSpaceOnUse">
<stop stop-opacity="0"/>
<stop offset="0.99"/>
</linearGradient>
<linearGradient id="paint3_linear" x1="55.5746" y1="48.3107" x2="54.9078" y2="9.77293" gradientUnits="userSpaceOnUse">
<stop stop-opacity="0"/>
<stop offset="0.99"/>
</linearGradient>
<linearGradient id="paint4_linear" x1="42.9844" y1="14.5204" x2="52.8348" y2="14.5204" gradientUnits="userSpaceOnUse">
<stop stop-color="#ECC4D7"/>
<stop offset="0.42" stop-color="#EFD4D1"/>
<stop offset="1" stop-color="#F2EAC9"/>
</linearGradient>
<linearGradient id="paint5_linear" x1="47.2463" y1="10.8027" x2="57.554" y2="32.4193" gradientUnits="userSpaceOnUse">
<stop stop-color="#ECC4D7"/>
<stop offset="0.42" stop-color="#EFD4D1"/>
<stop offset="1" stop-color="#F2EAC9"/>
</linearGradient>
<linearGradient id="paint6_linear" x1="42.0306" y1="29.7352" x2="42.6346" y2="70.1026" gradientUnits="userSpaceOnUse">
<stop stop-opacity="0"/>
<stop offset="0.99"/>
</linearGradient>
<linearGradient id="paint7_linear" x1="960.282" y1="30.7011" x2="1009.34" y2="25.7115" gradientUnits="userSpaceOnUse">
<stop stop-opacity="0"/>
<stop offset="0.99"/>
</linearGradient>
<linearGradient id="paint8_linear" x1="34.4846" y1="35.9559" x2="42.0313" y2="35.9559" gradientUnits="userSpaceOnUse">
<stop stop-color="#ECC4D7"/>
<stop offset="0.42" stop-color="#EFD4D1"/>
<stop offset="1" stop-color="#F2EAC9"/>
</linearGradient>
<linearGradient id="paint9_linear" x1="53.619" y1="36.0319" x2="61.5718" y2="36.0319" gradientUnits="userSpaceOnUse">
<stop stop-color="#ECC4D7"/>
<stop offset="0.42" stop-color="#EFD4D1"/>
<stop offset="1" stop-color="#F2EAC9"/>
</linearGradient>
<linearGradient id="paint10_linear" x1="28.0508" y1="51.0381" x2="38.3674" y2="51.0381" gradientUnits="userSpaceOnUse">
<stop stop-color="#ECC4D7"/>
<stop offset="0.42" stop-color="#EFD4D1"/>
<stop offset="1" stop-color="#F2EAC9"/>
</linearGradient>
<linearGradient id="paint11_linear" x1="56.7852" y1="50.4077" x2="68.1895" y2="50.4077" gradientUnits="userSpaceOnUse">
<stop stop-color="#ECC4D7"/>
<stop offset="0.42" stop-color="#EFD4D1"/>
<stop offset="1" stop-color="#F2EAC9"/>
</linearGradient>
<linearGradient id="paint12_linear" x1="60.9866" y1="50.6079" x2="68.6848" y2="50.6079" gradientUnits="userSpaceOnUse">
<stop stop-opacity="0"/>
<stop offset="0.99"/>
</linearGradient>
<linearGradient id="paint13_linear" x1="27.6328" y1="51.0212" x2="36.4412" y2="51.0212" gradientUnits="userSpaceOnUse">
<stop stop-opacity="0"/>
<stop offset="0.99"/>
</linearGradient>
<linearGradient id="paint14_linear" x1="44.5449" y1="7.89777" x2="51.4566" y2="7.89777" gradientUnits="userSpaceOnUse">
<stop stop-color="#ECC4D7"/>
<stop offset="0.42" stop-color="#EFD4D1"/>
<stop offset="1" stop-color="#F2EAC9"/>
</linearGradient>
<linearGradient id="paint15_linear" x1="31.913" y1="30.2836" x2="81.1381" y2="23.7582" gradientUnits="userSpaceOnUse">
<stop stop-opacity="0"/>
<stop offset="0.99"/>
</linearGradient>
<linearGradient id="paint16_linear" x1="47.752" y1="17.9738" x2="48.0783" y2="3.48777" gradientUnits="userSpaceOnUse">
<stop stop-color="white" stop-opacity="0"/>
<stop offset="0.76" stop-color="white" stop-opacity="0.761"/>
<stop offset="0.99" stop-color="white"/>
</linearGradient>
<linearGradient id="paint17_linear" x1="48.4816" y1="27.2123" x2="48.4822" y2="22.7282" gradientUnits="userSpaceOnUse">
<stop stop-color="white" stop-opacity="0"/>
<stop offset="0.76" stop-color="white" stop-opacity="0.761"/>
<stop offset="0.99" stop-color="white"/>
</linearGradient>
<linearGradient id="paint18_linear" x1="43.3857" y1="43.2572" x2="49.5088" y2="19.1443" gradientUnits="userSpaceOnUse">
<stop stop-color="white" stop-opacity="0"/>
<stop offset="0.76" stop-color="white" stop-opacity="0.761"/>
<stop offset="0.99" stop-color="white"/>
</linearGradient>
</defs>
</svg>
