<svg width="147" height="100" viewBox="0 0 147 100" fill="none" xmlns="http://www.w3.org/2000/svg">
<g clip-path="url(#clip0)">
<path d="M22.0293 81.2401C20.9743 85.2579 17.2772 87.7687 17.2772 87.7687C17.2772 87.7687 15.2908 83.7654 16.3458 79.7476C17.4009 75.7298 21.0979 73.219 21.0979 73.219C21.0979 73.219 23.0844 77.2223 22.0293 81.2401Z" fill="#223B55"/>
<path d="M20.429 80.3901C17.474 83.3096 17.1434 87.7664 17.1434 87.7664C17.1434 87.7664 21.6039 87.4898 24.5589 84.5703C27.514 81.6508 27.8446 77.194 27.8446 77.194C27.8446 77.194 23.3841 77.4706 20.429 80.3901Z" fill="#3EE5B2"/>
<path d="M24.1347 86.5923H12.5757C11.3078 86.5923 10.28 87.6201 10.28 88.888V91.1692C10.28 92.437 11.3078 93.4649 12.5757 93.4649H24.1347C25.4026 93.4649 26.4304 92.437 26.4304 91.1692V88.888C26.4304 87.6201 25.4026 86.5923 24.1347 86.5923Z" fill="#3EE5B2"/>
<g opacity="0.7">
<path opacity="0.7" d="M135.271 82.2022V79.7258H122.889V91.1792C122.889 91.4962 122.951 91.8102 123.073 92.1031C123.194 92.3961 123.372 92.6623 123.596 92.8865C123.82 93.1107 124.087 93.2885 124.38 93.4099C124.672 93.5312 124.986 93.5937 125.304 93.5937H132.857C133.497 93.5937 134.111 93.3393 134.564 92.8865C135.017 92.4337 135.271 91.8195 135.271 91.1792V88.6408C136.124 88.6392 136.941 88.2993 137.543 87.6957C138.146 87.0921 138.484 86.2742 138.484 85.4215C138.484 84.5688 138.146 83.7509 137.543 83.1473C136.941 82.5437 136.124 82.2038 135.271 82.2022ZM135.271 87.4026V83.4404C135.796 83.4404 136.3 83.6491 136.672 84.0206C137.043 84.3922 137.252 84.8961 137.252 85.4215C137.252 85.9469 137.043 86.4508 136.672 86.8224C136.3 87.1939 135.796 87.4026 135.271 87.4026Z" fill="url(#paint0_linear)"/>
</g>
<path d="M134.873 82.5898C134.291 82.5898 133.723 82.7622 133.24 83.0852C132.756 83.4081 132.379 83.8672 132.157 84.4043C131.935 84.9414 131.876 85.5324 131.99 86.1026C132.103 86.6728 132.383 87.1966 132.794 87.6076C133.205 88.0187 133.729 88.2987 134.299 88.4121C134.869 88.5255 135.46 88.4673 135.998 88.2448C136.535 88.0223 136.994 87.6456 137.317 87.1622C137.64 86.6788 137.812 86.1105 137.812 85.5292C137.812 84.7496 137.502 84.002 136.951 83.4507C136.4 82.8995 135.652 82.5898 134.873 82.5898ZM134.873 87.338C134.515 87.338 134.165 87.2319 133.868 87.0332C133.57 86.8344 133.338 86.5519 133.201 86.2214C133.065 85.8909 133.029 85.5272 133.099 85.1763C133.168 84.8254 133.341 84.5031 133.594 84.2501C133.847 83.9971 134.169 83.8249 134.52 83.7551C134.871 83.6853 135.234 83.7211 135.565 83.858C135.895 83.9949 136.178 84.2268 136.377 84.5242C136.575 84.8217 136.682 85.1714 136.682 85.5292C136.682 86.0089 136.491 86.469 136.152 86.8082C135.812 87.1475 135.352 87.338 134.873 87.338Z" fill="#3EE5B2"/>
<path opacity="0.1" d="M134.873 82.5898C134.291 82.5898 133.723 82.7622 133.24 83.0852C132.756 83.4081 132.379 83.8672 132.157 84.4043C131.935 84.9414 131.876 85.5324 131.99 86.1026C132.103 86.6728 132.383 87.1966 132.794 87.6076C133.205 88.0187 133.729 88.2987 134.299 88.4121C134.869 88.5255 135.46 88.4673 135.998 88.2448C136.535 88.0223 136.994 87.6456 137.317 87.1622C137.64 86.6788 137.812 86.1105 137.812 85.5292C137.812 84.7496 137.502 84.002 136.951 83.4507C136.4 82.8995 135.652 82.5898 134.873 82.5898ZM134.873 87.338C134.515 87.338 134.165 87.2319 133.868 87.0332C133.57 86.8344 133.338 86.5519 133.201 86.2214C133.065 85.8909 133.029 85.5272 133.099 85.1763C133.168 84.8254 133.341 84.5031 133.594 84.2501C133.847 83.9971 134.169 83.8249 134.52 83.7551C134.871 83.6853 135.234 83.7211 135.565 83.858C135.895 83.9949 136.178 84.2268 136.377 84.5242C136.575 84.8217 136.682 85.1714 136.682 85.5292C136.682 86.0089 136.491 86.469 136.152 86.8082C135.812 87.1475 135.352 87.338 134.873 87.338Z" fill="black"/>
<path d="M123.567 80.3287H134.873V91.5179C134.873 91.9085 134.718 92.2831 134.441 92.5593C134.165 92.8355 133.79 92.9907 133.4 92.9907H125.04C124.65 92.9907 124.275 92.8355 123.999 92.5593C123.723 92.2831 123.567 91.9085 123.567 91.5179V80.3287Z" fill="#3EE5B2"/>
<path d="M146.743 92.9907H0V97.965H146.743V92.9907Z" fill="#EEF4F9"/>
<g opacity="0.7">
<path opacity="0.7" d="M96.5211 59.7076C94.9483 53.9989 86.032 49.8302 79.3231 48.9059C79.324 48.8637 79.3263 48.822 79.3263 48.7796V43.8929C79.3334 43.8903 79.3408 43.8881 79.3479 43.8855V43.7002C81.7289 42.8147 83.8774 41.3995 85.631 39.5616C87.3847 37.7237 88.6975 35.5111 89.4703 33.0912C89.8849 32.3415 90.2459 31.5634 90.5504 30.7626C91.2665 30.5018 91.8075 29.3208 91.8075 27.9017C91.8101 27.4163 91.742 26.9331 91.6053 26.4674C91.6932 25.7447 91.7381 25.0173 91.7396 24.2893C91.7424 21.7441 91.21 19.2268 90.1769 16.9008C89.1439 14.5747 87.6333 12.4919 85.7431 10.7874C85.7993 10.495 85.8183 10.1968 85.7998 9.89963C85.648 7.55415 83.1428 5.96068 80.7948 5.85409C81.4151 5.15049 81.8228 4.2853 81.9707 3.35911C82.1187 2.43291 82.0006 1.48376 81.6304 0.621984C80.1333 2.80315 77.0596 3.035 74.4142 3.05216C75.5557 2.61009 76.0693 1.02842 75.4054 2.86102e-06C72.6405 3.70602 67.2506 4.39228 63.962 7.64256C63.2455 8.35348 62.6451 9.17244 62.1825 10.0695C60.0453 11.7721 58.3198 13.935 57.1345 16.397C55.9492 18.8591 55.3347 21.5568 55.3367 24.2893C55.3382 25.0107 55.3822 25.7315 55.4685 26.4478C55.3275 26.9194 55.2572 27.4094 55.26 27.9017C55.26 29.3273 55.806 30.512 56.5271 30.7655C56.8328 31.569 57.1954 32.3498 57.6121 33.1018C58.3822 35.5077 59.6863 37.7083 61.4269 39.539C63.1676 41.3697 65.2996 42.7832 67.6636 43.6736V48.7796C67.6636 48.8189 67.6658 48.8577 67.6666 48.8968C60.9323 49.8053 51.9447 54.0068 50.3859 59.7615C49.0398 64.731 47.6029 70.1887 46.8879 73.393C53.016 77.699 65.8748 80.2274 73.9334 80.2274C81.59 80.2274 94.1045 77.9453 100.052 74.0244C99.408 70.5036 97.9258 64.8063 96.5211 59.7076Z" fill="url(#paint1_linear)"/>
</g>
<path d="M73.917 78.8099C81.3031 78.8099 93.3754 76.6085 99.1129 72.8262C98.4914 69.4298 97.0616 63.9338 95.7065 59.0153C93.9808 52.7513 83.0891 48.4086 76.5917 48.4086H70.3306C63.8131 48.4086 52.9056 52.7764 51.2016 59.0672C49.903 63.8612 48.5169 69.126 47.8272 72.2171C53.7388 76.3709 66.1432 78.8099 73.917 78.8099Z" fill="#3EE5B2"/>
<path d="M73.5357 42.4067C83.2329 42.4067 91.094 34.5456 91.094 24.8485C91.094 15.1513 83.2329 7.29018 73.5357 7.29018C63.8386 7.29018 55.9774 15.1513 55.9774 24.8485C55.9774 34.5456 63.8386 42.4067 73.5357 42.4067Z" fill="#617487"/>
<path opacity="0.1" d="M67.8688 39.473H79.1194V48.4734C79.1194 49.9653 78.5267 51.3961 77.4718 52.4511C76.4168 53.506 74.986 54.0987 73.4941 54.0987H73.4941C72.0022 54.0987 70.5714 53.506 69.5164 52.4511C68.4615 51.3961 67.8688 49.9653 67.8688 48.4734V39.473H67.8688Z" fill="black"/>
<path d="M69.4825 39.0563H77.5056C77.9336 39.0563 78.3441 39.2263 78.6467 39.529C78.9493 39.8316 79.1194 40.242 79.1194 40.67V48.0567C79.1194 49.5487 78.5267 50.9795 77.4718 52.0344C76.4168 53.0893 74.986 53.682 73.4941 53.682H73.4941C72.0022 53.682 70.5714 53.0893 69.5164 52.0344C68.4615 50.9795 67.8688 49.5487 67.8688 48.0567V40.67C67.8688 40.2421 68.0388 39.8316 68.3415 39.529C68.6441 39.2263 69.0546 39.0563 69.4825 39.0563Z" fill="#FDA57D"/>
<path opacity="0.1" d="M67.8896 43.7211C71.5156 45.0759 75.5068 45.0869 79.1402 43.7522V42.3701H67.8896V43.7211Z" fill="black"/>
<path d="M73.5357 44.4744C82.4418 44.4744 89.6615 37.2547 89.6615 28.3486C89.6615 19.4426 82.4418 12.2228 73.5357 12.2228C64.6297 12.2228 57.4099 19.4426 57.4099 28.3486C57.4099 37.2547 64.6297 44.4744 73.5357 44.4744Z" fill="#FDA57D"/>
<path opacity="0.1" d="M62.0493 13.6805C62.0493 13.6805 68.8454 27.4755 88.0163 19.4622L83.5532 12.4633L75.6414 9.62315L62.0493 13.6805Z" fill="black"/>
<path d="M62.0493 13.4776C62.0493 13.4776 68.8454 27.2726 88.0163 19.2593L83.5532 12.2604L75.6414 9.42029L62.0493 13.4776Z" fill="#617487"/>
<path d="M61.989 12.5456C62.447 11.127 63.2389 9.83908 64.2979 8.78997C67.4704 5.65454 72.6698 4.99254 75.337 1.41747C75.9775 2.40955 75.482 3.93533 74.3808 4.36177C76.9328 4.34522 79.8978 4.12156 81.3421 2.01747C81.6992 2.84879 81.813 3.76441 81.6704 4.65788C81.5277 5.55135 81.1343 6.38597 80.536 7.06471C82.801 7.16752 85.2177 8.70468 85.3641 10.9673C85.4617 12.4746 84.5165 13.9018 83.2778 14.7663C82.0391 15.6307 80.5405 16.0276 79.0654 16.3528C74.7595 17.3021 59.1792 21.2813 61.989 12.5456Z" fill="#617487"/>
<path d="M89.661 28.4898H89.2335L80.9159 35.8944C72.9027 32.1414 67.0195 35.8944 67.0195 35.8944L58.2962 28.7941L57.4167 28.9046C57.5359 33.1369 59.3149 37.1525 62.3696 40.0844C65.4243 43.0162 69.5095 44.629 73.7431 44.5745C77.9767 44.5201 82.0191 42.8027 84.9973 39.7932C87.9755 36.7838 89.6507 32.7238 89.661 28.4898ZM73.5113 38.7346C70.3742 38.7346 67.831 38.0988 67.831 37.3145C67.831 36.5302 70.3742 35.8944 73.5113 35.8944C76.6484 35.8944 79.1916 36.5302 79.1916 37.3145C79.1916 38.0988 76.6484 38.7346 73.5113 38.7346Z" fill="#617487"/>
<path d="M57.4035 31.1459C58.232 31.1459 58.9036 29.8866 58.9036 28.3333C58.9036 26.7799 58.232 25.5206 57.4035 25.5206C56.5751 25.5206 55.9035 26.7799 55.9035 28.3333C55.9035 29.8866 56.5751 31.1459 57.4035 31.1459Z" fill="#FDA57D"/>
<path d="M89.6594 31.1459C90.4879 31.1459 91.1595 29.8866 91.1595 28.3333C91.1595 26.7799 90.4879 25.5206 89.6594 25.5206C88.8309 25.5206 88.1593 26.7799 88.1593 28.3333C88.1593 29.8866 88.8309 31.1459 89.6594 31.1459Z" fill="#FDA57D"/>
<g opacity="0.7">
<path opacity="0.7" d="M102.384 57.055H44.3592C43.1496 57.055 42.1689 58.0357 42.1689 59.2454V90.8004C42.1689 92.01 43.1496 92.9907 44.3592 92.9907H102.384C103.594 92.9907 104.574 92.01 104.574 90.8004V59.2454C104.574 58.0357 103.594 57.055 102.384 57.055Z" fill="url(#paint2_linear)"/>
</g>
<g filter="url(#filter0_d)">
<path d="M99.3902 57.718H47.3531C45.1143 57.718 43.2994 59.5329 43.2994 61.7717V88.9371C43.2994 91.1758 45.1143 92.9907 47.3531 92.9907H99.3902C101.629 92.9907 103.444 91.1758 103.444 88.9371V61.7717C103.444 59.5329 101.629 57.718 99.3902 57.718Z" fill="#223B55"/>
</g>
<path d="M73.3716 77.3893C74.4955 77.3893 75.4066 76.4782 75.4066 75.3544C75.4066 74.2305 74.4955 73.3194 73.3716 73.3194C72.2478 73.3194 71.3367 74.2305 71.3367 75.3544C71.3367 76.4782 72.2478 77.3893 73.3716 77.3893Z" fill="white"/>
<path d="M140.525 97.965H6.21793V100H140.525V97.965Z" fill="#EEF4F9"/>
<path opacity="0.1" d="M140.525 97.965H6.21793V98.6434H140.525V97.965Z" fill="#D4DBE0"/>
<path opacity="0.1" d="M132.838 80.3287V90.7862C132.838 91.3708 132.605 91.9316 132.192 92.345C131.779 92.7584 131.218 92.9907 130.633 92.9907H131.764C132.348 92.9907 132.909 92.7584 133.323 92.345C133.736 91.9316 133.968 91.3708 133.968 90.7862V80.3287H132.838Z" fill="black"/>
<path d="M125.798 71.9002C125.608 71.9328 125.392 71.9843 125.299 72.1537C125.151 72.4225 125.419 72.7256 125.665 72.9104C126.118 73.2516 126.595 73.5869 126.903 74.0632C127.211 74.5395 127.308 75.2043 126.971 75.6608C126.532 76.2569 125.483 76.3851 125.382 77.1187C125.316 77.5897 125.724 77.9916 126.136 78.2279C127.155 78.8113 128.467 78.9669 129.205 79.8797C129.51 79.2522 130.193 78.8895 130.873 78.7346C131.553 78.5797 132.26 78.5913 132.95 78.4862C133.172 78.4523 133.423 78.3843 133.523 78.1823C133.716 77.791 133.166 77.3217 133.356 76.9288C133.5 76.6298 133.924 76.653 134.234 76.5333C134.738 76.3383 134.946 75.6894 134.803 75.168C134.66 74.6467 134.256 74.2393 133.83 73.9052C132.685 73.005 131.307 72.4756 129.914 72.0948C129.266 71.9177 128.505 71.64 127.832 71.6131C127.182 71.5872 126.441 71.7902 125.798 71.9002Z" fill="#D4DBE0"/>
</g>
<defs>
<filter id="filter0_d" x="41.2994" y="57.718" width="64.1444" height="39.2726" filterUnits="userSpaceOnUse" color-interpolation-filters="sRGB">
<feFlood flood-opacity="0" result="BackgroundImageFix"/>
<feColorMatrix in="SourceAlpha" type="matrix" values="0 0 0 0 0 0 0 0 0 0 0 0 0 0 0 0 0 0 127 0"/>
<feOffset dy="2"/>
<feGaussianBlur stdDeviation="1"/>
<feColorMatrix type="matrix" values="0 0 0 0 0 0 0 0 0 0 0 0 0 0 0 0 0 0 0.15 0"/>
<feBlend mode="normal" in2="BackgroundImageFix" result="effect1_dropShadow"/>
<feBlend mode="normal" in="SourceGraphic" in2="effect1_dropShadow" result="shape"/>
</filter>
<linearGradient id="paint0_linear" x1="130.69" y1="93.5936" x2="130.69" y2="79.7258" gradientUnits="userSpaceOnUse">
<stop stop-color="#808080" stop-opacity="0.25"/>
<stop offset="0.53514" stop-color="#808080" stop-opacity="0.12"/>
<stop offset="1" stop-color="#808080" stop-opacity="0.1"/>
</linearGradient>
<linearGradient id="paint1_linear" x1="31980.1" y1="52156.2" x2="31980.1" y2="9547.05" gradientUnits="userSpaceOnUse">
<stop stop-color="#808080" stop-opacity="0.25"/>
<stop offset="0.53514" stop-color="#808080" stop-opacity="0.12"/>
<stop offset="1" stop-color="#808080" stop-opacity="0.1"/>
</linearGradient>
<linearGradient id="paint2_linear" x1="30353.8" y1="22179" x2="30353.8" y2="13630.1" gradientUnits="userSpaceOnUse">
<stop stop-color="#808080" stop-opacity="0.25"/>
<stop offset="0.53514" stop-color="#808080" stop-opacity="0.12"/>
<stop offset="1" stop-color="#808080" stop-opacity="0.1"/>
</linearGradient>
<clipPath id="clip0">
<rect width="146.743" height="100" fill="white"/>
</clipPath>
</defs>
</svg>
