<svg width="500" height="375" viewBox="0 0 500 375" fill="none" xmlns="http://www.w3.org/2000/svg">
<g filter="url(#filter0_dd)">
<path d="M46.4875 235.45L253.438 353.95C257.743 356.403 262.613 357.693 267.569 357.693C272.524 357.693 277.394 356.403 281.7 353.95L427.125 271.325C429.081 270.223 430.708 268.62 431.841 266.682C432.974 264.743 433.571 262.539 433.571 260.294C433.571 258.049 432.974 255.844 431.841 253.906C430.708 251.967 429.081 250.365 427.125 249.263L210.738 125.625L46.65 215.863C44.9074 216.828 43.4526 218.24 42.4343 219.952C41.416 221.664 40.8707 223.617 40.8541 225.609C40.8376 227.601 41.3505 229.562 42.3402 231.291C43.33 233.02 44.7612 234.455 46.4875 235.45Z" fill="white"/>
<g style="mix-blend-mode:multiply" opacity="0.63">
<path d="M102.288 215.812L79.7876 228.438L108.75 246.6H109.5C121.225 240.138 131.525 241.988 139.863 236.838C129.138 231.1 112.275 222.838 102.288 215.812Z" fill="#D4DBE0"/>
</g>
<g style="mix-blend-mode:multiply" opacity="0.63">
<path d="M222.987 266.087L172 292.425L223.962 325H225.312C246.35 313.4 260.587 304.787 275.537 295.55C256.25 285.262 240.875 278.75 222.987 266.087Z" fill="#D4DBE0"/>
</g>
<path d="M215.35 279.662L213.975 278.637L215.225 262.462L222.413 262.725C222.413 262.725 222.05 269.637 223.588 271.325C225.125 273.012 229.438 272.2 229.838 272.362C230.238 272.525 233.125 271.925 234.288 273.3C235.45 274.675 229.613 278.012 226.613 278.475C224.556 278.735 222.471 278.664 220.438 278.262C220.438 278.262 220.1 274.075 219.038 274.412C217.975 274.75 217.588 279.112 217.588 279.112L215.35 279.662Z" fill="#9C4100"/>
<path d="M212.4 228.75C211.8 245.662 211.15 267.712 211.15 267.712C211.15 267.712 215.05 272.962 225.65 270.725C226.787 270.487 229.312 243.512 230.55 229.475C224.63 227.881 218.428 227.634 212.4 228.75Z" fill="#653200"/>
<path d="M234.1 293.537L232.725 292.512L233.975 276.337L241.163 276.6C241.163 276.6 240.8 283.512 242.338 285.2C243.875 286.887 248.188 286.075 248.588 286.237C248.988 286.4 251.875 285.8 253.038 287.175C254.2 288.55 248.363 291.887 245.363 292.35C243.306 292.61 241.221 292.539 239.188 292.137C239.188 292.137 238.85 287.95 237.788 288.287C236.725 288.625 236.338 292.987 236.338 292.987L234.1 293.537Z" fill="#9C4100"/>
<path d="M237.187 231.812C232.454 229.671 227.372 228.401 222.188 228.062C223.075 234.387 223.875 238.787 224.025 239.112C224.375 239.912 230.95 280.1 230.95 280.1C238.725 283.2 247.912 280.613 247.912 280.613C247.912 280.613 244.75 249.263 244.475 244.025C244.475 243.458 244.446 242.896 244.387 242.337C244.261 240.093 243.524 237.927 242.254 236.071C240.985 234.216 239.233 232.744 237.187 231.812Z" fill="#653200"/>
<path d="M189.425 241.163C189.425 241.163 202.588 229.363 212.4 228.738C222.213 228.113 236.15 238.175 235.075 244.025C234 249.875 215.2 262.5 215.2 262.5" fill="#653200"/>
<path d="M216.337 220.113L205.85 212.775C205.429 212.484 205.123 212.054 204.986 211.561C204.849 211.068 204.889 210.542 205.1 210.075L212.5 193.75C212.633 193.462 212.825 193.206 213.065 192.998C213.304 192.79 213.585 192.636 213.889 192.545C214.193 192.454 214.513 192.428 214.827 192.47C215.141 192.512 215.443 192.62 215.712 192.788L227.5 200C227.976 200.289 228.323 200.749 228.472 201.285C228.621 201.822 228.559 202.395 228.3 202.888L219.637 219.35C219.488 219.634 219.278 219.883 219.024 220.079C218.769 220.275 218.475 220.414 218.162 220.487C217.849 220.559 217.524 220.563 217.209 220.498C216.894 220.434 216.597 220.302 216.337 220.113Z" fill="#1784AA"/>
<path d="M215.4 219.537L204.912 212.2C204.491 211.909 204.185 211.479 204.048 210.986C203.911 210.492 203.952 209.967 204.162 209.5L211.587 193.15C211.72 192.862 211.913 192.606 212.152 192.398C212.392 192.19 212.673 192.035 212.977 191.944C213.28 191.853 213.6 191.828 213.914 191.87C214.229 191.912 214.531 192.02 214.8 192.187L226.525 199.412C227.001 199.702 227.348 200.161 227.497 200.698C227.646 201.234 227.584 201.807 227.325 202.3L218.662 218.75C218.514 219.031 218.308 219.277 218.057 219.471C217.807 219.666 217.517 219.806 217.209 219.88C216.9 219.955 216.579 219.963 216.268 219.903C215.956 219.844 215.66 219.72 215.4 219.537Z" fill="#29ABE2"/>
<path d="M217.15 218.538L205.35 210.287L213.088 193.25L226.213 201.338L217.15 218.538Z" fill="#E4F5FD"/>
<path d="M211.687 200.475C207.787 202.587 201.687 205 197.575 207.8C196.912 208.25 195.937 209.8 196.587 209.575C196.312 209.887 199 210.937 198.75 211.287C198.662 211.4 200.487 210.412 200.587 210.45C202.125 211.254 203.903 211.468 205.587 211.05L206.262 210.562L206.425 210.462C206.457 210.412 206.5 210.369 206.55 210.337L206.65 210.262C206.67 210.168 206.723 210.083 206.8 210.025C207.7 209.325 209.687 208.95 209.9 207.762C209.863 207.451 209.765 207.149 209.612 206.875C209.563 206.803 209.543 206.715 209.557 206.629C209.571 206.542 209.618 206.465 209.687 206.412C209.762 206.059 209.765 205.695 209.696 205.341C209.628 204.986 209.489 204.65 209.287 204.35L209.512 204.087C210.582 203.33 211.593 202.495 212.537 201.587C212.64 201.492 212.706 201.364 212.725 201.225V201.25C212.729 201.213 212.729 201.175 212.725 201.137C212.723 201.015 212.691 200.896 212.632 200.789C212.572 200.683 212.487 200.593 212.384 200.527C212.282 200.461 212.164 200.422 212.043 200.413C211.921 200.404 211.799 200.425 211.687 200.475Z" fill="#E85454"/>
<path d="M209.7 204.663C209.412 203.913 208.975 203.888 208.3 204.175C206.934 204.779 205.628 205.511 204.4 206.363C204.2 206.5 204.4 206.825 204.6 206.688C205.362 206.175 208.663 203.775 209.325 204.825C209.988 205.875 207.775 206.613 207.162 206.938L204.788 208.188C204.563 208.3 204.788 208.625 204.988 208.513L206.513 207.738C206.501 207.774 206.501 207.813 206.513 207.85C206.641 208.02 206.792 208.172 206.963 208.3C206.827 208.492 206.742 208.715 206.713 208.948C206.685 209.182 206.715 209.418 206.8 209.638L206.875 209.725C206.215 210.406 205.347 210.848 204.407 210.982C203.468 211.115 202.511 210.933 201.688 210.463C201.488 210.313 201.225 210.588 201.425 210.738C202.963 211.888 206.163 211.563 207.25 209.863C207.495 209.829 207.732 209.753 207.95 209.638C208.656 209.379 209.287 208.949 209.787 208.388C209.926 208.155 209.999 207.889 209.999 207.619C209.999 207.348 209.926 207.082 209.787 206.85V206.775C209.881 206.686 209.955 206.58 210.005 206.461C210.056 206.343 210.082 206.216 210.082 206.088C210.082 205.959 210.056 205.832 210.005 205.714C209.955 205.595 209.881 205.489 209.787 205.4C209.823 205.151 209.793 204.896 209.7 204.663ZM209.538 208.138C209.279 208.486 208.935 208.762 208.537 208.938C208.287 209.088 207.675 209.513 207.425 209.45C206.925 209.325 207.225 208.675 207.425 208.4C207.702 208.293 207.96 208.141 208.188 207.95L209.137 207.363L209.45 207.125C209.538 207.275 209.591 207.442 209.606 207.615C209.621 207.788 209.598 207.962 209.538 208.125V208.138ZM208.288 207.425C207.75 207.763 207.313 208.175 206.8 207.588C207.563 207.213 208.312 206.813 209.025 206.338C209.246 206.212 209.437 206.042 209.587 205.838C210 206.538 208.75 207.163 208.325 207.413L208.288 207.425Z" fill="#653200"/>
<path d="M200 204.887C200 204.887 202.637 205.475 202.825 210.95L200.85 215.812L190.125 210.3C190.125 210.3 192.712 207.112 200 204.887Z" fill="#88D3D8"/>
<path d="M225.438 207.5C224.638 209.237 223.85 210.825 223.175 212.612C222.688 211.437 222.225 210.463 221.638 209.325C221.611 209.285 221.582 209.248 221.55 209.212C221.442 209.034 221.276 208.897 221.08 208.824C220.884 208.752 220.669 208.748 220.47 208.813C220.271 208.878 220.101 209.009 219.986 209.183C219.871 209.358 219.819 209.567 219.838 209.775C220.026 210.856 220.453 211.88 221.088 212.775C220.994 212.823 220.91 212.886 220.838 212.962C219.288 214.662 219.663 217.262 219.838 219.35C219.844 219.493 219.887 219.631 219.964 219.752C220.041 219.873 220.148 219.971 220.274 220.037C220.401 220.103 220.543 220.134 220.686 220.127C220.829 220.121 220.967 220.077 221.088 220C221.231 220.003 221.373 219.968 221.5 219.9C222.886 218.96 223.882 217.547 224.3 215.925C225.225 213.213 226.35 210.275 225.438 207.5Z" fill="#E85454"/>
<path d="M185.4 207.325L189.275 206.188C190.237 206.325 198.625 209.713 202.112 215.625C202.534 217.43 202.819 219.264 202.962 221.112C203.275 223.612 203.537 226.038 203.662 228.525C203.825 231.22 203.783 233.924 203.537 236.612C203.412 237.762 203.35 238.337 203.137 239.475C202.686 239.865 202.17 240.174 201.612 240.387C189.975 244.387 181.45 237.887 181.087 236.975C180.725 236.062 180.187 222.775 179.9 214.875C179.845 213.184 180.357 211.523 181.353 210.155C182.349 208.788 183.774 207.792 185.4 207.325Z" fill="#88D3D8"/>
<path d="M195.662 193.638C195.662 193.638 198.275 206.637 193.437 208.037C188.6 209.437 182.9 204.025 182.487 201.35C182.075 198.675 188.875 189.3 195.662 193.638Z" fill="#E85454"/>
<path d="M193.75 198.837C193.9 198.625 196.688 197.9 197.263 195.575C197.838 193.25 195.725 190.212 190.888 189.775C186.05 189.337 177.913 191.95 179.163 204.575C180.413 217.2 193.25 211.775 194.088 207.737C194.533 204.776 194.419 201.757 193.75 198.837Z" fill="#653200"/>
<path d="M193.75 198.838C193.75 198.838 194.563 203.15 196.338 205C198.113 206.85 199.525 210.225 197.363 212.8C195.2 215.375 197.363 216.763 200.413 219.225C203.463 221.688 201.588 231.725 190.538 229.225C179.488 226.725 174.288 220.175 174.288 220.175C174.288 220.175 177.125 200.525 180.125 195.925" fill="#653200"/>
<path d="M202.137 215.812C202.137 215.812 204.637 224.1 207.137 224.35C209.637 224.6 213.387 220.938 216.087 216.175C217.033 216.082 217.988 216.183 218.893 216.471C219.798 216.76 220.635 217.229 221.353 217.851C222.072 218.473 222.655 219.235 223.07 220.09C223.484 220.945 223.719 221.876 223.762 222.825C223.762 222.825 215.012 240.475 202.137 236.163" fill="#88D3D8"/>
<path d="M156.062 278.987C148.175 269.262 144.562 256.812 144.712 244.362C144.806 234.25 148.8 224.564 155.862 217.325C162.362 210.725 172.175 207.475 180.862 211.95C188.087 215.7 191.587 222.787 194.1 230.087C197.112 238.837 198.137 250.087 208.9 252.737C213.075 253.787 217.463 253.062 221.763 252.737C229.263 252.237 237.162 254.637 239.487 262.537C243.662 276.687 224.488 288.787 213.613 293.337C204.258 297.145 193.974 298.05 184.098 295.934C174.222 293.819 165.211 288.781 158.237 281.475C157.496 280.683 156.771 279.854 156.062 278.987Z" fill="#1CD49C"/>
<path d="M239.163 262.75C231.513 276.437 206.663 282.612 193.025 281.925C180.7 281.3 172.913 273.85 173.75 261.512C174.213 254.737 176.388 247.975 175.775 241.15C174.738 229.525 163.575 219.987 152.188 222.25C147.326 228.899 144.664 236.901 144.575 245.137C144.413 257.637 148.038 270.037 155.925 279.762C156.625 280.596 157.363 281.429 158.138 282.262C165.111 289.568 174.122 294.606 183.998 296.722C193.874 298.838 204.158 297.933 213.513 294.125C224.325 289.562 243.513 277.487 239.388 263.325C239.325 263.15 239.238 262.962 239.163 262.75Z" fill="#3EE5B2"/>
<path d="M237.425 111.637L236.175 176.737C236.156 177.433 235.962 178.113 235.611 178.713C235.26 179.314 234.762 179.816 234.166 180.174C233.569 180.532 232.891 180.733 232.196 180.759C231.501 180.786 230.81 180.636 230.187 180.325L174.287 152.825C173.355 152.37 172.573 151.657 172.035 150.771C171.496 149.884 171.224 148.862 171.25 147.825L172.5 82.6999C172.518 81.943 172.728 81.2031 173.111 80.5495C173.493 79.8959 174.035 79.3499 174.685 78.9628C175.336 78.5756 176.074 78.3599 176.831 78.3358C177.588 78.3117 178.338 78.48 179.012 78.8249L234.425 106.712C235.338 107.167 236.105 107.871 236.636 108.742C237.166 109.614 237.44 110.617 237.425 111.637Z" fill="#1CD49C"/>
<path d="M318.55 162.85L317.3 227.95C317.281 228.646 317.087 229.325 316.736 229.926C316.385 230.527 315.887 231.029 315.291 231.387C314.694 231.744 314.016 231.946 313.321 231.972C312.626 231.998 311.935 231.849 311.312 231.538L255.412 204.038C254.48 203.583 253.698 202.87 253.16 201.983C252.621 201.097 252.349 200.074 252.375 199.038L253.625 133.913C253.643 133.156 253.854 132.416 254.236 131.762C254.618 131.109 255.16 130.563 255.81 130.175C256.461 129.788 257.199 129.573 257.956 129.548C258.713 129.524 259.463 129.693 260.137 130.038L315.55 157.925C316.463 158.38 317.23 159.083 317.761 159.955C318.291 160.826 318.565 161.83 318.55 162.85Z" fill="#FFEDD9"/>
<path d="M404.9 206.762L403.65 271.862C403.631 272.558 403.437 273.238 403.086 273.838C402.734 274.439 402.237 274.941 401.64 275.299C401.044 275.657 400.366 275.858 399.671 275.884C398.975 275.911 398.285 275.761 397.662 275.45L341.762 247.95C340.83 247.495 340.048 246.782 339.51 245.896C338.971 245.009 338.699 243.987 338.725 242.95L339.975 177.825C339.993 177.068 340.203 176.328 340.586 175.674C340.968 175.021 341.51 174.475 342.16 174.088C342.811 173.701 343.549 173.485 344.306 173.461C345.063 173.437 345.813 173.605 346.487 173.95L401.9 201.837C402.813 202.292 403.58 202.996 404.11 203.867C404.641 204.738 404.915 205.742 404.9 206.762Z" fill="#647688"/>
<path d="M291.075 55.15L289.825 120.25C289.806 120.946 289.612 121.625 289.261 122.226C288.91 122.826 288.413 123.329 287.816 123.687C287.219 124.044 286.541 124.245 285.846 124.272C285.151 124.298 284.46 124.149 283.838 123.837L227.988 96.25C227.056 95.7952 226.274 95.0821 225.735 94.1957C225.197 93.3093 224.924 92.2868 224.95 91.25L226.2 26.125C226.219 25.368 226.429 24.6281 226.811 23.9745C227.193 23.3209 227.735 22.775 228.386 22.3878C229.036 22.0007 229.775 21.7849 230.531 21.7608C231.288 21.7367 232.039 21.905 232.713 22.25L288.125 50.1375C289.043 50.6056 289.808 51.3259 290.331 52.2138C290.853 53.1017 291.112 54.1203 291.075 55.15Z" fill="#FFAF5F"/>
<path d="M376.725 101.863L375.475 166.963C375.456 167.658 375.262 168.338 374.911 168.938C374.56 169.539 374.063 170.041 373.466 170.399C372.869 170.757 372.191 170.958 371.496 170.984C370.801 171.011 370.11 170.861 369.488 170.55L313.588 143.05C312.655 142.595 311.874 141.882 311.335 140.996C310.797 140.109 310.524 139.087 310.55 138.05L311.8 72.925C311.818 72.1681 312.029 71.4282 312.411 70.7746C312.793 70.121 313.335 69.575 313.985 69.1879C314.636 68.8007 315.374 68.585 316.131 68.5609C316.888 68.5368 317.639 68.7051 318.313 69.05L373.75 96.925C374.661 97.3841 375.423 98.0912 375.95 98.9648C376.476 99.8383 376.745 100.843 376.725 101.863Z" fill="#FFD3C0"/>
<path d="M69.3249 193.625C69.3249 193.625 66.6874 224.875 83.3499 230.375C100.012 235.875 108.35 219.925 107.7 192.4" fill="#223B55"/>
<path d="M88.8754 204.111C99.4739 203.774 107.908 198.534 107.713 192.406C107.518 186.279 98.7688 181.585 88.1703 181.922C77.5718 182.258 69.1378 187.499 69.3325 193.626C69.5272 199.753 78.2768 204.447 88.8754 204.111Z" fill="#647688"/>
<path d="M92.6499 168.187C92.6499 168.187 84.7749 157.55 87.8124 149.925C87.8124 149.925 90.3124 145.012 94.1874 144.112C94.1874 144.112 94.1874 154.437 97.9374 153C101.687 151.562 97.5999 142.212 97.5999 142.212C97.5999 142.212 101.462 136.625 105.875 136.65C110.287 136.675 106.187 146.287 109.2 144.625C112.212 142.962 109.087 135 112.5 133.925C115.639 133.1 118.829 132.486 122.05 132.087C122.05 132.087 125.612 141.387 122.387 142.837C119.162 144.287 114.387 144.9 116.75 146.9C119.112 148.9 125.575 146.312 125.575 146.312C125.575 146.312 126.15 151.587 124 153.95C121.85 156.312 108.637 151.662 111.087 156.137C113.537 160.612 122.1 158.062 122.1 158.062C122.1 158.062 117.887 164.512 112.8 167.562C107.712 170.612 92.6499 168.187 92.6499 168.187Z" fill="#3EE5B2"/>
<path d="M95.2875 195.35C95.2875 195.35 89.675 190.15 90.6 185.5C90.6 185.5 91.525 182.438 93.6 181.525C93.6 181.525 94.675 187.388 96.675 186.175C98.675 184.963 95.325 180.088 95.325 180.088C95.325 180.088 96.9125 176.5 99.4375 176.05C101.963 175.6 100.688 181.488 102.175 180.225C103.663 178.963 101.088 174.763 102.913 173.8C104.606 172.997 106.352 172.307 108.138 171.738C108.138 171.738 111.15 176.638 109.475 177.8C107.8 178.963 105.15 179.825 106.713 180.7C108.275 181.575 111.713 179.45 111.713 179.45C111.713 179.45 112.6 182.388 111.638 183.95C110.675 185.513 102.675 184.288 104.538 186.575C106.4 188.863 111 186.488 111 186.488C109.992 188.868 108.541 191.035 106.725 192.875C104.088 195.1 95.2875 195.35 95.2875 195.35Z" fill="#3EE5B2"/>
<path d="M74.8999 184.375C74.8999 184.375 61.6999 185.313 56.8999 178.638C56.8999 178.638 54.1249 173.838 55.4249 170.138C55.4249 170.138 64.0999 175.725 64.9249 171.75C65.7499 167.775 55.6499 166.25 55.6499 166.25C55.6499 166.25 53.0124 160 55.4124 156.25C57.8124 152.5 63.7499 161.25 63.9249 157.763C64.0999 154.275 55.7374 152.688 56.6749 149.213C57.6633 146.124 58.8577 143.104 60.2499 140.175C60.2499 140.175 70.0124 142.163 69.4999 145.663C68.9874 149.163 66.9374 153.525 69.8999 152.6C72.8624 151.675 74.1375 144.838 74.1375 144.838C74.1375 144.838 78.9 147.188 79.7375 150.263C80.575 153.338 69.5499 161.988 74.6374 162.325C79.725 162.663 82.1375 154.063 82.1375 154.063C82.1375 154.063 85.3125 161.088 85.15 167.013C84.9875 172.938 74.8999 184.375 74.8999 184.375Z" fill="#3EE5B2"/>
<path d="M119.325 136.35C117.958 137.583 116.588 138.833 115.213 140.1C115.313 138.6 115.438 137.1 115.625 135.6C115.725 134.812 114.513 134.512 114.375 135.3C114.125 137.3 113.95 139.308 113.85 141.325C110.25 144.687 106.675 148.212 103.375 151.925C102.999 149.402 102.84 146.851 102.9 144.3C102.9 143.5 101.65 143.537 101.65 144.3C101.587 147.231 101.804 150.161 102.3 153.05C100.189 155.476 98.2153 158.017 96.3876 160.662C94.1452 157.764 92.5741 154.404 91.7876 150.825C91.6126 150.037 90.4251 150.412 90.5376 151.2C91.3879 155.011 93.0981 158.576 95.5376 161.625C95.5741 161.668 95.6161 161.706 95.6626 161.737C90.4126 169.7 86.9126 178.55 86.9126 188.687C86.9126 189.487 88.1626 189.45 88.1626 188.687C88.1626 178.937 91.5126 170.375 96.5501 162.675C101.636 163.851 106.879 164.193 112.075 163.687C112.875 163.612 112.838 162.362 112.075 162.437C107.142 162.917 102.165 162.618 97.3251 161.55C99.8578 157.886 102.657 154.415 105.7 151.162H105.813C108.738 151.325 111.663 151.5 114.563 151.512C116.406 151.72 118.271 151.444 119.975 150.712C120.688 150.325 119.975 149.275 119.313 149.65C117.325 150.725 114.488 150.287 112.325 150.225C110.475 150.225 108.575 150.075 106.763 149.975C111.075 145.425 115.713 141.225 120.2 137.112C120.838 136.662 119.913 135.812 119.325 136.35Z" fill="#223B55"/>
<path d="M81.3875 161.9C81.4273 161.734 81.3996 161.56 81.3105 161.414C81.2214 161.269 81.0782 161.165 80.9125 161.125C80.7467 161.085 80.5719 161.113 80.4266 161.202C80.2813 161.291 80.1773 161.434 80.1375 161.6C78.9362 166.25 76.2556 170.382 72.5 173.375C70.9583 169.492 69.5375 165.563 68.2375 161.588C71.1568 158.488 73.5242 154.911 75.2375 151.013C75.5625 150.275 74.4625 149.675 74.1375 150.413C72.5612 153.995 70.417 157.301 67.7875 160.2C66.3375 155.65 65.0375 151.038 63.9125 146.388C63.725 145.6 62.525 145.975 62.6625 146.763C64.1958 153.138 66.0375 159.413 68.1875 165.588C65.8179 165.201 63.5047 164.525 61.3 163.575C60.5625 163.263 59.9625 164.35 60.7 164.675C63.2674 165.793 65.9759 166.555 68.75 166.938C70.2 171.013 71.8 175.025 73.5125 178.988C69.7712 178.987 66.0625 178.292 62.575 176.938C61.8375 176.65 61.225 177.75 61.975 178.038C65.8156 179.544 69.9122 180.291 74.0375 180.238C76.2041 185.179 78.5666 190.038 81.125 194.813C81.5125 195.525 82.5625 194.813 82.1875 194.15C78.7662 187.808 75.699 181.281 73 174.6C77.1265 171.414 80.077 166.946 81.3875 161.9Z" fill="#223B55"/>
<path d="M104.525 177.325L101.275 183.2C100.835 182.651 100.45 182.061 100.125 181.437C99.75 180.725 98.7 181.437 99.0625 182.1C99.481 182.896 99.9884 183.643 100.575 184.325L97.05 190.687C96.6167 190.304 96.3296 189.783 96.2375 189.212C96.1125 188.425 94.8625 188.462 94.9875 189.212C95.1365 190.199 95.6547 191.093 96.4375 191.712L92.025 199.675C91.9454 199.821 91.9271 199.992 91.9739 200.152C92.0208 200.311 92.1291 200.445 92.275 200.525C92.4209 200.604 92.5924 200.623 92.7518 200.576C92.9112 200.529 93.0454 200.421 93.125 200.275L98.9375 189.775C99.9693 189.76 100.991 189.574 101.962 189.225C102.712 188.95 102.35 187.75 101.587 187.975C100.965 188.192 100.319 188.335 99.6625 188.4L105.55 177.762C105.542 177.647 105.503 177.536 105.436 177.442C105.369 177.348 105.278 177.274 105.172 177.229C105.066 177.184 104.949 177.169 104.835 177.186C104.721 177.203 104.613 177.251 104.525 177.325Z" fill="#223B55"/>
<path d="M314.638 215.862C314.638 215.862 314.375 202.55 314.213 199.25C314.063 196.262 313.638 183.175 305.65 178.7C295.563 173.05 283.95 165.775 272.838 168.45C263.825 170.625 259.463 201.312 259.463 203.375C259.475 207.075 286.25 227.787 314.638 215.862Z" fill="#68E1FD"/>
<path d="M278.413 151.075C276.812 149.379 275.705 147.279 275.213 145C274.125 140.812 276.463 134.9 281 134.537C285.538 134.175 286.775 136.55 286.775 136.55C286.775 136.55 303.613 134.312 305.625 147.525C305.938 151.275 307.375 164.612 296.388 167.062C285.4 169.512 290 154.262 290 154.262" fill="#223B55"/>
<path d="M278.075 148.162C278.075 148.162 277.75 156.787 277.562 160C277.375 163.212 278.4 172.562 283.975 172.5C289.55 172.437 295.512 166.25 295.587 164.75C295.587 164.75 301.35 161.5 298.3 158.675C295.25 155.85 294.8 160.387 294.8 160.387C294.8 160.387 293.187 157.812 293.362 151.087C288.096 151.507 282.814 150.496 278.075 148.162Z" fill="#FFAC73"/>
<path d="M295 173.75C292.05 176.25 287.425 176.525 283.188 175.737C282.866 175.707 282.566 175.565 282.338 175.337C282.11 175.109 281.968 174.809 281.938 174.487C281.938 173.237 281.938 171.875 281.838 170.562L296.838 164.025L295.3 173.312C295.3 173.312 295.125 173.425 295 173.75Z" fill="#FFAC73"/>
<path d="M284.775 175.925C284.2 175.863 283.637 175.775 283.075 175.675C282.761 175.64 282.47 175.496 282.253 175.267C282.036 175.038 281.906 174.74 281.887 174.425C281.887 173.75 281.887 173.063 281.887 172.388C284.987 172.538 290.538 172.025 293.7 166.413C293.232 168.666 292.151 170.747 290.577 172.425C289.002 174.104 286.994 175.315 284.775 175.925Z" fill="#E5894A"/>
<path d="M296.475 170.762C295.225 171.5 293.975 172.2 292.725 172.862C290.954 173.858 289.086 174.67 287.15 175.287C285.537 175.762 282.737 176.425 281.887 174.387C281.821 174.024 281.821 173.651 281.887 173.287C281.929 172.843 281.929 172.395 281.887 171.95C281.163 171.646 280.535 171.149 280.075 170.512C280.04 170.46 280.019 170.4 280.012 170.337C280.012 170.337 275.687 181.187 276.262 181.737C276.837 182.287 281.575 179.787 281.575 179.787C281.575 179.787 283.387 183.937 284.15 184.362C284.912 184.787 295.4 176.325 296.9 173.85L296.475 170.762Z" fill="#D4DEE8"/>
<path d="M277.575 181.25C276.96 182.727 276.889 184.375 277.375 185.9C277.375 185.9 279.225 186.837 279.6 186.712C280.904 185.63 282.075 184.397 283.088 183.037C282.963 182.837 281.338 179.525 281.338 179.525L277.575 181.25Z" fill="#F47A63"/>
<path d="M277.375 185.938C277.375 185.938 269.462 212.038 269.875 212.275C270.287 212.513 276.125 215.8 278.15 216.025L279.55 186.737" fill="#F47A63"/>
<path d="M279.4 161.638H279.3C277.525 161.563 276.162 159.588 276.262 157.238C276.362 154.888 277.875 153.025 279.663 153.113C281.45 153.2 282.8 155.163 282.7 157.513C282.6 159.863 281.125 161.638 279.4 161.638ZM279.55 153.738C278.15 153.738 276.963 155.3 276.875 157.263C276.788 159.225 277.888 161.013 279.375 161.013C280.863 161.013 282.038 159.488 282.125 157.488C282.213 155.488 281.113 153.738 279.625 153.738H279.55Z" fill="#42210B"/>
<path d="M287.5 163.875H287.375C286.881 163.852 286.399 163.716 285.965 163.478C285.532 163.239 285.159 162.905 284.875 162.5C284.239 161.619 283.925 160.547 283.987 159.462C283.947 158.422 284.317 157.407 285.019 156.637C285.721 155.867 286.697 155.405 287.737 155.35C288.232 155.373 288.714 155.509 289.147 155.747C289.58 155.985 289.953 156.32 290.237 156.725C290.855 157.612 291.164 158.677 291.117 159.757C291.07 160.837 290.668 161.871 289.975 162.7C289.672 163.063 289.294 163.357 288.867 163.56C288.439 163.763 287.973 163.87 287.5 163.875ZM287.612 155.975C286.766 156.078 285.991 156.498 285.441 157.149C284.892 157.801 284.609 158.636 284.65 159.487C284.594 160.428 284.864 161.359 285.412 162.125C285.629 162.46 285.923 162.739 286.27 162.937C286.617 163.136 287.006 163.248 287.405 163.265C287.804 163.283 288.201 163.204 288.563 163.036C288.926 162.868 289.243 162.615 289.487 162.3C290.087 161.601 290.435 160.72 290.475 159.8C290.53 158.859 290.261 157.928 289.712 157.162C289.487 156.838 289.191 156.568 288.847 156.374C288.503 156.179 288.119 156.064 287.725 156.037L287.612 155.975Z" fill="#42210B"/>
<path d="M282.369 158.132L282.255 158.747L284.295 159.126L284.409 158.511L282.369 158.132Z" fill="#42210B"/>
<path d="M295.331 158.525L290.715 159.47L290.84 160.083L295.457 159.138L295.331 158.525Z" fill="#42210B"/>
<path d="M284.125 105.537C284.125 105.537 283.875 92.9375 283.725 89.8125C283.575 86.9875 283.175 74.6 275.625 70.3625C266.075 65.0125 255.1 58.125 244.575 60.6625C236.05 62.7125 231.913 91.7625 231.925 93.7125C231.925 97.2125 257.275 116.812 284.125 105.537Z" fill="#2B415D"/>
<path d="M269 66.6624C269 66.6624 270.338 77.6749 260 78.0999C252.763 78.3999 254.613 72.6124 254.613 72.6124C254.613 72.6124 250.963 75.3249 247.313 72.9499C243.663 70.5749 250.163 62.1249 253 61.6999C255.838 61.2749 262.5 61.6749 269 66.6624Z" fill="#68E1FD"/>
<path d="M280.549 39.6235C280.743 35.1266 277.254 31.3244 272.757 31.1312C268.26 30.938 264.458 34.4269 264.264 38.9239C264.071 43.4209 267.56 47.223 272.057 47.4162C276.554 47.6094 280.356 44.1205 280.549 39.6235Z" fill="#223B55"/>
<path d="M248.95 45.0625C247.724 43.3818 247.063 41.3553 247.062 39.275C246.987 38.2715 247.075 37.2623 247.325 36.2875C247.685 35.2781 248.419 34.4457 249.375 33.9625C250.091 33.5338 250.75 33.0173 251.337 32.425C251.337 32.425 272.8 29.2125 274.7 41.7125C275 45.2 274.287 55.675 264.575 59.65C254.862 63.625 259.887 48.0875 259.887 48.0875" fill="#223B55"/>
<path d="M253.337 62.925L266.25 57.2625L264.8 66.0125C264.8 66.0125 264.7 66.175 264.525 66.4375C262.125 68.4625 258.55 68.9375 255.05 68.5625C254.675 68.5189 254.328 68.3445 254.07 68.0701C253.812 67.7957 253.658 67.4388 253.637 67.0625C253.625 65.7 253.525 64.3 253.337 62.925Z" fill="#FFAC73"/>
<path d="M248.65 42.6876C248.576 42.1011 248.627 41.5055 248.8 40.9402C248.973 40.375 249.264 39.8529 249.654 39.4086C250.044 38.9642 250.524 38.6078 251.062 38.3628C251.6 38.1179 252.184 37.99 252.775 37.9876C254.025 37.8501 255.275 37.8876 255.938 39.1001C256.813 40.5751 256.863 42.2876 258.175 43.5626C258.821 44.1719 259.625 44.5884 260.495 44.7651C261.365 44.9418 262.268 44.8716 263.1 44.5626C263.1 45.9376 262.825 46.9626 261.125 47.3501C259.425 47.7376 249.838 45.4501 248.65 42.6876Z" fill="#FFAC73"/>
<path d="M265.625 39.475C260.625 37.45 255.85 36.175 250.45 36.675C250.215 36.6778 249.99 36.7698 249.821 36.9323C249.651 37.0948 249.55 37.3156 249.538 37.55C249.238 35.375 248.95 29.925 253.4 28.4625C259 26.625 268.075 29.6375 270.4 34.7125C271.564 37.2093 272.056 39.9672 271.825 42.7125C269.946 41.307 267.852 40.2138 265.625 39.475Z" fill="#223B55"/>
<path d="M253.575 65.225L253.7 67.0874C253.7 67.0874 262.163 67.2125 263.638 60.3875L253.575 65.225Z" fill="#E28E54"/>
<path d="M248.625 42.3C248.625 42.3 248.313 50.4625 248.138 53.55C247.963 56.6375 250.8 65.25 254.2 65.3875C259.5 65.6 265.125 59.45 265.188 58.05C265.188 58.05 270.638 54.975 267.688 52.3C264.738 49.625 264.375 53.925 264.375 53.925C264.375 53.925 262.85 51.425 263.013 45.175C258.046 45.5242 253.076 44.5312 248.625 42.3Z" fill="#FFAC73"/>
<path d="M238.563 100.362C238.085 100.038 237.626 99.6874 237.188 99.3125C237.673 92.966 238.796 86.6845 240.538 80.5625C240.838 79.4875 242.488 80.025 242.188 81.0875C240.38 87.4289 239.253 93.9448 238.825 100.525L238.563 100.362Z" fill="#17283A"/>
<path d="M270.663 108.887C270.417 108.87 270.171 108.87 269.925 108.887L270.225 87.0624C270.235 86.8336 270.335 86.6182 270.504 86.4635C270.673 86.3088 270.896 86.2274 271.125 86.2374C271.354 86.2473 271.569 86.3477 271.724 86.5165C271.879 86.6853 271.96 86.9086 271.95 87.1374L271.65 108.812C271.319 108.81 270.989 108.835 270.663 108.887Z" fill="#17283A"/>
<path d="M266.463 60.0001C264.63 58.0828 263.434 55.6471 263.038 53.0251C262.563 48.9251 267.925 51.0001 268.725 52.8001C269.525 54.6001 269.013 59.1751 266.463 60.0001Z" fill="#223B55"/>
<path d="M369.087 155.538C369.087 155.538 368.838 142.563 368.675 139.288C368.525 136.388 368.113 123.625 360.325 119.288C350.488 113.775 339.187 106.688 328.35 109.288C319.6 111.4 315.312 141.313 315.325 143.313C315.35 146.975 341.45 167.163 369.087 155.538Z" fill="#2B415D"/>
<path d="M350 120.437C350 121.125 349.125 122.112 348.75 122.675C345.963 127.475 343.475 132.562 340.8 137.475C338.125 142.387 337.138 156.025 336.825 156.925C336.825 157.012 327.113 152.925 327.038 152.962C326.963 153 326.525 145.8 326.538 145.362C326.763 137.5 326.35 133.462 328.05 127.475C329.3 123.225 331.25 120.4 332.425 116.15C332.849 113.984 333.555 111.882 334.525 109.9C335.8 107.85 350.213 115.837 350 120.437Z" fill="#68E1FD"/>
<path d="M352.775 159.137H351.975C352.283 153.729 352.529 148.312 352.713 142.887C352.723 142.652 352.826 142.43 352.999 142.271C353.173 142.111 353.402 142.027 353.638 142.037C353.873 142.047 354.095 142.15 354.254 142.324C354.414 142.497 354.498 142.727 354.488 142.962C354.304 148.337 354.058 153.708 353.75 159.075L352.775 159.137Z" fill="#17283A"/>
<path d="M323.75 151.1L323.562 151L323.1 150.712L322.55 150.375L322.087 150.1C322.387 143.675 322.854 137.262 323.487 130.862C323.6 129.725 325.375 129.8 325.262 130.937C324.604 137.537 324.129 144.146 323.837 150.762C323.831 150.88 323.801 150.994 323.75 151.1Z" fill="#17283A"/>
<path d="M334.575 109.875C334.575 109.875 332.075 122.937 333.125 124.325L337.787 120.987L340.287 126.7L351.912 117.45L334.575 109.875Z" fill="#2B415D"/>
<path d="M333.463 89.575C333.463 89.575 333.15 97.9874 332.963 101.1C332.775 104.212 333.788 113.35 339.213 113.3C344.638 113.25 350.463 107.187 350.463 105.8C350.463 105.8 356.075 102.625 353.1 99.875C350.125 97.1249 349.688 101.55 349.688 101.55C349.688 101.55 348.113 99.0499 348.288 92.4874C343.174 92.8636 338.054 91.8577 333.463 89.575Z" fill="#FFAC73"/>
<path d="M349.9 114.463C347.025 116.888 342.513 117.175 338.388 116.4C338.064 116.377 337.759 116.238 337.529 116.008C337.3 115.778 337.161 115.474 337.138 115.15C337.138 113.9 337.138 112.65 337.05 111.325L351.675 105L350.175 114.05C350.175 114.05 350.088 114.2 349.9 114.463Z" fill="#FFAC73"/>
<path d="M340 116.637C339.45 116.575 338.887 116.487 338.35 116.387C338.036 116.362 337.743 116.22 337.53 115.988C337.317 115.756 337.199 115.452 337.2 115.137C337.2 114.475 337.2 113.812 337.2 113.15C340.225 113.3 345.637 112.8 348.712 107.325C348.258 109.529 347.204 111.564 345.667 113.207C344.129 114.85 342.169 116.037 340 116.637Z" fill="#E5894A"/>
<path d="M368.525 114.575C363.713 108.775 361.75 97.575 361.75 97.575C360.85 85.3125 352.3 81.25 344.713 80.4875C337.125 79.725 331.225 82.3625 330.6 87.4625C330.353 88.8276 330.475 90.2338 330.951 91.5365C331.428 92.8392 332.243 93.9916 333.313 94.875C333.313 94.875 346.05 99.1625 346.963 97.6125C347.875 96.0625 348.363 88.7 348.7 98.375C348.813 101.575 348.613 104.763 348.45 107.95C348.284 111.844 348.447 115.746 348.938 119.613C349.275 122.5 349.575 125.725 352.3 127.4C354.486 128.685 356.961 129.397 359.496 129.471C362.03 129.546 364.542 128.979 366.8 127.825C367.975 135.037 368.722 142.312 369.038 149.613C369.038 149.613 377.938 149.438 379.525 136.263C381.113 123.088 373.338 120.375 368.525 114.575Z" fill="#223B55"/>
<path d="M231.963 163.113C231.963 163.113 231.7 149.8 231.538 146.5C231.388 143.513 230.963 130.425 222.975 125.95C212.888 120.3 201.275 113.025 190.163 115.7C181.15 117.875 176.788 148.563 176.788 150.625C176.8 154.325 203.588 175 231.963 163.113Z" fill="white"/>
<path d="M195.738 98.3375C194.123 96.6465 193.004 94.5454 192.5 92.2625C191.413 88.075 193.75 82.1625 198.288 81.8C202.825 81.4375 204.113 83.75 204.113 83.75C204.113 83.75 220.95 81.5125 222.963 94.725C223.275 98.475 224.713 111.813 213.725 114.263C202.738 116.713 207.313 101.45 207.313 101.45" fill="#223B55"/>
<path d="M195.4 95.4124C195.4 95.4124 195.075 104.037 194.887 107.25C194.7 110.462 195.725 119.812 201.3 119.75C206.875 119.687 212.837 113.5 212.912 112C212.912 112 218.675 108.75 215.625 105.925C212.575 103.1 212.125 107.637 212.125 107.637C212.125 107.637 210.512 105.062 210.687 98.3373C205.421 98.7566 200.139 97.746 195.4 95.4124Z" fill="#FFAC73"/>
<path d="M212.263 120.95C209.313 123.45 204.688 123.725 200.45 122.938C200.129 122.907 199.828 122.766 199.6 122.537C199.372 122.309 199.231 122.009 199.2 121.688C199.2 120.438 199.2 119.075 199.1 117.763L214.1 111.225L212.5 120.513C212.5 120.513 212.5 120.688 212.263 120.95Z" fill="#FFAC73"/>
<path d="M202.1 123.188C201.525 123.125 200.962 123.038 200.4 122.938C200.086 122.903 199.795 122.758 199.578 122.529C199.361 122.301 199.231 122.002 199.212 121.688C199.212 121.013 199.212 120.325 199.212 119.65C202.312 119.8 207.862 119.288 211.025 113.675C210.557 115.929 209.476 118.009 207.902 119.688C206.327 121.366 204.319 122.577 202.1 123.188Z" fill="#E5894A"/>
<path d="M213.75 118.013C212.5 118.75 211.25 119.45 210 120.113C208.247 121.091 206.4 121.891 204.487 122.5C202.875 122.975 200.075 123.638 199.225 121.6C199.158 121.236 199.158 120.864 199.225 120.5C199.266 120.055 199.266 119.607 199.225 119.163C198.5 118.859 197.873 118.362 197.412 117.725C197.378 117.673 197.356 117.613 197.35 117.55C197.35 117.55 193.025 128.4 193.6 128.95C194.175 129.5 198.913 127 198.913 127C198.913 127 200.725 131.15 201.488 131.575C202.25 132 212.738 123.538 214.238 121.063L213.75 118.013Z" fill="#D4DEE8"/>
<path d="M194.912 128.538C194.298 130.015 194.227 131.663 194.712 133.188C194.712 133.188 196.562 134.125 196.937 134C198.242 132.918 199.413 131.684 200.425 130.325C200.3 130.125 198.675 126.812 198.675 126.812L194.912 128.538Z" fill="#F47A63"/>
<path d="M194.713 133.188C194.713 133.188 186.8 159.288 187.213 159.525C187.625 159.763 193.463 163.05 195.488 163.275L196.888 133.987" fill="#F47A63"/>
<path d="M196.725 108.9H196.625C194.85 108.825 193.488 106.85 193.588 104.5C193.688 102.15 195.2 100.288 196.988 100.375C198.775 100.463 200.125 102.425 200.025 104.775C199.925 107.125 198.45 108.9 196.725 108.9ZM196.875 101C195.475 101 194.288 102.563 194.2 104.525C194.113 106.488 195.213 108.275 196.7 108.275C198.188 108.275 199.363 106.75 199.45 104.75C199.538 102.75 198.438 101 196.95 101H196.875Z" fill="#42210B"/>
<path d="M204.85 111.125H204.725C204.231 111.102 203.749 110.966 203.315 110.728C202.882 110.489 202.509 110.155 202.225 109.75C201.589 108.869 201.275 107.797 201.338 106.712C201.297 105.672 201.667 104.657 202.369 103.887C203.071 103.117 204.047 102.655 205.088 102.6C205.582 102.623 206.064 102.759 206.497 102.997C206.931 103.235 207.304 103.57 207.588 103.975C208.206 104.862 208.515 105.927 208.467 107.007C208.42 108.087 208.018 109.121 207.325 109.95C207.022 110.313 206.644 110.607 206.217 110.81C205.79 111.013 205.323 111.12 204.85 111.125ZM204.963 103.225C204.116 103.328 203.341 103.748 202.791 104.399C202.242 105.051 201.959 105.886 202 106.737C201.945 107.678 202.214 108.609 202.763 109.375C202.979 109.71 203.273 109.989 203.62 110.187C203.967 110.386 204.356 110.498 204.755 110.515C205.154 110.533 205.551 110.454 205.914 110.286C206.276 110.118 206.593 109.865 206.838 109.55C207.437 108.851 207.785 107.97 207.825 107.05C207.881 106.109 207.611 105.178 207.063 104.412C206.837 104.088 206.541 103.818 206.197 103.624C205.853 103.429 205.469 103.314 205.075 103.287L204.963 103.225Z" fill="#42210B"/>
<path d="M199.711 105.402L199.596 106.016L201.637 106.395L201.751 105.78L199.711 105.402Z" fill="#42210B"/>
<path d="M212.669 105.776L208.052 106.721L208.177 107.334L212.794 106.389L212.669 105.776Z" fill="#42210B"/>
<path d="M396.25 257.675C396.25 257.675 396 245.075 395.85 241.95C395.7 239.125 395.3 226.737 387.75 222.5C378.2 217.15 367.225 210.262 356.7 212.8C348.175 214.85 344.038 243.9 344.05 245.85C344.025 249.362 369.375 268.95 396.25 257.675Z" fill="#2B415D"/>
<path d="M381.088 218.75C381.088 218.75 382.425 229.762 372.088 230.187C364.85 230.487 366.7 224.7 366.7 224.7C366.7 224.7 363.05 227.412 359.4 225.037C355.75 222.662 362.25 214.212 365.088 213.787C367.925 213.362 374.6 213.812 381.088 218.75Z" fill="#68E1FD"/>
<path d="M392.633 191.744C392.826 187.247 389.337 183.445 384.84 183.252C380.343 183.059 376.541 186.548 376.348 191.045C376.155 195.542 379.644 199.344 384.141 199.537C388.638 199.73 392.44 196.241 392.633 191.744Z" fill="#223B55"/>
<path d="M361.038 197.2C359.811 195.519 359.151 193.493 359.15 191.412C359.074 190.409 359.163 189.4 359.413 188.425C359.772 187.416 360.506 186.583 361.463 186.1C362.178 185.671 362.838 185.155 363.425 184.562C363.425 184.562 384.887 181.35 386.787 193.85C387.087 197.337 386.375 207.812 376.662 211.787C366.95 215.762 371.975 200.225 371.975 200.225" fill="#223B55"/>
<path d="M365.438 215L378.413 209.337L376.963 218.087C376.963 218.087 376.863 218.25 376.688 218.512C374.288 220.537 370.712 221.012 367.212 220.637C366.838 220.594 366.491 220.419 366.233 220.145C365.974 219.871 365.821 219.514 365.8 219.137C365.725 217.837 365.612 216.437 365.438 215Z" fill="#FFAC73"/>
<path d="M360.737 194.825C360.663 194.239 360.714 193.643 360.887 193.078C361.06 192.512 361.352 191.99 361.741 191.546C362.131 191.102 362.611 190.745 363.149 190.5C363.687 190.255 364.271 190.127 364.863 190.125C366.113 189.988 367.363 190.025 368.025 191.238C368.9 192.713 368.95 194.425 370.262 195.7C370.909 196.309 371.712 196.726 372.582 196.903C373.453 197.079 374.355 197.009 375.188 196.7C375.188 198.075 374.913 199.1 373.213 199.488C371.513 199.875 361.937 197.588 360.737 194.825Z" fill="#FFAC73"/>
<path d="M377.725 191.625C372.725 189.6 367.95 188.325 362.55 188.825C362.315 188.828 362.09 188.92 361.921 189.082C361.752 189.245 361.65 189.465 361.638 189.7C361.338 187.525 361.05 182.075 365.5 180.612C371.1 178.775 380.175 181.787 382.5 186.862C383.664 189.359 384.156 192.117 383.925 194.862C382.046 193.457 379.952 192.364 377.725 191.625Z" fill="#223B55"/>
<path d="M365.675 217.362L365.8 219.225C365.8 219.225 374.263 219.35 375.738 212.525L365.675 217.362Z" fill="#E28E54"/>
<path d="M360.725 194.45C360.725 194.45 360.413 202.612 360.238 205.7C360.063 208.787 362.9 217.4 366.3 217.537C371.6 217.75 377.225 211.6 377.288 210.2C377.288 210.2 382.738 207.125 379.788 204.45C376.838 201.775 376.475 206.075 376.475 206.075C376.475 206.075 374.95 203.575 375.113 197.325C370.146 197.674 365.176 196.681 360.725 194.45Z" fill="#FFAC73"/>
<path d="M350.663 252.5C350.185 252.175 349.726 251.825 349.288 251.45C349.773 245.104 350.896 238.822 352.638 232.7C352.938 231.625 354.588 232.162 354.288 233.225C352.48 239.566 351.353 246.082 350.925 252.662L350.663 252.5Z" fill="#17283A"/>
<path d="M382.762 261.025C382.517 261.007 382.27 261.007 382.025 261.025L382.325 239.2C382.335 238.971 382.435 238.756 382.604 238.601C382.688 238.524 382.785 238.465 382.892 238.426C382.999 238.387 383.112 238.37 383.225 238.375C383.338 238.38 383.449 238.407 383.552 238.455C383.655 238.503 383.747 238.57 383.824 238.654C383.9 238.738 383.96 238.835 383.999 238.942C384.037 239.048 384.055 239.162 384.05 239.275L383.75 261C383.421 260.981 383.09 260.989 382.762 261.025Z" fill="#17283A"/>
<path d="M378.563 212.15C376.731 210.233 375.534 207.797 375.138 205.175C374.663 201.075 380.025 203.15 380.825 204.95C381.625 206.75 381.113 211.25 378.563 212.15Z" fill="#223B55"/>
<path d="M423.907 119.178C435.645 114.913 440.349 98.2161 434.415 81.8846C428.48 65.5532 414.154 55.7715 402.417 60.0367C390.679 64.3019 385.975 80.9988 391.909 97.3302C397.844 113.662 412.17 123.443 423.907 119.178Z" fill="#3EE5B2"/>
<path d="M391.937 97.6125L388.4 119.763L406.837 107.588" fill="#3EE5B2"/>
<path d="M400.45 76.0875L423.975 89.525C424.19 89.6489 424.427 89.7293 424.674 89.7615C424.92 89.7937 425.17 89.7771 425.409 89.7127C425.649 89.6483 425.874 89.5373 426.07 89.386C426.267 89.2348 426.432 89.0463 426.556 88.8312C426.68 88.6162 426.761 88.3788 426.793 88.1327C426.825 87.8867 426.808 87.6366 426.744 87.3969C426.68 87.1572 426.569 86.9326 426.417 86.7358C426.266 86.539 426.078 86.3739 425.863 86.25L402.338 72.85C401.909 72.6208 401.409 72.5666 400.942 72.6987C400.475 72.8309 400.077 73.1391 399.833 73.5586C399.588 73.978 399.516 74.476 399.631 74.9476C399.746 75.4193 400.04 75.8279 400.45 76.0875Z" fill="white"/>
<path d="M399.412 85.1375L422.937 98.575C423.365 98.8042 423.866 98.8585 424.333 98.7263C424.8 98.5942 425.198 98.2859 425.442 97.8665C425.687 97.447 425.759 96.9491 425.644 96.4774C425.529 96.0057 425.235 95.5971 424.825 95.3375L401.25 81.9C400.822 81.6708 400.322 81.6166 399.854 81.7488C399.387 81.8809 398.989 82.1892 398.745 82.6086C398.5 83.0281 398.428 83.526 398.543 83.9977C398.658 84.4694 398.952 84.878 399.362 85.1375H399.412Z" fill="white"/>
<path d="M396.675 93.5999L420.2 107.037C420.636 107.288 421.154 107.355 421.639 107.223C422.124 107.092 422.537 106.773 422.788 106.337C423.038 105.901 423.105 105.384 422.973 104.899C422.842 104.413 422.524 104 422.088 103.75L398.563 90.3624C398.135 90.1332 397.634 90.079 397.167 90.2112C396.7 90.3433 396.302 90.6516 396.058 91.071C395.813 91.4905 395.741 91.9884 395.856 92.4601C395.971 92.9318 396.265 93.3404 396.675 93.5999Z" fill="white"/>
</g>
<defs>
<filter id="filter0_dd" x="-10" y="-12" width="520" height="399" filterUnits="userSpaceOnUse" color-interpolation-filters="sRGB">
<feFlood flood-opacity="0" result="BackgroundImageFix"/>
<feColorMatrix in="SourceAlpha" type="matrix" values="0 0 0 0 0 0 0 0 0 0 0 0 0 0 0 0 0 0 127 0"/>
<feOffset dy="2"/>
<feGaussianBlur stdDeviation="5"/>
<feColorMatrix type="matrix" values="0 0 0 0 0 0 0 0 0 0 0 0 0 0 0 0 0 0 0.1 0"/>
<feBlend mode="normal" in2="BackgroundImageFix" result="effect1_dropShadow"/>
<feColorMatrix in="SourceAlpha" type="matrix" values="0 0 0 0 0 0 0 0 0 0 0 0 0 0 0 0 0 0 127 0"/>
<feOffset dy="-2"/>
<feGaussianBlur stdDeviation="5"/>
<feColorMatrix type="matrix" values="0 0 0 0 0 0 0 0 0 0 0 0 0 0 0 0 0 0 0.05 0"/>
<feBlend mode="normal" in2="effect1_dropShadow" result="effect2_dropShadow"/>
<feBlend mode="normal" in="SourceGraphic" in2="effect2_dropShadow" result="shape"/>
</filter>
</defs>
</svg>
