<svg width="230" height="200" viewBox="0 0 230 200" fill="none" xmlns="http://www.w3.org/2000/svg">
<g clip-path="url(#clip0)">
<path d="M103.42 200C138.393 200 166.744 198.575 166.744 196.818C166.744 195.06 138.393 193.636 103.42 193.636C68.4464 193.636 40.095 195.06 40.095 196.818C40.095 198.575 68.4464 200 103.42 200Z" fill="#EEF4F9"/>
<path d="M31.4249 62.8497C48.7803 62.8497 62.8497 48.7803 62.8497 31.4249C62.8497 14.0694 48.7803 0 31.4249 0C14.0694 0 0 14.0694 0 31.4249C0 48.7803 14.0694 62.8497 31.4249 62.8497Z" fill="#EEF4F9"/>
<path d="M31.4249 57.6122C45.8878 57.6122 57.6123 45.8877 57.6123 31.4249C57.6123 16.962 45.8878 5.23749 31.4249 5.23749C16.962 5.23749 5.23755 16.962 5.23755 31.4249C5.23755 45.8877 16.962 57.6122 31.4249 57.6122Z" fill="#1CD49C"/>
<path d="M114.875 62.8497C132.231 62.8497 146.3 48.7803 146.3 31.4249C146.3 14.0694 132.231 0 114.875 0C97.5197 0 83.4503 14.0694 83.4503 31.4249C83.4503 48.7803 97.5197 62.8497 114.875 62.8497Z" fill="#EEF4F9"/>
<path d="M114.875 57.6122C129.338 57.6122 141.063 45.8877 141.063 31.4249C141.063 16.962 129.338 5.23749 114.875 5.23749C100.412 5.23749 88.688 16.962 88.688 31.4249C88.688 45.8877 100.412 57.6122 114.875 57.6122Z" fill="white"/>
<path d="M198.326 62.8497C215.681 62.8497 229.751 48.7803 229.751 31.4249C229.751 14.0694 215.681 0 198.326 0C180.97 0 166.901 14.0694 166.901 31.4249C166.901 48.7803 180.97 62.8497 198.326 62.8497Z" fill="#EEF4F9"/>
<path d="M198.326 57.6122C212.789 57.6122 224.513 45.8877 224.513 31.4249C224.513 16.962 212.789 5.23749 198.326 5.23749C183.863 5.23749 172.138 16.962 172.138 31.4249C172.138 45.8877 183.863 57.6122 198.326 57.6122Z" fill="white"/>
<path d="M28.996 42.1844L21.3668 32.3754L25.8034 28.9244L29.4157 33.5691L41.6189 20.6874L45.6994 24.5534L28.996 42.1844Z" fill="white"/>
<path d="M87.1091 37.8328C85.0454 32.8483 84.7103 28.144 87.6196 23.9654C87.6713 22.5613 88.0044 21.1819 88.5993 19.909C89.1941 18.636 90.0386 17.4956 91.0825 16.5552C92.1264 15.6148 93.3486 14.8936 94.6765 14.4345C96.0044 13.9753 97.411 13.7875 98.8128 13.8822L100.71 14.0104C102.668 14.1376 104.551 14.8135 106.143 15.9607C107.735 17.108 108.972 18.6803 109.712 20.4977C113.249 29.2701 113.361 40.9292 112.478 53.4259H86.5351C88.076 47.5816 88.867 42.0966 87.1091 37.8328Z" fill="#223B55"/>
<path d="M53.6069 53.1257L46.7512 50.0461C46.0681 49.7392 45.459 49.2891 44.9651 48.7262C44.4712 48.1634 44.104 47.5009 43.8886 46.7837C43.6731 46.0665 43.6143 45.3114 43.7162 44.5695C43.8181 43.8276 44.0783 43.1163 44.4791 42.4838C44.9224 41.7843 45.5257 41.2002 46.2391 40.7797C46.9525 40.3592 47.7557 40.1143 48.5823 40.0652C49.409 40.0161 50.2355 40.1642 50.9937 40.4974C51.7519 40.8305 52.42 41.3391 52.9429 41.9812L56.1102 45.8702L70.8761 58.966L80.6914 52.4159L85.1399 59.958L69.218 69.5757L53.6069 53.1257Z" fill="#9F616A"/>
<path d="M84.425 62.1766L79.0125 51.8198L100.088 42.4322L100.271 44.4132C100.439 46.2362 100.127 48.0714 99.3673 49.7369C98.6074 51.4024 97.4253 52.8403 95.9384 53.9082L84.425 62.1766Z" fill="#1CD49C"/>
<path d="M111.737 41.8134L90.2412 59.6027L89.0059 57.8732L94.9356 47.249L97.6534 46.0136C98.3046 43.2548 96.6423 39.5551 94.4415 35.6365L104.819 34.1541C105.319 37.5197 107.6 40.0841 111.737 41.8134Z" fill="#9F616A"/>
<path d="M137.679 164.609L134.097 169.921L105.56 153.738L109.513 134.219L137.679 164.609Z" fill="#223B55"/>
<path d="M100.001 189.934L94.1946 187.34L92.7121 119.395L87.153 82.4571L108.772 78.3804L113.219 88.0163C124.148 103.006 108.216 148.935 100.001 189.934Z" fill="#223B55"/>
<path d="M100.469 189.011L101.66 191.604C101.884 192.091 101.991 192.624 101.973 193.16C101.954 193.696 101.811 194.22 101.555 194.691C101.298 195.162 100.935 195.566 100.494 195.872C100.054 196.178 99.5481 196.376 99.0173 196.452L83.2664 198.702C82.492 198.813 81.7037 198.639 81.0474 198.214C80.391 197.788 79.911 197.139 79.6961 196.387C79.4982 195.694 79.537 194.956 79.8061 194.288C80.0753 193.62 80.5596 193.061 81.1822 192.699L94.4146 186.076L100.469 189.011Z" fill="#617487"/>
<path d="M136.942 163.605L139.788 163.397C140.323 163.357 140.859 163.443 141.355 163.648C141.85 163.853 142.291 164.17 142.643 164.575C142.994 164.981 143.246 165.462 143.378 165.982C143.51 166.501 143.519 167.045 143.405 167.568L140.002 183.111C139.835 183.875 139.396 184.553 138.768 185.019C138.14 185.485 137.364 185.708 136.584 185.646C135.866 185.589 135.188 185.294 134.656 184.808C134.124 184.322 133.77 183.673 133.649 182.963L132.074 168.25L136.942 163.605Z" fill="#617487"/>
<path d="M98.1476 39.0956C103.606 39.0956 108.031 34.6708 108.031 29.2126C108.031 23.7544 103.606 19.3297 98.1476 19.3297C92.6894 19.3297 88.2646 23.7544 88.2646 29.2126C88.2646 34.6708 92.6894 39.0956 98.1476 39.0956Z" fill="#9F616A"/>
<path d="M108.278 79.8628L86.7821 84.3102L86.288 69.9799C83.1754 66.6845 90.4348 53.4866 92.959 47.249L96.1709 46.2607L90.7353 56.1437L109.76 40.578L113.466 41.5663L114.454 59.6027L108.278 79.8628Z" fill="#1CD49C"/>
<path d="M109.76 88.5104L105.099 94.4058C104.634 94.9932 104.049 95.4739 103.382 95.8153C102.716 96.1567 101.984 96.3508 101.236 96.3845C100.487 96.4182 99.7409 96.2907 99.0464 96.0106C98.3519 95.7305 97.7257 95.3044 97.2103 94.7612C96.6403 94.1604 96.2213 93.4327 95.9879 92.6382C95.7544 91.8436 95.7132 91.005 95.8676 90.1914C96.022 89.3778 96.3676 88.6125 96.8759 87.9587C97.3842 87.3049 98.0406 86.7814 98.7911 86.4311L103.336 84.3102L119.643 73.1918L115.69 62.0735L124.09 59.6028L129.526 77.3921L109.76 88.5104Z" fill="#9F616A"/>
<path d="M110.625 51.4493H92.7193C93.3921 48.0648 95.1957 44.9944 100.128 42.7929C103.725 35.9187 105.262 29.6834 100.128 25.5172C94.2648 24.1664 91.9939 21.7135 92.7193 18.3414L103.216 16.6118C111.848 24.2995 111.946 37.4222 110.625 51.4493Z" fill="#223B55"/>
<path d="M126.067 60.8381L114.702 63.5559L110.749 40.8251L112.714 41.1322C114.523 41.4148 116.226 42.1653 117.656 43.3091C119.085 44.453 120.19 45.9506 120.863 47.6534L126.067 60.8381Z" fill="#1CD49C"/>
</g>
<defs>
<clipPath id="clip0">
<rect width="229.751" height="200" fill="white"/>
</clipPath>
</defs>
</svg>
