<svg width="217" height="200" viewBox="0 0 217 200" fill="none" xmlns="http://www.w3.org/2000/svg">
<g clip-path="url(#clip0)">
<path d="M13.1181 15.9728C9.64017 15.9767 6.30583 17.3601 3.84657 19.8194C1.38731 22.2786 0.00395581 25.613 0 29.0909V180.219C0.00398988 183.697 1.38736 187.031 3.84662 189.491C6.30588 191.95 9.6402 193.333 13.1181 193.337H123.982C127.46 193.333 130.794 191.95 133.253 189.491C135.712 187.031 137.096 183.697 137.1 180.219V29.0909C137.096 25.613 135.712 22.2787 133.253 19.8194C130.794 17.3601 127.46 15.9768 123.982 15.9728H13.1181Z" fill="#223B55"/>
<path d="M130.278 25.2902H6.82171V184.02H130.278V25.2902Z" fill="white"/>
<path d="M114.139 53.7417H22.9608V59.7315H114.139V53.7417Z" fill="#3EE5B2"/>
<path d="M114.139 69.7145H22.9608V75.7043H114.139V69.7145Z" fill="#3EE5B2"/>
<path d="M114.139 85.6873H22.9608V91.677H114.139V85.6873Z" fill="#3EE5B2"/>
<path d="M114.139 101.66H22.9608V107.65H114.139V101.66Z" fill="#3EE5B2"/>
<path d="M114.139 117.633H22.9608V123.623H114.139V117.633Z" fill="#3EE5B2"/>
<path d="M114.139 133.606H22.9608V139.595H114.139V133.606Z" fill="#3EE5B2"/>
<path d="M114.139 149.578H22.9608V155.568H114.139V149.578Z" fill="#3EE5B2"/>
<path d="M115.422 15.2256L25.0107 31.7711L46.2835 148.014L136.695 131.469L115.422 15.2256Z" fill="#EEF4F9"/>
<path d="M107.416 38.2246L40.6432 50.4442L41.4459 54.8307L108.219 42.6111L107.416 38.2246Z" fill="#3EE5B2"/>
<path d="M109.557 49.9221L42.7837 62.1417L43.5865 66.5282L110.359 54.3086L109.557 49.9221Z" fill="#3EE5B2"/>
<path d="M111.697 61.6195L44.9245 73.8391L45.7272 78.2256L112.5 66.006L111.697 61.6195Z" fill="#3EE5B2"/>
<path d="M113.838 73.3169L47.0651 85.5365L47.8678 89.923L114.641 77.7034L113.838 73.3169Z" fill="#3EE5B2"/>
<path d="M115.978 85.0144L49.205 97.2338L50.0077 101.62L116.78 89.4009L115.978 85.0144Z" fill="#3EE5B2"/>
<path d="M118.119 96.7118L51.3466 108.931L52.1493 113.318L118.922 101.098L118.119 96.7118Z" fill="#3EE5B2"/>
<path d="M120.26 108.409L53.4871 120.629L54.2898 125.015L121.063 112.796L120.26 108.409Z" fill="#3EE5B2"/>
<path d="M179.417 142.387L153.834 147.068L159.854 179.96L185.436 175.278L179.417 142.387Z" fill="#EEF4F9"/>
<path d="M177.151 148.894L158.258 152.352L158.485 153.593L177.379 150.136L177.151 148.894Z" fill="white"/>
<path d="M177.757 152.204L158.863 155.662L159.091 156.903L177.984 153.445L177.757 152.204Z" fill="white"/>
<path d="M178.363 155.514L159.469 158.972L159.696 160.213L178.59 156.755L178.363 155.514Z" fill="white"/>
<path d="M178.968 158.824L160.075 162.281L160.302 163.523L179.196 160.065L178.968 158.824Z" fill="white"/>
<path d="M179.574 162.134L160.68 165.591L160.908 166.833L179.801 163.375L179.574 162.134Z" fill="white"/>
<path d="M180.18 165.444L161.286 168.901L161.514 170.142L180.407 166.685L180.18 165.444Z" fill="white"/>
<path d="M180.786 168.753L161.892 172.211L162.119 173.452L181.013 169.995L180.786 168.753Z" fill="white"/>
<path d="M91.4084 8.31915H80.5293V6.09198C80.5293 4.47628 79.8875 2.92676 78.745 1.7843C77.6025 0.641831 76.053 0 74.4373 0H62.6621C61.0464 1.45226e-06 59.4969 0.641834 58.3544 1.7843C57.212 2.92677 56.5701 4.47628 56.5701 6.09198V8.31915H45.691C44.891 8.31915 44.0989 8.47673 43.3597 8.78288C42.6206 9.08903 41.9491 9.53776 41.3834 10.1035C40.8177 10.6691 40.3689 11.3407 40.0628 12.0798C39.7566 12.8189 39.5991 13.6111 39.5991 14.4111V31.28H97.5004V14.4111C97.5004 13.6111 97.3428 12.8189 97.0366 12.0798C96.7305 11.3407 96.2818 10.6691 95.7161 10.1035C95.1504 9.53776 94.4788 9.08903 93.7397 8.78288C93.0006 8.47673 92.2084 8.31915 91.4084 8.31915Z" fill="#223B55"/>
<path d="M64.6445 172.477C66.4433 171.246 68.292 169.966 70.428 169.406C72.3769 168.896 74.6147 169.031 76.1561 170.458C77.4001 171.609 77.9253 173.379 77.0036 174.894C76.8059 175.24 76.5372 175.54 76.2153 175.774C75.8933 176.008 75.5254 176.172 75.1357 176.253C74.7592 176.303 74.3763 176.257 74.0226 176.119C73.6689 175.98 73.3559 175.755 73.1128 175.463C72.6295 174.929 72.3404 174.14 72.5972 173.436C72.8672 172.696 73.5896 172.243 74.299 171.99C75.1248 171.729 75.9753 171.553 76.8371 171.466L80.3669 170.983L94.8144 169.005L110.904 166.803C111.031 166.767 111.139 166.682 111.204 166.567C111.269 166.452 111.287 166.316 111.252 166.189C111.214 166.063 111.129 165.956 111.015 165.891C110.901 165.827 110.766 165.808 110.638 165.84L78.6239 170.223C77.4659 170.381 76.2916 170.495 75.1457 170.728C74.2436 170.873 73.3882 171.229 72.6482 171.765C71.1146 172.979 71.2242 175.127 72.6354 176.397C74.0641 177.683 76.1355 177.461 77.3892 176.041C78.0231 175.322 78.3993 174.413 78.4585 173.456C78.5177 172.5 78.2565 171.551 77.7161 170.759C76.3475 168.696 73.8537 167.903 71.4709 168.196C68.7152 168.534 66.3789 170.083 64.1407 171.615C63.6137 171.976 64.1125 172.841 64.6445 172.477Z" fill="#223B55"/>
<path d="M176.978 135.48L177.311 138.808C177.311 138.808 175.314 146.129 179.64 146.129C183.966 146.129 180.639 138.808 180.639 138.808L180.972 136.146L176.978 135.48Z" fill="#A0616A"/>
<path d="M207.204 124.394L205.677 127.369C205.677 127.369 200.026 132.434 203.659 134.782C207.292 137.13 208.471 129.176 208.471 129.176L210.196 127.12L207.204 124.394Z" fill="#A0616A"/>
<path d="M182.303 138.475L186.961 170.088L189.291 192.716C189.291 192.716 191.287 197.708 197.943 193.382L196.944 180.404L196.279 168.757C196.279 168.757 195.613 157.443 194.948 155.446C194.282 153.45 195.281 146.794 195.281 146.794L197.943 135.813L182.303 138.475Z" fill="#223B55"/>
<path d="M189.956 192.051L187.294 195.045C187.294 195.045 183.301 193.714 182.303 196.377C181.304 199.039 189.956 199.704 189.956 199.704C189.956 199.704 198.941 200.37 198.941 199.704C198.941 199.039 198.7 193.949 197.489 193.665C196.279 193.382 189.956 192.051 189.956 192.051Z" fill="#617487"/>
<path d="M194.948 136.811L199.606 170.088L201.936 192.716C201.936 192.716 203.932 197.708 210.588 193.382L209.589 180.404L208.924 168.757C208.924 168.757 208.258 157.443 207.593 155.446C206.927 153.45 207.926 146.794 207.926 146.794L207.26 134.482L194.948 136.811Z" fill="#223B55"/>
<path d="M202.601 192.051L199.939 195.045C199.939 195.045 195.946 193.714 194.948 196.377C193.949 199.039 202.601 199.704 202.601 199.704C202.601 199.704 211.586 200.37 211.586 199.704C211.586 199.039 211.345 193.949 210.135 193.665C208.924 193.382 202.601 192.051 202.601 192.051Z" fill="#617487"/>
<path d="M184.965 84.2344C188.824 84.2344 191.953 81.1057 191.953 77.2463C191.953 73.3869 188.824 70.2582 184.965 70.2582C181.105 70.2582 177.977 73.3869 177.977 77.2463C177.977 81.1057 181.105 84.2344 184.965 84.2344Z" fill="#A0616A"/>
<path d="M190.123 80.4075L193.118 85.3992L185.464 88.7268L184.466 82.7369L190.123 80.4075Z" fill="#A0616A"/>
<path d="M193.949 84.8999C193.949 84.8999 186.961 84.2344 184.299 88.5604L177.731 93.5521C177.199 93.9563 176.784 94.4941 176.527 95.1107C176.27 95.7274 176.181 96.401 176.269 97.0633L181.97 140.139L190.289 139.806L203.932 137.144L207.926 136.146L205.929 118.509C205.929 118.509 203.6 111.521 206.262 106.862L204.931 90.557L195.613 86.8965L193.949 84.8999Z" fill="#575A89"/>
<path d="M178.309 94.8829L177.81 94.051C177.81 94.051 177.145 94.051 177.145 95.3821C177.145 96.7131 175.98 125.497 175.98 125.497L175.647 136.479L181.97 137.144L184.299 116.513L183.301 102.869L178.309 94.8829Z" fill="#575A89"/>
<path d="M200.272 89.8914L204.931 90.557C206.746 92.4579 208.312 94.5826 209.59 96.8795C211.586 100.54 217.576 107.528 216.245 112.852C214.914 118.177 210.921 127.827 210.921 127.827L204.598 125.165C204.598 125.165 209.59 113.518 209.257 112.52C208.924 111.521 204.931 105.531 204.931 105.531L200.272 89.8914Z" fill="#575A89"/>
<path d="M180.14 73.4195C180.14 73.4195 174.483 73.0868 178.143 69.4263C178.143 69.4263 181.138 68.0953 182.469 68.7608C182.469 68.7608 184.466 67.4297 184.466 68.0952C184.466 68.0952 191.454 66.0987 192.452 73.0867C193.45 80.0748 191.786 83.4025 191.786 83.4025L187.128 83.0697C187.128 83.0697 188.126 77.4127 184.466 78.0782C184.466 78.0782 181.471 79.0765 181.138 78.0782C180.805 77.0799 180.14 73.4195 180.14 73.4195Z" fill="#223B55"/>
<path opacity="0.2" d="M182.802 136.645L185.797 116.679L183.8 104.367L184.466 117.759L182.469 136.645H182.802Z" fill="black"/>
</g>
<defs>
<clipPath id="clip0">
<rect width="216.436" height="200" fill="white"/>
</clipPath>
</defs>
</svg>
