<svg width="264" height="200" viewBox="0 0 264 200" fill="none" xmlns="http://www.w3.org/2000/svg">
<g clip-path="url(#clip0)">
<path opacity="0.1" d="M248.063 108.565C238.787 121.293 241.848 139.46 247.21 153.934C249.006 158.779 251.046 163.904 250.115 169.176C248.978 175.62 243.633 180.449 238.077 183.079C227.948 187.872 215.983 187.106 206.923 181.067C199.104 175.855 193.601 167.193 185.63 162.229C172.291 153.925 154.974 157.635 140.128 163.975C129.625 168.46 118.12 174.236 107.885 170.095C100.682 167.181 95.8324 159.763 93.2807 151.833C92.0487 148.004 91.1863 143.848 88.7317 140.851C87.2722 139.069 85.3437 137.828 83.3606 136.79C65.2617 127.313 41.9812 133.236 24.4343 122.662C12.588 115.521 5.21477 101.663 2.1513 87.0945C-0.912177 72.5259 -0.154008 57.1469 1.06617 42.0309C1.93332 31.2886 3.30513 19.8095 9.76378 11.3678C16.5944 2.4427 28.0427 -1.1041 38.2804 0.293769C48.518 1.69164 57.6966 7.3779 65.7261 14.1659C75.7694 22.6337 85.0096 33.2646 97.5004 36.4797C106.008 38.6689 115.047 37.1194 123.892 36.4347C138.676 35.2927 153.408 36.6077 168.05 38.0932C182.067 39.5148 196.181 41.1022 209.456 45.7625C218.85 49.0606 226.297 55.2941 235.141 59.5541C240.906 62.3309 247.248 62.9753 252.674 66.5624C259.369 70.9811 265.42 78.8092 263.456 88.2034C261.601 97.1332 252.991 101.81 248.063 108.565Z" fill="#3EE5B2"/>
<g opacity="0.5">
<path opacity="0.5" d="M202.571 166.617C202.571 166.617 203.353 143.455 215.884 130.367C221.144 124.875 224.598 117.9 225.512 110.351C225.94 106.769 226.038 103.155 225.806 99.5546" stroke="#535461" stroke-width="0.483113" stroke-miterlimit="10"/>
<path opacity="0.5" d="M233.656 91.2645C232.798 93.8518 225.629 99.7939 225.629 99.7939C225.629 99.7939 223.432 90.7409 224.29 88.156C224.494 87.5411 224.817 86.9723 225.241 86.4822C225.664 85.9921 226.181 85.5902 226.76 85.2996C227.339 85.009 227.969 84.8353 228.616 84.7883C229.262 84.7414 229.911 84.8223 230.526 85.0262C231.141 85.2302 231.71 85.5532 232.2 85.977C232.69 86.4008 233.092 86.9169 233.382 87.496C233.673 88.075 233.847 88.7057 233.894 89.3519C233.94 89.9981 233.86 90.6472 233.656 91.2621V91.2645Z" fill="#3EE5B2"/>
<path opacity="0.5" d="M236.643 108.157C234.511 109.863 225.271 110.958 225.271 110.958C225.271 110.958 228.351 102.166 230.483 100.462C230.985 100.026 231.569 99.6949 232.202 99.49C232.834 99.2851 233.502 99.2103 234.164 99.2699C234.826 99.3295 235.47 99.5223 236.055 99.8369C236.641 100.151 237.157 100.581 237.573 101.1C237.988 101.619 238.295 102.217 238.473 102.857C238.652 103.498 238.699 104.168 238.612 104.827C238.526 105.486 238.306 106.121 237.968 106.693C237.63 107.266 237.179 107.764 236.643 108.157Z" fill="#3EE5B2"/>
<path opacity="0.5" d="M228.19 132.523C225.494 132.921 216.957 129.206 216.957 129.206C216.957 129.206 224.051 123.169 226.747 122.771C227.388 122.676 228.041 122.709 228.67 122.867C229.298 123.024 229.889 123.304 230.409 123.691C230.93 124.077 231.369 124.562 231.701 125.118C232.034 125.673 232.254 126.289 232.349 126.93C232.444 127.571 232.411 128.225 232.254 128.853C232.096 129.481 231.816 130.073 231.43 130.593C231.043 131.113 230.558 131.552 230.003 131.885C229.447 132.218 228.831 132.438 228.19 132.533V132.523Z" fill="#3EE5B2"/>
<path opacity="0.5" d="M217.639 149.52C215.05 150.368 206.006 148.141 206.006 148.141C206.006 148.141 211.979 140.993 214.569 140.145C215.812 139.737 217.167 139.839 218.334 140.429C219.502 141.019 220.388 142.049 220.796 143.293C221.205 144.536 221.103 145.89 220.512 147.058C219.922 148.226 218.892 149.112 217.649 149.52H217.639Z" fill="#3EE5B2"/>
<path opacity="0.5" d="M215.27 108.198C216.528 110.614 224.56 115.346 224.56 115.346C224.56 115.346 225.29 106.061 224.032 103.642C223.733 103.067 223.323 102.557 222.827 102.14C222.331 101.724 221.758 101.409 221.14 101.214C220.522 101.019 219.872 100.948 219.227 101.004C218.581 101.061 217.953 101.243 217.379 101.542C216.804 101.841 216.294 102.251 215.877 102.747C215.461 103.243 215.146 103.816 214.951 104.434C214.756 105.052 214.685 105.702 214.741 106.347C214.798 106.993 214.981 107.621 215.28 108.195L215.27 108.198Z" fill="#3EE5B2"/>
<path opacity="0.5" d="M203.184 128.23C205.108 130.161 214.178 132.274 214.178 132.274C214.178 132.274 212.095 123.195 210.174 121.264C209.25 120.337 207.997 119.815 206.688 119.813C205.38 119.81 204.124 120.328 203.197 121.251C202.271 122.175 201.749 123.428 201.746 124.737C201.744 126.045 202.261 127.301 203.184 128.228V128.23Z" fill="#3EE5B2"/>
<path opacity="0.5" d="M194.11 149.314C195.679 151.541 204.262 155.159 204.262 155.159C204.262 155.159 203.746 145.86 202.175 143.63C201.812 143.077 201.341 142.604 200.79 142.236C200.24 141.869 199.622 141.617 198.972 141.494C198.322 141.371 197.654 141.379 197.007 141.52C196.361 141.66 195.749 141.929 195.209 142.31C194.668 142.692 194.21 143.178 193.861 143.74C193.513 144.302 193.281 144.929 193.179 145.583C193.077 146.236 193.108 146.904 193.27 147.545C193.431 148.187 193.72 148.789 194.12 149.316L194.11 149.314Z" fill="#3EE5B2"/>
<path opacity="0.5" d="M205.324 157.031C205.324 157.031 198.216 146.691 199.462 136.963C200.011 132.886 199.223 128.741 197.216 125.15C196.25 123.453 195.13 121.847 193.871 120.354" stroke="#535461" stroke-width="0.483113" stroke-miterlimit="10"/>
<path opacity="0.5" d="M194.622 114.218C195.079 115.621 193.871 120.516 193.871 120.516C193.871 120.516 190.002 117.279 189.544 115.879C189.325 115.206 189.381 114.473 189.702 113.841C190.022 113.209 190.581 112.731 191.254 112.511C191.927 112.291 192.66 112.348 193.292 112.668C193.924 112.989 194.402 113.547 194.622 114.22V114.218Z" fill="#3EE5B2"/>
<path opacity="0.5" d="M201.358 120.613C200.981 122.034 197.304 125.491 197.304 125.491C197.304 125.491 195.816 120.672 196.193 119.246C196.374 118.561 196.82 117.976 197.432 117.62C198.045 117.264 198.774 117.165 199.459 117.347C200.144 117.528 200.728 117.974 201.085 118.586C201.441 119.199 201.539 119.928 201.358 120.613Z" fill="#3EE5B2"/>
<path opacity="0.5" d="M205.513 133.942C204.469 134.982 199.552 136.108 199.552 136.108C199.552 136.108 200.699 131.196 201.746 130.156C201.995 129.909 202.29 129.713 202.615 129.58C202.94 129.446 203.287 129.378 203.638 129.379C203.989 129.381 204.336 129.451 204.66 129.586C204.984 129.721 205.278 129.919 205.525 130.168C205.773 130.417 205.969 130.712 206.102 131.037C206.235 131.361 206.303 131.709 206.302 132.06C206.301 132.411 206.231 132.758 206.095 133.082C205.96 133.406 205.762 133.7 205.513 133.947V133.942Z" fill="#3EE5B2"/>
<path opacity="0.5" d="M206.388 144.739C205.532 145.94 200.867 147.876 200.867 147.876C200.867 147.876 201.168 142.841 202.023 141.64C202.227 141.354 202.484 141.111 202.781 140.925C203.078 140.738 203.409 140.612 203.755 140.554C204.101 140.495 204.455 140.505 204.797 140.583C205.139 140.662 205.462 140.807 205.748 141.01C206.034 141.213 206.277 141.47 206.463 141.768C206.65 142.065 206.776 142.396 206.834 142.742C206.893 143.087 206.883 143.441 206.805 143.783C206.726 144.125 206.581 144.448 206.378 144.734L206.388 144.739Z" fill="#3EE5B2"/>
<path opacity="0.5" d="M192.063 127.5C193.387 128.149 198.403 127.628 198.403 127.628C198.403 127.628 195.733 123.349 194.409 122.702C193.772 122.391 193.039 122.346 192.369 122.576C191.699 122.806 191.148 123.292 190.837 123.929C190.526 124.565 190.48 125.298 190.71 125.968C190.94 126.638 191.427 127.189 192.063 127.5Z" fill="#3EE5B2"/>
<path opacity="0.5" d="M193.245 140.117C194.705 140.339 199.334 138.342 199.334 138.342C199.334 138.342 195.506 135.058 194.048 134.845C193.348 134.738 192.634 134.914 192.064 135.334C191.493 135.754 191.113 136.384 191.006 137.084C190.9 137.784 191.076 138.498 191.496 139.069C191.916 139.639 192.545 140.02 193.245 140.126V140.117Z" fill="#3EE5B2"/>
<path opacity="0.5" d="M196.074 152.217C197.474 152.69 202.376 151.506 202.376 151.506C202.376 151.506 199.159 147.622 197.759 147.156C197.086 146.932 196.353 146.985 195.719 147.303C195.086 147.62 194.605 148.176 194.381 148.849C194.158 149.521 194.211 150.254 194.528 150.888C194.846 151.521 195.402 152.003 196.074 152.226V152.217Z" fill="#3EE5B2"/>
<path opacity="0.5" d="M194.622 114.218C195.079 115.621 193.871 120.516 193.871 120.516C193.871 120.516 190.002 117.279 189.544 115.879C189.325 115.206 189.381 114.473 189.702 113.841C190.022 113.209 190.581 112.731 191.254 112.511C191.927 112.291 192.66 112.348 193.292 112.668C193.924 112.989 194.402 113.547 194.622 114.22V114.218Z" fill="white"/>
<path opacity="0.5" d="M201.358 120.613C200.981 122.034 197.304 125.491 197.304 125.491C197.304 125.491 195.816 120.672 196.193 119.246C196.374 118.561 196.82 117.976 197.432 117.62C198.045 117.264 198.774 117.165 199.459 117.347C200.144 117.528 200.728 117.974 201.085 118.586C201.441 119.199 201.539 119.928 201.358 120.613Z" fill="white"/>
<path opacity="0.5" d="M205.513 133.942C204.469 134.982 199.552 136.108 199.552 136.108C199.552 136.108 200.699 131.196 201.746 130.156C201.995 129.909 202.29 129.713 202.615 129.58C202.94 129.446 203.287 129.378 203.638 129.379C203.989 129.381 204.336 129.451 204.66 129.586C204.984 129.721 205.278 129.919 205.525 130.168C205.773 130.417 205.969 130.712 206.102 131.037C206.235 131.361 206.303 131.709 206.302 132.06C206.301 132.411 206.231 132.758 206.095 133.082C205.96 133.406 205.762 133.7 205.513 133.947V133.942Z" fill="white"/>
<path opacity="0.5" d="M206.388 144.739C205.532 145.94 200.867 147.876 200.867 147.876C200.867 147.876 201.168 142.841 202.023 141.64C202.227 141.354 202.484 141.111 202.781 140.925C203.078 140.738 203.409 140.612 203.755 140.554C204.101 140.495 204.455 140.505 204.797 140.583C205.139 140.662 205.462 140.807 205.748 141.01C206.034 141.213 206.277 141.47 206.463 141.768C206.65 142.065 206.776 142.396 206.834 142.742C206.893 143.087 206.883 143.441 206.805 143.783C206.726 144.125 206.581 144.448 206.378 144.734L206.388 144.739Z" fill="white"/>
<path opacity="0.5" d="M192.063 127.5C193.387 128.149 198.403 127.628 198.403 127.628C198.403 127.628 195.733 123.349 194.409 122.702C193.772 122.391 193.039 122.346 192.369 122.576C191.699 122.806 191.148 123.292 190.837 123.929C190.526 124.565 190.48 125.298 190.71 125.968C190.94 126.638 191.427 127.189 192.063 127.5Z" fill="white"/>
<path opacity="0.5" d="M193.245 140.117C194.705 140.339 199.334 138.342 199.334 138.342C199.334 138.342 195.506 135.058 194.048 134.845C193.348 134.738 192.634 134.914 192.064 135.334C191.493 135.754 191.113 136.384 191.006 137.084C190.9 137.784 191.076 138.498 191.496 139.069C191.916 139.639 192.545 140.02 193.245 140.126V140.117Z" fill="white"/>
<path opacity="0.5" d="M196.074 152.217C197.474 152.69 202.376 151.506 202.376 151.506C202.376 151.506 199.159 147.622 197.759 147.156C197.086 146.932 196.353 146.985 195.719 147.303C195.086 147.62 194.605 148.176 194.381 148.849C194.158 149.521 194.211 150.254 194.528 150.888C194.846 151.521 195.402 152.003 196.074 152.226V152.217Z" fill="white"/>
<path opacity="0.5" d="M192.172 185.066H212.389L217.445 154.235H187.118L192.172 185.066Z" fill="#474059"/>
<path opacity="0.1" d="M190.987 154.235L195.709 183.045H212.721L212.389 185.066H192.172L187.118 154.235H190.987Z" fill="black"/>
</g>
<path d="M196.005 9.3089H47.6888V188.26H196.005V9.3089Z" fill="url(#paint0_linear)"/>
<path d="M194.11 11.5976H49.5842V185.976H194.11V11.5976Z" fill="white"/>
<path d="M164.02 31.2626H105.736V34.1057H164.02V31.2626Z" fill="#C0BCCF"/>
<path d="M164.02 40.2658H105.736V43.1089H164.02V40.2658Z" fill="#C0BCCF"/>
<path d="M150.041 49.2691H119.715V52.1122H150.041V49.2691Z" fill="#3EE5B2"/>
<path opacity="0.5" d="M164.02 88.3621H105.736V91.2053H164.02V88.3621Z" fill="#C0BCCF"/>
<path opacity="0.5" d="M164.02 97.3654H105.736V100.208H164.02V97.3654Z" fill="#C0BCCF"/>
<path opacity="0.5" d="M150.041 106.369H119.715V109.212H150.041V106.369Z" fill="#3EE5B2"/>
<path opacity="0.5" d="M164.02 145.462H105.736V148.305H164.02V145.462Z" fill="#C0BCCF"/>
<path opacity="0.5" d="M164.02 154.465H105.736V157.308H164.02V154.465Z" fill="#C0BCCF"/>
<path opacity="0.5" d="M150.041 163.468H119.715V166.311H150.041V163.468Z" fill="#3EE5B2"/>
<g opacity="0.5">
<path opacity="0.5" d="M85.2157 104.22L83.9932 103.67C84.0118 103.484 84.0198 103.298 84.0169 103.111C84.0254 102.953 84.0254 102.795 84.0169 102.637C83.8961 101.391 83.1023 100.306 82.5408 99.166C82.0267 98.1257 81.7002 97.0028 81.5765 95.849C81.4273 94.4275 81.5765 92.9538 81.0553 91.6175C80.6312 90.5395 79.7925 89.6392 78.8945 88.8431C77.8866 87.8972 76.7089 87.1504 75.4235 86.642C74.1109 86.1682 72.6017 86.0473 71.2891 86.5307C70.1045 86.9666 69.1923 87.8361 68.311 88.682C67.671 89.2458 67.1057 89.8892 66.6288 90.5963C66.091 91.4777 65.8611 92.4918 65.6811 93.4916C65.3982 95.0924 65.2036 96.7075 65.0982 98.3297C65.0058 99.6825 64.8613 101.218 63.7051 102.047C63.1412 102.452 62.3475 102.68 62.0892 103.293C62.0161 103.478 61.9869 103.676 62.0039 103.874C61.9968 104.038 62.0088 104.203 62.0395 104.364C62.0561 104.459 62.075 104.551 62.0987 104.646C61.7669 105.471 61.4883 106.316 61.2647 107.177C61.0918 107.816 60.933 108.444 60.7909 109.053H61.1747H61.3785L63.5866 109.105H63.6174L65.9867 109.16H65.9986L68.2067 109.212H68.2612L68.8985 109.257H69.107L77.9373 109.461H77.9847L78.5723 109.475H78.7784L80.5459 109.515L83.1521 109.574H83.1711L85.1328 109.622H85.3413H85.7441L85.6398 107.565C86.071 104.416 85.2157 104.22 85.2157 104.22ZM75.2956 103.969C75.2956 105.712 73.4286 107.847 73.4286 107.847L71.5498 105.288L71.6185 105.189L73.4286 107.653C73.4286 107.653 75.2956 105.52 75.2956 103.774C75.3391 103.685 75.389 103.6 75.4448 103.518L75.4875 103.651C75.4158 103.752 75.3516 103.858 75.2956 103.969ZM78.1671 110.811C78.1671 110.723 78.1671 110.633 78.1506 110.546C78.134 110.458 78.1363 110.38 78.1245 110.294C78.1127 110.209 78.1032 110.126 78.0913 110.041C78.0795 109.956 78.0629 109.873 78.0463 109.787C78.0297 109.702 78.0131 109.619 77.9942 109.534C77.9942 109.506 77.9823 109.479 77.9752 109.449C77.9492 109.337 77.9207 109.226 77.8899 109.115C77.8591 109.003 77.8402 108.935 77.8118 108.847C77.8118 108.807 77.7881 108.766 77.7738 108.728C77.7596 108.69 77.7336 108.6 77.7122 108.536L77.6696 108.413C77.6506 108.359 77.6317 108.302 77.6104 108.247C77.5748 108.148 77.5369 108.051 77.499 107.951C77.4611 107.852 77.4208 107.755 77.3805 107.657C77.3 107.458 77.2123 107.262 77.1247 107.063C76.7811 106.295 76.3949 105.539 76.0395 104.791C75.849 104.399 75.6797 103.997 75.5325 103.587L75.4875 103.646C75.4157 103.748 75.3515 103.855 75.2956 103.966C75.2956 105.71 73.4286 107.845 73.4286 107.845L71.5498 105.286L69.9055 107.655C69.6686 107.774 69.4316 108.176 69.2468 108.75C69.1947 108.904 69.1449 109.074 69.0976 109.252C69.0644 109.373 69.0336 109.489 69.0052 109.624C68.9886 109.688 68.9744 109.752 68.9601 109.818L68.9175 110.02V110.05C68.8891 110.188 68.8606 110.33 68.8346 110.475C68.8085 110.619 68.7777 110.785 68.7516 110.948C68.7327 111.051 68.7161 111.153 68.7019 111.254C68.6687 111.451 68.6403 111.65 68.6119 111.849C68.5953 111.965 68.5787 112.086 68.5645 112.192L68.5076 112.633C68.6284 112.995 68.7635 113.344 68.9033 113.709C68.9922 113.9 69.0444 114.107 69.0573 114.318C71.9719 115.095 75.0393 115.095 77.9539 114.318C77.953 114.31 77.953 114.303 77.9539 114.296C77.9102 114.098 77.8911 113.895 77.8971 113.692C77.9449 113.123 78.024 112.556 78.134 111.996C78.169 111.719 78.1841 111.44 78.179 111.162V111.062C78.1719 110.972 78.1695 110.892 78.1671 110.813V110.811ZM78.1671 110.811C78.1671 110.723 78.1671 110.633 78.1506 110.546C78.134 110.458 78.1363 110.38 78.1245 110.294C78.1127 110.209 78.1032 110.126 78.0913 110.041C78.0795 109.956 78.0629 109.873 78.0463 109.787C78.0297 109.702 78.0131 109.619 77.9942 109.534C77.9942 109.506 77.9823 109.479 77.9752 109.449C77.9492 109.337 77.9207 109.226 77.8899 109.115C77.8591 109.003 77.8402 108.935 77.8118 108.847C77.8118 108.807 77.7881 108.766 77.7738 108.728C77.7596 108.69 77.7336 108.6 77.7122 108.536L77.6696 108.413C77.6506 108.359 77.6317 108.302 77.6104 108.247C77.5748 108.148 77.5369 108.051 77.499 107.951C77.4611 107.852 77.4208 107.755 77.3805 107.657C77.3 107.458 77.2123 107.262 77.1247 107.063C76.7811 106.295 76.3949 105.539 76.0395 104.791C75.849 104.399 75.6797 103.997 75.5325 103.587L75.4875 103.646C75.4157 103.748 75.3515 103.855 75.2956 103.966C75.2956 105.71 73.4286 107.845 73.4286 107.845L71.5498 105.286L69.9055 107.655C69.6686 107.774 69.4316 108.176 69.2468 108.75C69.1947 108.904 69.1449 109.074 69.0976 109.252C69.0644 109.373 69.0336 109.489 69.0052 109.624C68.9886 109.688 68.9744 109.752 68.9601 109.818L68.9175 110.02V110.05C68.8891 110.188 68.8606 110.33 68.8346 110.475C68.8085 110.619 68.7777 110.785 68.7516 110.948C68.7327 111.051 68.7161 111.153 68.7019 111.254C68.6687 111.451 68.6403 111.65 68.6119 111.849C68.5953 111.965 68.5787 112.086 68.5645 112.192L68.5076 112.633C68.6284 112.995 68.7635 113.344 68.9033 113.709C68.9922 113.9 69.0444 114.107 69.0573 114.318C71.9719 115.095 75.0393 115.095 77.9539 114.318C77.953 114.31 77.953 114.303 77.9539 114.296C77.9102 114.098 77.8911 113.895 77.8971 113.692C77.9449 113.123 78.024 112.556 78.134 111.996C78.169 111.719 78.1841 111.44 78.179 111.162V111.062C78.1719 110.972 78.1695 110.892 78.1671 110.813V110.811ZM78.1671 110.811C78.1671 110.723 78.1671 110.633 78.1506 110.546C78.134 110.458 78.1363 110.38 78.1245 110.294C78.1127 110.209 78.1032 110.126 78.0913 110.041C78.0795 109.956 78.0629 109.873 78.0463 109.787C78.0297 109.702 78.0131 109.619 77.9942 109.534C77.9942 109.506 77.9823 109.479 77.9752 109.449C77.9492 109.337 77.9207 109.226 77.8899 109.115C77.8591 109.003 77.8402 108.935 77.8118 108.847C77.8118 108.807 77.7881 108.766 77.7738 108.728C77.7596 108.69 77.7336 108.6 77.7122 108.536L77.6696 108.413C77.6506 108.359 77.6317 108.302 77.6104 108.247C77.5748 108.148 77.5369 108.051 77.499 107.951C77.4611 107.852 77.4208 107.755 77.3805 107.657C77.3 107.458 77.2123 107.262 77.1247 107.063C76.7811 106.295 76.3949 105.539 76.0395 104.791C75.849 104.399 75.6797 103.997 75.5325 103.587L75.4875 103.646C75.4157 103.748 75.3515 103.855 75.2956 103.966C75.2956 105.71 73.4286 107.845 73.4286 107.845L71.5498 105.286L69.9055 107.655C69.6686 107.774 69.4316 108.176 69.2468 108.75C69.1947 108.904 69.1449 109.074 69.0976 109.252C69.0644 109.373 69.0336 109.489 69.0052 109.624C68.9886 109.688 68.9744 109.752 68.9601 109.818L68.9175 110.02V110.05C68.8891 110.188 68.8606 110.33 68.8346 110.475C68.8085 110.619 68.7777 110.785 68.7516 110.948C68.7327 111.051 68.7161 111.153 68.7019 111.254C68.6687 111.451 68.6403 111.65 68.6119 111.849C68.5953 111.965 68.5787 112.086 68.5645 112.192L68.5076 112.633C68.6284 112.995 68.7635 113.344 68.9033 113.709C68.9922 113.9 69.0444 114.107 69.0573 114.318C71.9719 115.095 75.0393 115.095 77.9539 114.318C77.953 114.31 77.953 114.303 77.9539 114.296C77.9102 114.098 77.8911 113.895 77.8971 113.692C77.9449 113.123 78.024 112.556 78.134 111.996C78.169 111.719 78.1841 111.44 78.179 111.162V111.062C78.1719 110.972 78.1695 110.892 78.1671 110.813V110.811ZM78.1671 110.811C78.1671 110.723 78.1671 110.633 78.1506 110.546C78.134 110.458 78.1363 110.38 78.1245 110.294C78.1127 110.209 78.1032 110.126 78.0913 110.041C78.0795 109.956 78.0629 109.873 78.0463 109.787C78.0297 109.702 78.0131 109.619 77.9942 109.534C77.9942 109.506 77.9823 109.479 77.9752 109.449C77.9492 109.337 77.9207 109.226 77.8899 109.115C77.8591 109.003 77.8402 108.935 77.8118 108.847C77.8118 108.807 77.7881 108.766 77.7738 108.728C77.7596 108.69 77.7336 108.6 77.7122 108.536L77.6696 108.413C77.6506 108.359 77.6317 108.302 77.6104 108.247C77.5748 108.148 77.5369 108.051 77.499 107.951C77.4611 107.852 77.4208 107.755 77.3805 107.657C77.3 107.458 77.2123 107.262 77.1247 107.063C76.7811 106.295 76.3949 105.539 76.0395 104.791C75.849 104.399 75.6797 103.997 75.5325 103.587L75.4875 103.646C75.4157 103.748 75.3515 103.855 75.2956 103.966C75.2956 105.71 73.4286 107.845 73.4286 107.845L71.5498 105.286L69.9055 107.655C69.6686 107.774 69.4316 108.176 69.2468 108.75C69.1947 108.904 69.1449 109.074 69.0976 109.252C69.0644 109.373 69.0336 109.489 69.0052 109.624C68.9886 109.688 68.9744 109.752 68.9601 109.818L68.9175 110.02V110.05C68.8891 110.188 68.8606 110.33 68.8346 110.475C68.8085 110.619 68.7777 110.785 68.7516 110.948C68.7327 111.051 68.7161 111.153 68.7019 111.254C68.6687 111.451 68.6403 111.65 68.6119 111.849C68.5953 111.965 68.5787 112.086 68.5645 112.192L68.5076 112.633C68.6284 112.995 68.7635 113.344 68.9033 113.709C68.9922 113.9 69.0444 114.107 69.0573 114.318C71.9719 115.095 75.0393 115.095 77.9539 114.318C77.953 114.31 77.953 114.303 77.9539 114.296C77.9102 114.098 77.8911 113.895 77.8971 113.692C77.9449 113.123 78.024 112.556 78.134 111.996C78.169 111.719 78.1841 111.44 78.179 111.162V111.062C78.1719 110.972 78.1695 110.892 78.1671 110.813V110.811Z" fill="url(#paint1_linear)"/>
<path opacity="0.5" d="M78.2523 94.2853H67.3537V101.63H78.2523V94.2853Z" fill="#493545"/>
<path opacity="0.5" d="M80.0624 102.386L75.5016 108.811L70.7346 108.397C70.7346 108.397 64.5153 108.809 68.6615 104.044C70.6541 101.753 71.3056 99.8436 71.4454 98.4813C71.597 97.0076 71.1492 96.1689 71.1492 96.1689L76.3308 95.5482C76.097 96.2464 76.0674 96.9968 76.2455 97.7113C76.8947 100.403 80.0624 102.386 80.0624 102.386Z" fill="#C77485"/>
<path opacity="0.1" d="M76.2432 97.7042C75.5674 98.2159 74.7763 98.554 73.9394 98.6886C73.1024 98.8233 72.2452 98.7505 71.443 98.4766C71.5947 97.0029 71.1469 96.1641 71.1469 96.1641L76.3285 95.5434C76.0951 96.2409 76.0655 96.9905 76.2432 97.7042Z" fill="black"/>
<path opacity="0.5" d="M73.1181 98.5477C75.9798 98.5477 78.2997 96.2278 78.2997 93.3661C78.2997 90.5043 75.9798 88.1844 73.1181 88.1844C70.2564 88.1844 67.9365 90.5043 67.9365 93.3661C67.9365 96.2278 70.2564 98.5477 73.1181 98.5477Z" fill="#C77485"/>
<path opacity="0.1" d="M79.8729 102.651L79.7521 102.177L79.6478 101.76L79.4938 101.144L79.4654 101.031L79.4417 100.936C79.4417 100.936 79.5649 100.564 78.7522 100.685L78.6006 100.711C78.4727 100.737 78.3234 100.772 78.1528 100.82L77.9988 100.867L77.795 100.931C77.15 101.141 76.5616 101.496 76.0749 101.969C75.8565 102.178 75.6633 102.412 75.4992 102.665C75.4826 102.689 75.4708 102.71 75.4566 102.729C75.4005 102.817 75.3506 102.909 75.3073 103.004C75.3073 104.871 73.4403 107.15 73.4403 107.15L71.6183 104.518L71.5828 104.466L71.1492 103.836L70.9952 103.632L70.9431 103.561L69.9954 102.289L69.7585 101.971L69.6803 101.865L69.5642 101.711L69.2917 101.348L68.2255 101.971L66.804 102.8L65.9747 108.191V108.34L66.0008 108.785L66.1738 111.714V111.754L65.8705 112.967L65.9155 112.991C66.6311 113.377 67.3757 113.706 68.1426 113.976L68.344 114.047C68.5809 114.126 68.8036 114.197 69.0358 114.265C69.0444 114.301 69.0508 114.336 69.0548 114.372C69.0548 114.339 69.0548 114.303 69.0548 114.27C71.9621 115.101 75.0441 115.101 77.9514 114.27L78.0059 114.254C78.141 114.216 78.2784 114.175 78.411 114.13L78.6267 114.062C79.2113 113.866 79.784 113.637 80.342 113.375L80.541 109.134L80.6832 106.075V105.9L79.8729 102.651Z" fill="black"/>
<path opacity="0.5" d="M78.167 110.529C78.167 110.434 78.167 110.339 78.1504 110.245C78.1338 110.15 78.1362 110.067 78.1244 109.977C78.1125 109.887 78.103 109.797 78.0912 109.707C78.0793 109.617 78.0628 109.527 78.0462 109.437C78.0296 109.347 78.013 109.257 77.9941 109.167C77.9941 109.136 77.9822 109.107 77.9751 109.077C77.949 108.958 77.9206 108.84 77.8898 108.719C77.859 108.598 77.84 108.527 77.8116 108.432C77.8116 108.39 77.7879 108.347 77.7737 108.307C77.7595 108.266 77.7334 108.169 77.7121 108.101L77.6695 107.968C77.6505 107.909 77.6316 107.849 77.6102 107.79C77.5747 107.684 77.5368 107.579 77.4989 107.473C77.461 107.366 77.4207 107.262 77.3804 107.158C77.2999 106.944 77.2122 106.733 77.1245 106.523C76.781 105.703 76.3948 104.895 76.0394 104.094C75.8484 103.674 75.6792 103.245 75.5324 102.808L75.4874 102.872C75.4153 102.981 75.3512 103.095 75.2954 103.213C75.2954 105.077 73.4285 107.359 73.4285 107.359L71.5496 104.622L69.9053 107.15C69.6684 107.276 69.4315 107.707 69.2467 108.321C69.1946 108.487 69.1448 108.667 69.0974 108.859C69.0643 108.987 69.0335 109.122 69.005 109.257C68.9884 109.325 68.9742 109.394 68.96 109.465L68.9174 109.681V109.714C68.8889 109.861 68.8605 110.013 68.8344 110.167C68.8084 110.321 68.7776 110.498 68.7515 110.666C68.7326 110.775 68.716 110.884 68.7018 110.993C68.6686 111.204 68.6402 111.418 68.6117 111.628C68.5951 111.752 68.5786 111.865 68.5643 111.996L68.5075 112.469C68.6283 112.858 68.7634 113.242 68.9031 113.619C68.9924 113.825 69.0446 114.046 69.0572 114.27C71.9645 115.101 75.0464 115.101 77.9538 114.27C77.9527 114.262 77.9527 114.254 77.9538 114.246C77.91 114.034 77.8909 113.817 77.8969 113.6C77.9447 112.992 78.0238 112.387 78.1338 111.787C78.1688 111.492 78.1839 111.194 78.1789 110.896V110.79C78.1718 110.7 78.1694 110.614 78.167 110.529ZM78.167 110.529C78.167 110.434 78.167 110.339 78.1504 110.245C78.1338 110.15 78.1362 110.067 78.1244 109.977C78.1125 109.887 78.103 109.797 78.0912 109.707C78.0793 109.617 78.0628 109.527 78.0462 109.437C78.0296 109.347 78.013 109.257 77.9941 109.167C77.9941 109.136 77.9822 109.107 77.9751 109.077C77.949 108.958 77.9206 108.84 77.8898 108.719C77.859 108.598 77.84 108.527 77.8116 108.432C77.8116 108.39 77.7879 108.347 77.7737 108.307C77.7595 108.266 77.7334 108.169 77.7121 108.101L77.6695 107.968C77.6505 107.909 77.6316 107.849 77.6102 107.79C77.5747 107.684 77.5368 107.579 77.4989 107.473C77.461 107.366 77.4207 107.262 77.3804 107.158C77.2999 106.944 77.2122 106.733 77.1245 106.523C76.781 105.703 76.3948 104.895 76.0394 104.094C75.8484 103.674 75.6792 103.245 75.5324 102.808L75.4874 102.872C75.4153 102.981 75.3512 103.095 75.2954 103.213C75.2954 105.077 73.4285 107.359 73.4285 107.359L71.5496 104.622L69.9053 107.15C69.6684 107.276 69.4315 107.707 69.2467 108.321C69.1946 108.487 69.1448 108.667 69.0974 108.859C69.0643 108.987 69.0335 109.122 69.005 109.257C68.9884 109.325 68.9742 109.394 68.96 109.465L68.9174 109.681V109.714C68.8889 109.861 68.8605 110.013 68.8344 110.167C68.8084 110.321 68.7776 110.498 68.7515 110.666C68.7326 110.775 68.716 110.884 68.7018 110.993C68.6686 111.204 68.6402 111.418 68.6117 111.628C68.5951 111.752 68.5786 111.865 68.5643 111.996L68.5075 112.469C68.6283 112.858 68.7634 113.242 68.9031 113.619C68.9924 113.825 69.0446 114.046 69.0572 114.27C71.9645 115.101 75.0464 115.101 77.9538 114.27C77.9527 114.262 77.9527 114.254 77.9538 114.246C77.91 114.034 77.8909 113.817 77.8969 113.6C77.9447 112.992 78.0238 112.387 78.1338 111.787C78.1688 111.492 78.1839 111.194 78.1789 110.896V110.79C78.1718 110.7 78.1694 110.614 78.167 110.529ZM78.167 110.529C78.167 110.434 78.167 110.339 78.1504 110.245C78.1338 110.15 78.1362 110.067 78.1244 109.977C78.1125 109.887 78.103 109.797 78.0912 109.707C78.0793 109.617 78.0628 109.527 78.0462 109.437C78.0296 109.347 78.013 109.257 77.9941 109.167C77.9941 109.136 77.9822 109.107 77.9751 109.077C77.949 108.958 77.9206 108.84 77.8898 108.719C77.859 108.598 77.84 108.527 77.8116 108.432C77.8116 108.39 77.7879 108.347 77.7737 108.307C77.7595 108.266 77.7334 108.169 77.7121 108.101L77.6695 107.968C77.6505 107.909 77.6316 107.849 77.6102 107.79C77.5747 107.684 77.5368 107.579 77.4989 107.473C77.461 107.366 77.4207 107.262 77.3804 107.158C77.2999 106.944 77.2122 106.733 77.1245 106.523C76.781 105.703 76.3948 104.895 76.0394 104.094C75.8484 103.674 75.6792 103.245 75.5324 102.808L75.4874 102.872C75.4153 102.981 75.3512 103.095 75.2954 103.213C75.2954 105.077 73.4285 107.359 73.4285 107.359L71.5496 104.622L69.9053 107.15C69.6684 107.276 69.4315 107.707 69.2467 108.321C69.1946 108.487 69.1448 108.667 69.0974 108.859C69.0643 108.987 69.0335 109.122 69.005 109.257C68.9884 109.325 68.9742 109.394 68.96 109.465L68.9174 109.681V109.714C68.8889 109.861 68.8605 110.013 68.8344 110.167C68.8084 110.321 68.7776 110.498 68.7515 110.666C68.7326 110.775 68.716 110.884 68.7018 110.993C68.6686 111.204 68.6402 111.418 68.6117 111.628C68.5951 111.752 68.5786 111.865 68.5643 111.996L68.5075 112.469C68.6283 112.858 68.7634 113.242 68.9031 113.619C68.9924 113.825 69.0446 114.046 69.0572 114.27C71.9645 115.101 75.0464 115.101 77.9538 114.27C77.9527 114.262 77.9527 114.254 77.9538 114.246C77.91 114.034 77.8909 113.817 77.8969 113.6C77.9447 112.992 78.0238 112.387 78.1338 111.787C78.1688 111.492 78.1839 111.194 78.1789 110.896V110.79C78.1718 110.7 78.1694 110.614 78.167 110.529ZM80.6784 106.082L79.8326 102.706L79.6881 102.128L79.6478 101.969L79.4417 101.144C79.4422 101.137 79.4422 101.13 79.4417 101.123C79.4466 101.087 79.4408 101.05 79.4251 101.016C79.3943 100.955 79.3161 100.891 79.1337 100.874C79.0643 100.869 78.9946 100.869 78.9252 100.874C78.7193 100.895 78.5156 100.933 78.3163 100.988C78.2191 101.014 78.1149 101.042 78.0035 101.078L77.7998 101.142H77.7808C77.2351 101.321 76.7285 101.602 76.2882 101.971C75.9973 102.214 75.742 102.496 75.53 102.81L75.485 102.874C75.413 102.983 75.3488 103.097 75.2931 103.215C75.2931 105.08 73.4261 107.361 73.4261 107.361L71.5473 104.625L71.4406 104.471L71.4217 104.445L71.1492 104.044L70.9431 103.769L70.8886 103.698L69.9172 102.402L69.6092 101.983V101.969L69.5026 101.824L69.2988 101.554L68.588 101.969L66.8111 103.004L65.9913 108.337V108.394L66.015 108.783L66.1903 111.752V111.92L65.9226 112.988C66.6382 113.374 67.3828 113.704 68.1497 113.974L68.3511 114.045C68.588 114.123 68.8107 114.194 69.0429 114.263C69.0515 114.298 69.0579 114.334 69.0619 114.37C69.0619 114.336 69.0619 114.301 69.0619 114.268C71.9692 115.099 75.0512 115.099 77.9585 114.268L78.013 114.251C78.1481 114.213 78.2855 114.173 78.4181 114.128L78.6338 114.059C79.2184 113.864 79.7911 113.634 80.3491 113.372L80.5458 109.136L80.6879 106.11L80.6784 106.082ZM69.0264 114.263C69.035 114.298 69.0413 114.334 69.0453 114.37C69.0453 114.336 69.0453 114.301 69.0453 114.268L69.0264 114.263ZM78.167 110.529C78.167 110.434 78.167 110.339 78.1504 110.245C78.1338 110.15 78.1362 110.067 78.1244 109.977C78.1125 109.887 78.103 109.797 78.0912 109.707C78.0793 109.617 78.0628 109.527 78.0462 109.437C78.0296 109.347 78.013 109.257 77.9941 109.167C77.9941 109.136 77.9822 109.107 77.9751 109.077C77.949 108.958 77.9206 108.84 77.8898 108.719C77.859 108.598 77.84 108.527 77.8116 108.432C77.8116 108.39 77.7879 108.347 77.7737 108.307C77.7595 108.266 77.7334 108.169 77.7121 108.101L77.6695 107.968C77.6505 107.909 77.6316 107.849 77.6102 107.79C77.5747 107.684 77.5368 107.579 77.4989 107.473C77.461 107.366 77.4207 107.262 77.3804 107.158C77.2999 106.944 77.2122 106.733 77.1245 106.523C76.781 105.703 76.3948 104.895 76.0394 104.094C75.8484 103.674 75.6792 103.245 75.5324 102.808L75.4874 102.872C75.4153 102.981 75.3512 103.095 75.2954 103.213C75.2954 105.077 73.4285 107.359 73.4285 107.359L71.5496 104.622L69.9053 107.15C69.6684 107.276 69.4315 107.707 69.2467 108.321C69.1946 108.487 69.1448 108.667 69.0974 108.859C69.0643 108.987 69.0335 109.122 69.005 109.257C68.9884 109.325 68.9742 109.394 68.96 109.465L68.9174 109.681V109.714C68.8889 109.861 68.8605 110.013 68.8344 110.167C68.8084 110.321 68.7776 110.498 68.7515 110.666C68.7326 110.775 68.716 110.884 68.7018 110.993C68.6686 111.204 68.6402 111.418 68.6117 111.628C68.5951 111.752 68.5786 111.865 68.5643 111.996L68.5075 112.469C68.6283 112.858 68.7634 113.242 68.9031 113.619C68.9924 113.825 69.0446 114.046 69.0572 114.27C71.9645 115.101 75.0464 115.101 77.9538 114.27C77.9527 114.262 77.9527 114.254 77.9538 114.246C77.91 114.034 77.8909 113.817 77.8969 113.6C77.9447 112.992 78.0238 112.387 78.1338 111.787C78.1688 111.492 78.1839 111.194 78.1789 110.896V110.79C78.1718 110.7 78.1694 110.614 78.167 110.529ZM78.167 110.529C78.167 110.434 78.167 110.339 78.1504 110.245C78.1338 110.15 78.1362 110.067 78.1244 109.977C78.1125 109.887 78.103 109.797 78.0912 109.707C78.0793 109.617 78.0628 109.527 78.0462 109.437C78.0296 109.347 78.013 109.257 77.9941 109.167C77.9941 109.136 77.9822 109.107 77.9751 109.077C77.949 108.958 77.9206 108.84 77.8898 108.719C77.859 108.598 77.84 108.527 77.8116 108.432C77.8116 108.39 77.7879 108.347 77.7737 108.307C77.7595 108.266 77.7334 108.169 77.7121 108.101L77.6695 107.968C77.6505 107.909 77.6316 107.849 77.6102 107.79C77.5747 107.684 77.5368 107.579 77.4989 107.473C77.461 107.366 77.4207 107.262 77.3804 107.158C77.2999 106.944 77.2122 106.733 77.1245 106.523C76.781 105.703 76.3948 104.895 76.0394 104.094C75.8484 103.674 75.6792 103.245 75.5324 102.808L75.4874 102.872C75.4153 102.981 75.3512 103.095 75.2954 103.213C75.2954 105.077 73.4285 107.359 73.4285 107.359L71.5496 104.622L69.9053 107.15C69.6684 107.276 69.4315 107.707 69.2467 108.321C69.1946 108.487 69.1448 108.667 69.0974 108.859C69.0643 108.987 69.0335 109.122 69.005 109.257C68.9884 109.325 68.9742 109.394 68.96 109.465L68.9174 109.681V109.714C68.8889 109.861 68.8605 110.013 68.8344 110.167C68.8084 110.321 68.7776 110.498 68.7515 110.666C68.7326 110.775 68.716 110.884 68.7018 110.993C68.6686 111.204 68.6402 111.418 68.6117 111.628C68.5951 111.752 68.5786 111.865 68.5643 111.996L68.5075 112.469C68.6283 112.858 68.7634 113.242 68.9031 113.619C68.9924 113.825 69.0446 114.046 69.0572 114.27C71.9645 115.101 75.0464 115.101 77.9538 114.27C77.9527 114.262 77.9527 114.254 77.9538 114.246C77.91 114.034 77.8909 113.817 77.8969 113.6C77.9447 112.992 78.0238 112.387 78.1338 111.787C78.1688 111.492 78.1839 111.194 78.1789 110.896V110.79C78.1718 110.7 78.1694 110.614 78.167 110.529ZM78.167 110.529C78.167 110.434 78.167 110.339 78.1504 110.245C78.1338 110.15 78.1362 110.067 78.1244 109.977C78.1125 109.887 78.103 109.797 78.0912 109.707C78.0793 109.617 78.0628 109.527 78.0462 109.437C78.0296 109.347 78.013 109.257 77.9941 109.167C77.9941 109.136 77.9822 109.107 77.9751 109.077C77.949 108.958 77.9206 108.84 77.8898 108.719C77.859 108.598 77.84 108.527 77.8116 108.432C77.8116 108.39 77.7879 108.347 77.7737 108.307C77.7595 108.266 77.7334 108.169 77.7121 108.101L77.6695 107.968C77.6505 107.909 77.6316 107.849 77.6102 107.79C77.5747 107.684 77.5368 107.579 77.4989 107.473C77.461 107.366 77.4207 107.262 77.3804 107.158C77.2999 106.944 77.2122 106.733 77.1245 106.523C76.781 105.703 76.3948 104.895 76.0394 104.094C75.8484 103.674 75.6792 103.245 75.5324 102.808L75.4874 102.872C75.4153 102.981 75.3512 103.095 75.2954 103.213C75.2954 105.077 73.4285 107.359 73.4285 107.359L71.5496 104.622L69.9053 107.15C69.6684 107.276 69.4315 107.707 69.2467 108.321C69.1946 108.487 69.1448 108.667 69.0974 108.859C69.0643 108.987 69.0335 109.122 69.005 109.257C68.9884 109.325 68.9742 109.394 68.96 109.465L68.9174 109.681V109.714C68.8889 109.861 68.8605 110.013 68.8344 110.167C68.8084 110.321 68.7776 110.498 68.7515 110.666C68.7326 110.775 68.716 110.884 68.7018 110.993C68.6686 111.204 68.6402 111.418 68.6117 111.628C68.5951 111.752 68.5786 111.865 68.5643 111.996L68.5075 112.469C68.6283 112.858 68.7634 113.242 68.9031 113.619C68.9924 113.825 69.0446 114.046 69.0572 114.27C71.9645 115.101 75.0464 115.101 77.9538 114.27C77.9527 114.262 77.9527 114.254 77.9538 114.246C77.91 114.034 77.8909 113.817 77.8969 113.6C77.9447 112.992 78.0238 112.387 78.1338 111.787C78.1688 111.492 78.1839 111.194 78.1789 110.896V110.79C78.1718 110.7 78.1694 110.614 78.167 110.529ZM78.167 110.529C78.167 110.434 78.167 110.339 78.1504 110.245C78.1338 110.15 78.1362 110.067 78.1244 109.977C78.1125 109.887 78.103 109.797 78.0912 109.707C78.0793 109.617 78.0628 109.527 78.0462 109.437C78.0296 109.347 78.013 109.257 77.9941 109.167C77.9941 109.136 77.9822 109.107 77.9751 109.077C77.949 108.958 77.9206 108.84 77.8898 108.719C77.859 108.598 77.84 108.527 77.8116 108.432C77.8116 108.39 77.7879 108.347 77.7737 108.307C77.7595 108.266 77.7334 108.169 77.7121 108.101L77.6695 107.968C77.6505 107.909 77.6316 107.849 77.6102 107.79C77.5747 107.684 77.5368 107.579 77.4989 107.473C77.461 107.366 77.4207 107.262 77.3804 107.158C77.2999 106.944 77.2122 106.733 77.1245 106.523C76.781 105.703 76.3948 104.895 76.0394 104.094C75.8484 103.674 75.6792 103.245 75.5324 102.808L75.4874 102.872C75.4153 102.981 75.3512 103.095 75.2954 103.213C75.2954 105.077 73.4285 107.359 73.4285 107.359L71.5496 104.622L69.9053 107.15C69.6684 107.276 69.4315 107.707 69.2467 108.321C69.1946 108.487 69.1448 108.667 69.0974 108.859C69.0643 108.987 69.0335 109.122 69.005 109.257C68.9884 109.325 68.9742 109.394 68.96 109.465L68.9174 109.681V109.714C68.8889 109.861 68.8605 110.013 68.8344 110.167C68.8084 110.321 68.7776 110.498 68.7515 110.666C68.7326 110.775 68.716 110.884 68.7018 110.993C68.6686 111.204 68.6402 111.418 68.6117 111.628C68.5951 111.752 68.5786 111.865 68.5643 111.996L68.5075 112.469C68.6283 112.858 68.7634 113.242 68.9031 113.619C68.9924 113.825 69.0446 114.046 69.0572 114.27C71.9645 115.101 75.0464 115.101 77.9538 114.27C77.9527 114.262 77.9527 114.254 77.9538 114.246C77.91 114.034 77.8909 113.817 77.8969 113.6C77.9447 112.992 78.0238 112.387 78.1338 111.787C78.1688 111.492 78.1839 111.194 78.1789 110.896V110.79C78.1718 110.7 78.1694 110.614 78.167 110.529ZM78.167 110.529C78.167 110.434 78.167 110.339 78.1504 110.245C78.1338 110.15 78.1362 110.067 78.1244 109.977C78.1125 109.887 78.103 109.797 78.0912 109.707C78.0793 109.617 78.0628 109.527 78.0462 109.437C78.0296 109.347 78.013 109.257 77.9941 109.167C77.9941 109.136 77.9822 109.107 77.9751 109.077C77.949 108.958 77.9206 108.84 77.8898 108.719C77.859 108.598 77.84 108.527 77.8116 108.432C77.8116 108.39 77.7879 108.347 77.7737 108.307C77.7595 108.266 77.7334 108.169 77.7121 108.101L77.6695 107.968C77.6505 107.909 77.6316 107.849 77.6102 107.79C77.5747 107.684 77.5368 107.579 77.4989 107.473C77.461 107.366 77.4207 107.262 77.3804 107.158C77.2999 106.944 77.2122 106.733 77.1245 106.523C76.781 105.703 76.3948 104.895 76.0394 104.094C75.8484 103.674 75.6792 103.245 75.5324 102.808L75.4874 102.872C75.4153 102.981 75.3512 103.095 75.2954 103.213C75.2954 105.077 73.4285 107.359 73.4285 107.359L71.5496 104.622L69.9053 107.15C69.6684 107.276 69.4315 107.707 69.2467 108.321C69.1946 108.487 69.1448 108.667 69.0974 108.859C69.0643 108.987 69.0335 109.122 69.005 109.257C68.9884 109.325 68.9742 109.394 68.96 109.465L68.9174 109.681V109.714C68.8889 109.861 68.8605 110.013 68.8344 110.167C68.8084 110.321 68.7776 110.498 68.7515 110.666C68.7326 110.775 68.716 110.884 68.7018 110.993C68.6686 111.204 68.6402 111.418 68.6117 111.628C68.5951 111.752 68.5786 111.865 68.5643 111.996L68.5075 112.469C68.6283 112.858 68.7634 113.242 68.9031 113.619C68.9924 113.825 69.0446 114.046 69.0572 114.27C71.9645 115.101 75.0464 115.101 77.9538 114.27C77.9527 114.262 77.9527 114.254 77.9538 114.246C77.91 114.034 77.8909 113.817 77.8969 113.6C77.9447 112.992 78.0238 112.387 78.1338 111.787C78.1688 111.492 78.1839 111.194 78.1789 110.896V110.79C78.1718 110.7 78.1694 110.614 78.167 110.529ZM78.167 110.529C78.167 110.434 78.167 110.339 78.1504 110.245C78.1338 110.15 78.1362 110.067 78.1244 109.977C78.1125 109.887 78.103 109.797 78.0912 109.707C78.0793 109.617 78.0628 109.527 78.0462 109.437C78.0296 109.347 78.013 109.257 77.9941 109.167C77.9941 109.136 77.9822 109.107 77.9751 109.077C77.949 108.958 77.9206 108.84 77.8898 108.719C77.859 108.598 77.84 108.527 77.8116 108.432C77.8116 108.39 77.7879 108.347 77.7737 108.307C77.7595 108.266 77.7334 108.169 77.7121 108.101L77.6695 107.968C77.6505 107.909 77.6316 107.849 77.6102 107.79C77.5747 107.684 77.5368 107.579 77.4989 107.473C77.461 107.366 77.4207 107.262 77.3804 107.158C77.2999 106.944 77.2122 106.733 77.1245 106.523C76.781 105.703 76.3948 104.895 76.0394 104.094C75.8484 103.674 75.6792 103.245 75.5324 102.808L75.4874 102.872C75.4153 102.981 75.3512 103.095 75.2954 103.213C75.2954 105.077 73.4285 107.359 73.4285 107.359L71.5496 104.622L69.9053 107.15C69.6684 107.276 69.4315 107.707 69.2467 108.321C69.1946 108.487 69.1448 108.667 69.0974 108.859C69.0643 108.987 69.0335 109.122 69.005 109.257C68.9884 109.325 68.9742 109.394 68.96 109.465L68.9174 109.681V109.714C68.8889 109.861 68.8605 110.013 68.8344 110.167C68.8084 110.321 68.7776 110.498 68.7515 110.666C68.7326 110.775 68.716 110.884 68.7018 110.993C68.6686 111.204 68.6402 111.418 68.6117 111.628C68.5951 111.752 68.5786 111.865 68.5643 111.996L68.5075 112.469C68.6283 112.858 68.7634 113.242 68.9031 113.619C68.9924 113.825 69.0446 114.046 69.0572 114.27C71.9645 115.101 75.0464 115.101 77.9538 114.27C77.9527 114.262 77.9527 114.254 77.9538 114.246C77.91 114.034 77.8909 113.817 77.8969 113.6C77.9447 112.992 78.0238 112.387 78.1338 111.787C78.1688 111.492 78.1839 111.194 78.1789 110.896V110.79C78.1718 110.7 78.1694 110.614 78.167 110.529ZM78.167 110.529C78.167 110.434 78.167 110.339 78.1504 110.245C78.1338 110.15 78.1362 110.067 78.1244 109.977C78.1125 109.887 78.103 109.797 78.0912 109.707C78.0793 109.617 78.0628 109.527 78.0462 109.437C78.0296 109.347 78.013 109.257 77.9941 109.167C77.9941 109.136 77.9822 109.107 77.9751 109.077C77.949 108.958 77.9206 108.84 77.8898 108.719C77.859 108.598 77.84 108.527 77.8116 108.432C77.8116 108.39 77.7879 108.347 77.7737 108.307C77.7595 108.266 77.7334 108.169 77.7121 108.101L77.6695 107.968C77.6505 107.909 77.6316 107.849 77.6102 107.79C77.5747 107.684 77.5368 107.579 77.4989 107.473C77.461 107.366 77.4207 107.262 77.3804 107.158C77.2999 106.944 77.2122 106.733 77.1245 106.523C76.781 105.703 76.3948 104.895 76.0394 104.094C75.8484 103.674 75.6792 103.245 75.5324 102.808L75.4874 102.872C75.4153 102.981 75.3512 103.095 75.2954 103.213C75.2954 105.077 73.4285 107.359 73.4285 107.359L71.5496 104.622L69.9053 107.15C69.6684 107.276 69.4315 107.707 69.2467 108.321C69.1946 108.487 69.1448 108.667 69.0974 108.859C69.0643 108.987 69.0335 109.122 69.005 109.257C68.9884 109.325 68.9742 109.394 68.96 109.465L68.9174 109.681V109.714C68.8889 109.861 68.8605 110.013 68.8344 110.167C68.8084 110.321 68.7776 110.498 68.7515 110.666C68.7326 110.775 68.716 110.884 68.7018 110.993C68.6686 111.204 68.6402 111.418 68.6117 111.628C68.5951 111.752 68.5786 111.865 68.5643 111.996L68.5075 112.469C68.6283 112.858 68.7634 113.242 68.9031 113.619C68.9924 113.825 69.0446 114.046 69.0572 114.27C71.9645 115.101 75.0464 115.101 77.9538 114.27C77.9527 114.262 77.9527 114.254 77.9538 114.246C77.91 114.034 77.8909 113.817 77.8969 113.6C77.9447 112.992 78.0238 112.387 78.1338 111.787C78.1688 111.492 78.1839 111.194 78.1789 110.896V110.79C78.1718 110.7 78.1694 110.614 78.167 110.529ZM78.167 110.529C78.167 110.434 78.167 110.339 78.1504 110.245C78.1338 110.15 78.1362 110.067 78.1244 109.977C78.1125 109.887 78.103 109.797 78.0912 109.707C78.0793 109.617 78.0628 109.527 78.0462 109.437C78.0296 109.347 78.013 109.257 77.9941 109.167C77.9941 109.136 77.9822 109.107 77.9751 109.077C77.949 108.958 77.9206 108.84 77.8898 108.719C77.859 108.598 77.84 108.527 77.8116 108.432C77.8116 108.39 77.7879 108.347 77.7737 108.307C77.7595 108.266 77.7334 108.169 77.7121 108.101L77.6695 107.968C77.6505 107.909 77.6316 107.849 77.6102 107.79C77.5747 107.684 77.5368 107.579 77.4989 107.473C77.461 107.366 77.4207 107.262 77.3804 107.158C77.2999 106.944 77.2122 106.733 77.1245 106.523C76.781 105.703 76.3948 104.895 76.0394 104.094C75.8484 103.674 75.6792 103.245 75.5324 102.808L75.4874 102.872C75.4153 102.981 75.3512 103.095 75.2954 103.213C75.2954 105.077 73.4285 107.359 73.4285 107.359L71.5496 104.622L69.9053 107.15C69.6684 107.276 69.4315 107.707 69.2467 108.321C69.1946 108.487 69.1448 108.667 69.0974 108.859C69.0643 108.987 69.0335 109.122 69.005 109.257C68.9884 109.325 68.9742 109.394 68.96 109.465L68.9174 109.681V109.714C68.8889 109.861 68.8605 110.013 68.8344 110.167C68.8084 110.321 68.7776 110.498 68.7515 110.666C68.7326 110.775 68.716 110.884 68.7018 110.993C68.6686 111.204 68.6402 111.418 68.6117 111.628C68.5951 111.752 68.5786 111.865 68.5643 111.996L68.5075 112.469C68.6283 112.858 68.7634 113.242 68.9031 113.619C68.9924 113.825 69.0446 114.046 69.0572 114.27C71.9645 115.101 75.0464 115.101 77.9538 114.27C77.9527 114.262 77.9527 114.254 77.9538 114.246C77.91 114.034 77.8909 113.817 77.8969 113.6C77.9447 112.992 78.0238 112.387 78.1338 111.787C78.1688 111.492 78.1839 111.194 78.1789 110.896V110.79C78.1718 110.7 78.1694 110.614 78.167 110.529Z" fill="white"/>
<path opacity="0.1" d="M71.5828 104.464L71.4241 104.442C71.1844 104.41 70.947 104.362 70.7133 104.3L70.6256 104.277C70.0475 104.113 69.4149 103.819 69.2728 103.303C69.2304 103.137 69.2354 102.962 69.287 102.798C69.3665 102.516 69.4745 102.243 69.6092 101.983V101.969C69.627 101.932 69.6468 101.897 69.6684 101.862C69.8639 101.48 70.1595 101.158 70.5237 100.931L70.2394 100.976L67.8322 101.367L64.1006 101.969C64.1006 101.969 63.4372 101.836 62.5345 104.324C62.5345 104.355 62.5132 104.383 62.5037 104.416C62.2858 105.025 62.0559 105.786 61.819 106.736C61.6555 107.395 61.5063 108.041 61.3689 108.669C61.3286 108.859 61.2883 109.046 61.2504 109.231C61.6776 109.734 62.1374 110.209 62.6269 110.652L62.7051 110.726C63.6639 111.594 64.7235 112.344 65.861 112.96L65.906 112.984C66.6216 113.37 67.3662 113.699 68.1331 113.969L68.3345 114.04C68.3772 113.602 68.4246 113.116 68.4814 112.619C68.4814 112.569 68.4814 112.519 68.5004 112.47L68.5572 111.996C68.5715 111.875 68.588 111.759 68.6046 111.628C68.6331 111.418 68.6615 111.204 68.6947 110.993C68.7089 110.884 68.7255 110.775 68.7444 110.667C68.7705 110.498 68.7989 110.33 68.8273 110.167C68.8558 110.003 68.8818 109.861 68.9103 109.714V109.681L68.9529 109.465C68.9671 109.394 68.9813 109.325 68.9979 109.257C69.0264 109.122 69.0572 108.987 69.0903 108.859C69.1377 108.667 69.1875 108.487 69.2396 108.321C69.4291 107.707 69.6495 107.276 69.8982 107.15L71.5425 104.622L71.6112 104.516L71.642 104.468L71.5828 104.464Z" fill="black"/>
<path opacity="0.1" d="M68.5904 87.6821C68.3535 88.0091 68.3725 88.4592 68.2658 88.8668C68.0123 89.7932 67.0078 90.3736 66.7779 91.3071C66.6429 91.852 66.7993 92.4302 66.7069 92.9846C66.5386 94.0057 65.6051 94.6976 65.0839 95.5908C64.8197 96.0509 64.663 96.5649 64.6257 97.0942C64.5883 97.6235 64.6713 98.1544 64.8683 98.6471C64.9902 98.8956 65.0909 99.154 65.1692 99.4195C65.229 99.8151 65.2039 100.219 65.0958 100.604C64.9181 101.448 64.7356 102.376 65.1431 103.137C65.4867 103.779 66.1998 104.156 66.9177 104.274C67.6426 104.356 68.376 104.323 69.0903 104.175C69.8746 104.054 70.6778 103.914 71.3601 103.511L68.7942 97.318C68.5359 96.6925 68.2706 96.0457 68.2729 95.3681C68.2938 94.8682 68.4021 94.3758 68.5928 93.9133C69.0896 92.5732 69.8106 91.3274 70.7251 90.2291C71.0971 90.6603 71.0687 91.3166 71.3791 91.7952C71.6533 92.149 72.0186 92.4217 72.4358 92.5842C73.6515 93.1772 74.9007 93.6994 76.1769 94.1479C76.2569 94.1579 76.3333 94.1876 76.3991 94.2342C76.465 94.2808 76.5183 94.343 76.5544 94.4152C76.5905 94.4874 76.6082 94.5673 76.606 94.648C76.6038 94.7287 76.5817 94.8075 76.5417 94.8776L75.5751 98.8675C75.3618 99.7465 75.1746 100.763 75.7219 101.474C76.2692 102.184 77.5036 102.521 77.5108 103.438C77.5007 103.583 77.5007 103.729 77.5108 103.874C77.5747 104.303 78.0841 104.509 78.5177 104.53C79.2295 104.544 79.923 104.305 80.4746 103.855C81.0262 103.405 81.3999 102.773 81.529 102.073C81.766 100.505 80.7282 99.0594 80.2947 97.5312C79.5649 94.9605 80.5316 91.9445 79.0982 89.6865C77.9372 87.8551 75.8215 87.3575 73.8123 87.1301C72.4026 86.9642 69.5832 86.3719 68.5904 87.6821Z" fill="black"/>
<path opacity="0.5" d="M68.5904 87.4452C68.3535 87.7722 68.3725 88.2224 68.2658 88.6299C68.0123 89.5563 67.0078 90.1367 66.7779 91.0702C66.6429 91.6152 66.7993 92.1933 66.7069 92.7477C66.5386 93.7688 65.6051 94.4607 65.0839 95.3539C64.8197 95.814 64.663 96.328 64.6257 96.8573C64.5883 97.3867 64.6713 97.9176 64.8683 98.4102C64.9902 98.6587 65.0909 98.9171 65.1692 99.1826C65.229 99.5783 65.2039 99.9821 65.0958 100.367C64.9181 101.211 64.7356 102.139 65.1431 102.9C65.4867 103.542 66.1998 103.919 66.9177 104.037C67.6426 104.119 68.376 104.086 69.0903 103.938C69.8746 103.817 70.6778 103.677 71.3601 103.274L68.7942 97.0811C68.5359 96.4556 68.2706 95.8088 68.2729 95.1312C68.2938 94.6313 68.4021 94.139 68.5928 93.6764C69.0896 92.3364 69.8106 91.0905 70.7251 89.9922C71.0971 90.4234 71.0687 91.0797 71.3791 91.5583C71.6533 91.9122 72.0186 92.1849 72.4358 92.3473C73.6515 92.9404 74.9007 93.4625 76.1769 93.911C76.2569 93.921 76.3333 93.9507 76.3991 93.9973C76.465 94.0439 76.5183 94.1061 76.5544 94.1783C76.5905 94.2505 76.6082 94.3304 76.606 94.4111C76.6038 94.4918 76.5817 94.5706 76.5417 94.6407L75.5751 98.6306C75.3618 99.5096 75.1746 100.526 75.7219 101.237C76.2692 101.948 77.5036 102.284 77.5108 103.201C77.5007 103.346 77.5007 103.492 77.5108 103.637C77.5747 104.066 78.0841 104.272 78.5177 104.293C79.2295 104.307 79.923 104.068 80.4746 103.618C81.0262 103.168 81.3999 102.536 81.529 101.836C81.766 100.268 80.7282 98.8225 80.2947 97.2943C79.5649 94.7237 80.5316 91.7076 79.0982 89.4497C77.9372 87.6182 75.8215 87.1207 73.8123 86.8932C72.4026 86.7274 69.5832 86.135 68.5904 87.4452Z" fill="#493545"/>
</g>
<g opacity="0.5">
<path opacity="0.5" d="M67.1333 150.906C67.1546 151.7 66.6144 152.378 66.1856 153.039C65.7568 153.7 65.4393 154.602 65.88 155.263C66.0245 155.481 66.2425 155.649 66.3728 155.877C66.83 156.671 66.0695 157.583 65.7923 158.455C65.4725 159.462 65.8444 160.587 66.5173 161.404C67.1902 162.222 68.1189 162.774 69.0572 163.26C71.0299 164.311 73.1472 165.065 75.3405 165.496C76.4872 165.707 77.7098 165.802 78.7854 165.342C79.5317 165 80.1414 164.417 80.5165 163.686C80.8916 162.956 81.0104 162.12 80.8538 161.314C80.5813 160.068 79.6691 159.066 79.1953 157.888C79.0847 157.657 79.0311 157.403 79.0389 157.147C79.0792 156.699 79.4227 156.348 79.6905 155.986C80.3619 154.999 80.636 153.795 80.4581 152.614C80.2711 151.434 79.8191 150.311 79.1361 149.331C78.892 148.924 78.5699 148.57 78.1884 148.288C77.6718 147.94 77.0321 147.84 76.4161 147.753C73.8431 147.393 71.1777 146.999 68.5833 146.867C67.7635 146.824 67.1617 146.985 66.7566 147.753C66.1382 148.897 67.1025 149.757 67.1333 150.906Z" fill="#444176"/>
<path opacity="0.5" d="M80.3847 158.964L75.5016 165.908L70.7346 165.494C70.7346 165.494 70.5783 167.152 68.6615 161.141C67.5906 157.779 69.768 158.948 70.1968 158.016C70.6257 157.085 71.3815 156.263 71.4454 155.576C71.5971 154.102 71.1493 153.264 71.1493 153.264L76.3309 152.643C76.0971 153.341 76.0675 154.092 76.2456 154.806C76.8948 157.502 80.3847 158.964 80.3847 158.964Z" fill="#C77485"/>
<path opacity="0.5" d="M73.0399 153.043C76.4421 153.043 79.2 150.869 79.2 148.186C79.2 145.504 76.4421 143.329 73.0399 143.329C69.6378 143.329 66.8798 145.504 66.8798 148.186C66.8798 150.869 69.6378 153.043 73.0399 153.043Z" fill="#444176"/>
<path opacity="0.1" d="M76.2432 154.804C75.5674 155.315 74.7763 155.653 73.9394 155.788C73.1025 155.923 72.2453 155.85 71.443 155.576C71.5947 154.102 71.1469 153.264 71.1469 153.264L76.3285 152.643C76.0951 153.34 76.0655 154.09 76.2432 154.804Z" fill="black"/>
<path opacity="0.5" d="M73.1181 155.647C75.9798 155.647 78.2997 153.327 78.2997 150.466C78.2997 147.604 75.9798 145.284 73.1181 145.284C70.2564 145.284 67.9365 147.604 67.9365 150.466C67.9365 153.327 70.2564 155.647 73.1181 155.647Z" fill="#C77485"/>
<path opacity="0.1" d="M79.8729 159.751L79.7521 159.277L79.6478 158.86L79.4938 158.244L79.4654 158.13L79.4417 158.035C79.4417 158.035 79.5649 157.663 78.7522 157.784L78.6006 157.81C78.4727 157.836 78.3234 157.872 78.1528 157.919L77.9988 157.967L77.795 158.031C77.15 158.241 76.5616 158.596 76.075 159.068C75.8565 159.277 75.6633 159.511 75.4992 159.765C75.4826 159.789 75.4708 159.81 75.4566 159.829C75.4005 159.917 75.3506 160.009 75.3073 160.104C75.3073 161.971 73.4403 164.25 73.4403 164.25L71.6184 161.618L71.5828 161.566L71.1492 160.935L70.9952 160.732L70.9431 160.661L69.9954 159.388L69.7585 159.071L69.6803 158.964L69.5642 158.81L69.2917 158.448L68.2256 159.071L66.804 159.9L65.9747 165.29V165.439L66.0008 165.885L66.1738 168.813V168.853L65.8705 170.067L65.9155 170.09C66.6311 170.476 67.3757 170.806 68.1426 171.076L68.344 171.147C68.5809 171.225 68.8037 171.296 69.0358 171.365C69.0444 171.4 69.0508 171.436 69.0548 171.472C69.0548 171.438 69.0548 171.403 69.0548 171.37C71.9621 172.2 75.0441 172.2 77.9514 171.37L78.0059 171.353C78.141 171.315 78.2784 171.275 78.4111 171.23L78.6267 171.161C79.2113 170.966 79.7841 170.736 80.342 170.474L80.541 166.233L80.6832 163.174V162.999L79.8729 159.751Z" fill="black"/>
<path opacity="0.5" d="M78.167 167.629C78.167 167.534 78.167 167.439 78.1504 167.344C78.1339 167.25 78.1362 167.167 78.1244 167.077C78.1125 166.987 78.1031 166.896 78.0912 166.806C78.0794 166.716 78.0628 166.626 78.0462 166.536C78.0296 166.446 78.013 166.356 77.9941 166.266C77.9941 166.235 77.9822 166.207 77.9751 166.176C77.9491 166.058 77.9206 165.939 77.8898 165.818C77.859 165.698 77.8401 165.627 77.8116 165.532C77.8116 165.489 77.7879 165.446 77.7737 165.406C77.7595 165.366 77.7334 165.269 77.7121 165.2L77.6695 165.067C77.6505 165.008 77.6316 164.949 77.6102 164.89C77.5747 164.783 77.5368 164.679 77.4989 164.572C77.461 164.466 77.4207 164.361 77.3804 164.257C77.2999 164.044 77.2122 163.833 77.1245 163.622C76.781 162.802 76.3948 161.994 76.0394 161.194C75.8484 160.774 75.6792 160.344 75.5324 159.907L75.4874 159.971C75.4153 160.08 75.3512 160.194 75.2955 160.312C75.2955 162.177 73.4285 164.458 73.4285 164.458L71.5496 161.722L69.9054 164.25C69.6684 164.376 69.4315 164.807 69.2467 165.42C69.1946 165.586 69.1448 165.766 69.0974 165.958C69.0643 166.086 69.0335 166.221 69.005 166.356C68.9885 166.425 68.9742 166.494 68.96 166.565L68.9174 166.78V166.814C68.8889 166.96 68.8605 167.112 68.8345 167.266C68.8084 167.42 68.7776 167.598 68.7515 167.766C68.7326 167.875 68.716 167.984 68.7018 168.093C68.6686 168.304 68.6402 168.517 68.6117 168.728C68.5952 168.851 68.5786 168.965 68.5644 169.095L68.5075 169.569C68.6283 169.958 68.7634 170.341 68.9032 170.718C68.9925 170.925 69.0446 171.145 69.0572 171.37C71.9645 172.201 75.0464 172.201 77.9538 171.37C77.9527 171.362 77.9527 171.354 77.9538 171.346C77.91 171.133 77.8909 170.916 77.8969 170.699C77.9448 170.091 78.0238 169.486 78.1339 168.887C78.1688 168.591 78.1839 168.293 78.1789 167.996V167.889C78.1718 167.799 78.1694 167.714 78.167 167.629ZM78.167 167.629C78.167 167.534 78.167 167.439 78.1504 167.344C78.1339 167.25 78.1362 167.167 78.1244 167.077C78.1125 166.987 78.1031 166.896 78.0912 166.806C78.0794 166.716 78.0628 166.626 78.0462 166.536C78.0296 166.446 78.013 166.356 77.9941 166.266C77.9941 166.235 77.9822 166.207 77.9751 166.176C77.9491 166.058 77.9206 165.939 77.8898 165.818C77.859 165.698 77.8401 165.627 77.8116 165.532C77.8116 165.489 77.7879 165.446 77.7737 165.406C77.7595 165.366 77.7334 165.269 77.7121 165.2L77.6695 165.067C77.6505 165.008 77.6316 164.949 77.6102 164.89C77.5747 164.783 77.5368 164.679 77.4989 164.572C77.461 164.466 77.4207 164.361 77.3804 164.257C77.2999 164.044 77.2122 163.833 77.1245 163.622C76.781 162.802 76.3948 161.994 76.0394 161.194C75.8484 160.774 75.6792 160.344 75.5324 159.907L75.4874 159.971C75.4153 160.08 75.3512 160.194 75.2955 160.312C75.2955 162.177 73.4285 164.458 73.4285 164.458L71.5496 161.722L69.9054 164.25C69.6684 164.376 69.4315 164.807 69.2467 165.42C69.1946 165.586 69.1448 165.766 69.0974 165.958C69.0643 166.086 69.0335 166.221 69.005 166.356C68.9885 166.425 68.9742 166.494 68.96 166.565L68.9174 166.78V166.814C68.8889 166.96 68.8605 167.112 68.8345 167.266C68.8084 167.42 68.7776 167.598 68.7515 167.766C68.7326 167.875 68.716 167.984 68.7018 168.093C68.6686 168.304 68.6402 168.517 68.6117 168.728C68.5952 168.851 68.5786 168.965 68.5644 169.095L68.5075 169.569C68.6283 169.958 68.7634 170.341 68.9032 170.718C68.9925 170.925 69.0446 171.145 69.0572 171.37C71.9645 172.201 75.0464 172.201 77.9538 171.37C77.9527 171.362 77.9527 171.354 77.9538 171.346C77.91 171.133 77.8909 170.916 77.8969 170.699C77.9448 170.091 78.0238 169.486 78.1339 168.887C78.1688 168.591 78.1839 168.293 78.1789 167.996V167.889C78.1718 167.799 78.1694 167.714 78.167 167.629ZM78.167 167.629C78.167 167.534 78.167 167.439 78.1504 167.344C78.1339 167.25 78.1362 167.167 78.1244 167.077C78.1125 166.987 78.1031 166.896 78.0912 166.806C78.0794 166.716 78.0628 166.626 78.0462 166.536C78.0296 166.446 78.013 166.356 77.9941 166.266C77.9941 166.235 77.9822 166.207 77.9751 166.176C77.9491 166.058 77.9206 165.939 77.8898 165.818C77.859 165.698 77.8401 165.627 77.8116 165.532C77.8116 165.489 77.7879 165.446 77.7737 165.406C77.7595 165.366 77.7334 165.269 77.7121 165.2L77.6695 165.067C77.6505 165.008 77.6316 164.949 77.6102 164.89C77.5747 164.783 77.5368 164.679 77.4989 164.572C77.461 164.466 77.4207 164.361 77.3804 164.257C77.2999 164.044 77.2122 163.833 77.1245 163.622C76.781 162.802 76.3948 161.994 76.0394 161.194C75.8484 160.774 75.6792 160.344 75.5324 159.907L75.4874 159.971C75.4153 160.08 75.3512 160.194 75.2955 160.312C75.2955 162.177 73.4285 164.458 73.4285 164.458L71.5496 161.722L69.9054 164.25C69.6684 164.376 69.4315 164.807 69.2467 165.42C69.1946 165.586 69.1448 165.766 69.0974 165.958C69.0643 166.086 69.0335 166.221 69.005 166.356C68.9885 166.425 68.9742 166.494 68.96 166.565L68.9174 166.78V166.814C68.8889 166.96 68.8605 167.112 68.8345 167.266C68.8084 167.42 68.7776 167.598 68.7515 167.766C68.7326 167.875 68.716 167.984 68.7018 168.093C68.6686 168.304 68.6402 168.517 68.6117 168.728C68.5952 168.851 68.5786 168.965 68.5644 169.095L68.5075 169.569C68.6283 169.958 68.7634 170.341 68.9032 170.718C68.9925 170.925 69.0446 171.145 69.0572 171.37C71.9645 172.201 75.0464 172.201 77.9538 171.37C77.9527 171.362 77.9527 171.354 77.9538 171.346C77.91 171.133 77.8909 170.916 77.8969 170.699C77.9448 170.091 78.0238 169.486 78.1339 168.887C78.1688 168.591 78.1839 168.293 78.1789 167.996V167.889C78.1718 167.799 78.1694 167.714 78.167 167.629ZM80.6785 163.181L79.8326 159.805L79.6881 159.227L79.6478 159.068L79.4417 158.244C79.4422 158.237 79.4422 158.23 79.4417 158.223C79.4466 158.186 79.4408 158.149 79.4251 158.116C79.3943 158.054 79.3161 157.99 79.1337 157.974C79.0643 157.969 78.9946 157.969 78.9252 157.974C78.7193 157.994 78.5156 158.032 78.3163 158.088C78.2191 158.114 78.1149 158.142 78.0035 158.178L77.7998 158.242H77.7808C77.2351 158.421 76.7285 158.702 76.2882 159.071C75.9973 159.313 75.7421 159.596 75.53 159.909L75.485 159.973C75.413 160.082 75.3488 160.196 75.2931 160.315C75.2931 162.179 73.4261 164.461 73.4261 164.461L71.5473 161.724L71.4407 161.57L71.4217 161.544L71.1492 161.144L70.9431 160.869L70.8886 160.798L69.9172 159.502L69.6092 159.083V159.068L69.5026 158.924L69.2988 158.654L68.588 159.068L66.8111 160.104L65.9913 165.437V165.494L66.015 165.882L66.1903 168.851V169.019L65.9226 170.088C66.6382 170.474 67.3828 170.803 68.1497 171.074L68.3511 171.145C68.588 171.223 68.8108 171.294 69.0429 171.363C69.0516 171.398 69.0579 171.433 69.0619 171.469C69.0619 171.436 69.0619 171.4 69.0619 171.367C71.9693 172.198 75.0512 172.198 77.9585 171.367L78.013 171.351C78.1481 171.313 78.2855 171.273 78.4182 171.228L78.6338 171.159C79.2184 170.963 79.7912 170.734 80.3491 170.472L80.5458 166.235L80.6879 163.21L80.6785 163.181ZM69.0264 171.363C69.035 171.398 69.0413 171.433 69.0453 171.469C69.0453 171.436 69.0453 171.4 69.0453 171.367L69.0264 171.363ZM78.167 167.629C78.167 167.534 78.167 167.439 78.1504 167.344C78.1339 167.25 78.1362 167.167 78.1244 167.077C78.1125 166.987 78.1031 166.896 78.0912 166.806C78.0794 166.716 78.0628 166.626 78.0462 166.536C78.0296 166.446 78.013 166.356 77.9941 166.266C77.9941 166.235 77.9822 166.207 77.9751 166.176C77.9491 166.058 77.9206 165.939 77.8898 165.818C77.859 165.698 77.8401 165.627 77.8116 165.532C77.8116 165.489 77.7879 165.446 77.7737 165.406C77.7595 165.366 77.7334 165.269 77.7121 165.2L77.6695 165.067C77.6505 165.008 77.6316 164.949 77.6102 164.89C77.5747 164.783 77.5368 164.679 77.4989 164.572C77.461 164.466 77.4207 164.361 77.3804 164.257C77.2999 164.044 77.2122 163.833 77.1245 163.622C76.781 162.802 76.3948 161.994 76.0394 161.194C75.8484 160.774 75.6792 160.344 75.5324 159.907L75.4874 159.971C75.4153 160.08 75.3512 160.194 75.2955 160.312C75.2955 162.177 73.4285 164.458 73.4285 164.458L71.5496 161.722L69.9054 164.25C69.6684 164.376 69.4315 164.807 69.2467 165.42C69.1946 165.586 69.1448 165.766 69.0974 165.958C69.0643 166.086 69.0335 166.221 69.005 166.356C68.9885 166.425 68.9742 166.494 68.96 166.565L68.9174 166.78V166.814C68.8889 166.96 68.8605 167.112 68.8345 167.266C68.8084 167.42 68.7776 167.598 68.7515 167.766C68.7326 167.875 68.716 167.984 68.7018 168.093C68.6686 168.304 68.6402 168.517 68.6117 168.728C68.5952 168.851 68.5786 168.965 68.5644 169.095L68.5075 169.569C68.6283 169.958 68.7634 170.341 68.9032 170.718C68.9925 170.925 69.0446 171.145 69.0572 171.37C71.9645 172.201 75.0464 172.201 77.9538 171.37C77.9527 171.362 77.9527 171.354 77.9538 171.346C77.91 171.133 77.8909 170.916 77.8969 170.699C77.9448 170.091 78.0238 169.486 78.1339 168.887C78.1688 168.591 78.1839 168.293 78.1789 167.996V167.889C78.1718 167.799 78.1694 167.714 78.167 167.629ZM78.167 167.629C78.167 167.534 78.167 167.439 78.1504 167.344C78.1339 167.25 78.1362 167.167 78.1244 167.077C78.1125 166.987 78.1031 166.896 78.0912 166.806C78.0794 166.716 78.0628 166.626 78.0462 166.536C78.0296 166.446 78.013 166.356 77.9941 166.266C77.9941 166.235 77.9822 166.207 77.9751 166.176C77.9491 166.058 77.9206 165.939 77.8898 165.818C77.859 165.698 77.8401 165.627 77.8116 165.532C77.8116 165.489 77.7879 165.446 77.7737 165.406C77.7595 165.366 77.7334 165.269 77.7121 165.2L77.6695 165.067C77.6505 165.008 77.6316 164.949 77.6102 164.89C77.5747 164.783 77.5368 164.679 77.4989 164.572C77.461 164.466 77.4207 164.361 77.3804 164.257C77.2999 164.044 77.2122 163.833 77.1245 163.622C76.781 162.802 76.3948 161.994 76.0394 161.194C75.8484 160.774 75.6792 160.344 75.5324 159.907L75.4874 159.971C75.4153 160.08 75.3512 160.194 75.2955 160.312C75.2955 162.177 73.4285 164.458 73.4285 164.458L71.5496 161.722L69.9054 164.25C69.6684 164.376 69.4315 164.807 69.2467 165.42C69.1946 165.586 69.1448 165.766 69.0974 165.958C69.0643 166.086 69.0335 166.221 69.005 166.356C68.9885 166.425 68.9742 166.494 68.96 166.565L68.9174 166.78V166.814C68.8889 166.96 68.8605 167.112 68.8345 167.266C68.8084 167.42 68.7776 167.598 68.7515 167.766C68.7326 167.875 68.716 167.984 68.7018 168.093C68.6686 168.304 68.6402 168.517 68.6117 168.728C68.5952 168.851 68.5786 168.965 68.5644 169.095L68.5075 169.569C68.6283 169.958 68.7634 170.341 68.9032 170.718C68.9925 170.925 69.0446 171.145 69.0572 171.37C71.9645 172.201 75.0464 172.201 77.9538 171.37C77.9527 171.362 77.9527 171.354 77.9538 171.346C77.91 171.133 77.8909 170.916 77.8969 170.699C77.9448 170.091 78.0238 169.486 78.1339 168.887C78.1688 168.591 78.1839 168.293 78.1789 167.996V167.889C78.1718 167.799 78.1694 167.714 78.167 167.629ZM78.167 167.629C78.167 167.534 78.167 167.439 78.1504 167.344C78.1339 167.25 78.1362 167.167 78.1244 167.077C78.1125 166.987 78.1031 166.896 78.0912 166.806C78.0794 166.716 78.0628 166.626 78.0462 166.536C78.0296 166.446 78.013 166.356 77.9941 166.266C77.9941 166.235 77.9822 166.207 77.9751 166.176C77.9491 166.058 77.9206 165.939 77.8898 165.818C77.859 165.698 77.8401 165.627 77.8116 165.532C77.8116 165.489 77.7879 165.446 77.7737 165.406C77.7595 165.366 77.7334 165.269 77.7121 165.2L77.6695 165.067C77.6505 165.008 77.6316 164.949 77.6102 164.89C77.5747 164.783 77.5368 164.679 77.4989 164.572C77.461 164.466 77.4207 164.361 77.3804 164.257C77.2999 164.044 77.2122 163.833 77.1245 163.622C76.781 162.802 76.3948 161.994 76.0394 161.194C75.8484 160.774 75.6792 160.344 75.5324 159.907L75.4874 159.971C75.4153 160.08 75.3512 160.194 75.2955 160.312C75.2955 162.177 73.4285 164.458 73.4285 164.458L71.5496 161.722L69.9054 164.25C69.6684 164.376 69.4315 164.807 69.2467 165.42C69.1946 165.586 69.1448 165.766 69.0974 165.958C69.0643 166.086 69.0335 166.221 69.005 166.356C68.9885 166.425 68.9742 166.494 68.96 166.565L68.9174 166.78V166.814C68.8889 166.96 68.8605 167.112 68.8345 167.266C68.8084 167.42 68.7776 167.598 68.7515 167.766C68.7326 167.875 68.716 167.984 68.7018 168.093C68.6686 168.304 68.6402 168.517 68.6117 168.728C68.5952 168.851 68.5786 168.965 68.5644 169.095L68.5075 169.569C68.6283 169.958 68.7634 170.341 68.9032 170.718C68.9925 170.925 69.0446 171.145 69.0572 171.37C71.9645 172.201 75.0464 172.201 77.9538 171.37C77.9527 171.362 77.9527 171.354 77.9538 171.346C77.91 171.133 77.8909 170.916 77.8969 170.699C77.9448 170.091 78.0238 169.486 78.1339 168.887C78.1688 168.591 78.1839 168.293 78.1789 167.996V167.889C78.1718 167.799 78.1694 167.714 78.167 167.629ZM78.167 167.629C78.167 167.534 78.167 167.439 78.1504 167.344C78.1339 167.25 78.1362 167.167 78.1244 167.077C78.1125 166.987 78.1031 166.896 78.0912 166.806C78.0794 166.716 78.0628 166.626 78.0462 166.536C78.0296 166.446 78.013 166.356 77.9941 166.266C77.9941 166.235 77.9822 166.207 77.9751 166.176C77.9491 166.058 77.9206 165.939 77.8898 165.818C77.859 165.698 77.8401 165.627 77.8116 165.532C77.8116 165.489 77.7879 165.446 77.7737 165.406C77.7595 165.366 77.7334 165.269 77.7121 165.2L77.6695 165.067C77.6505 165.008 77.6316 164.949 77.6102 164.89C77.5747 164.783 77.5368 164.679 77.4989 164.572C77.461 164.466 77.4207 164.361 77.3804 164.257C77.2999 164.044 77.2122 163.833 77.1245 163.622C76.781 162.802 76.3948 161.994 76.0394 161.194C75.8484 160.774 75.6792 160.344 75.5324 159.907L75.4874 159.971C75.4153 160.08 75.3512 160.194 75.2955 160.312C75.2955 162.177 73.4285 164.458 73.4285 164.458L71.5496 161.722L69.9054 164.25C69.6684 164.376 69.4315 164.807 69.2467 165.42C69.1946 165.586 69.1448 165.766 69.0974 165.958C69.0643 166.086 69.0335 166.221 69.005 166.356C68.9885 166.425 68.9742 166.494 68.96 166.565L68.9174 166.78V166.814C68.8889 166.96 68.8605 167.112 68.8345 167.266C68.8084 167.42 68.7776 167.598 68.7515 167.766C68.7326 167.875 68.716 167.984 68.7018 168.093C68.6686 168.304 68.6402 168.517 68.6117 168.728C68.5952 168.851 68.5786 168.965 68.5644 169.095L68.5075 169.569C68.6283 169.958 68.7634 170.341 68.9032 170.718C68.9925 170.925 69.0446 171.145 69.0572 171.37C71.9645 172.201 75.0464 172.201 77.9538 171.37C77.9527 171.362 77.9527 171.354 77.9538 171.346C77.91 171.133 77.8909 170.916 77.8969 170.699C77.9448 170.091 78.0238 169.486 78.1339 168.887C78.1688 168.591 78.1839 168.293 78.1789 167.996V167.889C78.1718 167.799 78.1694 167.714 78.167 167.629ZM78.167 167.629C78.167 167.534 78.167 167.439 78.1504 167.344C78.1339 167.25 78.1362 167.167 78.1244 167.077C78.1125 166.987 78.1031 166.896 78.0912 166.806C78.0794 166.716 78.0628 166.626 78.0462 166.536C78.0296 166.446 78.013 166.356 77.9941 166.266C77.9941 166.235 77.9822 166.207 77.9751 166.176C77.9491 166.058 77.9206 165.939 77.8898 165.818C77.859 165.698 77.8401 165.627 77.8116 165.532C77.8116 165.489 77.7879 165.446 77.7737 165.406C77.7595 165.366 77.7334 165.269 77.7121 165.2L77.6695 165.067C77.6505 165.008 77.6316 164.949 77.6102 164.89C77.5747 164.783 77.5368 164.679 77.4989 164.572C77.461 164.466 77.4207 164.361 77.3804 164.257C77.2999 164.044 77.2122 163.833 77.1245 163.622C76.781 162.802 76.3948 161.994 76.0394 161.194C75.8484 160.774 75.6792 160.344 75.5324 159.907L75.4874 159.971C75.4153 160.08 75.3512 160.194 75.2955 160.312C75.2955 162.177 73.4285 164.458 73.4285 164.458L71.5496 161.722L69.9054 164.25C69.6684 164.376 69.4315 164.807 69.2467 165.42C69.1946 165.586 69.1448 165.766 69.0974 165.958C69.0643 166.086 69.0335 166.221 69.005 166.356C68.9885 166.425 68.9742 166.494 68.96 166.565L68.9174 166.78V166.814C68.8889 166.96 68.8605 167.112 68.8345 167.266C68.8084 167.42 68.7776 167.598 68.7515 167.766C68.7326 167.875 68.716 167.984 68.7018 168.093C68.6686 168.304 68.6402 168.517 68.6117 168.728C68.5952 168.851 68.5786 168.965 68.5644 169.095L68.5075 169.569C68.6283 169.958 68.7634 170.341 68.9032 170.718C68.9925 170.925 69.0446 171.145 69.0572 171.37C71.9645 172.201 75.0464 172.201 77.9538 171.37C77.9527 171.362 77.9527 171.354 77.9538 171.346C77.91 171.133 77.8909 170.916 77.8969 170.699C77.9448 170.091 78.0238 169.486 78.1339 168.887C78.1688 168.591 78.1839 168.293 78.1789 167.996V167.889C78.1718 167.799 78.1694 167.714 78.167 167.629ZM78.167 167.629C78.167 167.534 78.167 167.439 78.1504 167.344C78.1339 167.25 78.1362 167.167 78.1244 167.077C78.1125 166.987 78.1031 166.896 78.0912 166.806C78.0794 166.716 78.0628 166.626 78.0462 166.536C78.0296 166.446 78.013 166.356 77.9941 166.266C77.9941 166.235 77.9822 166.207 77.9751 166.176C77.9491 166.058 77.9206 165.939 77.8898 165.818C77.859 165.698 77.8401 165.627 77.8116 165.532C77.8116 165.489 77.7879 165.446 77.7737 165.406C77.7595 165.366 77.7334 165.269 77.7121 165.2L77.6695 165.067C77.6505 165.008 77.6316 164.949 77.6102 164.89C77.5747 164.783 77.5368 164.679 77.4989 164.572C77.461 164.466 77.4207 164.361 77.3804 164.257C77.2999 164.044 77.2122 163.833 77.1245 163.622C76.781 162.802 76.3948 161.994 76.0394 161.194C75.8484 160.774 75.6792 160.344 75.5324 159.907L75.4874 159.971C75.4153 160.08 75.3512 160.194 75.2955 160.312C75.2955 162.177 73.4285 164.458 73.4285 164.458L71.5496 161.722L69.9054 164.25C69.6684 164.376 69.4315 164.807 69.2467 165.42C69.1946 165.586 69.1448 165.766 69.0974 165.958C69.0643 166.086 69.0335 166.221 69.005 166.356C68.9885 166.425 68.9742 166.494 68.96 166.565L68.9174 166.78V166.814C68.8889 166.96 68.8605 167.112 68.8345 167.266C68.8084 167.42 68.7776 167.598 68.7515 167.766C68.7326 167.875 68.716 167.984 68.7018 168.093C68.6686 168.304 68.6402 168.517 68.6117 168.728C68.5952 168.851 68.5786 168.965 68.5644 169.095L68.5075 169.569C68.6283 169.958 68.7634 170.341 68.9032 170.718C68.9925 170.925 69.0446 171.145 69.0572 171.37C71.9645 172.201 75.0464 172.201 77.9538 171.37C77.9527 171.362 77.9527 171.354 77.9538 171.346C77.91 171.133 77.8909 170.916 77.8969 170.699C77.9448 170.091 78.0238 169.486 78.1339 168.887C78.1688 168.591 78.1839 168.293 78.1789 167.996V167.889C78.1718 167.799 78.1694 167.714 78.167 167.629ZM78.167 167.629C78.167 167.534 78.167 167.439 78.1504 167.344C78.1339 167.25 78.1362 167.167 78.1244 167.077C78.1125 166.987 78.1031 166.896 78.0912 166.806C78.0794 166.716 78.0628 166.626 78.0462 166.536C78.0296 166.446 78.013 166.356 77.9941 166.266C77.9941 166.235 77.9822 166.207 77.9751 166.176C77.9491 166.058 77.9206 165.939 77.8898 165.818C77.859 165.698 77.8401 165.627 77.8116 165.532C77.8116 165.489 77.7879 165.446 77.7737 165.406C77.7595 165.366 77.7334 165.269 77.7121 165.2L77.6695 165.067C77.6505 165.008 77.6316 164.949 77.6102 164.89C77.5747 164.783 77.5368 164.679 77.4989 164.572C77.461 164.466 77.4207 164.361 77.3804 164.257C77.2999 164.044 77.2122 163.833 77.1245 163.622C76.781 162.802 76.3948 161.994 76.0394 161.194C75.8484 160.774 75.6792 160.344 75.5324 159.907L75.4874 159.971C75.4153 160.08 75.3512 160.194 75.2955 160.312C75.2955 162.177 73.4285 164.458 73.4285 164.458L71.5496 161.722L69.9054 164.25C69.6684 164.376 69.4315 164.807 69.2467 165.42C69.1946 165.586 69.1448 165.766 69.0974 165.958C69.0643 166.086 69.0335 166.221 69.005 166.356C68.9885 166.425 68.9742 166.494 68.96 166.565L68.9174 166.78V166.814C68.8889 166.96 68.8605 167.112 68.8345 167.266C68.8084 167.42 68.7776 167.598 68.7515 167.766C68.7326 167.875 68.716 167.984 68.7018 168.093C68.6686 168.304 68.6402 168.517 68.6117 168.728C68.5952 168.851 68.5786 168.965 68.5644 169.095L68.5075 169.569C68.6283 169.958 68.7634 170.341 68.9032 170.718C68.9925 170.925 69.0446 171.145 69.0572 171.37C71.9645 172.201 75.0464 172.201 77.9538 171.37C77.9527 171.362 77.9527 171.354 77.9538 171.346C77.91 171.133 77.8909 170.916 77.8969 170.699C77.9448 170.091 78.0238 169.486 78.1339 168.887C78.1688 168.591 78.1839 168.293 78.1789 167.996V167.889C78.1718 167.799 78.1694 167.714 78.167 167.629ZM78.167 167.629C78.167 167.534 78.167 167.439 78.1504 167.344C78.1339 167.25 78.1362 167.167 78.1244 167.077C78.1125 166.987 78.1031 166.896 78.0912 166.806C78.0794 166.716 78.0628 166.626 78.0462 166.536C78.0296 166.446 78.013 166.356 77.9941 166.266C77.9941 166.235 77.9822 166.207 77.9751 166.176C77.9491 166.058 77.9206 165.939 77.8898 165.818C77.859 165.698 77.8401 165.627 77.8116 165.532C77.8116 165.489 77.7879 165.446 77.7737 165.406C77.7595 165.366 77.7334 165.269 77.7121 165.2L77.6695 165.067C77.6505 165.008 77.6316 164.949 77.6102 164.89C77.5747 164.783 77.5368 164.679 77.4989 164.572C77.461 164.466 77.4207 164.361 77.3804 164.257C77.2999 164.044 77.2122 163.833 77.1245 163.622C76.781 162.802 76.3948 161.994 76.0394 161.194C75.8484 160.774 75.6792 160.344 75.5324 159.907L75.4874 159.971C75.4153 160.08 75.3512 160.194 75.2955 160.312C75.2955 162.177 73.4285 164.458 73.4285 164.458L71.5496 161.722L69.9054 164.25C69.6684 164.376 69.4315 164.807 69.2467 165.42C69.1946 165.586 69.1448 165.766 69.0974 165.958C69.0643 166.086 69.0335 166.221 69.005 166.356C68.9885 166.425 68.9742 166.494 68.96 166.565L68.9174 166.78V166.814C68.8889 166.96 68.8605 167.112 68.8345 167.266C68.8084 167.42 68.7776 167.598 68.7515 167.766C68.7326 167.875 68.716 167.984 68.7018 168.093C68.6686 168.304 68.6402 168.517 68.6117 168.728C68.5952 168.851 68.5786 168.965 68.5644 169.095L68.5075 169.569C68.6283 169.958 68.7634 170.341 68.9032 170.718C68.9925 170.925 69.0446 171.145 69.0572 171.37C71.9645 172.201 75.0464 172.201 77.9538 171.37C77.9527 171.362 77.9527 171.354 77.9538 171.346C77.91 171.133 77.8909 170.916 77.8969 170.699C77.9448 170.091 78.0238 169.486 78.1339 168.887C78.1688 168.591 78.1839 168.293 78.1789 167.996V167.889C78.1718 167.799 78.1694 167.714 78.167 167.629Z" fill="#444176"/>
<path opacity="0.1" d="M71.5828 161.563L71.4241 161.542C71.1844 161.509 70.947 161.462 70.7133 161.4L70.6256 161.376C70.0475 161.213 69.4149 160.919 69.2728 160.402C69.2304 160.236 69.2354 160.061 69.287 159.898C69.3665 159.616 69.4745 159.343 69.6092 159.083V159.068C69.627 159.032 69.6468 158.996 69.6684 158.962C69.8639 158.58 70.1596 158.258 70.5237 158.031L70.2394 158.076L67.8323 158.467L64.1006 159.068C64.1006 159.068 63.4373 158.936 62.5346 161.423C62.5346 161.454 62.5132 161.483 62.5038 161.516C62.2858 162.125 62.056 162.885 61.819 163.835C61.6556 164.494 61.5063 165.141 61.3689 165.769C61.3286 165.958 61.2883 166.145 61.2504 166.33C61.6776 166.834 62.1374 167.309 62.627 167.752L62.7051 167.825C63.664 168.694 64.7235 169.444 65.861 170.059L65.906 170.083C66.6216 170.469 67.3663 170.799 68.1331 171.069L68.3345 171.14C68.3772 170.702 68.4246 170.216 68.4814 169.718C68.4814 169.669 68.4814 169.619 68.5004 169.569L68.5573 169.095C68.5715 168.974 68.5881 168.858 68.6046 168.728C68.6331 168.517 68.6615 168.304 68.6947 168.093C68.7089 167.984 68.7255 167.875 68.7444 167.766C68.7705 167.598 68.7989 167.43 68.8274 167.266C68.8558 167.103 68.8818 166.96 68.9103 166.814V166.78L68.9529 166.565C68.9671 166.494 68.9814 166.425 68.9979 166.356C69.0264 166.221 69.0572 166.086 69.0903 165.958C69.1377 165.766 69.1875 165.586 69.2396 165.42C69.4291 164.807 69.6495 164.376 69.8983 164.25L71.5425 161.722L71.6112 161.615L71.642 161.568L71.5828 161.563Z" fill="black"/>
<path opacity="0.1" d="M71.9785 148.949C72.7177 148.824 73.4617 148.554 74.1961 148.712C74.8122 148.84 75.3263 149.25 75.8902 149.534C76.4346 149.808 77.0301 149.966 77.6387 149.996C77.8607 150.026 78.0861 149.981 78.2808 149.871C78.5746 149.667 78.6172 149.25 78.5675 148.895C78.4253 147.885 77.7951 147.018 77.1459 146.232C76.8868 145.896 76.5876 145.592 76.255 145.329C75.4045 144.701 74.2791 144.594 73.2248 144.642C72.0212 144.696 70.7986 144.929 69.7538 145.533C69.043 145.94 67.4129 147.224 67.9792 148.153C68.5739 149.124 71.0474 149.108 71.9785 148.949Z" fill="black"/>
<path opacity="0.5" d="M71.9785 148.712C72.7177 148.587 73.4617 148.317 74.1961 148.475C74.8122 148.603 75.3263 149.013 75.8902 149.297C76.4346 149.571 77.0301 149.729 77.6387 149.759C77.8607 149.789 78.0861 149.745 78.2808 149.634C78.5746 149.43 78.6172 149.013 78.5675 148.658C78.4253 147.648 77.7951 146.781 77.1459 145.995C76.8868 145.659 76.5876 145.356 76.255 145.092C75.4045 144.464 74.2791 144.358 73.2248 144.405C72.0212 144.459 70.7986 144.692 69.7538 145.296C69.043 145.703 67.4129 146.987 67.9792 147.916C68.5739 148.888 71.0474 148.871 71.9785 148.712Z" fill="#444176"/>
</g>
<path d="M137.041 137.11H137.077C137.129 138.697 137.354 140.133 137.788 140.531C138.821 141.479 143.104 139.583 142.81 138.437C142.751 138.2 142.652 137.811 142.526 137.321C143.682 137.176 144.67 136.847 145.064 136.169L145.808 138.463L145.86 138.626H145.874H145.917C146.407 143.275 147.518 152.927 148.407 154.221C149.591 155.934 150.954 163.357 150.954 163.357L153.501 178.584C153.501 178.584 154.481 187.35 155.069 188.298C155.24 188.479 155.467 188.597 155.713 188.632C155.37 189.66 154.877 190.862 154.292 191.532C153.107 192.864 151.548 195.529 150.176 195.34C148.805 195.15 148.414 198.005 150.961 198.384C152.37 198.595 154.619 198.339 156.346 198.069C156.346 198.832 156.877 199.709 158.211 199.908C160.758 200.289 166.048 199.147 166.048 199.147C166.048 199.147 170.55 197.252 170.751 195.911C170.893 194.939 170.204 191.039 169.82 188.995C170.531 187.855 169.773 178.02 169.773 178.02L168.401 159.177C168.401 159.177 169.185 148.71 168.401 146.805C167.911 145.62 167.728 140.171 167.659 136.274L168.607 136.335C168.661 136.27 168.71 136.201 168.754 136.129L168.991 136.146C168.991 136.146 170.176 134.814 169.188 132.72C168.46 131.163 168.598 124.136 168.714 120.636L168.854 118.978C168.905 118.928 168.945 118.866 168.97 118.798C170.807 118.55 172.593 118.009 174.26 117.196C174.763 116.987 175.231 116.703 175.649 116.353C176.629 115.405 176.04 109.69 174.08 101.125C172.121 92.5605 170.358 93.321 170.358 93.321C170.358 93.321 165.655 92.9396 163.499 90.0846C161.343 87.2296 159.895 87.2675 159.895 87.2675C159.841 86.8932 159.803 86.5402 159.777 86.2108C159.777 86.0876 159.758 85.9739 159.751 85.8507C160.484 85.169 161.043 84.3217 161.381 83.3795C161.821 83.1426 162.364 83.0644 162.786 82.7659C162.893 82.6878 162.991 82.5971 163.077 82.4958C163.5 82.1059 163.768 81.5769 163.833 81.0055C163.9 80.3816 163.871 79.7511 163.745 79.1362C163.596 78.2264 163.376 77.2952 162.845 76.5797C162.314 75.8642 161.521 75.433 160.755 75.0326C158.683 73.9443 156.605 72.8671 154.522 71.8009C154.115 71.5522 153.661 71.3908 153.188 71.327C152.354 71.2797 151.605 71.8507 150.932 72.3932C150.664 72.6045 150.407 72.8299 150.162 73.0685C149.954 73.2528 149.765 73.4567 149.596 73.6774C148.809 74.7317 148.475 76.7171 148.821 78.0345C148.93 78.4514 149.165 78.5723 149.454 78.5675C149.025 79.4202 148.802 80.3615 148.802 81.3159C148.807 82.3609 149.074 83.3879 149.58 84.3025C150.085 85.217 150.813 85.9898 151.695 86.5496C151.695 86.6823 151.695 86.8126 151.707 86.9382C151.717 87.4244 151.701 87.9108 151.66 88.3953C151.66 88.3953 146.447 91.2124 145.862 92.5439C145.277 93.8754 143.118 94.8279 143.118 94.8279C143.118 94.8279 139.003 96.9223 139.003 104.345L136.847 114.813L136.456 134.798C136.456 134.798 136.726 134.561 137.167 134.224C137.153 134.357 137.141 134.494 137.129 134.634C137.07 135.398 137.05 136.164 137.07 136.93L137.041 137.11ZM163.364 188.834C163.283 189.139 163.165 189.544 163.016 190.018C162.949 189.625 162.883 189.236 162.817 188.867C162.987 188.85 163.17 188.841 163.364 188.834Z" fill="url(#paint2_linear)"/>
<path d="M156.247 186.379C156.247 186.379 155.491 189.777 154.351 191.096C153.212 192.416 151.719 195.06 150.402 194.871C149.084 194.681 148.703 197.512 151.157 197.889C153.612 198.266 158.694 197.136 158.694 197.136C158.694 197.136 163.035 195.24 163.222 193.928C163.409 192.615 162.089 185.813 162.089 185.813L156.247 186.379Z" fill="#53526B"/>
<path opacity="0.05" d="M156.247 186.379C156.247 186.379 155.491 189.777 154.351 191.096C153.212 192.416 151.719 195.06 150.402 194.871C149.084 194.681 148.703 197.512 151.157 197.889C153.612 198.266 158.694 197.136 158.694 197.136C158.694 197.136 163.035 195.24 163.222 193.928C163.409 192.615 162.089 185.813 162.089 185.813L156.247 186.379Z" fill="black"/>
<path d="M163.229 187.888C163.229 187.888 162.473 191.286 161.333 192.605C160.194 193.925 158.694 196.569 157.379 196.38C156.064 196.19 155.68 199.022 158.135 199.398C160.589 199.775 165.683 198.642 165.683 198.642C165.683 198.642 170.024 196.747 170.211 195.434C170.398 194.122 169.079 187.32 169.079 187.32L163.229 187.888Z" fill="#53526B"/>
<path d="M146.056 136.188C146.056 136.188 147.566 152.415 148.698 154.114C149.831 155.813 151.15 163.172 151.15 163.172L153.602 178.267C153.602 178.267 154.55 186.948 155.112 187.891C155.673 188.834 162.677 188.428 162.677 188.428L158.322 138.451L146.056 136.188Z" fill="#5F5D7E"/>
<path d="M143.038 128.448L143.531 130.014L146.196 138.475L146.248 138.636H146.262C146.62 138.716 154.173 140.453 155.804 140.986C155.891 141.013 155.978 141.046 156.062 141.083C156.818 141.46 157.761 155.045 157.761 155.045C157.761 155.045 158.327 167.877 158.708 168.82C159.09 169.763 160.604 189.196 161.54 188.632C162.475 188.068 169.275 188.632 169.275 188.632C170.031 187.876 169.275 177.689 169.275 177.689L167.934 159.012C167.934 159.012 168.69 148.634 167.934 146.746C167.178 144.857 167.178 132.217 167.178 132.217L151.733 129.803L150.24 129.566L143.038 128.448Z" fill="#5F5D7E"/>
<path opacity="0.02" d="M143.531 130.016L146.196 138.477L146.26 138.643C146.618 138.723 154.171 140.46 155.801 140.993H155.965L151.745 129.805L151.624 129.483L150.252 129.571L143.531 130.016Z" fill="black"/>
<path opacity="0.1" d="M161.153 90.7125C161.153 90.7125 154.171 98.261 149.831 92.0321L145.68 94.8634L146.435 99.2039L143.981 132.035C143.981 132.035 150.397 131.845 154.925 133.355C156.186 133.802 157.548 133.88 158.852 133.579C160.156 133.278 161.346 132.611 162.283 131.656L161.537 102.789L163.236 93.9205L161.153 90.7125Z" fill="black"/>
<path d="M161.153 90.1462C161.153 90.1462 154.171 97.6947 149.831 91.4659L145.68 94.2971L146.435 98.6377L143.981 131.469C143.981 131.469 150.397 131.279 154.925 132.788C156.186 133.236 157.548 133.313 158.852 133.013C160.156 132.712 161.346 132.044 162.283 131.09L161.537 102.222L163.236 93.3542L161.153 90.1462Z" fill="#53526B"/>
<path d="M147.215 123.761V124.951H146.836V124.159H145.45V124.951H145.068V123.764L147.215 123.761Z" fill="#E82127"/>
<path d="M146.876 123.378H145.412C145.316 123.355 145.228 123.306 145.158 123.237C145.088 123.167 145.038 123.08 145.014 122.984H147.272C147.247 123.08 147.197 123.167 147.127 123.236C147.057 123.306 146.97 123.354 146.874 123.378" fill="#E82127"/>
<path d="M160.116 122.999C160.091 123.093 160.041 123.179 159.971 123.248C159.902 123.317 159.815 123.366 159.72 123.389H159.104L159.073 123.401V124.956H158.694V123.401L158.659 123.389H158.043C157.948 123.365 157.862 123.316 157.792 123.247C157.723 123.179 157.673 123.093 157.647 122.999H160.116Z" fill="#E82127"/>
<path d="M146.623 129.206C146.623 129.206 146.623 134.113 145.49 136.188C144.358 138.264 137.754 137.136 137.754 137.136L139.074 130.154L146.623 129.206Z" fill="#D6DBE6"/>
<path d="M138.472 140.531C139.467 141.479 143.592 139.583 143.308 138.456C143.109 137.657 142.412 134.8 142.017 133.179L141.742 132.04C141.742 132.04 139.325 131.284 138.472 132.04C138.162 132.315 137.944 133.397 137.842 134.705C137.667 136.977 137.844 139.929 138.472 140.531Z" fill="#FDC2CC"/>
<path d="M147.558 93.5414L154.162 98.6353C154.162 98.6353 163.973 98.0691 161.521 93.3518C160.453 91.2772 159.809 89.0108 159.625 86.6847C159.545 85.8265 159.545 84.9627 159.625 84.1045C159.625 84.1045 150.567 75.8121 151.7 85.2371C151.789 85.9605 151.841 86.688 151.856 87.4168C151.991 94.4915 147.558 93.5414 147.558 93.5414Z" fill="#FDC2CC"/>
<path opacity="0.1" d="M151.719 85.2394C151.808 85.9629 151.86 86.6904 151.875 87.4191C152.892 88.0924 154.084 88.4501 155.304 88.4474C156.993 88.4474 158.237 86.8031 159.36 85.7109C159.234 84.1448 159.642 84.1069 159.642 84.1069C159.642 84.1069 150.586 75.805 151.719 85.2394Z" fill="black"/>
<path d="M155.304 88.0707C158.742 88.0707 161.53 85.283 161.53 81.8443C161.53 78.4055 158.742 75.6178 155.304 75.6178C151.865 75.6178 149.077 78.4055 149.077 81.8443C149.077 85.283 151.865 88.0707 155.304 88.0707Z" fill="#FDC2CC"/>
<path opacity="0.1" d="M159.737 87.7864C159.737 87.7864 160.774 87.8811 162.85 90.7101C164.925 93.539 169.453 93.9181 169.453 93.9181C169.453 93.9181 171.152 93.1623 173.038 101.654C174.924 110.145 175.49 115.805 174.547 116.748C173.604 117.691 169.83 119.016 167.934 119.016C167.934 119.016 167.368 130.902 168.311 132.978C169.254 135.053 168.121 136.375 168.121 136.375L159.829 135.809C159.829 135.809 156.998 132.224 156.431 125.998C155.865 119.772 153.979 102.033 154.922 99.9573C155.865 97.8819 160.016 92.5984 159.829 92.0321C159.642 91.4659 159.737 87.7864 159.737 87.7864Z" fill="black"/>
<path d="M159.758 87.7295C159.758 87.7295 161.153 87.6916 163.229 90.5229C165.304 93.3542 169.83 93.7309 169.83 93.7309C169.83 93.7309 171.528 92.9751 173.414 101.467C175.3 109.958 175.867 115.618 174.924 116.561C173.981 117.504 170.206 118.826 168.32 118.826C168.32 118.826 167.754 130.713 168.697 132.788C169.64 134.864 168.508 136.186 168.508 136.186L160.215 135.62C160.215 135.62 157.384 132.035 156.818 125.808C156.251 119.582 154.361 101.846 155.304 99.7796C156.247 97.7136 160.398 92.4207 160.21 91.8544C160.023 91.2882 159.758 87.7295 159.758 87.7295Z" fill="#D6DBE6"/>
<path opacity="0.1" d="M137.844 134.703C138.747 134.013 140.451 132.94 142.019 133.177L141.744 132.037C141.744 132.037 139.328 131.282 138.475 132.037C138.16 132.312 137.944 133.393 137.844 134.703Z" fill="black"/>
<path opacity="0.1" d="M151.823 88.9189C151.823 88.9189 147.011 92.0321 146.445 93.3542C145.879 94.6762 143.803 95.6192 143.803 95.6192C143.803 95.6192 139.842 97.6947 139.842 105.054L137.766 115.431L147.201 128.64C147.201 128.64 148.333 115.431 148.899 112.223C149.466 109.015 150.219 102.983 150.219 102.983C150.219 102.983 153.05 99.3982 152.671 98.4552C152.292 97.5122 151.823 88.9189 151.823 88.9189Z" fill="black"/>
<path d="M151.823 88.8621C151.823 88.8621 146.805 91.6554 146.241 92.9751C145.677 94.2948 143.599 95.2401 143.599 95.2401C143.599 95.2401 139.638 97.3156 139.638 104.675L137.562 115.052L137.186 134.864C137.186 134.864 140.583 131.656 143.036 133.165C145.488 134.674 146.997 128.258 146.997 128.258C146.997 128.258 148.129 115.05 148.696 111.842C149.262 108.634 150.015 102.601 150.015 102.601C150.015 102.601 152.847 99.0168 152.468 98.0738C152.089 97.1308 151.823 88.8621 151.823 88.8621Z" fill="#D6DBE6"/>
<path opacity="0.1" d="M149.838 74.2697C150.157 73.8633 150.527 73.4987 150.937 73.1845C151.586 72.6444 152.304 72.0805 153.11 72.1279C153.565 72.1885 154.003 72.3452 154.394 72.5875C156.4 73.6442 158.4 74.7119 160.395 75.7908C161.132 76.1888 161.893 76.6105 162.407 77.326C162.921 78.0416 163.129 78.9608 163.274 79.8612C163.395 80.471 163.424 81.0956 163.359 81.7139C163.3 82.3202 163.006 82.8791 162.539 83.2706C162.002 83.6615 161.265 83.6639 160.815 84.1756C160.554 84.4718 160.44 84.8864 160.255 85.2465C160.071 85.6067 159.751 85.9573 159.386 85.8933C159.021 85.8294 158.801 85.4432 158.749 85.0522C158.725 84.656 158.748 84.2585 158.817 83.8676C158.888 83.1568 158.798 82.4034 158.386 81.875C158.102 81.5149 157.694 81.2969 157.419 80.9273C156.761 80.0365 157.062 78.5581 156.339 77.7217C156.129 77.5031 155.865 77.344 155.574 77.2608C155.282 77.1776 154.974 77.1731 154.681 77.2479C154.095 77.3711 153.56 77.6885 153.022 77.9586C152.295 78.3252 151.534 78.6188 150.75 78.8353C150.091 79.0153 149.328 79.4465 149.103 78.5699C148.76 77.2834 149.08 75.3145 149.838 74.2697Z" fill="black"/>
<path d="M150.027 74.0825C150.347 73.6761 150.716 73.3115 151.127 72.9974C151.776 72.4572 152.494 71.8933 153.299 71.9407C153.755 72.0013 154.193 72.158 154.583 72.4003C156.588 73.457 158.253 72.4572 160.585 75.6036C161.082 76.2764 162.082 76.4233 162.596 77.1388C163.11 77.8544 163.319 78.7737 163.463 79.674C163.584 80.2838 163.613 80.9084 163.549 81.5267C163.49 82.133 163.196 82.6919 162.729 83.0834C162.191 83.4743 161.454 83.4767 161.004 83.9884C160.743 84.2846 160.63 84.6992 160.445 85.0593C160.26 85.4195 159.94 85.7701 159.575 85.7061C159.211 85.6422 158.99 85.256 158.938 84.865C158.915 84.4688 158.938 84.0713 159.007 83.6804C159.078 82.9696 158.988 82.2162 158.576 81.6879C158.291 81.3277 157.884 81.1098 157.609 80.7401C156.95 79.8493 157.251 78.3709 156.528 77.5345C156.319 77.3159 156.055 77.1569 155.763 77.0736C155.472 76.9904 155.164 76.9859 154.87 77.0607C154.285 77.1839 153.749 77.5013 153.212 77.7714C152.485 78.138 151.724 78.4316 150.939 78.6481C150.281 78.8281 149.518 79.2593 149.293 78.3827C148.947 77.0962 149.269 75.125 150.027 74.0825Z" fill="#865A61"/>
<path opacity="0.1" d="M167.034 102.881C167.034 102.881 169.55 109.297 167.662 111.939L163.511 110.991C163.511 110.991 167.285 112.124 166.719 109.859C166.152 107.594 167.034 102.881 167.034 102.881Z" fill="black"/>
<path opacity="0.1" d="M168.408 118.734C168.408 118.734 162.935 119.111 161.426 117.978C163.413 119.495 165.76 120.471 168.238 120.809L168.408 118.734Z" fill="black"/>
<path opacity="0.1" d="M144.831 106.651C144.831 106.651 142 115.332 142.19 116.651C142.379 117.971 142.756 132.502 142.756 132.502L143.322 132.312L143.133 116.462L144.831 106.651Z" fill="black"/>
<path d="M169.074 117.26L104.393 65.1361C104.016 64.7598 103.569 64.4615 103.077 64.2582C102.585 64.0549 102.058 63.9507 101.526 63.9515H98.7774C104.27 56.9133 106.87 48.0452 106.05 39.1555C105.229 30.2658 101.048 22.0239 94.3602 16.1103C87.6721 10.1967 78.9803 7.05673 70.0569 7.33068C61.1336 7.60462 52.6508 11.2718 46.338 17.5845C40.0253 23.8973 36.3581 32.3801 36.0842 41.3034C35.8102 50.2268 38.9502 58.9186 44.8638 65.6067C50.7774 72.2947 59.0193 76.4754 67.909 77.2962C76.7987 78.117 85.6668 75.5162 92.705 70.024V72.7699C92.7042 73.3022 92.8084 73.8294 93.0117 74.3214C93.215 74.8133 93.5133 75.2603 93.8896 75.6368L158.571 127.761C158.945 128.138 159.391 128.438 159.882 128.642C160.372 128.847 160.899 128.952 161.431 128.952C161.962 128.952 162.489 128.847 162.98 128.642C163.47 128.438 163.916 128.138 164.29 127.761L169.057 122.999C169.818 122.238 170.247 121.208 170.25 120.133C170.253 119.057 169.83 118.025 169.074 117.26ZM71.1114 63.9515C66.8406 63.9515 62.6657 62.6851 59.1147 60.3123C55.5636 57.9396 52.7959 54.5671 51.1616 50.6214C49.5272 46.6757 49.0996 42.334 49.9328 38.1452C50.766 33.9565 52.8225 30.1089 55.8425 27.089C58.8624 24.069 62.71 22.0125 66.8987 21.1793C71.0875 20.3461 75.4292 20.7737 79.3749 22.4081C83.3206 24.0424 86.6931 26.8101 89.0658 30.3612C91.4386 33.9122 92.705 38.0871 92.705 42.3579C92.7072 45.1945 92.1502 48.0036 91.0658 50.6247C89.9815 53.2458 88.3911 55.6275 86.3855 57.6334C84.38 59.6394 81.9987 61.2303 79.3779 62.3152C76.757 63.4002 73.948 63.9578 71.1114 63.9562V63.9515Z" fill="url(#paint3_linear)"/>
<path d="M169.548 116.786L104.866 64.6623C104.49 64.286 104.043 63.9876 103.551 63.7844C103.059 63.5811 102.532 63.4768 102 63.4776H99.2513C104.743 56.4394 107.344 47.5713 106.524 38.6816C105.703 29.7919 101.522 21.55 94.834 15.6364C88.1459 9.72279 79.4541 6.58285 70.5308 6.8568C61.6075 7.13075 53.1246 10.7979 46.8119 17.1107C40.4992 23.4234 36.832 31.9062 36.558 40.8296C36.2841 49.7529 39.424 58.4447 45.3376 65.1328C51.2512 71.8208 59.4931 76.0015 68.3828 76.8223C77.2726 77.6431 86.1406 75.0423 93.1789 69.5501V72.2961C93.1781 72.8284 93.2823 73.3556 93.4856 73.8475C93.6889 74.3394 93.9872 74.7864 94.3635 75.1629L159.045 127.287C159.419 127.664 159.865 127.964 160.355 128.169C160.846 128.373 161.373 128.478 161.904 128.478C162.436 128.478 162.963 128.373 163.453 128.169C163.944 127.964 164.39 127.664 164.764 127.287L169.531 122.525C170.292 121.765 170.72 120.734 170.724 119.659C170.727 118.584 170.304 117.551 169.548 116.786ZM71.5853 63.4776C67.3145 63.4776 63.1396 62.2112 59.5885 59.8385C56.0375 57.4657 53.2698 54.0933 51.6354 50.1476C50.0011 46.2018 49.5734 41.8601 50.4066 37.6714C51.2398 33.4826 53.2964 29.635 56.3163 26.6151C59.3362 23.5952 63.1838 21.5386 67.3726 20.7054C71.5613 19.8722 75.9031 20.2998 79.8488 21.9342C83.7945 23.5686 87.167 26.3363 89.5397 29.8873C91.9124 33.4383 93.1789 37.6132 93.1789 41.8841C93.181 44.7206 92.624 47.5298 91.5397 50.1509C90.4553 52.772 88.8649 55.1536 86.8594 57.1596C84.8539 59.1655 82.4726 60.7565 79.8517 61.8414C77.2309 62.9263 74.4218 63.4839 71.5853 63.4824V63.4776Z" fill="#3EE5B2"/>
<path d="M164.738 112.034C164.738 112.034 155.296 101.206 156.623 108.636C157.571 113.92 161.151 116.751 162.85 117.317C164.549 117.883 164.738 112.034 164.738 112.034Z" fill="#FDC2CC"/>
<path d="M167.003 102.033C167.003 102.033 167.193 109.015 168.136 109.958C169.079 110.901 167.569 112.034 167.569 112.034L163.795 111.086C163.795 111.086 164.743 117.312 160.777 116.559C160.777 116.559 163.418 119.011 166.06 119.39C168.702 119.769 168.512 118.824 168.512 118.824L172.474 114.107L167.003 102.033Z" fill="#D6DBE6"/>
<path d="M168.048 118.926L171.877 118.085L171.365 116.32L168.996 115.372L165.916 116.793L168.048 118.926Z" fill="#D6DBE6"/>
<path d="M73.9475 50.8328L79.0438 46.9022C79.0438 46.9022 75.6296 47.6343 75.7268 42.1778C75.7256 42.1597 75.7256 42.1415 75.7268 42.1233C75.7268 41.6305 75.7742 41.0903 75.8452 40.4956C76.7195 33.2149 69.7301 39.6214 69.7301 39.6214C69.7903 40.266 69.7903 40.9148 69.7301 41.5594C69.7301 41.576 69.7301 41.595 69.7301 41.6116C69.5919 43.4058 69.0974 45.1544 68.2754 46.7553C66.3776 50.3945 73.9475 50.8328 73.9475 50.8328Z" fill="#FDC2CC"/>
<path opacity="0.1" d="M70.3817 40.5478C71.2465 41.3889 71.7748 42.917 73.0756 42.917C74.0167 42.9191 74.9374 42.643 75.722 42.1233C75.722 41.6305 75.7694 41.0903 75.8405 40.4956C76.7148 33.2149 69.7254 39.6214 69.7254 39.6214C69.7254 39.6214 70.4741 39.3631 70.3817 40.5478Z" fill="black"/>
<path d="M73.0755 42.6802C75.7292 42.6802 77.8804 40.5289 77.8804 37.8753C77.8804 35.2216 75.7292 33.0704 73.0755 33.0704C70.4219 33.0704 68.2706 35.2216 68.2706 37.8753C68.2706 40.5289 70.4219 42.6802 73.0755 42.6802Z" fill="#FDC2CC"/>
<path opacity="0.1" d="M77.6838 31.7222C77.4082 31.374 77.0898 31.0619 76.7361 30.7935C76.1816 30.3315 75.5656 29.8458 74.8762 29.8884C74.486 29.9403 74.1114 30.0744 73.7768 30.2817C72.0591 31.1868 70.6352 30.3315 68.6379 33.023C68.2114 33.5987 67.3561 33.7338 66.9154 34.3379C66.4747 34.9421 66.297 35.7358 66.1715 36.5082C66.0677 37.0307 66.0429 37.5658 66.098 38.0956C66.1507 38.6156 66.406 39.094 66.8088 39.4271C67.2684 39.7612 67.901 39.7636 68.2872 40.2019C68.4814 40.4874 68.6405 40.7952 68.7611 41.1188C68.9175 41.4268 69.1923 41.7182 69.505 41.6732C69.8178 41.6282 70.0049 41.2894 70.05 40.9624C70.0695 40.624 70.0496 40.2845 69.9907 39.9507C69.9315 39.3513 70.0073 38.6974 70.3603 38.2449C70.5973 37.9345 70.9527 37.7497 71.1872 37.4346C71.7511 36.674 71.4952 35.397 72.1136 34.6909C72.2945 34.5053 72.5213 34.3708 72.771 34.3013C73.0207 34.2318 73.2844 34.2297 73.5352 34.2953C74.0332 34.4374 74.511 34.6429 74.9567 34.9065C75.5787 35.2205 76.2303 35.4721 76.9019 35.6576C77.4658 35.8116 78.1197 36.1812 78.3116 35.4207C78.6125 34.3024 78.3306 32.6155 77.6838 31.7222Z" fill="black"/>
<path d="M77.6838 31.4853C77.4082 31.137 77.0898 30.825 76.7361 30.5565C76.1816 30.0945 75.5656 29.6088 74.8762 29.6515C74.486 29.7034 74.1114 29.8374 73.7768 30.0448C72.0591 30.9498 70.6352 30.0945 68.6379 32.786C68.2114 33.3618 67.3561 33.4968 66.9154 34.101C66.4747 34.7051 66.297 35.4989 66.1715 36.2712C66.0677 36.7937 66.0429 37.3288 66.098 37.8587C66.1507 38.3787 66.406 38.8571 66.8088 39.1902C67.2684 39.5243 67.901 39.5266 68.2872 39.9649C68.4814 40.2504 68.6405 40.5583 68.7611 40.8818C68.9175 41.1899 69.1923 41.4813 69.505 41.4363C69.8178 41.3912 70.0049 41.0524 70.05 40.7255C70.0695 40.3871 70.0496 40.0476 69.9907 39.7138C69.9315 39.1144 70.0073 38.4604 70.3603 38.0079C70.5973 37.6975 70.9527 37.5127 71.1872 37.1976C71.7511 36.4371 71.4952 35.16 72.1136 34.454C72.2945 34.2683 72.5213 34.1339 72.771 34.0644C73.0207 33.9949 73.2844 33.9928 73.5352 34.0583C74.0332 34.2005 74.511 34.4059 74.9567 34.6696C75.5787 34.9836 76.2303 35.2352 76.9019 35.4207C77.4658 35.5747 78.1197 35.9443 78.3116 35.1837C78.6125 34.0654 78.3306 32.3785 77.6838 31.4853Z" fill="#865A61"/>
<path opacity="0.1" d="M68.2706 53.3608L68.1759 56.9976C69.5528 57.3718 70.9734 57.5607 72.4003 57.5591C72.6372 57.5591 72.886 57.5591 73.1277 57.5426C74.393 57.488 75.6473 57.2828 76.864 56.9313H76.8877C77.1128 56.8649 77.3355 56.7962 77.5558 56.7204H77.5795L77.7809 56.6493C78.5478 56.3793 79.2924 56.0497 80.008 55.6637L80.053 55.64C80.1312 55.5974 80.2094 55.5547 80.29 55.5097L79.9227 50.6077L80.5079 47.2457L77.3047 45.0636C77.1249 45.3233 76.9236 45.5674 76.7029 45.7933C76.3867 46.1236 76.0165 46.3976 75.6083 46.6036C73.3101 47.7361 70.6944 45.9355 69.3937 44.8219L69.0975 44.5589C68.7611 44.2533 68.5692 44.0448 68.5692 44.0448L66.9675 46.5183L68.2706 53.3608Z" fill="black"/>
<path d="M68.2706 53.5977L68.1759 57.2346C69.5528 57.6088 70.9734 57.7976 72.4003 57.7961C72.6372 57.7961 72.886 57.7961 73.1277 57.7795C74.393 57.725 75.6473 57.5198 76.864 57.1682H76.8877C77.1128 57.1019 77.3355 57.0332 77.5558 56.9574H77.5795L77.7809 56.8863C78.5478 56.6162 79.2924 56.2867 80.008 55.9007L80.053 55.877C80.1312 55.8343 80.2094 55.7917 80.29 55.7467L79.9227 50.8446L80.5079 47.4826L77.3047 45.3005C77.1249 45.5602 76.9236 45.8043 76.7029 46.0303C76.3867 46.3605 76.0165 46.6345 75.6083 46.8406C73.3101 47.9731 70.6944 46.1724 69.3937 45.0589L69.0975 44.7959C68.7611 44.4902 68.5692 44.2817 68.5692 44.2817L66.9675 46.7553L68.2706 53.5977Z" fill="#53526B"/>
<path d="M77.1507 53.8891C77.1507 53.8891 77.3261 55.2846 77.5559 56.9526H77.5796L77.7809 56.8815C78.5478 56.6115 79.2925 56.2819 80.0081 55.8959L80.0531 55.8722C80.1313 55.8296 80.2095 55.7869 80.29 55.7419C81.3403 55.1524 82.3211 54.4467 83.2137 53.638L83.2919 53.5646C83.7814 53.1214 84.2413 52.6465 84.6684 52.143L84.7182 52.0838C83.8724 49.1482 82.112 48.2242 82.112 48.2242C82.112 48.2242 80.5104 47.4945 80.072 46.4757C79.6337 45.4569 75.7647 43.3032 75.7647 43.3032V43.3198C75.7647 43.5022 75.7031 45.1726 75.6107 46.8524C75.5515 47.9446 75.478 49.0416 75.3927 49.7382C75.3743 49.9645 75.333 50.1883 75.2695 50.4063C74.9686 51.1242 77.1507 53.8891 77.1507 53.8891Z" fill="#555388"/>
</g>
<defs>
<linearGradient id="paint0_linear" x1="121.847" y1="188.263" x2="121.847" y2="9.3089" gradientUnits="userSpaceOnUse">
<stop stop-color="#808080" stop-opacity="0.25"/>
<stop offset="0.54" stop-color="#808080" stop-opacity="0.12"/>
<stop offset="1" stop-color="#808080" stop-opacity="0.1"/>
</linearGradient>
<linearGradient id="paint1_linear" x1="8861.87" y1="14677.7" x2="8861.87" y2="11207.6" gradientUnits="userSpaceOnUse">
<stop stop-color="#808080" stop-opacity="0.25"/>
<stop offset="0.54" stop-color="#808080" stop-opacity="0.12"/>
<stop offset="1" stop-color="#808080" stop-opacity="0.1"/>
</linearGradient>
<linearGradient id="paint2_linear" x1="-41428.9" y1="111749" x2="-41428.9" y2="41886.2" gradientUnits="userSpaceOnUse">
<stop stop-color="#808080" stop-opacity="0.25"/>
<stop offset="0.54" stop-color="#808080" stop-opacity="0.12"/>
<stop offset="1" stop-color="#808080" stop-opacity="0.1"/>
</linearGradient>
<linearGradient id="paint3_linear" x1="64243.5" y1="69116" x2="64243.5" y2="6645.1" gradientUnits="userSpaceOnUse">
<stop stop-color="#808080" stop-opacity="0.25"/>
<stop offset="0.54" stop-color="#808080" stop-opacity="0.12"/>
<stop offset="1" stop-color="#808080" stop-opacity="0.1"/>
</linearGradient>
<clipPath id="clip0">
<rect width="263.845" height="200" fill="white"/>
</clipPath>
</defs>
</svg>
