<svg width="222" height="200" viewBox="0 0 222 200" fill="none" xmlns="http://www.w3.org/2000/svg">
<g clip-path="url(#clip0)">
<path d="M135.768 187.835C136.958 191.434 134.522 195.476 134.522 195.476C134.522 195.476 130.157 193.682 128.968 190.082C127.778 186.483 130.214 182.442 130.214 182.442C130.214 182.442 134.579 184.236 135.768 187.835Z" fill="#E6E6E6"/>
<path d="M217.003 191.101C214.736 194.138 210.028 194.458 210.028 194.458C210.028 194.458 208.997 189.853 211.265 186.816C213.533 183.779 218.241 183.459 218.241 183.459C218.241 183.459 219.271 188.064 217.003 191.101Z" fill="#E6E6E6"/>
<path d="M171.163 200C199.016 200 221.595 198.397 221.595 196.419C221.595 194.441 199.016 192.838 171.163 192.838C143.31 192.838 120.73 194.441 120.73 196.419C120.73 198.397 143.31 200 171.163 200Z" fill="#E6E6E6"/>
<path d="M195.505 0.111023H0.0839844V125.267H195.505V0.111023Z" fill="#E6E6E6"/>
<path d="M189.917 15.8085H5.67188V117.863H189.917V15.8085Z" fill="white"/>
<path d="M195.421 0H0V8.3022H195.421V0Z" fill="#3EE5B2"/>
<path d="M6.16961 5.78324C7.01943 5.78324 7.70835 5.09432 7.70835 4.2445C7.70835 3.39467 7.01943 2.70575 6.16961 2.70575C5.31978 2.70575 4.63086 3.39467 4.63086 4.2445C4.63086 5.09432 5.31978 5.78324 6.16961 5.78324Z" fill="white"/>
<path d="M12.0104 5.78324C12.8603 5.78324 13.5492 5.09432 13.5492 4.2445C13.5492 3.39467 12.8603 2.70575 12.0104 2.70575C11.1606 2.70575 10.4717 3.39467 10.4717 4.2445C10.4717 5.09432 11.1606 5.78324 12.0104 5.78324Z" fill="white"/>
<path d="M17.8512 5.78324C18.7011 5.78324 19.39 5.09432 19.39 4.2445C19.39 3.39467 18.7011 2.70575 17.8512 2.70575C17.0014 2.70575 16.3125 3.39467 16.3125 4.2445C16.3125 5.09432 17.0014 5.78324 17.8512 5.78324Z" fill="white"/>
<path d="M132.245 24.7592H63.2607V31.6147H132.245V24.7592Z" fill="#E6E6E6"/>
<path d="M132.245 40.9076H63.2607V43.5042H132.245V40.9076Z" fill="#E6E6E6"/>
<path d="M132.245 48.8329H63.2607V51.4295H132.245V48.8329Z" fill="#E6E6E6"/>
<path d="M98.9048 56.8587H63.2607V59.4553H98.9048V56.8587Z" fill="#E6E6E6"/>
<path d="M132.245 65.0269H63.2607V67.6234H132.245V65.0269Z" fill="#E6E6E6"/>
<path d="M132.245 73.1951H63.2607V75.7916H132.245V73.1951Z" fill="#E6E6E6"/>
<path d="M97.7112 81.3633H63.2607V83.9599H97.7112V81.3633Z" fill="#E6E6E6"/>
<path d="M132.245 89.5315H63.2607V92.1281H132.245V89.5315Z" fill="#E6E6E6"/>
<path d="M132.245 97.6997H63.2607V100.296H132.245V97.6997Z" fill="#E6E6E6"/>
<path d="M132.327 107.719H110.543V114.88H132.327V107.719Z" fill="#3EE5B2"/>
<path d="M136.596 105.24L136.431 105.371L132.604 108.377C132.604 108.377 127.187 114.08 125.191 110.943C123.195 107.807 130.894 104.1 130.894 104.1L133.745 102.104L136.596 105.24Z" fill="#9F616A"/>
<path d="M197.759 109.09C197.759 109.09 195.478 117.074 194.908 117.644L190.631 111.371L192.627 107.949L197.759 109.09Z" fill="#9F616A"/>
<path d="M191.059 110.088L195.051 117.787L193.055 125.485V149.723L195.051 185.936H184.5L174.52 127.196L163.4 185.936H152.564L154.846 148.297L154.275 126.341C154.275 126.341 154.56 113.51 157.412 112.369C160.263 111.228 191.059 110.088 191.059 110.088Z" fill="#617487"/>
<path d="M192.769 184.51L193.625 187.932C193.625 187.932 196.761 190.213 195.906 192.779C195.051 195.345 195.621 196.771 193.625 197.341C191.629 197.912 185.071 198.767 185.356 195.916C185.641 193.064 185.356 187.076 185.356 187.076L186.211 185.08L192.769 184.51Z" fill="#223B55"/>
<path d="M155.131 184.51L154.276 187.932C154.276 187.932 151.139 190.213 151.994 192.779C152.85 195.345 152.28 196.771 154.276 197.341C156.272 197.912 162.83 198.767 162.545 195.916C162.26 193.064 162.545 187.076 162.545 187.076L161.689 185.08L155.131 184.51Z" fill="#223B55"/>
<path d="M166.109 48.9756C171.595 48.9756 176.043 44.528 176.043 39.0416C176.043 33.5552 171.595 29.1075 166.109 29.1075C160.622 29.1075 156.175 33.5552 156.175 39.0416C156.175 44.528 160.622 48.9756 166.109 48.9756Z" fill="#9F616A"/>
<path d="M173.816 43.3236L175.187 54.6279H162.854L163.882 45.0362L173.816 43.3236Z" fill="#9F616A"/>
<path d="M150.141 59.19C150.141 59.19 162.402 50.9209 168.39 50.9209C174.378 50.9209 189.49 54.0575 191.771 57.7643L190.06 97.6842C190.06 97.6842 194.052 103.672 191.771 105.953C189.49 108.234 192.199 112.939 192.199 112.939C192.199 112.939 174.378 111.941 168.39 114.508C162.402 117.074 155.273 114.508 155.273 114.508C155.273 114.508 158.267 110.658 155.416 109.518C152.564 108.377 157.127 90.1279 157.127 90.1279L155.843 78.5797L150.141 59.19Z" fill="#575A89"/>
<path d="M189.205 57.7643L191.344 57.3366C191.344 57.3366 205.173 79.7202 204.318 84.5676C203.462 89.415 198.044 111.371 198.044 111.371L190.631 109.375L194.908 88.5596L188.064 71.166L189.205 57.7643Z" fill="#575A89"/>
<path d="M153.277 60.3306L150.283 59.0474C149.792 60.3987 149.206 61.7134 148.529 62.9818C144.992 69.6344 143.868 91.411 143.868 91.411L131.606 101.676L135.884 107.949C135.884 107.949 151.841 98.7032 154.418 93.407C156.569 88.9839 156.271 73.3045 156.271 73.3045L153.277 60.3306Z" fill="#575A89"/>
<path d="M174.23 45.8483C174.23 45.8483 184.314 38.6454 179.032 30.0021C175.367 24.0058 167.774 24.4804 163.467 25.3335C162.306 25.5477 161.215 26.0409 160.288 26.7705C159.361 27.5002 158.625 28.4444 158.143 29.5219C157.423 31.2025 157.423 32.8832 160.304 32.8832C166.066 32.8832 163.185 37.2049 163.185 37.2049C163.185 37.2049 167.027 38.1652 166.066 41.5266C165.106 44.8879 174.23 45.8483 174.23 45.8483Z" fill="#2F2E41"/>
</g>
<defs>
<clipPath id="clip0">
<rect width="221.594" height="200" fill="white"/>
</clipPath>
</defs>
</svg>
