<svg width="282" height="201" viewBox="0 0 282 201" fill="none" xmlns="http://www.w3.org/2000/svg">
<path opacity="0.1" d="M125.612 200.003C194.986 200.003 251.225 186.689 251.225 170.266C251.225 153.842 194.986 140.528 125.612 140.528C56.2386 140.528 0 153.842 0 170.266C0 186.689 56.2386 200.003 125.612 200.003Z" fill="#3EE5B2"/>
<path d="M30.7317 89.1951C30.7317 89.1951 42.4317 100.895 35.8278 118.264C29.2239 135.632 47.1502 164.496 47.1502 164.496C47.1502 164.496 46.9577 164.469 46.6023 164.405C22.5731 160.157 10.6313 132.676 23.9946 112.257C28.9623 104.666 33.0293 95.762 30.7317 89.1951Z" fill="#3EE5B2"/>
<path d="M30.7319 89.1951C30.7319 89.1951 37.3358 103.536 30.7319 115.236C24.128 126.936 29.5991 159.772 47.1503 164.491" stroke="#535461" stroke-width="0.848932" stroke-miterlimit="10"/>
<path d="M9.89355 136.525C9.89355 136.525 23.2445 134.398 24.4537 146.365C25.663 158.331 50.1191 159.987 50.1191 159.987C50.1191 159.987 49.9587 160.096 49.6601 160.293C29.4832 173.543 10.1798 168.728 13.0894 151.128C14.1703 144.583 14.0839 138.006 9.89355 136.525Z" fill="#3EE5B2"/>
<path opacity="0.2" d="M9.89355 136.525C9.89355 136.525 23.2445 134.398 24.4537 146.365C25.663 158.331 50.1191 159.987 50.1191 159.987C50.1191 159.987 49.9587 160.096 49.6601 160.293C29.4832 173.543 10.1798 168.728 13.0894 151.128C14.1703 144.583 14.0839 138.006 9.89355 136.525Z" fill="#F5F5F5"/>
<path d="M9.89355 136.526C9.89355 136.526 20.2584 138.801 19.4046 148.223C18.5507 157.645 34.7939 168.953 50.1315 159.987" stroke="#535461" stroke-width="0.848932" stroke-miterlimit="10"/>
<path opacity="0.1" d="M280.945 89.0519C279.229 97.4573 270.424 101.672 265.491 107.943C256.195 119.762 259.815 137.024 265.713 150.849C267.687 155.478 269.928 160.377 269.092 165.34C268.072 171.411 262.656 175.848 256.967 178.202C246.602 182.489 234.189 181.467 224.661 175.539C216.428 170.419 210.53 162.087 202.157 157.198C188.142 149.018 170.305 152.107 155.085 157.744C144.321 161.729 132.549 166.917 121.851 162.749C114.324 159.817 109.12 152.68 106.284 145.116C104.917 141.464 103.923 137.51 101.309 134.615C99.7543 132.888 97.7258 131.671 95.6504 130.642C76.6777 121.235 52.7102 126.274 34.2928 115.835C21.85 108.79 13.8814 95.5004 10.3549 81.641C6.82838 67.7817 7.23804 53.261 8.13386 38.9773C8.77056 28.8345 9.91316 18.0007 16.3937 10.1777C23.2493 1.90312 35.0035 -1.1792 45.6497 0.397744C56.2959 1.97468 65.9229 7.58158 74.4048 14.188C85.0165 22.4478 94.8335 32.7287 107.846 36.0751C116.708 38.3529 126.029 37.1067 135.17 36.6748C150.451 35.9542 165.737 37.5583 180.931 39.3154C188.334 40.1717 195.763 41.07 203.102 42.373C204.747 42.6642 206.392 42.9776 208.038 43.3132C208.86 43.4778 209.683 43.6538 210.505 43.8414C211.147 43.982 211.786 44.1301 212.425 44.2806C213.434 44.5175 214.439 44.7643 215.441 45.021C218.319 45.7613 221.169 46.6127 223.99 47.5752C233.797 50.924 241.659 57.0023 250.921 61.2494C256.957 64.0183 263.539 64.7833 269.254 68.3074C276.295 72.6557 282.749 80.2122 280.945 89.0519Z" fill="#3EE5B2"/>
<path d="M149.585 158.926C149.585 158.926 159.727 158.121 162.647 161.611C165.566 165.1 175.988 173.101 171.687 174.883C167.385 176.665 144.294 169.55 144.294 169.55L149.585 158.926Z" fill="#FFB9B9"/>
<path d="M107.886 37.4571C107.8 36.2914 107.329 35.1871 106.549 34.3169C105.768 33.4467 104.722 32.8596 103.572 32.6473C102.027 32.4006 100.302 32.8374 98.9746 32.0057C98.3749 31.6281 97.9455 31.0383 97.4618 30.525C95.5665 28.4989 92.7211 27.5636 89.9473 27.4822C87.1734 27.4007 84.4391 28.072 81.7738 28.8395C76.4532 30.372 70.8315 32.6202 68.0009 37.3782C63.697 44.6212 67.6678 54.384 64.2646 62.091C62.7839 65.4571 59.9607 68.2062 59.0427 71.7698C57.8088 76.5302 60.2421 81.3598 62.1151 85.9055C63.7954 89.9825 65.0716 94.2145 65.9255 98.5407C66.6781 102.361 67.0977 106.332 66.2487 110.14C65.8761 111.805 65.2616 113.501 65.5923 115.174C66.0859 117.706 68.534 119.303 70.7599 120.603L71.3399 120.944C74.548 122.819 77.8475 124.734 81.5221 125.198C83.8049 125.484 86.211 125.169 88.1853 124.001C90.1595 122.834 91.6624 120.751 91.8302 118.459C92.0178 115.865 90.5741 113.437 90.2632 110.853C90.1918 110.463 90.2215 110.062 90.3495 109.688C90.5544 109.194 91.0307 108.876 91.4699 108.57C97.7974 104.158 101.191 95.9002 99.7914 88.3141C98.8389 83.1465 95.8775 78.0084 97.3113 72.9519C98.1034 70.1583 100.144 67.8953 101.289 65.2276C102.499 62.3783 102.65 59.1903 101.714 56.2398C101.06 54.2013 99.8753 52.1654 100.283 50.0702C101.001 46.3487 105.959 45.1617 107.832 41.8647C109.221 39.4116 108.399 35.9419 106.055 34.3822" fill="#B96B6B"/>
<path opacity="0.1" d="M107.886 37.4571C107.8 36.2914 107.329 35.1871 106.549 34.3169C105.768 33.4467 104.722 32.8596 103.572 32.6473C102.027 32.4006 100.302 32.8374 98.9746 32.0057C98.3749 31.6281 97.9455 31.0383 97.4618 30.525C95.5665 28.4989 92.7211 27.5636 89.9473 27.4822C87.1734 27.4007 84.4391 28.072 81.7738 28.8395C76.4532 30.372 70.8315 32.6202 68.0009 37.3782C63.697 44.6212 67.6678 54.384 64.2646 62.091C62.7839 65.4571 59.9607 68.2062 59.0427 71.7698C57.8088 76.5302 60.2421 81.3598 62.1151 85.9055C63.7954 89.9825 65.0716 94.2145 65.9255 98.5407C66.6781 102.361 67.0977 106.332 66.2487 110.14C65.8761 111.805 65.2616 113.501 65.5923 115.174C66.0859 117.706 68.534 119.303 70.7599 120.603L71.3399 120.944C74.548 122.819 77.8475 124.734 81.5221 125.198C83.8049 125.484 86.211 125.169 88.1853 124.001C90.1595 122.834 91.6624 120.751 91.8302 118.459C92.0178 115.865 90.5741 113.437 90.2632 110.853C90.1918 110.463 90.2215 110.062 90.3495 109.688C90.5544 109.194 91.0307 108.876 91.4699 108.57C97.7974 104.158 101.191 95.9002 99.7914 88.3141C98.8389 83.1465 95.8775 78.0084 97.3113 72.9519C98.1034 70.1583 100.144 67.8953 101.289 65.2276C102.499 62.3783 102.65 59.1903 101.714 56.2398C101.06 54.2013 99.8753 52.1654 100.283 50.0702C101.001 46.3487 105.959 45.1617 107.832 41.8647C109.221 39.4116 108.399 35.9419 106.055 34.3822" fill="black"/>
<path d="M118.086 166.811H65.0273V138.431L94.6413 149.783L118.086 138.431V166.811Z" fill="#777B9B"/>
<path opacity="0.1" d="M118.086 166.811H65.0273V138.431L94.6413 149.783L118.086 138.431V166.811Z" fill="black"/>
<path d="M111.669 169.538C111.669 169.538 102.045 171.838 101.058 176.053C100.07 180.268 106.734 179.885 106.734 179.885C106.734 179.885 116.111 177.968 117.345 170.303C118.579 162.638 111.669 169.538 111.669 169.538Z" fill="#FFB9B9"/>
<path opacity="0.1" d="M111.669 169.538C111.669 169.538 102.045 171.838 101.058 176.053C100.07 180.268 106.734 179.885 106.734 179.885C106.734 179.885 116.111 177.968 117.345 170.303C118.579 162.638 111.669 169.538 111.669 169.538Z" fill="black"/>
<path d="M85.8236 182.385C85.8236 182.385 76.7494 182.975 76.626 190.336C76.6087 191.324 86.0778 191.61 97.3187 185.566C108.56 179.522 109.325 178.886 109.325 178.886C109.325 178.886 104.981 171.887 101.921 170.934C98.8611 169.982 85.8236 182.385 85.8236 182.385Z" fill="#CBCDDA"/>
<path d="M32.6988 154.222C32.6988 154.222 22.334 162.86 41.583 174.952C60.832 187.044 79.3407 184.823 79.3407 184.823C79.3407 184.823 99.419 182.447 102.459 173.022C105.5 163.598 87.4846 155.703 87.4846 155.703C87.4846 155.703 67.7419 155.703 58.8578 150.027C49.9736 144.351 32.6988 154.222 32.6988 154.222Z" fill="#617487"/>
<path d="M88.7183 139.415C88.7183 139.415 97.6024 144.598 109.695 139.415C118.998 135.427 139.407 136.992 148.324 137.935C152.504 138.371 156.085 141.251 157.228 145.296C158.16 148.596 157.474 152.65 151.892 156.451C139.553 164.841 130.916 167.309 127.707 170.764C124.499 174.219 115.368 175.947 115.368 175.947C115.368 175.947 103.77 174.219 103.77 171.751C103.77 169.283 114.381 157.191 114.381 157.191C114.381 157.191 98.8339 171.504 82.793 152.255C66.7521 133.006 88.7183 139.415 88.7183 139.415Z" fill="#617487"/>
<path d="M84.2764 104.619L52.9351 83.1489C52.9351 83.1489 67.9691 72.9543 69.2597 63.8431C69.5529 62.0669 69.1888 60.2447 68.2356 58.7174C62.066 48.8461 89.9524 58.7174 89.9524 58.7174C90.1326 61.2879 90.483 63.8436 91.0013 66.3677C92.213 72.3769 94.7696 80.38 100.071 84.3828C109.201 91.2928 84.2764 104.619 84.2764 104.619Z" fill="#FFB9B9"/>
<path opacity="0.1" d="M91.0011 66.3578C87.5911 68.3411 83.6309 69.1679 79.7123 68.7147C75.7936 68.2614 72.1267 66.5525 69.2595 63.8431C69.5527 62.0669 69.1886 60.2447 68.2354 58.7174C62.0658 48.8461 89.9522 58.7174 89.9522 58.7174C90.1329 61.2846 90.4832 63.837 91.0011 66.3578Z" fill="black"/>
<path d="M81.8083 68.3444C91.8941 68.3444 100.07 60.1682 100.07 50.0825C100.07 39.9967 91.8941 31.8206 81.8083 31.8206C71.7225 31.8206 63.5464 39.9967 63.5464 50.0825C63.5464 60.1682 71.7225 68.3444 81.8083 68.3444Z" fill="#FFB9B9"/>
<path opacity="0.1" d="M93.1605 74.2647C93.1605 74.2647 89.4587 95.9816 83.2892 94.7477C77.1196 93.5137 57.8706 71.7969 57.8706 71.7969C57.8706 71.7969 37.8812 78.46 41.0893 94.7477C44.2975 111.035 47.5057 124.855 40.8426 130.038C34.1794 135.22 29.9841 159.405 29.9841 159.405C29.9841 159.405 51.2074 150.521 62.3126 153.975C73.4179 157.43 84.7699 155.703 87.4845 152.495C90.1991 149.287 94.1476 142.377 94.1476 142.377C94.1476 142.377 88.4716 133.986 91.1862 129.791C93.9008 125.595 97.3558 125.349 99.33 113.503C101.304 101.658 116.852 97.4623 113.89 90.7991C110.929 84.136 105.253 74.2647 93.1605 74.2647Z" fill="black"/>
<path d="M93.1605 73.2776C93.1605 73.2776 89.4587 94.9945 83.2892 93.7606C77.1196 92.5267 57.8706 70.8098 57.8706 70.8098C57.8706 70.8098 37.8812 77.4729 41.0893 93.7606C44.2975 110.048 47.5057 123.868 40.8426 129.051C34.1794 134.233 29.9841 158.418 29.9841 158.418C29.9841 158.418 51.2074 149.533 62.3126 152.988C73.4179 156.443 84.7699 154.716 87.4845 151.508C90.1991 148.3 94.1476 141.39 94.1476 141.39C94.1476 141.39 88.4716 132.999 91.1862 128.804C93.9008 124.608 97.3558 124.362 99.33 112.516C101.304 100.671 116.852 96.4752 113.89 89.8121C110.929 83.1489 105.253 73.2776 93.1605 73.2776Z" fill="#CBCDDA"/>
<path d="M107.967 162.366C107.967 162.366 117.839 159.898 121.294 162.86C124.749 165.821 136.347 171.991 132.399 174.458C128.45 176.926 104.512 173.718 104.512 173.718L107.967 162.366Z" fill="#FFB9B9"/>
<g opacity="0.05">
<path opacity="0.05" d="M80.8215 93.7606C81.3983 93.8694 81.995 93.7826 82.5169 93.5138C75.6612 90.8683 57.8707 70.8098 57.8707 70.8098C57.8707 70.8098 57.1698 71.0443 56.0494 71.5304C59.4501 75.3087 75.3256 92.6624 80.8215 93.7606Z" fill="black"/>
<path opacity="0.05" d="M111.422 89.8121C118.229 87.1937 98.8363 100.671 96.8621 112.516C94.8878 124.362 91.4329 124.608 88.7183 128.804C86.0037 132.999 91.6796 141.39 91.6796 141.39C91.6796 141.39 87.7311 148.3 85.0165 151.508C83.4618 153.346 79.0715 154.694 73.5189 154.864C80.2166 155.076 85.705 153.608 87.4843 151.508C90.199 148.3 94.1475 141.39 94.1475 141.39C94.1475 141.39 88.4715 132.999 91.1861 128.804C93.9007 124.608 97.3556 124.362 99.3299 112.516C101.304 100.671 109.818 90.429 111.422 89.8121Z" fill="black"/>
<path opacity="0.05" d="M30.1742 157.389C30.0483 158.047 29.9841 158.42 29.9841 158.42C29.9841 158.42 43.7842 152.643 54.9536 152.218C46.3335 151.861 35.1937 155.528 30.1742 157.389Z" fill="black"/>
</g>
<path d="M112.163 88.5781C112.163 88.5781 114.384 88.8249 116.605 100.424C118.826 112.022 127.463 123.128 127.463 123.128C130.877 127.695 133.543 132.777 135.36 138.181C138.322 147.066 151.525 158.788 156.213 159.281C156.213 159.281 147.206 168.289 148.193 170.757C149.18 173.225 147.206 170.757 147.206 170.757C147.206 170.757 134.867 166.068 132.152 158.418C129.437 150.767 117.592 138.428 117.592 138.428C117.592 138.428 101.798 107.827 101.057 102.892C100.317 97.9559 112.163 88.5781 112.163 88.5781Z" fill="#CBCDDA"/>
<path opacity="0.1" d="M44.1741 130.161C44.1741 130.161 63.1763 132.382 67.3716 138.305C71.5669 144.228 91.0011 134.865 91.0011 134.865" fill="black"/>
<path opacity="0.1" d="M62.8063 96.4752C62.8063 96.4752 70.9501 126.336 73.9115 130.038C76.8729 133.739 99.8237 164.094 110.682 162.119C110.682 162.119 107.474 175.939 105.253 176.433C105.253 176.433 82.7957 154.222 75.1454 154.469C75.1454 154.469 61.0788 142.87 59.5981 137.194C58.1174 131.518 46.2718 113.01 46.2718 113.01C46.2718 113.01 40.3491 99.9301 42.8169 94.2541C45.2847 88.5781 58.3642 91.0459 62.8063 96.4752Z" fill="black"/>
<path d="M63.0529 95.9816C63.0529 95.9816 71.1967 125.842 74.1581 129.544C77.1195 133.246 100.07 163.6 110.929 161.626C110.929 161.626 107.72 175.446 105.499 175.939C105.499 175.939 83.0422 153.729 75.392 153.976C75.392 153.976 61.3254 142.377 59.8447 136.701C58.364 131.025 46.5184 112.516 46.5184 112.516C46.5184 112.516 40.5956 99.4366 43.0635 93.7606C45.5313 88.0846 58.6108 90.5524 63.0529 95.9816Z" fill="#D4DBE0"/>
<path opacity="0.1" d="M95.0534 32.7682C94.967 31.6024 94.4968 30.4982 93.7164 29.628C92.9359 28.7578 91.8891 28.1706 90.7396 27.9584C89.1948 27.7116 87.4698 28.1484 86.1421 27.3167C85.5424 26.9392 85.113 26.3494 84.6293 25.836C82.734 23.81 79.8886 22.8747 77.1148 22.7932C74.3409 22.7118 71.6066 23.383 68.9413 24.1505C63.6207 25.683 57.999 27.9312 55.1684 32.6892C50.8645 39.9323 54.8352 49.695 51.4321 57.402C49.9514 60.7681 47.1282 63.5173 46.2102 67.0808C44.9763 71.8412 47.4095 76.6708 49.2826 81.2165C50.9629 85.2935 52.2391 89.5255 53.0929 93.8518C53.8456 97.672 54.2652 101.643 53.4162 105.451C53.0436 107.116 52.4291 108.812 52.7598 110.485C53.2534 113.017 55.7014 114.614 57.9274 115.914L58.5074 116.255C61.7155 118.13 65.015 120.045 68.6896 120.509C70.9723 120.795 73.3785 120.48 75.3527 119.312C77.327 118.145 78.8299 116.062 78.9977 113.77C79.1853 111.176 77.7416 108.748 77.4306 106.164C77.3593 105.774 77.389 105.373 77.517 104.999C77.7218 104.505 78.1981 104.187 78.6374 103.881C84.9649 99.4686 88.3582 91.2112 86.9589 83.6251C86.0063 78.4575 83.0449 73.3195 84.4788 68.2629C85.2709 65.4693 87.3118 63.2063 88.4569 60.5386C89.6667 57.6894 89.8173 54.5013 88.8814 51.5508C88.2274 49.5124 87.0428 47.4764 87.45 45.3812C88.1682 41.6597 93.126 40.4727 94.9991 37.1757C96.3885 34.7227 95.5667 31.2529 93.2223 29.6933" fill="black"/>
<path d="M94.5597 32.5215C94.4733 31.3557 94.0032 30.2515 93.2227 29.3813C92.4422 28.511 91.3955 27.9239 90.246 27.7117C88.7011 27.4649 86.9761 27.9017 85.6484 27.07C85.0487 26.6925 84.6193 26.1026 84.1356 25.5893C82.2403 23.5633 79.3949 22.6279 76.6211 22.5465C73.8473 22.4651 71.1129 23.1363 68.4477 23.9038C63.127 25.4363 57.5053 27.6845 54.6747 32.4425C50.3708 39.6856 54.3416 49.4483 50.9384 57.1553C49.4578 60.5214 46.6346 63.2706 45.7165 66.8341C44.4826 71.5946 46.9159 76.4241 48.789 80.9698C50.4693 85.0468 51.7455 89.2788 52.5993 93.6051C53.352 97.4253 53.7715 101.396 52.9226 105.204C52.5499 106.87 51.9354 108.565 52.2661 110.238C52.7597 112.77 55.2078 114.367 57.4338 115.667L58.0137 116.008C61.2219 117.884 64.5214 119.799 68.196 120.263C70.4787 120.549 72.8848 120.233 74.8591 119.066C76.8333 117.898 78.3362 115.816 78.5041 113.523C78.6916 110.929 77.2479 108.501 76.937 105.917C76.8656 105.528 76.8954 105.127 77.0234 104.752C77.2282 104.259 77.7045 103.94 78.1438 103.634C84.4713 99.2219 87.8645 90.9645 86.4653 83.3784C85.5127 78.2108 82.5513 73.0728 83.9851 68.0162C84.7773 65.2226 86.8182 62.9596 87.9632 60.2919C89.173 57.4427 89.3236 54.2546 88.3877 51.3041C87.7337 49.2657 86.5492 47.2297 86.9564 45.1345C87.6745 41.413 92.6324 40.226 94.5054 36.929C95.8948 34.476 95.073 31.0062 92.7286 29.4466" fill="#B96B6B"/>
<path d="M111.348 189.337C111.801 188.968 112.13 188.471 112.294 187.911C112.417 187.343 112.175 186.664 111.632 186.457C111.025 186.225 110.376 186.645 109.885 187.072C109.394 187.498 108.829 187.982 108.185 187.891C108.516 187.591 108.763 187.21 108.903 186.786C109.044 186.362 109.071 185.908 108.984 185.47C108.956 185.288 108.88 185.118 108.762 184.976C108.424 184.616 107.814 184.772 107.41 185.055C106.126 185.959 105.769 187.701 105.761 189.27C105.633 188.705 105.741 188.115 105.737 187.543C105.732 186.97 105.574 186.309 105.085 186.008C104.782 185.845 104.442 185.764 104.098 185.773C103.52 185.751 102.879 185.81 102.484 186.232C101.99 186.756 102.121 187.637 102.548 188.207C102.975 188.777 103.622 189.145 104.219 189.544C104.697 189.829 105.106 190.218 105.413 190.682C105.449 190.746 105.479 190.814 105.502 190.884H109.112C109.924 190.472 110.676 189.951 111.348 189.337Z" fill="#3EE5B2"/>
<path opacity="0.1" d="M222.845 56.1287H144.368V61.5579H222.845V56.1287Z" fill="#3EE5B2"/>
<path opacity="0.1" d="M222.845 79.573H144.368V85.0022H222.845V79.573Z" fill="#3EE5B2"/>
<path opacity="0.1" d="M222.845 104.005H144.368V109.434H222.845V104.005Z" fill="#3EE5B2"/>
<path opacity="0.1" d="M156.213 42.062H151.278V56.1286H156.213V42.062Z" fill="#3EE5B2"/>
<path opacity="0.1" d="M156.213 44.2831H151.278V45.2702H156.213V44.2831Z" fill="#3EE5B2"/>
<path opacity="0.1" d="M156.213 51.9333H151.278V52.9205H156.213V51.9333Z" fill="#3EE5B2"/>
<path opacity="0.1" d="M163.617 42.062H158.681V56.1286H163.617V42.062Z" fill="#3EE5B2"/>
<path opacity="0.1" d="M163.617 44.2831H158.681V45.2702H163.617V44.2831Z" fill="#3EE5B2"/>
<path opacity="0.1" d="M163.617 51.9333H158.681V52.9205H163.617V51.9333Z" fill="#3EE5B2"/>
<path opacity="0.1" d="M171.02 42.062H166.085V56.1286H171.02V42.062Z" fill="#3EE5B2"/>
<path opacity="0.1" d="M171.02 44.2831H166.085V45.2702H171.02V44.2831Z" fill="#3EE5B2"/>
<path opacity="0.1" d="M171.02 51.9333H166.085V52.9205H171.02V51.9333Z" fill="#3EE5B2"/>
<path opacity="0.1" d="M178.424 42.062H173.488V56.1286H178.424V42.062Z" fill="#3EE5B2"/>
<path opacity="0.1" d="M178.424 44.2831H173.488V45.2702H178.424V44.2831Z" fill="#3EE5B2"/>
<path opacity="0.1" d="M178.424 51.9333H173.488V52.9205H178.424V51.9333Z" fill="#3EE5B2"/>
<path opacity="0.1" d="M185.827 42.062H180.892V56.1286H185.827V42.062Z" fill="#3EE5B2"/>
<path opacity="0.1" d="M185.827 44.2831H180.892V45.2702H185.827V44.2831Z" fill="#3EE5B2"/>
<path opacity="0.1" d="M185.827 51.9333H180.892V52.9205H185.827V51.9333Z" fill="#3EE5B2"/>
<path opacity="0.1" d="M193.231 42.062H188.295V56.1286H193.231V42.062Z" fill="#3EE5B2"/>
<path opacity="0.1" d="M193.231 44.2831H188.295V45.2702H193.231V44.2831Z" fill="#3EE5B2"/>
<path opacity="0.1" d="M193.231 51.9333H188.295V52.9205H193.231V51.9333Z" fill="#3EE5B2"/>
<path opacity="0.1" d="M200.634 42.062H195.699V56.1286H200.634V42.062Z" fill="#3EE5B2"/>
<path opacity="0.1" d="M200.634 44.2831H195.699V45.2702H200.634V44.2831Z" fill="#3EE5B2"/>
<path opacity="0.1" d="M200.634 51.9333H195.699V52.9205H200.634V51.9333Z" fill="#3EE5B2"/>
<path opacity="0.1" d="M197.713 89.567L193.301 91.7793L199.606 104.354L204.018 102.141L197.713 89.567Z" fill="#3EE5B2"/>
<path opacity="0.1" d="M198.71 91.5516L194.298 93.7639L194.741 94.6463L199.153 92.434L198.71 91.5516Z" fill="#3EE5B2"/>
<path opacity="0.1" d="M202.137 98.3911L197.725 100.603L198.168 101.486L202.58 99.2735L202.137 98.3911Z" fill="#3EE5B2"/>
<path opacity="0.1" d="M156.213 65.7532H151.278V79.8198H156.213V65.7532Z" fill="#3EE5B2"/>
<path opacity="0.1" d="M156.213 67.9742H151.278V68.9614H156.213V67.9742Z" fill="#3EE5B2"/>
<path opacity="0.1" d="M156.213 75.6245H151.278V76.6116H156.213V75.6245Z" fill="#3EE5B2"/>
<path opacity="0.1" d="M163.617 65.7532H158.681V79.8198H163.617V65.7532Z" fill="#3EE5B2"/>
<path opacity="0.1" d="M163.617 67.9742H158.681V68.9614H163.617V67.9742Z" fill="#3EE5B2"/>
<path opacity="0.1" d="M163.617 75.6245H158.681V76.6116H163.617V75.6245Z" fill="#3EE5B2"/>
<path opacity="0.1" d="M171.02 65.7532H166.085V79.8198H171.02V65.7532Z" fill="#3EE5B2"/>
<path opacity="0.1" d="M171.02 67.9742H166.085V68.9614H171.02V67.9742Z" fill="#3EE5B2"/>
<path opacity="0.1" d="M171.02 75.6245H166.085V76.6116H171.02V75.6245Z" fill="#3EE5B2"/>
<path opacity="0.1" d="M201.868 65.7532H196.933V79.8198H201.868V65.7532Z" fill="#3EE5B2"/>
<path opacity="0.1" d="M201.868 67.9742H196.933V68.9614H201.868V67.9742Z" fill="#3EE5B2"/>
<path opacity="0.1" d="M201.868 75.6245H196.933V76.6116H201.868V75.6245Z" fill="#3EE5B2"/>
<path opacity="0.1" d="M209.272 65.7532H204.336V79.8198H209.272V65.7532Z" fill="#3EE5B2"/>
<path opacity="0.1" d="M209.272 67.9742H204.336V68.9614H209.272V67.9742Z" fill="#3EE5B2"/>
<path opacity="0.1" d="M209.272 75.6245H204.336V76.6116H209.272V75.6245Z" fill="#3EE5B2"/>
<path opacity="0.1" d="M216.675 65.7532H211.74V79.8198H216.675V65.7532Z" fill="#3EE5B2"/>
<path opacity="0.1" d="M216.675 67.9742H211.74V68.9614H216.675V67.9742Z" fill="#3EE5B2"/>
<path opacity="0.1" d="M216.675 75.6245H211.74V76.6116H216.675V75.6245Z" fill="#3EE5B2"/>
<path opacity="0.1" d="M156.213 89.9379H151.278V104.004H156.213V89.9379Z" fill="#3EE5B2"/>
<path opacity="0.1" d="M156.213 92.1589H151.278V93.1461H156.213V92.1589Z" fill="#3EE5B2"/>
<path opacity="0.1" d="M156.213 99.8092H151.278V100.796H156.213V99.8092Z" fill="#3EE5B2"/>
<path opacity="0.1" d="M163.617 89.9379H158.681V104.004H163.617V89.9379Z" fill="#3EE5B2"/>
<path opacity="0.1" d="M163.617 92.1589H158.681V93.1461H163.617V92.1589Z" fill="#3EE5B2"/>
<path opacity="0.1" d="M163.617 99.8092H158.681V100.796H163.617V99.8092Z" fill="#3EE5B2"/>
<path opacity="0.1" d="M171.02 89.9379H166.085V104.004H171.02V89.9379Z" fill="#3EE5B2"/>
<path opacity="0.1" d="M171.02 92.1589H166.085V93.1461H171.02V92.1589Z" fill="#3EE5B2"/>
<path opacity="0.1" d="M171.02 99.8092H166.085V100.796H171.02V99.8092Z" fill="#3EE5B2"/>
<path opacity="0.1" d="M178.424 89.9379H173.488V104.004H178.424V89.9379Z" fill="#3EE5B2"/>
<path opacity="0.1" d="M178.424 92.1589H173.488V93.1461H178.424V92.1589Z" fill="#3EE5B2"/>
<path opacity="0.1" d="M178.424 99.8092H173.488V100.796H178.424V99.8092Z" fill="#3EE5B2"/>
<path opacity="0.1" d="M185.827 89.9379H180.892V104.004H185.827V89.9379Z" fill="#3EE5B2"/>
<path opacity="0.1" d="M185.827 92.1589H180.892V93.1461H185.827V92.1589Z" fill="#3EE5B2"/>
<path opacity="0.1" d="M185.827 99.8092H180.892V100.796H185.827V99.8092Z" fill="#3EE5B2"/>
<path opacity="0.1" d="M193.231 89.9379H188.295V104.004H193.231V89.9379Z" fill="#3EE5B2"/>
<path opacity="0.1" d="M193.231 92.1589H188.295V93.1461H193.231V92.1589Z" fill="#3EE5B2"/>
<path opacity="0.1" d="M193.231 99.8092H188.295V100.796H193.231V99.8092Z" fill="#3EE5B2"/>
<path opacity="0.1" d="M208.038 43.3133V56.1262H203.102V42.373C204.754 42.6643 206.399 42.9777 208.038 43.3133Z" fill="#3EE5B2"/>
<path opacity="0.1" d="M208.038 44.2831H203.102V45.2702H208.038V44.2831Z" fill="#3EE5B2"/>
<path opacity="0.1" d="M208.038 51.9333H203.102V52.9205H208.038V51.9333Z" fill="#3EE5B2"/>
<path opacity="0.1" d="M215.441 45.0259V56.1311H210.505V43.8413C211.147 43.982 211.786 44.13 212.425 44.2806C213.436 44.5175 214.441 44.7659 215.441 45.0259Z" fill="#3EE5B2"/>
<path opacity="0.1" d="M215.441 45.0259V45.2726H210.505V44.2855H212.425C213.436 44.5191 214.441 44.7659 215.441 45.0259Z" fill="#3EE5B2"/>
<path opacity="0.1" d="M215.441 51.9333H210.505V52.9205H215.441V51.9333Z" fill="#3EE5B2"/>
<path opacity="0.1" d="M36.2031 49.1324C41.291 49.1324 45.4155 45.0079 45.4155 39.92C45.4155 34.8322 41.291 30.7076 36.2031 30.7076C31.1153 30.7076 26.9907 34.8322 26.9907 39.92C26.9907 45.0079 31.1153 49.1324 36.2031 49.1324Z" fill="#3EE5B2"/>
<path opacity="0.1" d="M36.2031 47.7381C40.5209 47.7381 44.0211 44.2378 44.0211 39.92C44.0211 35.6022 40.5209 32.1019 36.2031 32.1019C31.8853 32.1019 28.385 35.6022 28.385 39.92C28.385 44.2378 31.8853 47.7381 36.2031 47.7381Z" fill="#3EE5B2"/>
<path opacity="0.1" d="M36.203 40.4778C36.511 40.4778 36.7607 40.2281 36.7607 39.92C36.7607 39.612 36.511 39.3623 36.203 39.3623C35.895 39.3623 35.6453 39.612 35.6453 39.92C35.6453 40.2281 35.895 40.4778 36.203 40.4778Z" fill="#3EE5B2"/>
<path opacity="0.1" d="M39.5544 34.0588L36.4795 39.4387" stroke="#3EE5B2" stroke-width="0.424466" stroke-miterlimit="10"/>
<path opacity="0.1" d="M39.6926 41.7363L36.7065 40.1643" stroke="#3EE5B2" stroke-width="0.424466" stroke-miterlimit="10"/>
<path d="M142.934 176.571H117.162C116.277 176.571 115.558 177.289 115.558 178.175V179.061C115.558 179.947 116.277 180.665 117.162 180.665H142.934C143.82 180.665 144.538 179.947 144.538 179.061V178.175C144.538 177.289 143.82 176.571 142.934 176.571Z" fill="#223B55"/>
<g opacity="0.7">
<path opacity="0.7" d="M198.255 130.919H140.16C136.314 130.919 133.196 134.037 133.196 137.883V173.755C133.196 177.601 136.314 180.719 140.16 180.719H198.255C202.101 180.719 205.219 177.601 205.219 173.755V137.883C205.219 134.037 202.101 130.919 198.255 130.919Z" fill="url(#paint0_linear)"/>
</g>
<path d="M196.086 131.837H141.105C137.447 131.837 134.482 134.802 134.482 138.46V174.093C134.482 177.751 137.447 180.717 141.105 180.717H196.086C199.744 180.717 202.71 177.751 202.71 174.093V138.46C202.71 134.802 199.744 131.837 196.086 131.837Z" fill="#3E3F49"/>
<path d="M197.031 131.837H142.05C138.392 131.837 135.427 134.802 135.427 138.46V174.093C135.427 177.751 138.392 180.717 142.05 180.717H197.031C200.689 180.717 203.655 177.751 203.655 174.093V138.46C203.655 134.802 200.689 131.837 197.031 131.837Z" fill="#223B55"/>
<path d="M172.728 158.144C173.945 158.144 174.932 157.157 174.932 155.94C174.932 154.723 173.945 153.736 172.728 153.736C171.511 153.736 170.524 154.723 170.524 155.94C170.524 157.157 171.511 158.144 172.728 158.144Z" fill="#E0E0E0"/>
<path d="M54.9239 177.768C54.9239 177.768 51.0049 176.44 49.1195 179.893C48.6221 180.829 48.369 181.875 48.3837 182.935C48.3983 183.995 48.6803 185.034 49.2034 185.956C50.4373 188.194 52.994 191.102 57.8408 190.842C61.9424 190.623 63.3071 187.494 63.6772 184.582C63.8191 183.49 63.6784 182.38 63.2684 181.358C62.8585 180.336 62.1931 179.437 61.3359 178.746C60.4787 178.055 59.4585 177.595 58.373 177.412C57.2874 177.228 56.1729 177.326 55.1361 177.696L54.9239 177.768Z" fill="#3EE5B2"/>
<path opacity="0.1" d="M50.0328 186.267C49.5097 185.345 49.2277 184.306 49.213 183.246C49.1984 182.186 49.4515 181.14 49.9489 180.204C51.8343 176.749 55.7532 178.079 55.7532 178.079L55.9531 178.007C57.4474 177.467 59.0897 177.504 60.5581 178.111C59.7478 177.628 58.8405 177.332 57.9017 177.242C56.9629 177.152 56.0158 177.272 55.1289 177.593L54.929 177.664C54.929 177.664 51.0101 176.336 49.1247 179.789C48.6272 180.725 48.3741 181.771 48.3888 182.831C48.4035 183.891 48.6854 184.93 49.2086 185.852C50.0254 187.333 51.4099 189.088 53.6506 190.048C52.1215 189.142 50.8701 187.835 50.0328 186.267Z" fill="white"/>
<path opacity="0.2" d="M52.9004 179.429C52.9004 179.429 54.3539 180.571 57.8805 179.429H52.9004Z" fill="black"/>
<path d="M52.5894 171.127C52.5894 171.127 55.0794 177.871 54.8721 179.636L56.8464 179.429C56.8464 179.429 53.5247 173.506 54.3563 171.127H52.5894Z" fill="#3EE5B2"/>
<path opacity="0.2" d="M52.5894 171.127C52.5894 171.127 55.0794 177.871 54.8721 179.636L56.8464 179.429C56.8464 179.429 53.5247 173.506 54.3563 171.127H52.5894Z" fill="black"/>
<path d="M62.7543 171.692C62.7543 171.692 58.8354 169.688 57.0783 171.344C55.3212 173 55.0547 177.232 55.0547 177.232C55.0547 177.232 61.4488 178.111 62.7543 171.692Z" fill="#3EE5B2"/>
<path opacity="0.1" d="M62.7543 171.692C62.7543 171.692 58.8354 169.688 57.0783 171.344C55.3212 173 55.0547 177.232 55.0547 177.232C55.0547 177.232 61.4488 178.111 62.7543 171.692Z" fill="white"/>
<path d="M55.0571 177.232C55.0571 177.232 56.0862 172.319 62.7543 171.692" stroke="#3EE5B2" stroke-width="0.424466" stroke-miterlimit="10"/>
<g opacity="0.1">
<path opacity="0.1" d="M180.988 74.7039C180.988 74.7039 179.492 74.1956 178.767 75.5159C178.577 75.8733 178.48 76.2728 178.486 76.6774C178.492 77.082 178.599 77.4787 178.799 77.8307C179.273 78.6846 180.247 79.805 182.093 79.6964C183.66 79.6125 184.181 78.418 184.314 77.305C184.366 76.8887 184.31 76.4662 184.152 76.0775C183.995 75.6888 183.741 75.3466 183.414 75.0833C183.088 74.82 182.699 74.6443 182.286 74.5727C181.873 74.5012 181.448 74.5361 181.052 74.6743L180.988 74.7039Z" fill="#3EE5B2"/>
<path opacity="0.1" d="M179.125 77.9516C178.925 77.5996 178.817 77.203 178.812 76.7983C178.806 76.3937 178.903 75.9942 179.092 75.6368C179.813 74.319 181.314 74.8249 181.314 74.8249L181.39 74.7978C181.961 74.5912 182.588 74.6052 183.15 74.8373C182.84 74.6528 182.493 74.5394 182.134 74.5053C181.775 74.4711 181.413 74.5171 181.074 74.6398L180.998 74.667C180.998 74.667 179.502 74.1586 178.777 75.4789C178.587 75.8363 178.49 76.2358 178.496 76.6404C178.502 77.045 178.609 77.4417 178.809 77.7937C179.18 78.5007 179.775 79.0642 180.502 79.3953C179.919 79.0492 179.443 78.5498 179.125 77.9516Z" fill="#3EE5B2"/>
<path opacity="0.2" d="M180.215 75.3382C180.215 75.3382 180.771 75.775 182.118 75.3382H180.215Z" fill="#3EE5B2"/>
<path opacity="0.1" d="M180.094 72.1671C180.094 72.1671 181.044 74.7435 180.965 75.4172L181.718 75.3382C181.718 75.3382 180.45 73.0801 180.768 72.1671H180.094Z" fill="#3EE5B2"/>
<path opacity="0.2" d="M180.094 72.1671C180.094 72.1671 181.044 74.7435 180.965 75.4172L181.718 75.3382C181.718 75.3382 180.45 73.0801 180.768 72.1671H180.094Z" fill="#3EE5B2"/>
<path opacity="0.1" d="M183.979 72.3842C183.979 72.3842 182.481 71.6192 181.812 72.2509C181.143 72.8827 181.04 74.4991 181.04 74.4991C181.04 74.4991 183.48 74.8298 183.979 72.3842Z" fill="#3EE5B2"/>
<path opacity="0.1" d="M183.979 72.3842C183.979 72.3842 182.481 71.6192 181.812 72.2509C181.143 72.8827 181.04 74.4991 181.04 74.4991C181.04 74.4991 183.48 74.8298 183.979 72.3842Z" fill="#3EE5B2"/>
<path opacity="0.1" d="M181.037 74.4991C181.037 74.4991 181.429 72.6236 183.976 72.3817L181.037 74.4991Z" fill="#3EE5B2"/>
</g>
<g opacity="0.1">
<path opacity="0.1" d="M212.576 99.1355C212.576 99.1355 211.081 98.6271 210.355 99.9474C210.165 100.305 210.069 100.704 210.074 101.109C210.08 101.514 210.188 101.91 210.387 102.262C210.861 103.116 211.836 104.236 213.682 104.128C215.249 104.044 215.77 102.85 215.903 101.737C215.954 101.32 215.898 100.898 215.74 100.509C215.583 100.12 215.329 99.7781 215.002 99.5148C214.676 99.2515 214.288 99.0758 213.874 99.0043C213.461 98.9327 213.036 98.9677 212.64 99.1058L212.576 99.1355Z" fill="#3EE5B2"/>
<path opacity="0.1" d="M210.713 102.383C210.513 102.031 210.406 101.634 210.4 101.23C210.395 100.825 210.491 100.426 210.681 100.068C211.401 98.7505 212.902 99.2564 212.902 99.2564L212.978 99.2292C213.549 99.0226 214.177 99.0367 214.738 99.2687C214.428 99.0843 214.081 98.9709 213.722 98.9367C213.364 98.9026 213.002 98.9485 212.663 99.0713L212.586 99.0984C212.586 99.0984 211.091 98.5901 210.365 99.9103C210.175 100.268 210.079 100.667 210.084 101.072C210.09 101.476 210.197 101.873 210.397 102.225C210.768 102.932 211.364 103.496 212.09 103.827C211.508 103.481 211.031 102.981 210.713 102.383Z" fill="#3EE5B2"/>
<path opacity="0.2" d="M211.804 99.7697C211.804 99.7697 212.359 100.207 213.706 99.7697H211.804Z" fill="#3EE5B2"/>
<path opacity="0.1" d="M211.683 96.5986C211.683 96.5986 212.633 99.175 212.554 99.8487L213.307 99.7697C213.307 99.7697 212.038 97.5117 212.357 96.5986H211.683Z" fill="#3EE5B2"/>
<path opacity="0.2" d="M211.683 96.5986C211.683 96.5986 212.633 99.175 212.554 99.8487L213.307 99.7697C213.307 99.7697 212.038 97.5117 212.357 96.5986H211.683Z" fill="#3EE5B2"/>
<path opacity="0.1" d="M215.567 96.8157C215.567 96.8157 214.069 96.0507 213.4 96.6825C212.732 97.3142 212.628 98.9306 212.628 98.9306C212.628 98.9306 215.069 99.2613 215.567 96.8157Z" fill="#3EE5B2"/>
<path opacity="0.1" d="M215.567 96.8157C215.567 96.8157 214.069 96.0507 213.4 96.6825C212.732 97.3142 212.628 98.9306 212.628 98.9306C212.628 98.9306 215.069 99.2613 215.567 96.8157Z" fill="#3EE5B2"/>
<path opacity="0.1" d="M212.625 98.9306C212.625 98.9306 213.018 97.0551 215.565 96.8132L212.625 98.9306Z" fill="#3EE5B2"/>
</g>
<defs>
<linearGradient id="paint0_linear" x1="169.209" y1="180.717" x2="169.209" y2="130.919" gradientUnits="userSpaceOnUse">
<stop stop-color="#808080" stop-opacity="0.25"/>
<stop offset="0.54" stop-color="#808080" stop-opacity="0.12"/>
<stop offset="1" stop-color="#808080" stop-opacity="0.1"/>
</linearGradient>
</defs>
</svg>
