<svg width="510" height="193" viewBox="0 0 510 193" fill="none" xmlns="http://www.w3.org/2000/svg">
<path d="M246.068 56.9776C250.461 57.7098 254.547 60.4042 258.954 61.3707C262.806 62.2493 266.862 61.7953 270.669 63.1425C277.771 65.6612 282.384 74.2276 283.394 82.8233C284.405 91.419 282.604 100.117 280.553 108.464C275.165 130.458 267.843 152.424 254.664 169.102C253.741 170.259 252.628 171.475 251.267 171.445C250.322 171.315 249.438 170.902 248.733 170.259C245.967 168.365 243.435 166.148 241.192 163.655C237.677 159.423 235.642 153.844 233.87 148.309C228.877 132.728 219.344 122.858 217.572 106.341C215.639 89.0175 225.113 53.5218 246.068 56.9776Z" fill="#3EE5B2"/>
<path d="M231.893 68.0773C230.023 67.7397 228.094 68.0881 226.461 69.0585C224.747 70.1124 223.266 71.5056 222.111 73.1525C220.955 74.7993 220.148 76.6651 219.739 78.6353C218.946 82.5832 218.803 86.6341 219.315 90.6282C220.317 102.35 222.59 113.927 226.095 125.157C227.12 128.408 224.191 136.125 226.314 138.79C228.042 140.958 227.178 153.976 229.433 155.586C235.686 160.097 248.675 157.607 254.927 162.117C263.025 167.975 262.483 152.511 261.195 146.141C259.73 139.039 248.733 140.284 240.313 116.298C229.111 84.3755 234.763 68.7363 231.893 68.0773Z" fill="url(#paint0_linear)"/>
<path d="M198.331 171.372C191.28 164.422 185.789 156.051 182.223 146.815C176.397 130.573 173.477 113.433 173.598 96.178C173.598 72.9682 179.133 48.8651 187.538 34.9392C201.025 12.3737 224.015 0 251.882 0C273.334 0 292.122 7.32172 305.608 20.5008C312.659 27.4453 318.15 35.8117 321.716 45.0432C327.554 61.3572 330.469 78.5732 330.327 95.8998C330.327 119.124 324.806 143.447 316.401 157.402C303.134 179.543 279.924 191.961 251.838 191.961C230.165 191.961 211.817 184.844 198.331 171.372ZM218.831 94.4208C218.831 133.958 230.107 154.342 251.999 154.342C273.891 154.342 284.727 134.441 284.727 95.0798C284.727 57.2704 273.232 37.37 251.779 37.37C231.059 37.37 218.89 58.3687 218.89 94.4208H218.831Z" fill="#3EE5B2"/>
<path d="M198.331 171.372C191.28 164.422 185.789 156.051 182.223 146.815C176.397 130.573 173.477 113.433 173.598 96.178C173.598 72.9682 179.133 48.8651 187.538 34.9392C201.025 12.3737 224.015 0 251.882 0C273.334 0 292.122 7.32172 305.608 20.5008C312.659 27.4453 318.15 35.8117 321.716 45.0432C327.554 61.3572 330.469 78.5732 330.327 95.8998C330.327 119.124 324.806 143.447 316.401 157.402C303.134 179.543 279.924 191.961 251.838 191.961C230.165 191.961 211.817 184.844 198.331 171.372ZM218.831 94.4208C218.831 133.958 230.107 154.342 251.999 154.342C273.891 154.342 284.727 134.441 284.727 95.0798C284.727 57.2704 273.232 37.37 251.779 37.37C231.059 37.37 218.89 58.3687 218.89 94.4208H218.831Z" fill="url(#paint1_linear)"/>
<path d="M0 112.432C9.94289 101.376 9.94289 101.376 21.2183 88.1095L69.2049 31.952C79.8213 19.7833 84.024 14.2627 89.7057 5.59381H135.1C133.802 17.7815 133.211 30.0342 133.328 42.2902V114.204H139.742C147.097 114.135 154.437 113.543 161.707 112.432V152.672C154.517 151.789 147.279 151.349 140.035 151.355H133.402V162.41C133.19 171.509 133.783 180.609 135.174 189.603H89.5446C90.8 180.447 91.3922 171.212 91.3164 161.971V151.135H28.7451C14.3652 151.135 8.24425 151.355 0 152.013V112.432ZM91.5361 89.0028C91.5361 79.0453 91.9754 66.8912 92.8686 57.1533C88.4756 63.3475 85.1223 67.7698 79.1624 75.2819L46.8736 114.643H91.5361V89.0028Z" fill="#3EE5B2"/>
<path d="M0 112.432C9.94289 101.376 9.94289 101.376 21.2183 88.1095L69.2049 31.952C79.8213 19.7833 84.024 14.2627 89.7057 5.59381H135.1C133.802 17.7815 133.211 30.0342 133.328 42.2902V114.204H139.742C147.097 114.135 154.437 113.543 161.707 112.432V152.672C154.517 151.789 147.279 151.349 140.035 151.355H133.402V162.41C133.19 171.509 133.783 180.609 135.174 189.603H89.5446C90.8 180.447 91.3922 171.212 91.3164 161.971V151.135H28.7451C14.3652 151.135 8.24425 151.355 0 152.013V112.432ZM91.5361 89.0028C91.5361 79.0453 91.9754 66.8912 92.8686 57.1533C88.4756 63.3475 85.1223 67.7698 79.1624 75.2819L46.8736 114.643H91.5361V89.0028Z" fill="url(#paint2_linear)"/>
<path d="M4.96408 111.612C14.9216 100.556 14.9216 100.556 26.1971 87.2895L74.1836 31.1173C81.673 22.8615 88.5262 14.0503 94.6844 4.75912H140.079C138.781 16.9517 138.189 29.2092 138.307 41.4702V113.34H144.721C152.075 113.264 159.415 112.672 166.686 111.568V151.808C159.497 150.913 152.259 150.468 145.014 150.476H138.38V161.532C138.167 170.63 138.76 179.73 140.152 188.725H94.5233C95.7732 179.607 96.3653 170.412 96.2952 161.21V150.373H33.7091C19.3439 150.373 13.2083 150.593 4.96408 151.267V111.612ZM96.5148 88.1828C96.5148 78.2252 96.9541 66.0712 97.8327 56.3479C93.4397 62.5275 90.101 66.9498 84.1265 74.4765L51.9109 113.838H96.5148V88.1828Z" fill="#3EE5B2"/>
<path d="M342.869 112.432C352.812 101.376 352.812 101.376 364.087 88.1095L412.074 31.952C422.69 19.7833 426.893 14.2627 432.575 5.59381H477.969C476.671 17.7815 476.08 30.0342 476.197 42.2902V114.204H482.611C489.966 114.135 497.306 113.543 504.576 112.432V152.672C497.386 151.789 490.148 151.349 482.904 151.355H476.271V162.41C476.059 171.509 476.652 180.609 478.042 189.603H432.414C433.669 180.447 434.261 171.212 434.185 161.971V151.135H371.614C357.234 151.135 351.113 151.355 342.869 152.013V112.432ZM434.405 89.0028C434.405 79.0453 434.844 66.8912 435.738 57.1533C431.345 63.3475 427.991 67.7698 422.031 75.2819L389.743 114.643H434.405V89.0028Z" fill="#3EE5B2"/>
<path d="M342.869 112.432C352.812 101.376 352.812 101.376 364.087 88.1095L412.074 31.952C422.69 19.7833 426.893 14.2627 432.575 5.59381H477.969C476.671 17.7815 476.08 30.0342 476.197 42.2902V114.204H482.611C489.966 114.135 497.306 113.543 504.576 112.432V152.672C497.386 151.789 490.148 151.349 482.904 151.355H476.271V162.41C476.059 171.509 476.652 180.609 478.042 189.603H432.414C433.669 180.447 434.261 171.212 434.185 161.971V151.135H371.614C357.234 151.135 351.113 151.355 342.869 152.013V112.432ZM434.405 89.0028C434.405 79.0453 434.844 66.8912 435.738 57.1533C431.345 63.3475 427.991 67.7698 422.031 75.2819L389.743 114.643H434.405V89.0028Z" fill="url(#paint3_linear)"/>
<path d="M347.833 111.612C357.791 100.556 357.791 100.556 369.066 87.2895L417.053 31.1173C424.542 22.8615 431.395 14.0503 437.553 4.75912H482.948C481.65 16.9517 481.058 29.2092 481.176 41.4702V113.34H487.59C494.944 113.264 502.284 112.672 509.555 111.568V151.808C502.366 150.913 495.128 150.468 487.883 150.476H481.249V161.532C481.036 170.63 481.629 179.73 483.021 188.725H437.392C438.642 179.607 439.234 170.412 439.164 161.21V150.373H376.578C362.213 150.373 356.077 150.593 347.833 151.267V111.612ZM439.384 88.1828C439.384 78.2252 439.823 66.0712 440.702 56.3479C436.309 62.5275 432.97 66.9498 426.995 74.4765L394.78 113.838H439.384V88.1828Z" fill="#3EE5B2"/>
<path d="M203.295 172.192C196.245 165.247 190.754 156.881 187.187 147.65C181.346 131.411 178.412 114.27 178.518 97.0128C178.518 73.8029 184.053 49.6998 192.459 35.7593C205.945 13.2084 228.935 0.834686 256.802 0.834686C278.24 0.834686 297.042 8.1564 310.529 21.3355C317.583 28.2766 323.075 36.6439 326.636 45.8779C332.508 62.2001 335.443 79.4329 335.305 96.7785C335.305 119.988 329.785 144.326 321.379 158.281C308.112 180.392 284.888 192.766 256.817 192.766C235.144 192.752 216.796 185.679 203.295 172.192ZM223.913 95.3141C223.913 134.851 235.188 155.235 257.08 155.235C278.752 155.235 289.808 135.335 289.808 95.9877C289.808 58.1637 278.298 38.2633 256.86 38.2633C236.023 38.2047 223.913 59.2034 223.913 95.3141Z" fill="#3EE5B2"/>
<path d="M292.883 18.3629C294.531 19.5636 295.787 21.2245 296.493 23.137C297.199 25.0494 297.324 27.1279 296.852 29.1111C299.614 29.3749 302.297 30.1837 304.745 31.4907C307.193 32.7977 309.358 34.577 311.114 36.7257C314.262 40.8788 316.166 45.8399 316.606 51.0323C317.028 56.1944 316.915 61.3863 316.269 66.5251C316.196 68.301 315.83 70.0526 315.185 71.7089C314.428 73.1456 313.361 74.3964 312.062 75.3713C310.763 76.3462 309.264 77.0208 307.673 77.3466C304.493 77.9816 301.235 78.1346 298.008 77.8005L290.321 77.3905C290.067 77.3963 289.816 77.341 289.589 77.2294C289.435 77.0985 289.31 76.9372 289.222 76.7558C289.134 76.5744 289.084 76.3767 289.076 76.1751C288.549 73.0268 287.743 71.6503 287.172 68.502C285.746 61.8549 282.953 55.5768 278.972 50.0659C278.267 49.2421 277.765 48.2639 277.508 47.2104C277.419 45.754 277.744 44.3023 278.445 43.0224C279.486 40.5044 280.347 37.9158 281.022 35.276C281.643 32.117 282.45 28.9974 283.438 25.9335C284.445 22.8368 286.522 20.1998 289.296 18.4947" fill="url(#paint4_linear)"/>
<path d="M289.296 110.338C289.296 110.338 317.44 112.828 330.297 95.6948C335.422 88.9003 324.001 56.8897 324.001 56.8897L311.012 80.1435L290.511 84.8001L289.296 110.338Z" fill="url(#paint5_linear)"/>
<path d="M223.254 60.2577C222.495 60.5345 221.761 60.8724 221.057 61.2681C220.396 61.6025 219.817 62.0773 219.359 62.6592C219.135 62.9542 218.991 63.3016 218.939 63.6681C218.888 64.0347 218.932 64.4083 219.066 64.7533C219.363 65.2117 219.792 65.5701 220.296 65.7816C220.8 65.9931 221.356 66.0481 221.892 65.9394C223.693 65.7637 225.362 64.8704 227.164 64.5629C228.965 64.2554 230.663 63.0107 229.389 61.0924C228.115 59.1741 225.055 59.5841 223.254 60.2577Z" fill="#F7AF87"/>
<path d="M228.994 64.5629C226.358 63.8747 223.605 65.0315 221.233 66.364C220.673 66.6366 220.175 67.0202 219.769 67.4916C219.524 67.686 219.349 67.9534 219.267 68.2547C219.186 68.5559 219.203 68.8753 219.315 69.1663C219.428 69.4573 219.631 69.7047 219.894 69.8723C220.158 70.0399 220.468 70.119 220.779 70.0981C221.318 70.1521 221.862 70.1174 222.39 69.9956L226.036 69.366C226.884 69.2667 227.71 69.0293 228.481 68.6631C230.136 67.6966 231.542 65.1926 228.994 64.5629Z" fill="#F7AF87"/>
<path d="M223.913 69.4099C223.157 69.6978 222.422 70.0404 221.716 70.4349C221.048 70.7904 220.468 71.2907 220.018 71.8992C219.798 72.1932 219.656 72.5379 219.604 72.9014C219.553 73.2648 219.595 73.6354 219.725 73.9786C220.022 74.4371 220.451 74.7954 220.955 75.0069C221.459 75.2185 222.015 75.2735 222.551 75.1647C224.352 74.989 226.021 74.0958 227.822 73.7883C229.624 73.4807 231.322 72.2507 230.048 70.3178C228.774 68.3848 225.685 68.7363 223.913 69.4099Z" fill="#F7AF87"/>
<path d="M229.594 73.1C226.885 72.8804 224.381 74.5644 222.273 76.2337C221.76 76.6087 221.327 77.0815 220.999 77.6248C220.798 77.8606 220.676 78.1541 220.653 78.4631C220.629 78.7722 220.704 79.0807 220.867 79.3444C221.029 79.6082 221.272 79.8134 221.559 79.9307C221.845 80.048 222.162 80.0712 222.463 79.9971C222.998 79.9572 223.523 79.8285 224.015 79.6163L227.486 78.3424C228.309 78.0954 229.086 77.7144 229.785 77.2148C231.234 76.0141 232.216 73.349 229.594 73.1Z" fill="#F7AF87"/>
<path d="M307.205 31.7616C302.935 29.7268 298.24 28.7475 293.513 28.9061C292.714 28.8676 291.916 28.9973 291.17 29.2869C290.805 29.4461 290.494 29.7082 290.276 30.041C290.058 30.3739 289.941 30.7631 289.94 31.1612C290.082 31.8559 290.479 32.4723 291.053 32.8892C292.782 34.4617 294.724 35.7828 296.822 36.8136C297.456 37.0636 298.033 37.4369 298.521 37.9119C298.76 38.1522 298.913 38.464 298.958 38.7998C299.003 39.1356 298.937 39.4769 298.77 39.7716C298.287 40.4452 297.174 40.4744 296.808 41.2359C296.324 42.1877 297.54 43.1249 298.594 43.3006C299.715 43.4925 300.866 43.3864 301.933 42.9931C302.68 42.6088 303.497 42.3797 304.334 42.3195C305.162 42.497 305.941 42.8517 306.619 43.3592C308.932 44.6771 316.122 44.721 315.668 40.7087C315.244 36.9893 310.163 33.2992 307.205 31.7616Z" fill="#F7AF87"/>
<path d="M271.826 64.0504C271.826 64.0504 304.203 77.3905 307.907 76.7023C311.612 76.014 305.623 44.0621 305.623 44.0621L316.664 39.0101C316.664 39.0101 341.558 88.3584 321.174 95.5337C308.569 99.7517 294.912 99.6073 282.399 95.1237L271.826 64.0504Z" fill="#3EE5B2"/>
<path d="M289.047 45.5264C288.933 48.393 288.256 51.2092 287.055 53.8146C285.88 55.756 284.269 57.3976 282.35 58.6098C280.432 59.822 278.257 60.5716 275.999 60.7995C274.354 60.9057 272.719 61.1357 271.108 61.4878C270.362 61.6407 269.665 61.9762 269.08 62.4643C268.495 62.9524 268.04 63.5778 267.755 64.2847C266.452 67.4477 265.105 70.6546 260.902 69.5856C260.507 69.498 260.124 69.3654 259.76 69.1902C258.439 68.57 257.25 67.6997 256.26 66.6276C255.027 65.3797 253.955 63.9826 253.068 62.4689C252.609 61.7685 252.3 60.9808 252.16 60.1552C252.074 59.1412 252.193 58.1201 252.511 57.1533C253.976 51.296 254.21 44.6625 256.289 38.9515C258.418 33.1625 262.485 28.2886 267.799 25.1574C273.056 22.0969 280.363 22.053 284.829 26.2264C287.273 28.6727 288.821 31.8712 289.222 35.3053C289.574 38.7071 289.515 42.1388 289.047 45.5264Z" fill="#F7AF87"/>
<path d="M253.434 38.2047C253.712 35.4518 253.697 32.6549 254.239 29.9458C254.649 27.1781 256.036 24.6484 258.149 22.8145C258.679 22.3931 259.272 22.0571 259.906 21.8187C260.477 21.6137 261.078 21.4966 261.663 21.3355C263.384 20.7217 265.026 19.9057 266.554 18.9047C268.872 17.5159 271.406 16.5259 274.052 15.976C275.84 15.7026 277.647 15.5752 279.455 15.5953C282.774 15.5367 286.108 15.5074 289.457 15.5074C290.242 15.4484 291.031 15.579 291.756 15.8881C292.552 16.3795 293.132 17.1537 293.381 18.0554C294.018 20.0759 294.018 22.2436 293.381 24.2642C292.733 26.2631 291.874 28.1874 290.819 30.0044C290.304 31.1495 289.579 32.1877 288.681 33.0649C287.904 31.7177 287.216 30.3266 286.513 28.9208C284.273 31.2491 280.744 31.8495 277.522 31.6005C274.301 31.3516 271.138 30.5169 267.916 30.473C267.15 30.3918 266.375 30.4625 265.637 30.6811C264.898 30.8997 264.21 31.2619 263.611 31.747C262.889 32.5879 262.387 33.5938 262.147 34.6757C261.469 37.0861 260.917 39.5299 260.492 41.9974C260.111 41.2798 258.574 39.4055 257.768 39.4348C257.536 39.4572 257.311 39.5273 257.107 39.6407C256.903 39.7541 256.724 39.9083 256.582 40.0937C255.25 41.5581 255.909 46.9322 257.139 48.4844C257.385 48.7196 257.571 49.011 257.68 49.3338C257.705 49.5495 257.687 49.7681 257.627 49.9767C257.566 50.1853 257.465 50.3799 257.329 50.5491C256.991 50.9486 256.561 51.2608 256.077 51.4596C255.593 51.6584 255.068 51.7379 254.547 51.6913C253.258 51.6913 253.009 49.2312 252.877 48.3233C252.336 44.9407 253.112 41.5288 253.434 38.2047Z" fill="#606060"/>
<path d="M258.574 44.3842C258.393 44.0059 258.312 43.5874 258.339 43.1688C258.37 42.7494 258.325 42.3279 258.208 41.9241C258.074 41.5539 257.808 41.2462 257.461 41.0602C257.36 41.0313 257.254 41.0313 257.153 41.0602C257.068 41.0962 256.993 41.1523 256.934 41.2237C256.876 41.2951 256.835 41.3797 256.816 41.4702C256.304 43.0752 256.361 44.8078 256.978 46.3757C257.059 46.6569 257.202 46.9161 257.398 47.1341C257.593 47.3521 257.835 47.5234 258.105 47.6351C258.344 47.6829 258.591 47.6704 258.823 47.5988C259.056 47.5273 259.267 47.3988 259.438 47.2251C259.668 46.9813 259.826 46.678 259.893 46.3494C259.96 46.0209 259.934 45.68 259.818 45.3653C259.569 44.7796 258.881 44.9114 258.574 44.3842Z" fill="url(#paint6_linear)"/>
<path d="M271.108 61.4585C270.362 61.6115 269.665 61.9469 269.08 62.435C268.495 62.9231 268.04 63.5485 267.755 64.2554C266.452 67.4184 265.105 70.6253 260.902 69.5563C260.507 69.4688 260.124 69.3361 259.76 69.1609C259.404 68.8569 259.115 68.4831 258.91 68.0627C258.723 67.5685 258.636 67.0415 258.656 66.5132C258.676 65.9849 258.803 65.466 259.028 64.9876C259.535 63.757 260.39 62.7005 261.487 61.9465C262.584 61.1926 263.876 60.7738 265.207 60.741C266.326 60.7926 267.438 60.9396 268.531 61.1803C269.205 61.2681 269.996 61.1803 270.611 61.2535C270.789 61.2856 270.959 61.3555 271.108 61.4585Z" fill="url(#paint7_linear)"/>
<defs>
<linearGradient id="paint0_linear" x1="9541.54" y1="15796" x2="3942.76" y2="17345.3" gradientUnits="userSpaceOnUse">
<stop stop-color="#617487" stop-opacity="0"/>
<stop offset="0.99" stop-color="#617487"/>
</linearGradient>
<linearGradient id="paint1_linear" x1="46550.6" y1="32097.8" x2="-2699.72" y2="30466.4" gradientUnits="userSpaceOnUse">
<stop stop-color="#6E89A4" stop-opacity="0"/>
<stop offset="0.99" stop-color="#617487"/>
</linearGradient>
<linearGradient id="paint2_linear" x1="-140.709" y1="-37.7068" x2="339.493" y2="231" gradientUnits="userSpaceOnUse">
<stop stop-color="#617487" stop-opacity="0"/>
<stop offset="0.99" stop-color="#617487"/>
</linearGradient>
<linearGradient id="paint3_linear" x1="202.16" y1="-37.7068" x2="682.362" y2="231" gradientUnits="userSpaceOnUse">
<stop stop-color="#617487" stop-opacity="0"/>
<stop offset="0.99" stop-color="#617487"/>
</linearGradient>
<linearGradient id="paint4_linear" x1="10481.7" y1="6300.03" x2="5401.17" y2="9891.42" gradientUnits="userSpaceOnUse">
<stop stop-color="#617487" stop-opacity="0"/>
<stop offset="0.99" stop-color="#617487"/>
</linearGradient>
<linearGradient id="paint5_linear" x1="10719.3" y1="9718.02" x2="9845.4" y2="6461.46" gradientUnits="userSpaceOnUse">
<stop stop-color="#617487" stop-opacity="0"/>
<stop offset="0.99" stop-color="#617487"/>
</linearGradient>
<linearGradient id="paint6_linear" x1="971.357" y1="891.434" x2="981.08" y2="889.67" gradientUnits="userSpaceOnUse">
<stop stop-opacity="0"/>
<stop offset="0.99"/>
</linearGradient>
<linearGradient id="paint7_linear" x1="2840.82" y1="1309.64" x2="2980.5" y2="1467.61" gradientUnits="userSpaceOnUse">
<stop stop-opacity="0"/>
<stop offset="0.99"/>
</linearGradient>
</defs>
</svg>
