<svg width="276" height="200" viewBox="0 0 276 200" fill="none" xmlns="http://www.w3.org/2000/svg">
<g clip-path="url(#clip0)">
<path d="M256.427 179.985H222.755V199.411H256.427V179.985Z" fill="#3EE5B2"/>
<path d="M187.283 194.917C186.981 195.945 186.841 197.144 187.469 198.013C187.816 198.448 188.272 198.782 188.792 198.982C190.128 199.505 191.566 199.716 192.996 199.598C193.27 199.611 193.543 199.567 193.799 199.469C194.055 199.37 194.288 199.22 194.483 199.028C197.801 196.281 200.045 192.453 200.821 188.216C200.883 187.997 200.872 187.764 200.787 187.553C200.678 187.389 200.525 187.259 200.345 187.178C199.607 186.716 198.812 186.352 197.979 186.097C193.421 184.921 188.413 191.075 187.283 194.917Z" fill="#617487"/>
<path d="M235.085 180.51C235.697 181.222 236.452 181.796 237.301 182.198C237.726 182.395 238.191 182.493 238.66 182.485C239.129 182.477 239.59 182.363 240.009 182.152C241.263 181.438 241.618 179.779 241.518 178.34C241.333 175.677 240.061 173.278 238.599 171.103C238.137 170.415 237.113 168.367 236.215 168.342C235.788 168.329 234.192 169.877 233.759 170.171C232.174 171.247 231.077 172.017 231.406 174.083C231.774 176.386 233.535 178.852 235.085 180.51Z" fill="#617487"/>
<path d="M221.194 70.3941C214.449 69.871 208.006 70.0649 201.249 69.7181C200.681 69.6889 200.955 76.1889 200.367 79.7185C200.064 81.5326 189.893 187.804 191.156 188.019C194.398 188.697 197.677 189.183 200.976 189.474C202.314 189.591 214.789 120.348 214.191 114.72C215.824 117.116 221.577 128.176 224.485 140.898C228.323 157.684 229.453 176.67 231.839 175.605C233.375 173.497 235.459 171.848 237.864 170.84C241.807 169.373 235.417 88.6278 228.666 84.9156C228.583 82.5523 228.496 80.131 227.606 77.9404C226.349 74.8505 223.871 72.3834 221.194 70.3941Z" fill="#223B55"/>
<path d="M275.78 200H89.9119V199.294H275.908L275.78 200Z" fill="#223B55"/>
<path d="M152.498 95.3065H0V125.415H152.498V95.3065Z" fill="#EEF4F9"/>
<path d="M152.498 47.7316H0V77.8402H152.498V47.7316Z" fill="#EEF4F9"/>
<path d="M152.498 0H0V30.1086H152.498V0Z" fill="#EEF4F9"/>
<path d="M3.25098 26.8575H149.247V3.25104H3.25098V26.8575Z" fill="white"/>
<path d="M3.25098 74.6941H149.247V51.0876H3.25098V74.6941Z" fill="white"/>
<path d="M3.25098 122.164H149.247V98.5576H3.25098V122.164Z" fill="white"/>
<path d="M16.0318 23.8523C20.9988 23.8523 25.0253 19.8258 25.0253 14.8588C25.0253 9.89184 20.9988 5.86533 16.0318 5.86533C11.0648 5.86533 7.03833 9.89184 7.03833 14.8588C7.03833 19.8258 11.0648 23.8523 16.0318 23.8523Z" fill="#3EE5B2"/>
<path d="M126.3 11.3396H37.5381V13.2947H126.3V11.3396Z" fill="#3EE5B2"/>
<path d="M126.3 16.4229H37.5381V18.378H126.3V16.4229Z" fill="#3EE5B2"/>
<path d="M16.0318 71.9749C20.9988 71.9749 25.0253 67.9483 25.0253 62.9814C25.0253 58.0144 20.9988 53.9879 16.0318 53.9879C11.0648 53.9879 7.03833 58.0144 7.03833 62.9814C7.03833 67.9483 11.0648 71.9749 16.0318 71.9749Z" fill="#EEF4F9"/>
<path d="M126.3 59.4622H37.5381V61.4173H126.3V59.4622Z" fill="#EEF4F9"/>
<path d="M126.3 64.5455H37.5381V66.5006H126.3V64.5455Z" fill="#EEF4F9"/>
<path d="M16.0318 119.55C20.9988 119.55 25.0253 115.523 25.0253 110.556C25.0253 105.589 20.9988 101.563 16.0318 101.563C11.0648 101.563 7.03833 105.589 7.03833 110.556C7.03833 115.523 11.0648 119.55 16.0318 119.55Z" fill="#EEF4F9"/>
<path d="M126.3 107.037H37.5381V108.992H126.3V107.037Z" fill="#EEF4F9"/>
<path d="M126.3 112.12H37.5381V114.076H126.3V112.12Z" fill="#EEF4F9"/>
<path d="M219.532 18.8483C216.031 12.9332 209.105 12.6575 209.105 12.6575C209.105 12.6575 202.356 11.7945 198.027 20.8033C193.992 29.2003 188.422 37.3077 197.13 39.2734L198.703 34.3778L199.677 39.6379C200.917 39.727 202.161 39.7483 203.403 39.7015C212.729 39.4005 221.61 39.7896 221.324 36.4432C220.944 31.9947 222.9 24.5399 219.532 18.8483Z" fill="#223B55"/>
<path d="M206.617 39.0018C206.634 39.6676 206.629 40.3698 206.298 40.9478C205.642 42.0937 204.041 42.2652 203.078 43.1684C202.065 44.1182 201.951 45.6596 201.902 47.0473C201.852 48.4981 201.809 49.9964 202.339 51.3481C202.663 52.0926 203.073 52.7969 203.56 53.4466C204.148 54.2942 204.742 55.138 205.341 55.978C205.66 56.4511 206.017 56.8984 206.407 57.3158C207.479 58.4083 208.95 59.0131 210.419 59.4446C211.368 59.7234 212.393 59.9405 213.335 59.6376C213.958 59.3945 214.532 59.0414 215.03 58.5951C215.758 58.0731 216.405 57.4463 216.949 56.735C217.74 55.588 217.959 54.1521 218.123 52.7686C218.607 48.6775 218.796 44.5567 218.687 40.4384C218.707 39.9896 218.626 39.5421 218.452 39.1283C217.964 38.176 216.658 37.9727 215.969 37.1536C215.381 36.4533 215.357 35.4538 215.362 34.5391L215.375 32.2104C215.395 32.0142 215.356 31.8164 215.262 31.6431C215.176 31.5498 215.073 31.4742 214.959 31.4207C214.844 31.3672 214.72 31.3369 214.594 31.3315C213.146 31.0913 211.679 30.9931 210.213 31.0384C209.024 31.0747 206.743 30.9752 205.715 31.6373C204.782 32.2384 205.95 33.8984 206.166 34.8308C206.457 36.2024 206.608 37.5998 206.617 39.0018Z" fill="#FFB8B8"/>
<path d="M209.346 35.003C214.544 35.003 218.758 30.789 218.758 25.5908C218.758 20.3925 214.544 16.1786 209.346 16.1786C204.148 16.1786 199.934 20.3925 199.934 25.5908C199.934 30.789 204.148 35.003 209.346 35.003Z" fill="#FFB8B8"/>
<path d="M207.215 45.9462C202.357 30.5518 199.797 52.1746 196.735 58.0786C196.763 62.1492 196.873 73.4079 197.825 77.6753C201.524 94.2528 219.838 92.9514 225.346 78.9704C228.279 71.5229 221.771 53.0654 221.992 44.4532C213.927 36.281 213.429 62.2073 207.215 45.9462Z" fill="#3EE5B2"/>
<path d="M201.882 40.6658C191.356 45.7818 196.378 59.527 192.562 68.5225C189.515 80.864 181.765 84.7449 199.484 85.0322C203.302 73.7514 199.573 61.4978 204.779 50.0113C205.137 45.5124 206.68 43.8206 206.543 40.0108C205.523 38.4296 202.879 40.176 201.882 40.6658Z" fill="#617487"/>
<path d="M217.984 18.2782L211.142 14.6938L201.692 16.1602L199.738 24.795L204.604 24.6075L205.964 21.4353V24.5551L208.209 24.469L209.513 19.4185L210.327 24.795L218.31 24.6318L217.984 18.2782Z" fill="#223B55"/>
<path d="M213.752 44.9986C219.17 44.3663 213.888 37.86 218.188 37.9705C231.064 35.8048 234.917 43.78 230.02 54.9114C225.531 63.8272 241.41 76.3516 232.539 81.3405C229.391 82.4961 224.883 86.1313 221.806 84.5486C216.866 72.1327 216.688 57.947 213.752 44.9986Z" fill="#617487"/>
<path d="M228.831 80.443C226.945 81.3451 225.452 82.7797 224.19 84.4464C223.922 84.7992 224.281 85.4573 225.082 85.4465C225.827 85.4365 226.273 84.4808 227.018 84.4708C227.246 86.463 227.658 88.4297 228.25 90.3455C229.737 89.0397 230.628 87.2015 231.48 85.4153L233.164 81.8845C233.782 80.5882 234.4 79.2914 234.958 77.9678C235.109 77.6583 235.203 77.3237 235.234 76.9805C235.307 74.7027 233.061 74.6889 232.093 76.1145C231.033 77.6736 230.704 79.5474 228.831 80.443Z" fill="#FFB8B8"/>
<path d="M229.218 41.2826C230.658 42.7787 232.108 44.2875 233.226 46.0374C234.344 47.7873 240.125 63.5255 240.36 63.8592C241.194 65.091 240.219 68.2755 240.17 68.4578C240.074 69.0297 238.867 74.7399 238.565 76.0008C238.354 76.8832 238.356 77.802 238.218 78.6987C238.08 79.5955 237.768 80.5177 237.077 81.106C236.989 81.1905 236.881 81.251 236.763 81.2818C236.38 81.3566 236.119 80.9134 235.985 80.5468C235.568 79.4053 235.146 78.2417 234.41 77.2747C233.673 76.3076 232.557 75.5503 231.342 75.554C231.242 75.3135 231.2 75.0526 231.221 74.7928C231.241 74.533 231.324 74.2819 231.461 74.0604C231.705 73.6011 232.062 73.2118 232.33 72.7667C232.671 72.1602 232.902 71.4988 233.014 70.8124C233.614 67.6592 233.01 64.3955 231.321 61.6661C230.928 61.0189 230.453 60.4253 229.908 59.9001C229.315 59.344 228.62 58.8969 228.072 58.2958C227.228 57.2958 226.717 56.0565 226.612 54.7516C226.511 53.4554 226.545 52.1522 226.715 50.8632C226.961 48.3051 227.278 45.7433 227.643 43.1995C227.671 42.8681 227.757 42.5442 227.897 42.2424C228.184 41.7073 228.669 41.5408 229.218 41.2826Z" fill="#617487"/>
<path d="M197.794 76.6255C196.825 75.2 194.579 75.2138 194.653 77.4916C194.684 77.8348 194.777 78.1694 194.929 78.4789C195.486 79.8025 196.105 81.0993 196.723 82.3956L198.407 85.9264C199.259 87.7126 200.149 89.5508 201.636 90.8566C202.228 88.9407 202.641 86.974 202.868 84.9818C203.614 84.9919 204.059 85.9476 204.804 85.9576C205.605 85.9684 205.964 85.3103 205.697 84.9575C204.434 83.2908 202.942 81.8562 201.055 80.9541C199.183 80.0585 198.853 78.1847 197.794 76.6255Z" fill="#FFB8B8"/>
<path d="M201.99 42.7534C202.129 43.0553 202.215 43.3792 202.243 43.7105C202.609 46.2544 202.925 48.8162 203.172 51.3742C203.341 52.6633 203.376 53.9664 203.275 55.2626C203.17 56.5675 202.659 57.8068 201.814 58.8068C201.266 59.4079 200.572 59.8551 199.978 60.4112C199.433 60.9363 198.958 61.53 198.566 62.1772C196.876 64.9066 196.272 68.1703 196.872 71.3235C196.984 72.0098 197.216 72.6713 197.556 73.2778C197.825 73.7229 198.182 74.1122 198.425 74.5715C198.563 74.793 198.645 75.0441 198.666 75.3038C198.687 75.5636 198.645 75.8246 198.544 76.065C197.329 76.0613 196.213 76.8187 195.477 77.7857C194.741 78.7528 194.319 79.9164 193.901 81.0579C193.767 81.4244 193.506 81.8677 193.123 81.7929C193.005 81.7621 192.897 81.7016 192.809 81.6171C192.118 81.0287 191.807 80.1066 191.668 79.2098C191.53 78.313 191.533 77.3943 191.321 76.5119C191.019 75.2509 189.813 69.5408 189.716 68.9689C189.667 68.7866 188.692 65.6021 189.527 64.3702C189.761 64.0366 195.543 48.2984 196.661 46.5485C197.778 44.7986 199.228 43.2898 200.668 41.7937C201.218 42.0518 201.703 42.2184 201.99 42.7534Z" fill="#617487"/>
</g>
<defs>
<clipPath id="clip0">
<rect width="275.908" height="200" fill="white"/>
</clipPath>
</defs>
</svg>
