<svg width="447" height="282" viewBox="0 0 447 282" fill="none" xmlns="http://www.w3.org/2000/svg">
<g clip-path="url(#clip0)">
<path d="M444.531 134.002L446.89 131.642C447.037 131.496 447.037 131.258 446.89 131.112C446.743 130.965 446.506 130.965 446.359 131.112L444 133.471L441.641 131.112C441.494 130.965 441.257 130.965 441.11 131.112C440.963 131.258 440.963 131.496 441.11 131.642L443.469 134.002L441.11 136.361C440.963 136.508 440.963 136.745 441.11 136.892C441.183 136.965 441.279 137.002 441.375 137.002C441.471 137.002 441.567 136.965 441.641 136.892L444 134.532L446.359 136.892C446.433 136.965 446.529 137.002 446.625 137.002C446.721 137.002 446.817 136.965 446.89 136.892C447.037 136.745 447.037 136.508 446.89 136.361L444.531 134.002Z" fill="#FF8800"/>
</g>
<g clip-path="url(#clip1)">
<path d="M205.531 67.0019L207.89 64.6425C208.037 64.496 208.037 64.2584 207.89 64.1119C207.743 63.9653 207.506 63.9653 207.359 64.1119L205 66.4713L202.641 64.1119C202.494 63.9653 202.257 63.9653 202.11 64.1119C201.963 64.2584 201.963 64.496 202.11 64.6425L204.469 67.0019L202.11 69.3613C201.963 69.5078 201.963 69.7454 202.11 69.8919C202.183 69.9651 202.279 70.0017 202.375 70.0017C202.471 70.0017 202.567 69.9651 202.641 69.8918L205 67.5323L207.359 69.8918C207.433 69.9651 207.529 70.0017 207.625 70.0017C207.721 70.0017 207.817 69.9651 207.89 69.8918C208.037 69.7453 208.037 69.5077 207.89 69.3612L205.531 67.0019Z" fill="#FF8800"/>
</g>
<g clip-path="url(#clip2)">
<path d="M100.531 279.002L102.89 276.642C103.037 276.496 103.037 276.258 102.89 276.112C102.743 275.965 102.506 275.965 102.359 276.112L100 278.471L97.6405 276.112C97.4939 275.965 97.2565 275.965 97.1099 276.112C96.9634 276.258 96.9634 276.496 97.1099 276.642L99.4695 279.002L97.1099 281.361C96.9634 281.508 96.9634 281.745 97.1099 281.892C97.1832 281.965 97.2793 282.002 97.3752 282.002C97.4712 282.002 97.5672 281.965 97.6405 281.892L100 279.532L102.359 281.892C102.433 281.965 102.529 282.002 102.625 282.002C102.721 282.002 102.817 281.965 102.89 281.892C103.037 281.745 103.037 281.508 102.89 281.361L100.531 279.002Z" fill="#FF8800"/>
</g>
<path d="M0.447764 2.71502C0.450578 2.71961 0.453985 2.72376 0.457539 2.72731L2.8153 5.2326C2.83233 5.25067 2.85544 5.26103 2.88106 5.26178H2.88284C2.90698 5.26178 2.92979 5.25259 2.94727 5.23571L5.52187 2.74612C5.52306 2.74524 5.53313 2.73605 5.5392 2.73013C5.54424 2.72539 5.54839 2.7205 5.54927 2.71813C5.83988 2.41715 6 2.02167 6 1.60472C6 0.719858 5.28014 0 4.39513 0C3.81599 0 3.28454 0.310161 3 0.811691C2.71561 0.310013 2.18416 0 1.60487 0C0.719858 0 1.02864e-07 0.719858 1.02864e-07 1.60472C-0.000148016 2.02153 0.159672 2.41671 0.447764 2.71502ZM1.60472 0.185297C2.17868 0.185297 2.6928 0.527748 2.91439 1.05787C2.9289 1.09238 2.96238 1.11459 2.99985 1.11459C3.03718 1.11459 3.0708 1.09238 3.08532 1.05772C3.30705 0.527748 3.82117 0.185297 4.39513 0.185297C5.17794 0.185297 5.81485 0.822208 5.81485 1.60487C5.81485 1.97828 5.66999 2.33124 5.40693 2.59904C5.40441 2.60171 5.40219 2.60423 5.40027 2.60689L2.8858 5.03723L0.60477 2.6143C0.601363 2.60882 0.597364 2.60363 0.592624 2.59889C0.329713 2.33154 0.185001 1.97857 0.185001 1.60487C0.185001 0.82206 0.821912 0.185297 1.60472 0.185297Z" fill="#FD3A9C"/>
<path d="M46.4478 169.715C46.4506 169.72 46.454 169.724 46.4575 169.727L48.8153 172.233C48.8323 172.251 48.8554 172.261 48.8811 172.262H48.8828C48.907 172.262 48.9298 172.253 48.9473 172.236L51.5219 169.746C51.5231 169.745 51.5331 169.736 51.5392 169.73C51.5442 169.725 51.5484 169.72 51.5493 169.718C51.8399 169.417 52 169.022 52 168.605C52 167.72 51.2801 167 50.3951 167C49.816 167 49.2845 167.31 49 167.812C48.7156 167.31 48.1842 167 47.6049 167C46.7199 167 46 167.72 46 168.605C45.9999 169.022 46.1597 169.417 46.4478 169.715ZM47.6047 167.185C48.1787 167.185 48.6928 167.528 48.9144 168.058C48.9289 168.092 48.9624 168.115 48.9999 168.115C49.0372 168.115 49.0708 168.092 49.0853 168.058C49.3071 167.528 49.8212 167.185 50.3951 167.185C51.1779 167.185 51.8149 167.822 51.8149 168.605C51.8149 168.978 51.67 169.331 51.4069 169.599C51.4044 169.602 51.4022 169.604 51.4003 169.607L48.8858 172.037L46.6048 169.614C46.6014 169.609 46.5974 169.604 46.5926 169.599C46.3297 169.332 46.185 168.979 46.185 168.605C46.185 167.822 46.8219 167.185 47.6047 167.185Z" fill="#FD3A9C"/>
<path d="M277.448 157.715C277.451 157.72 277.454 157.724 277.458 157.727L279.815 160.233C279.832 160.251 279.855 160.261 279.881 160.262H279.883C279.907 160.262 279.93 160.253 279.947 160.236L282.522 157.746C282.523 157.745 282.533 157.736 282.539 157.73C282.544 157.725 282.548 157.72 282.549 157.718C282.84 157.417 283 157.022 283 156.605C283 155.72 282.28 155 281.395 155C280.816 155 280.285 155.31 280 155.812C279.716 155.31 279.184 155 278.605 155C277.72 155 277 155.72 277 156.605C277 157.022 277.16 157.417 277.448 157.715ZM278.605 155.185C279.179 155.185 279.693 155.528 279.914 156.058C279.929 156.092 279.962 156.115 280 156.115C280.037 156.115 280.071 156.092 280.085 156.058C280.307 155.528 280.821 155.185 281.395 155.185C282.178 155.185 282.815 155.822 282.815 156.605C282.815 156.978 282.67 157.331 282.407 157.599C282.404 157.602 282.402 157.604 282.4 157.607L279.886 160.037L277.605 157.614C277.601 157.609 277.597 157.604 277.593 157.599C277.33 157.332 277.185 156.979 277.185 156.605C277.185 155.822 277.822 155.185 278.605 155.185Z" fill="#FD3A9C"/>
<path d="M69 53L69.6735 55.0729H71.8532L70.0898 56.3541L70.7634 58.4271L69 57.1459L67.2366 58.4271L67.9102 56.3541L66.1468 55.0729H68.3265L69 53Z" fill="#223B55"/>
<path d="M170 175L170.674 177.073H172.853L171.09 178.354L171.763 180.427L170 179.146L168.237 180.427L168.91 178.354L167.147 177.073H169.326L170 175Z" fill="#1CD49C"/>
<path d="M299 58L299.674 60.0729H301.853L300.09 61.3541L300.763 63.4271L299 62.1459L297.237 63.4271L297.91 61.3541L296.147 60.0729H298.326L299 58Z" fill="#223B55"/>
<defs>
<clipPath id="clip0">
<rect x="441" y="131" width="6" height="6" fill="white"/>
</clipPath>
<clipPath id="clip1">
<rect x="202" y="64" width="6" height="6" fill="white"/>
</clipPath>
<clipPath id="clip2">
<rect x="97" y="276" width="6" height="6" fill="white"/>
</clipPath>
</defs>
</svg>
