<svg width="208" height="150" viewBox="0 0 208 150" fill="none" xmlns="http://www.w3.org/2000/svg">
<g clip-path="url(#clip0)">
<path d="M182.231 73.0639H180.382V146.105H182.231V73.0639Z" fill="#3F3D56"/>
<path d="M199.297 82.3722C199.414 107.913 181.445 128.701 181.445 128.701C181.445 128.701 163.285 108.08 163.167 82.5387C163.049 56.9979 181.019 36.2097 181.019 36.2097C181.019 36.2097 199.179 56.8313 199.297 82.3722Z" fill="#223B55"/>
<path d="M145.257 107.431H144.306V144.998H145.257V107.431Z" fill="#3F3D56"/>
<path d="M154.035 112.218C154.095 125.355 144.853 136.047 144.853 136.047C144.853 136.047 135.513 125.44 135.453 112.304C135.392 99.1679 144.634 88.476 144.634 88.476C144.634 88.476 153.974 99.0822 154.035 112.218Z" fill="#223B55"/>
<path d="M164.004 150C178.235 150 189.771 148.232 189.771 146.05C189.771 143.869 178.235 142.1 164.004 142.1C149.772 142.1 138.236 143.869 138.236 146.05C138.236 148.232 149.772 150 164.004 150Z" fill="#223B55"/>
<path d="M166.129 53.9954C163.946 50.3067 159.627 50.1348 159.627 50.1348C159.627 50.1348 155.418 49.5966 152.718 55.2146C150.202 60.451 146.729 65.5069 152.159 66.7327L153.14 63.6797L153.747 66.96C154.521 67.0156 155.296 67.0288 156.071 66.9997C161.886 66.8119 167.425 67.0546 167.246 64.9678C167.009 62.1936 168.229 57.5447 166.129 53.9954Z" fill="#2F2E41"/>
<path d="M158.267 60.9421C158.267 60.9421 161.088 64.8919 159.395 68.0893C157.703 71.2868 163.345 74.6723 163.345 74.6723L167.483 65.6442C167.483 65.6442 162.593 62.4468 163.91 59.4375L158.267 60.9421Z" fill="#FBBEBE"/>
<path d="M160.148 62.6349C162.849 62.6349 165.038 60.4455 165.038 57.7447C165.038 55.0439 162.849 52.8545 160.148 52.8545C157.447 52.8545 155.258 55.0439 155.258 57.7447C155.258 60.4455 157.447 62.6349 160.148 62.6349Z" fill="#FBBEBE"/>
<path d="M143.224 63.3977L147.311 58.125C147.311 58.125 148.75 52.5982 150.834 52.8784C152.918 53.1586 150.011 59.5064 150.011 59.5064L145.95 65.3428L143.224 63.3977Z" fill="#FBBEBE"/>
<path d="M163.91 133.543L165.226 140.502L168.047 141.254L167.295 132.978L163.91 133.543Z" fill="#FBBEBE"/>
<path d="M192.31 126.019L197.389 132.978L199.458 133.919L201.15 131.098L196.072 124.515L192.31 126.019Z" fill="#FBBEBE"/>
<path d="M162.781 71.6629L159.644 67.5327C159.644 67.5327 153.565 68.6536 153.001 69.2178C152.436 69.7821 154.505 80.1267 154.505 80.1267C154.505 80.1267 154.881 82.948 156.574 84.4526L158.267 85.5812L172.185 82.7599L172.709 76.5671C172.899 74.3114 172.616 72.0408 171.879 69.9007C171.141 67.7607 169.964 65.7984 168.423 64.1396L166.002 64.4706L162.781 71.6629Z" fill="#575A89"/>
<path d="M153.753 69.594L152.812 69.2178L148.487 68.8417C148.487 68.8417 146.982 68.4655 147.358 67.7131C147.734 66.9608 148.11 66.7727 147.358 66.5846C146.606 66.3966 146.418 66.2085 146.606 65.6442C146.794 65.08 147.922 63.9515 147.922 63.9515L144.725 61.3183C144.725 61.3183 144.552 61.4407 144.272 61.6672C142.685 62.9525 137.661 67.5898 141.339 72.2272C145.665 77.6816 150.744 80.879 154.881 79.7505L153.753 69.594Z" fill="#575A89"/>
<path d="M157.891 84.6407V87.2739C157.891 87.2739 156.198 90.4713 156.762 93.4807C157.327 96.49 157.515 97.9947 157.515 97.9947C157.576 100.554 158.02 103.09 158.831 105.518C160.148 109.28 155.822 133.919 161.276 134.295C166.731 134.671 169.74 135.047 171.433 133.166C173.126 131.286 168.612 98.9351 168.612 98.9351C168.612 98.9351 184.034 131.098 187.232 129.781C190.429 128.464 198.517 125.455 197.577 123.762C196.636 122.069 172.937 84.4526 172.937 84.4526L172.185 82.7599L157.891 84.6407Z" fill="#617487"/>
<path d="M166.919 139.185C166.919 139.185 163.909 138.997 163.909 139.937C163.909 140.878 162.405 144.075 162.405 144.075C162.405 144.075 161.276 147.837 164.286 147.461C167.295 147.085 169.176 143.699 169.176 143.699L168.423 140.126L166.919 139.185Z" fill="#0B1642"/>
<path d="M198.329 132.602C198.329 132.602 195.696 130.909 195.884 132.038C196.072 133.166 196.26 136.176 197.577 136.364C198.893 136.552 202.843 137.68 203.031 138.057C203.219 138.433 207.733 139.937 207.733 137.492C207.733 135.047 204.912 133.166 204.912 133.166L201.714 130.721C201.714 130.721 199.645 130.533 199.269 131.85C198.893 133.166 198.329 132.602 198.329 132.602Z" fill="#0B1642"/>
<path d="M160.155 53.2764C161.88 53.2764 163.278 51.8782 163.278 50.1535C163.278 48.4288 161.88 47.0306 160.155 47.0306C158.431 47.0306 157.032 48.4288 157.032 50.1535C157.032 51.8782 158.431 53.2764 160.155 53.2764Z" fill="#2F2E41"/>
<path d="M156.704 49.3317C156.704 48.5604 156.989 47.8164 157.505 47.2431C158.021 46.6697 158.731 46.3075 159.498 46.2263C159.389 46.2148 159.279 46.2089 159.169 46.2088C158.341 46.2088 157.546 46.5378 156.961 47.1234C156.375 47.7091 156.046 48.5034 156.046 49.3317C156.046 50.1599 156.375 50.9542 156.961 51.5399C157.546 52.1256 158.341 52.4546 159.169 52.4546C159.279 52.4545 159.389 52.4486 159.498 52.437C158.731 52.3558 158.021 51.9936 157.505 51.4203C156.989 50.8469 156.704 50.103 156.704 49.3317Z" fill="#2F2E41"/>
<path d="M165.164 53.6399L160.897 51.4048L155.004 52.3192L153.785 57.7037L156.82 57.5869L157.668 55.6088V57.5543L159.068 57.5006L159.881 54.3511L160.389 57.7037L165.367 57.6021L165.164 53.6399Z" fill="#2F2E41"/>
<path d="M164.908 85.0765L158.328 85.2544C158.328 85.2544 152.713 86.347 153.028 84.0806C153.343 81.8142 158.82 82.6069 158.82 82.6069L164.817 81.6922L164.908 85.0765Z" fill="#FBBEBE"/>
<path d="M170.115 63.8207C170.445 63.7707 170.783 63.8403 171.067 64.0171C171.351 64.1939 171.563 64.4663 171.664 64.7852C172.952 68.8448 176.921 82.43 172.977 84.2938C168.333 86.4891 164.944 86.3926 164.944 86.3926L163.13 81.926L164.781 80.3761L166.544 69.0392L167.389 64.2336L170.115 63.8207Z" fill="#575A89"/>
<path opacity="0.4" d="M168.894 71.3808L168.142 78.9042L161.559 81.7254L168.894 80.0327V71.3808Z" fill="black"/>
<path d="M133.392 46.5438C135.512 47.1057 137.347 48.4383 138.537 50.281L139.152 51.2338L139.183 51.2732L149.976 54.4314C150.174 54.4893 150.341 54.6225 150.442 54.8024C150.542 54.9823 150.568 55.1946 150.514 55.3934L149.676 58.4658C149.649 58.5659 149.602 58.6596 149.538 58.7415C149.475 58.8234 149.395 58.8919 149.305 58.9431C149.215 58.9943 149.116 59.0271 149.013 59.0397C148.91 59.0523 148.805 59.0444 148.705 59.0165L137.909 55.9989L137.909 55.9992L136.825 56.4091C134.828 57.1639 132.638 57.2384 130.595 56.6208L133.392 46.5438Z" fill="#3F3D56"/>
<path d="M144.758 55.454C144.861 55.1046 144.412 54.6661 143.757 54.4744C143.102 54.2827 142.488 54.4105 142.386 54.7599C142.284 55.1093 142.732 55.5479 143.387 55.7395C144.042 55.9312 144.656 55.8034 144.758 55.454Z" fill="#575A89"/>
<path d="M144.207 55.7762C144.458 55.7762 144.66 55.5733 144.66 55.3231C144.66 55.0728 144.458 54.8699 144.207 54.8699C143.957 54.8699 143.754 55.0728 143.754 55.3231C143.754 55.5733 143.957 55.7762 144.207 55.7762Z" fill="#3F3D56"/>
<path d="M134.294 52.3633C135.194 49.5876 134.906 47.0076 133.651 46.6006C132.396 46.1936 130.649 48.1137 129.749 50.8894C128.849 53.665 129.137 56.2451 130.392 56.6521C131.647 57.0591 133.394 55.1389 134.294 52.3633Z" fill="#3EE5B2"/>
<path opacity="0.4" d="M133.959 52.2651C134.826 49.5906 134.59 47.098 133.449 46.5558C133.518 46.5644 133.585 46.5793 133.651 46.6006C134.906 47.0076 135.194 49.5876 134.294 52.3633C133.394 55.1389 131.647 57.0591 130.392 56.6521C130.346 56.6372 130.302 56.6193 130.259 56.5987C131.493 56.7559 133.106 54.8946 133.959 52.2651Z" fill="black"/>
<path d="M133.534 46.5537L109.038 27.5524C104.707 24.1681 100.55 20.5657 96.5842 16.7591C89.6015 10.1032 80.1224 4.78177 69.0861 1.94856C42.2726 -4.93488 21.0308 7.2703 11.3694 25.1917C-3.39415 52.5775 -14.7085 97.0172 50.7531 73.362C65.0695 68.1886 79.561 67.6387 90.5491 64.9136L130.336 56.7102L133.534 46.5537Z" fill="#3EE5B2"/>
<path d="M59.993 14.5794C60.7201 14.5794 61.3096 13.9899 61.3096 13.2628C61.3096 12.5356 60.7201 11.9462 59.993 11.9462C59.2658 11.9462 58.6764 12.5356 58.6764 13.2628C58.6764 13.9899 59.2658 14.5794 59.993 14.5794Z" fill="#F2F2F2"/>
<path d="M85.5687 16.306H85.2261V15.9633H85.1591V16.306H84.8164V16.3729H85.1591V16.7156H85.2261V16.3729H85.5687V16.306Z" fill="#F2F2F2"/>
<path d="M119.988 44.8948H119.645V44.5521H119.579V44.8948H119.236V44.9617H119.579V45.3044H119.645V44.9617H119.988V44.8948Z" fill="#F2F2F2"/>
<path d="M117.543 53.7347H117.2V53.392H117.133V53.7347H116.791V53.8017H117.133V54.1444H117.2V53.8017H117.543V53.7347Z" fill="#F2F2F2"/>
<path d="M12.4039 61.2581H12.0613V60.9154H11.9943V61.2581H11.6516V61.3251H11.9943V61.6677H12.0613V61.3251H12.4039V61.2581Z" fill="#F2F2F2"/>
<path d="M27.4507 20.2557H27.108V19.913H27.0411V20.2557H26.6984V20.3227H27.0411V20.6654H27.108V20.3227H27.4507V20.2557Z" fill="#F2F2F2"/>
<path d="M85.9448 55.2394H85.6022V54.8967H85.5352V55.2394H85.1925V55.3063H85.5352V55.649H85.6022V55.3063H85.9448V55.2394Z" fill="#F2F2F2"/>
<path d="M50.0209 8.21835H49.6782V7.87566H49.6112V8.21835H49.2686V8.2853H49.6112V8.62799H49.6782V8.2853H50.0209V8.21835Z" fill="#F2F2F2"/>
<path d="M50.1525 35.2983L49.7256 35.3642C49.8591 36.2181 49.9645 37.0908 50.0416 37.9541L50.4723 37.9165C50.3952 37.0419 50.288 36.1616 50.1525 35.2983Z" fill="#E6E6E6"/>
<path d="M48.9845 30.1561L48.5707 30.2821C48.8208 31.1097 49.0447 31.9579 49.2346 32.8024L49.6578 32.7065C49.4641 31.8526 49.2365 30.995 48.9845 30.1561Z" fill="#E6E6E6"/>
<path d="M47.1206 25.2245L46.7275 25.4051C47.0887 26.1932 47.4272 27.0019 47.7338 27.8107L48.1382 27.6583C47.8278 26.8402 47.4874 26.0201 47.1206 25.2245Z" fill="#E6E6E6"/>
<path d="M44.6002 20.6014L44.2354 20.8328C44.6999 21.5625 45.1457 22.3186 45.5595 23.0766L45.9394 22.8697C45.5218 22.1023 45.0704 21.3387 44.6002 20.6014Z" fill="#E6E6E6"/>
<path d="M41.4667 16.3639L41.1376 16.6441C41.6981 17.3024 42.2435 17.9908 42.7589 18.6867L43.1049 18.4291C42.5858 17.7256 42.0347 17.0297 41.4667 16.3639Z" fill="#E6E6E6"/>
<path d="M37.7841 12.5909L37.4963 12.9126C38.1433 13.49 38.7772 14.0975 39.3809 14.7163L39.6913 14.4135C39.08 13.7871 38.4386 13.174 37.7841 12.5909Z" fill="#E6E6E6"/>
<path d="M33.6237 9.35211L33.3811 9.70947C34.0996 10.1928 34.8105 10.7082 35.4933 11.2405L35.7604 10.9C35.0682 10.3621 34.3497 9.84114 33.6237 9.35211Z" fill="#E6E6E6"/>
<path d="M29.8375 7.10263V7.59165C30.287 7.82675 30.7328 8.07314 31.1692 8.32518L31.3855 7.95089C30.8776 7.65747 30.3616 7.37472 29.8375 7.10263Z" fill="#E6E6E6"/>
<path d="M50.1816 40.6222L50.614 40.6143C50.6219 41.0509 50.6225 41.4898 50.6158 41.9189L50.1834 41.9121C50.19 41.4879 50.1895 41.0539 50.1816 40.6222Z" fill="#E6E6E6"/>
<path d="M24.7612 72.3509L24.3342 72.4168C24.4678 73.2707 24.5731 74.1434 24.6502 75.0067L25.0809 74.969C25.0038 74.0945 24.8966 73.2142 24.7612 72.3509Z" fill="#E6E6E6"/>
<path d="M23.5931 67.2087L23.1793 67.3347C23.4295 68.1623 23.6533 69.0105 23.8433 69.855L24.2665 69.7591C24.0727 68.9052 23.8452 68.0476 23.5931 67.2087Z" fill="#E6E6E6"/>
<path d="M21.7293 62.2771L21.3362 62.4577C21.6973 63.2458 22.0359 64.0545 22.3424 64.8633L22.7468 64.7109C22.4365 63.8928 22.096 63.0727 21.7293 62.2771Z" fill="#E6E6E6"/>
<path d="M19.2089 57.654L18.844 57.8854C19.3086 58.6151 19.7543 59.3712 20.1681 60.1292L20.548 59.9223C20.1305 59.1549 19.6791 58.3913 19.2089 57.654Z" fill="#E6E6E6"/>
<path d="M16.0755 53.4165L15.7463 53.6967C16.3068 54.355 16.8523 55.0434 17.3676 55.7393L17.7137 55.4817C17.1946 54.7782 16.6435 54.0823 16.0755 53.4165Z" fill="#E6E6E6"/>
<path d="M12.3927 49.6435L12.105 49.9651C12.752 50.5426 13.3858 51.1501 13.9896 51.7689L14.2999 51.4661C13.6887 50.8397 13.0473 50.2266 12.3927 49.6435Z" fill="#E6E6E6"/>
<path d="M8.23225 46.4047L7.98962 46.7621C8.7081 47.2454 9.41906 47.7608 10.1018 48.2931L10.3689 47.9526C9.67674 47.4147 8.95826 46.8937 8.23225 46.4047Z" fill="#E6E6E6"/>
<path d="M4.44617 44.1552V44.6442C4.89569 44.8793 5.34145 45.1257 5.7778 45.3778L5.9941 45.0035C5.48627 44.7101 4.97029 44.4273 4.44617 44.1552Z" fill="#E6E6E6"/>
<path d="M24.7903 77.6748L25.2226 77.6669C25.2306 78.1035 25.2312 78.5424 25.2244 78.9715L24.7921 78.9647C24.7987 78.5405 24.7981 78.1065 24.7903 77.6748Z" fill="#E6E6E6"/>
<path d="M111.656 53.7306L111.229 53.7964C111.363 54.6503 111.468 55.523 111.545 56.3863L111.976 56.3487C111.899 55.4741 111.791 54.5939 111.656 53.7306Z" fill="#E6E6E6"/>
<path d="M110.488 48.5884L110.074 48.7144C110.324 49.542 110.548 50.3902 110.738 51.2347L111.161 51.1388C110.968 50.2849 110.74 49.4272 110.488 48.5884Z" fill="#E6E6E6"/>
<path d="M108.624 43.6568L108.231 43.8374C108.592 44.6254 108.931 45.4342 109.237 46.243L109.642 46.0906C109.331 45.2724 108.991 44.4524 108.624 43.6568Z" fill="#E6E6E6"/>
<path d="M106.104 39.0337L105.739 39.265C106.203 39.9948 106.649 40.7509 107.063 41.5089L107.443 41.302C107.025 40.5346 106.574 39.771 106.104 39.0337Z" fill="#E6E6E6"/>
<path d="M102.97 34.7961L102.641 35.0764C103.202 35.7347 103.747 36.4231 104.262 37.119L104.608 36.8613C104.089 36.1579 103.538 35.462 102.97 34.7961Z" fill="#E6E6E6"/>
<path d="M99.2876 31.0232L98.9999 31.3448C99.6469 31.9222 100.281 32.5297 100.884 33.1485L101.195 32.8457C100.584 32.2194 99.9422 31.6062 99.2876 31.0232Z" fill="#E6E6E6"/>
<path d="M95.1273 27.7844L94.8846 28.1417C95.6031 28.6251 96.3141 29.1404 96.9968 29.6727L97.2639 29.3323C96.5718 28.7944 95.8533 28.2734 95.1273 27.7844Z" fill="#E6E6E6"/>
<path d="M91.3411 25.5349V26.0239C91.7906 26.259 92.2363 26.5054 92.6727 26.7574L92.889 26.3831C92.3812 26.0897 91.8652 25.807 91.3411 25.5349Z" fill="#E6E6E6"/>
<path d="M111.685 59.0545L112.118 59.0466C112.125 59.4832 112.126 59.922 112.119 60.3512L111.687 60.3444C111.694 59.9202 111.693 59.4862 111.685 59.0545Z" fill="#E6E6E6"/>
<path d="M28.0801 37.5971H27.7613V37.2781H27.699V37.5971H27.38V37.6592H27.699V37.9782H27.7613V37.6592H28.0801V37.5971Z" fill="#F2F2F2"/>
<path d="M24.4046 56.8488H24.0858V56.5298H24.0236V56.8488H23.7046V56.9111H24.0236V57.2299H24.0858V56.9111H24.4046V56.8488Z" fill="#F2F2F2"/>
<path d="M13.6205 73.7213H13.3015V73.4025H13.2392V73.7213H12.9204V73.7836H13.2392V74.1026H13.3015V73.7836H13.6205V73.7213Z" fill="#F2F2F2"/>
<path d="M43.6203 52.3218C40.5369 47.7386 39.1982 42.2021 39.8467 36.7164C40.4953 31.2307 43.0882 26.1591 47.1554 22.4212C51.2225 18.6833 56.4945 16.5267 62.0153 16.3425C67.5361 16.1582 72.9402 17.9585 77.2475 21.4169C81.5548 24.8753 84.4801 29.7628 85.493 35.193C86.5059 40.6232 85.5392 46.2366 82.7683 51.0153C79.9974 55.7939 75.6058 59.4214 70.3898 61.2398C65.1738 63.0582 59.4788 62.9472 54.3376 60.9269C54.0043 62.1166 53.3812 63.2051 52.5241 64.0949C51.667 64.9847 50.6026 65.648 49.4262 66.0256C48.2498 66.4031 46.9981 66.4831 45.7833 66.2583C44.5684 66.0335 43.4283 65.5109 42.4649 64.7374C41.5015 63.9639 40.745 62.9636 40.263 61.826C39.781 60.6884 39.5887 59.449 39.7032 58.2189C39.8176 56.9887 40.2354 55.8061 40.919 54.777C41.6026 53.7478 42.5307 52.9043 43.6203 52.3218Z" fill="#223B55"/>
<path d="M62.6562 26.2259C67.9515 26.2259 71.5947 29.163 71.5947 33.3852C71.5947 36.1811 70.2391 38.1157 67.6267 39.6548C65.1697 41.081 64.3366 42.126 64.3366 43.9335C64.3366 44.08 64.3077 44.225 64.2516 44.3604C64.1956 44.4957 64.1134 44.6187 64.0098 44.7223C63.9062 44.8259 63.7833 44.908 63.6479 44.9641C63.5126 45.0202 63.3675 45.049 63.221 45.049H60.5139C60.2248 45.049 59.947 44.9368 59.739 44.7359C59.531 44.5351 59.4091 44.2613 59.3991 43.9724L59.3942 43.8346C59.1542 40.9257 60.1709 39.1182 62.7268 37.6214C65.1132 36.1952 66.1158 35.2915 66.1158 33.5405C66.1158 31.7895 64.4213 30.5045 62.3173 30.5045C60.7181 30.5045 59.4525 31.2829 58.872 32.5538C58.668 32.984 58.345 33.3468 57.9413 33.5992C57.5376 33.8517 57.07 33.9832 56.5939 33.9783C54.7597 33.9783 53.548 32.0277 54.4058 30.4064C55.7627 27.8418 58.6257 26.2259 62.6562 26.2259ZM58.9424 50.4291C58.9424 48.8052 60.298 47.5202 61.9642 47.5202C63.6446 47.5202 65.0002 48.791 65.0002 50.4291C65.0002 52.0671 63.6446 53.338 61.9642 53.338C60.2838 53.338 58.9424 52.0671 58.9424 50.4291Z" fill="#3EE5B2"/>
</g>
<defs>
<clipPath id="clip0">
<rect width="207.733" height="150" fill="white"/>
</clipPath>
</defs>
</svg>
