<svg width="16" height="9" viewBox="0 0 16 9" fill="none" xmlns="http://www.w3.org/2000/svg">
<path d="M7.93111 6.11355L2.49314 0.68155C2.34331 0.533763 2.14125 0.450897 1.93073 0.450897C1.7202 0.450897 1.51814 0.533763 1.36832 0.68155L0.891967 1.15555C0.743466 1.30535 0.660156 1.50769 0.660156 1.71855C0.660156 1.92941 0.743466 2.13174 0.891967 2.28155L7.3647 8.74954C7.51469 8.89854 7.7176 8.98218 7.92911 8.98218C8.14061 8.98218 8.34352 8.89854 8.49352 8.74954L14.9642 2.28155C15.1121 2.13183 15.1951 1.92992 15.1951 1.71955C15.1951 1.50918 15.1121 1.30727 14.9642 1.15755L14.4879 0.68155C14.3381 0.533763 14.136 0.450897 13.9255 0.450897C13.715 0.450897 13.5129 0.533763 13.3631 0.68155L7.93111 6.11355Z" fill="#617487"/>
</svg>
