<svg width="16" height="18" viewBox="0 0 16 18" fill="none" xmlns="http://www.w3.org/2000/svg">
<path d="M13.8333 15.8334H2.16667V6.66671H13.8333M11.3333 0.833374V2.50004H4.66667V0.833374H3V2.50004H2.16667C1.24167 2.50004 0.5 3.24171 0.5 4.16671V15.8334C0.5 16.2754 0.675595 16.6993 0.988155 17.0119C1.30072 17.3244 1.72464 17.5 2.16667 17.5H13.8333C14.2754 17.5 14.6993 17.3244 15.0118 17.0119C15.3244 16.6993 15.5 16.2754 15.5 15.8334V4.16671C15.5 3.72468 15.3244 3.30076 15.0118 2.9882C14.6993 2.67564 14.2754 2.50004 13.8333 2.50004H13V0.833374M12.1667 10H8V14.1667H12.1667V10Z" fill="#343434" fill-opacity="0.67"/>
</svg>
