<svg width="200" height="200" viewBox="0 0 200 200" fill="none" xmlns="http://www.w3.org/2000/svg">
<circle cx="100" cy="100" r="100" fill="#617487"/>
<g clip-path="url(#clip0)">
<path d="M132.671 81.0362C131.274 79.5723 129.344 78.7073 127.148 78.7073H116.103V78.5742C116.103 76.9107 115.437 75.3137 114.306 74.2491C113.175 73.1179 111.644 72.4525 109.981 72.4525H90.019C88.289 72.4525 86.7586 73.1179 85.6274 74.2491C84.4962 75.3803 83.8308 76.9107 83.8308 78.5742V78.7073H72.8517C70.6559 78.7073 68.7262 79.5723 67.3289 81.0362C65.9316 82.4335 65 84.4297 65 86.559V119.696C65 121.892 65.865 123.821 67.3289 125.219C68.7262 126.616 70.7224 127.548 72.8517 127.548H127.148C129.344 127.548 131.274 126.683 132.671 125.219C134.068 123.821 135 121.825 135 119.696V86.559C135 84.3632 134.135 82.4335 132.671 81.0362ZM131.54 119.696H131.473C131.473 120.894 131.008 121.958 130.209 122.757C129.411 123.555 128.346 124.021 127.148 124.021H72.8517C71.654 124.021 70.5894 123.555 69.7909 122.757C68.9924 121.958 68.5266 120.894 68.5266 119.696V86.559C68.5266 85.3613 68.9924 84.2966 69.7909 83.4981C70.5894 82.6997 71.654 82.2339 72.8517 82.2339H85.6939C86.692 82.2339 87.4905 81.4354 87.4905 80.4373V78.5076C87.4905 77.7757 87.7567 77.1103 88.2224 76.6445C88.6882 76.1788 89.3536 75.9126 90.0856 75.9126H109.981C110.713 75.9126 111.378 76.1788 111.844 76.6445C112.31 77.1103 112.576 77.7757 112.576 78.5076V80.4373C112.576 81.4354 113.375 82.2339 114.373 82.2339H127.215C128.413 82.2339 129.477 82.6997 130.276 83.4981C131.074 84.2966 131.54 85.3613 131.54 86.559V119.696Z" fill="white"/>
<path d="M99.9997 86.7584C95.475 86.7584 91.3495 88.6215 88.4217 91.5493C85.4274 94.5436 83.6309 98.6025 83.6309 103.127C83.6309 107.652 85.494 111.777 88.4217 114.705C91.416 117.699 95.475 119.496 99.9997 119.496C104.524 119.496 108.65 117.633 111.578 114.705C114.572 111.711 116.369 107.652 116.369 103.127C116.369 98.6025 114.505 94.4771 111.578 91.5493C108.65 88.6215 104.524 86.7584 99.9997 86.7584ZM109.049 112.243C106.72 114.506 103.526 115.969 99.9997 115.969C96.4731 115.969 93.2792 114.506 90.9503 112.243C88.6214 109.914 87.224 106.72 87.224 103.194C87.224 99.6672 88.6879 96.4733 90.9503 94.1444C93.2792 91.8155 96.4731 90.4181 99.9997 90.4181C103.526 90.4181 106.72 91.882 109.049 94.1444C111.378 96.4733 112.775 99.6672 112.775 103.194C112.842 106.72 111.378 109.914 109.049 112.243Z" fill="white"/>
<path d="M123.688 93.2129C125.489 93.2129 126.949 91.7532 126.949 89.9525C126.949 88.1518 125.489 86.692 123.688 86.692C121.888 86.692 120.428 88.1518 120.428 89.9525C120.428 91.7532 121.888 93.2129 123.688 93.2129Z" fill="white"/>
</g>
<defs>
<clipPath id="clip0">
<rect x="65" y="65" width="70" height="70" fill="white"/>
</clipPath>
</defs>
</svg>
