<svg width="18" height="18" viewBox="0 0 18 18" fill="none" xmlns="http://www.w3.org/2000/svg">
<path d="M16 0H2C0.89 0 0 0.89 0 2V16C0 16.5304 0.210714 17.0391 0.585786 17.4142C0.960859 17.7893 1.46957 18 2 18H16C17.11 18 18 17.11 18 16V2C18 1.46957 17.7893 0.960859 17.4142 0.585786C17.0391 0.210714 16.5304 0 16 0ZM5.83 4.05C6.81 4.05 7.6 4.84 7.6 5.83C7.6 6.81 6.81 7.6 5.83 7.6C4.84 7.6 4.05 6.81 4.05 5.83C4.05 4.84 4.84 4.05 5.83 4.05ZM12.22 14C11.24 14 10.45 13.2 10.45 12.22C10.45 11.24 11.24 10.45 12.22 10.45C13.2 10.45 14 11.24 14 12.22C14 13.2 13.2 14 12.22 14ZM5.5 14.03L4 12.53L12.53 4L14.03 5.5L5.5 14.03Z" fill="#00C3CE"/>
</svg>
