<svg width="10" height="10" viewBox="0 0 10 10" fill="none" xmlns="http://www.w3.org/2000/svg">
<path d="M1.46453 1.46453C3.41725 -0.488183 6.58318 -0.488184 8.53549 1.46457C10.4882 3.41727 10.4882 6.58318 8.53541 8.53549C6.58318 10.4882 3.41725 10.4882 1.46453 8.53545C-0.488183 6.58318 -0.488183 3.41727 1.46453 1.46453ZM2.05375 7.94617C3.68106 9.57348 6.3193 9.57348 7.94615 7.94625C9.57346 6.31932 9.57346 3.68107 7.94619 2.05381C6.3193 0.426523 3.68105 0.426523 2.05379 2.05381C0.426523 3.68109 0.426523 6.31932 2.05375 7.94617Z" fill="#FD3A9C"/>
<path d="M5.00009 1.66699C5.23021 1.66699 5.41675 1.85354 5.41675 2.08365V6.25031C5.41675 6.48043 5.23021 6.66697 5.00009 6.66697C4.76997 6.66697 4.58343 6.48043 4.58343 6.25031V2.08365C4.58343 1.85354 4.76997 1.66699 5.00009 1.66699Z" fill="#FD3A9C"/>
<path d="M5.00009 7.5C5.23009 7.5 5.41675 7.68666 5.41675 7.91666C5.41675 8.14666 5.23009 8.33332 5.00009 8.33332C4.77009 8.33332 4.58343 8.14666 4.58343 7.91666C4.58343 7.68666 4.77009 7.5 5.00009 7.5Z" fill="#FD3A9C"/>
</svg>
