<svg width="30" height="36" viewBox="0 0 30 36" fill="none" xmlns="http://www.w3.org/2000/svg">
<path d="M24.237 16.6863L22.4402 18.4874L21.1943 19.7398L20.4002 20.5382L19.8647 21.0704L18.3574 22.5849L17.8258 23.1189L16.6429 24.3089L16.3177 24.633L15.7843 25.1708L14.277 26.6852L13.7437 27.223L13.2787 27.6863L11.7047 29.2714L10.1974 30.7859L9.66196 31.3182L8.92983 32.0565C8.83413 32.1531 8.7113 32.2182 8.57768 32.2433C8.44405 32.2684 8.30596 32.2523 8.18178 32.197C8.05759 32.1418 7.95319 32.05 7.88246 31.934C7.81173 31.818 7.77801 31.6832 7.7858 31.5476L7.84524 30.5099L7.88296 29.7562L8.00113 27.6237L8.1255 25.3983L8.16213 24.7362L8.20363 23.9842L8.3218 21.8517L8.36497 21.0959L8.38852 20.6375L8.48239 18.963L8.52011 18.2093L8.64205 16.0785L8.67977 15.3248L8.74239 14.201L8.84045 12.438L8.97818 9.89871L24.2254 16.682L24.237 16.6863Z" fill="#E56353"/>
<path d="M22.4444 18.4892L21.7557 16.7032L23.1085 16.1841L22.2163 15.7872L21.5078 16.0591L21.236 15.351L20.3506 14.9572L20.8695 16.309L19.0486 17.0047L18.3515 15.1887L19.7006 14.668L18.8122 14.2727L18.1036 14.5446L17.8318 13.8366L16.9397 13.4397L17.4586 14.7915L15.6376 15.4872L14.9405 13.6713L16.2896 13.1505L15.4012 12.7552L14.6927 13.0271L14.4209 12.3191L13.5325 11.9239L14.0476 13.274L12.2304 13.9713L11.5296 12.1538L12.8824 11.6346L11.9903 11.2377L11.2817 11.5096L11.0099 10.8016L10.1215 10.4064L10.6405 11.7582L8.85108 12.4417L8.75303 14.2047L9.12353 15.1617L8.68748 15.329L8.64976 16.0827L9.36437 15.8054L10.0643 17.627L8.52782 18.2135L8.49009 18.9672L10.3128 18.2678L11.0082 20.0875L9.19094 20.7848L8.49009 18.9672L8.39622 20.6417L8.54634 21.0328L8.37193 21.0997L8.32875 21.8555L8.79423 21.6769L9.48962 23.4966L8.21092 23.9872L8.16942 24.7393L9.73919 24.1369L10.4383 25.9583L8.61568 26.6577L8.13312 25.4006L8.00876 27.6261L8.22024 27.5449L8.9194 29.3662L7.89092 29.7578L7.8532 30.5115L9.16369 30.0042L9.6684 31.319L10.2039 30.7868L9.80702 29.7611L11.6297 29.0617L11.7108 29.273L13.2848 27.688L12.0259 28.1748L11.3267 26.3535L13.1494 25.6541L13.7502 27.2257L14.2836 26.688L13.7931 25.4102L15.6119 24.7091L15.7905 25.1743L16.3239 24.6365L16.257 24.4622L16.6483 24.3121L17.8312 23.122L16.0102 23.8177L15.3093 22.0001L17.132 21.3007L17.8312 23.122L18.3628 22.5881L17.7749 21.0565L19.5938 20.3554L19.8694 21.0733L20.4048 20.541L20.2376 20.1053L21.1974 19.7401L22.4444 18.4892ZM17.7059 15.4309L18.4013 17.2505L16.5841 17.9478L15.8832 16.1303L17.7059 15.4309ZM15.9395 18.1958L14.1168 18.8952L13.4214 17.0756L15.2386 16.3782L15.9395 18.1958ZM14.4202 21.6046L12.5992 22.3002L11.9021 20.4843L13.721 19.7832L14.4202 21.6046ZM14.296 13.913L14.9952 15.7343L13.1742 16.4299L12.4734 14.6124L14.296 13.913ZM9.06619 13.0965L10.8851 12.3955L11.5842 14.2168L9.76325 14.9124L9.06619 13.0965ZM10.0108 15.5573L11.8318 14.8617L12.5289 16.6776L10.71 17.3787L10.0108 15.5573ZM10.9575 18.0235L12.7764 17.3224L13.4756 19.1438L11.6546 19.8394L10.9575 18.0235ZM9.43957 21.4293L11.2606 20.7336L11.9614 22.5512L10.1387 23.2506L9.43957 21.4293ZM11.3845 28.4197L9.56181 29.1191L8.86642 27.2994L10.6836 26.6021L11.3845 28.4197ZM11.0811 25.7104L10.384 23.8945L12.2029 23.1934L12.9021 25.0147L11.0811 25.7104ZM15.3663 24.066L13.5474 24.7671L12.8483 22.9457L14.6693 22.2501L15.3663 24.066ZM15.0667 21.3583L14.3659 19.5408L16.1885 18.8414L16.8839 20.661L15.0667 21.3583ZM17.5293 20.4134L16.8301 18.592L18.6511 17.8964L19.3519 19.714L17.5293 20.4134ZM19.9935 19.4647L19.2964 17.6488L21.1154 16.9477L21.8145 18.769L19.9935 19.4647Z" fill="#E1E6E9"/>
<path d="M25.415 15.2519C25.956 13.1974 25.7485 11.0177 24.8294 9.10249C23.9103 7.18726 22.3397 5.66132 20.3982 4.79742C18.4568 3.93352 16.271 3.78797 14.2316 4.38678C12.1923 4.9856 10.4322 6.28975 9.26611 8.06612C8.92107 8.00221 8.56453 8.05444 8.25229 8.21463C7.94004 8.37482 7.6897 8.63393 7.54044 8.95143C7.37712 9.34922 7.37843 9.7955 7.54409 10.1922C7.70975 10.589 8.02621 10.9037 8.42395 11.0673C8.60944 11.1487 8.80771 11.1972 9.00987 11.2106C8.99543 11.243 8.97419 11.2724 8.95941 11.3056C8.60566 12.0994 9.2132 13.1412 10.3158 13.6319C10.6151 13.7771 10.9404 13.8612 11.2727 13.8792C11.605 13.8972 11.9375 13.8488 12.2509 13.7368C12.1057 14.5412 13.3421 15.7698 15.1536 16.5759C16.9651 17.382 18.7061 17.4782 19.2073 16.8322C19.3336 17.1399 19.5201 17.4192 19.7558 17.654C19.9915 17.8887 20.2717 18.074 20.58 18.1991C21.6833 18.6901 22.8639 18.4439 23.2176 17.6501C23.2324 17.6169 23.2431 17.5828 23.2545 17.5491C23.3997 17.6902 23.5684 17.8051 23.7531 17.8883C24.1409 18.0743 24.5867 18.0987 24.9926 17.9563C25.3985 17.8139 25.7313 17.5163 25.9179 17.1289C26.0541 16.8045 26.0786 16.4441 25.9875 16.1044C25.8965 15.7646 25.6951 15.4648 25.415 15.2519Z" fill="#FCD462"/>
<path d="M15.0276 6.30471C13.3798 6.71889 12.524 7.97405 12.4243 7.57922C12.3246 7.1844 13.1889 5.66106 14.8329 5.24705C16.477 4.83304 18.2917 5.68462 18.391 6.0802C18.4903 6.47578 16.6753 5.89053 15.0276 6.30471Z" fill="#F6C358"/>
<path d="M24.0796 17.1547C23.8949 17.0713 23.7262 16.9565 23.581 16.8153C23.5665 16.8478 23.5589 16.8832 23.5441 16.9164C23.1903 17.7103 22.0088 17.9562 20.9062 17.4655C20.5978 17.3404 20.3176 17.155 20.0819 16.9203C19.8462 16.6856 19.6597 16.4062 19.5334 16.0985C19.0322 16.7446 17.291 16.6483 15.4793 15.8422C13.6677 15.0361 12.4275 13.8075 12.5768 13.0021C12.2634 13.1141 11.9308 13.1625 11.5985 13.1445C11.2662 13.1265 10.9409 13.0424 10.6415 12.8971C9.53809 12.4062 8.93128 11.3646 9.28507 10.5706C9.29986 10.5374 9.31807 10.5067 9.33553 10.4756C9.13336 10.4622 8.93509 10.4137 8.74958 10.3323C8.41903 10.1915 8.14348 9.94679 7.96475 9.63523C7.78602 9.32368 7.71385 8.96233 7.75921 8.606C7.6707 8.70918 7.59697 8.82414 7.54011 8.9476C7.37677 9.34543 7.37808 9.79175 7.54374 10.1885C7.70941 10.5853 8.02589 10.9001 8.42367 11.0637C8.60918 11.1451 8.80746 11.1936 9.00963 11.207C8.99518 11.2394 8.97395 11.2688 8.95916 11.302C8.60537 12.0959 9.21294 13.1378 10.3156 13.6285C10.6154 13.7734 10.9412 13.857 11.2738 13.8743C11.6064 13.8917 11.9392 13.8425 12.2525 13.7296C12.1073 14.5342 13.3438 15.7629 15.1555 16.569C16.9671 17.3752 18.7083 17.4714 19.2095 16.8253C19.3358 17.133 19.5223 17.4124 19.758 17.6471C19.9937 17.8819 20.2739 18.0672 20.5823 18.1924C21.6857 18.6834 22.8664 18.4371 23.2202 17.6432C23.235 17.61 23.2456 17.5759 23.2571 17.5422C23.4023 17.6833 23.571 17.7982 23.7557 17.8815C24.1435 18.0674 24.5894 18.0919 24.9953 17.9495C25.4012 17.807 25.7341 17.5094 25.9207 17.1219C25.9745 16.9971 26.0106 16.8654 26.0282 16.7306C25.7939 17.0039 25.4768 17.1933 25.125 17.2698C24.7733 17.3464 24.4061 17.3059 24.0796 17.1547Z" fill="#F6C358"/>
</svg>
