<svg width="120" height="120" viewBox="0 0 120 120" fill="none" xmlns="http://www.w3.org/2000/svg">
<circle cx="60" cy="60" r="60" fill="#1CD49C" fill-opacity="0.1"/>
<circle cx="60.5" cy="60.5" r="52.5" fill="#1CD49C" fill-opacity="0.1"/>
<circle cx="60" cy="60" r="45" fill="#3EE5B2"/>
<g filter="url(#filter0_d)">
<path d="M54.2595 77.9965C53.2733 77.9965 52.3311 77.6022 51.6355 76.8949L38.0559 63.0794C36.6317 61.6278 36.65 59.2995 38.1 57.8701C39.55 56.448 41.8795 56.4627 43.3037 57.9143L54.1528 68.9519L76.598 44.2056C77.9706 42.6988 80.2966 42.592 81.7942 43.9552C83.2994 45.322 83.4098 47.6503 82.0444 49.1608L56.9828 76.7916C56.3021 77.5431 55.3452 77.9779 54.3332 78C54.3074 77.9965 54.2853 77.9965 54.2595 77.9965Z" fill="white"/>
</g>
<defs>
<filter id="filter0_d" x="34" y="41" width="52" height="41" filterUnits="userSpaceOnUse" color-interpolation-filters="sRGB">
<feFlood flood-opacity="0" result="BackgroundImageFix"/>
<feColorMatrix in="SourceAlpha" type="matrix" values="0 0 0 0 0 0 0 0 0 0 0 0 0 0 0 0 0 0 127 0"/>
<feOffset dy="1"/>
<feGaussianBlur stdDeviation="1.5"/>
<feColorMatrix type="matrix" values="0 0 0 0 0 0 0 0 0 0 0 0 0 0 0 0 0 0 0.2 0"/>
<feBlend mode="normal" in2="BackgroundImageFix" result="effect1_dropShadow"/>
<feBlend mode="normal" in="SourceGraphic" in2="effect1_dropShadow" result="shape"/>
</filter>
</defs>
</svg>
