<svg width="43" height="43" viewBox="0 0 43 43" fill="none" xmlns="http://www.w3.org/2000/svg">
<g clip-path="url(#clip0)">
<path d="M23.0369 25.4469L12.7532 20.8788L11.2708 40.6799C11.2696 40.6985 11.2482 41.8864 12.0365 42.2366C12.8276 42.588 13.6986 41.7677 13.7052 41.761L27.4038 27.3869L24.5704 26.1282" fill="#FC3842"/>
<path d="M18.7743 23.5535C17.5327 27.4471 17.7355 31.7268 19.5498 35.6282L27.4038 27.387C23.9559 25.8552 25.1074 26.3667 18.7743 23.5535Z" fill="#FC5162"/>
<path d="M13.2523 42.0858C13.0962 41.3701 14.3488 26.7652 14.6763 21.7338L12.7523 20.8791L11.2699 40.6802C11.2613 40.8196 11.2949 41.9829 12.1138 42.2676C12.6571 42.4584 13.1924 42.1088 13.2523 42.0858Z" fill="#EF2235"/>
<path d="M14.2755 14.2518C14.7755 14.0594 15.0248 13.4981 14.8324 12.9982C14.64 12.4982 14.0788 12.2489 13.5788 12.4413C13.0789 12.6337 12.8296 13.195 13.0219 13.6949C13.2143 14.1949 13.7756 14.4442 14.2755 14.2518Z" fill="#FFCA54"/>
<path d="M29.5019 12.5845C30.0018 12.3921 30.2511 11.8309 30.0587 11.3309C29.8663 10.831 29.3051 10.5817 28.8051 10.7741C28.3052 10.9665 28.0559 11.5277 28.2483 12.0277C28.4407 12.5276 29.0019 12.7769 29.5019 12.5845Z" fill="#00CDB3"/>
<path d="M27.4036 27.3859L29.011 25.7223C28.9279 25.6853 13.0433 18.6291 12.9124 18.571L12.7529 20.8777" fill="#FFCA54"/>
<path d="M18.7737 23.553L27.4032 27.3865L29.0107 25.7229C28.7488 25.6065 19.7299 21.6002 19.5672 21.528C19.259 22.1846 18.9943 22.8612 18.7737 23.553Z" fill="#FCD27C"/>
<path d="M12.5243 23.9406L12.0866 29.7878C13.2532 29.8352 14.3847 29.1797 14.8874 28.0478C15.6917 26.2372 14.503 24.1564 12.5243 23.9406Z" fill="#FFCA54"/>
<path d="M12.5243 23.9406C12.3069 26.845 12.1001 29.6073 12.0866 29.7878C12.8338 29.8182 13.5658 29.5589 14.1283 29.0719L14.4368 24.9507C13.95 24.3803 13.2617 24.021 12.5243 23.9406Z" fill="#F9B24B"/>
<path d="M20.4883 31.7737L20.4857 31.7733C19.2593 31.1503 18.2271 31.616 18.2271 31.616L18.2277 31.6171C15.6482 32.4926 15.55 36.1462 18.1168 37.132L21.8537 33.211C21.5764 32.5815 21.0902 32.076 20.4883 31.7737Z" fill="#FFCA54"/>
<path d="M11.8016 33.5967L11.6009 36.2766C12.3627 36.6784 13.284 36.3413 13.624 35.5758C14.1457 34.4016 13.0079 33.1761 11.8016 33.5967Z" fill="#F9B24B"/>
<path d="M19.2059 28.279C19.8521 28.0303 20.1743 27.3049 19.9257 26.6588C19.677 26.0126 18.9516 25.6904 18.3055 25.939C17.6593 26.1877 17.3371 26.9131 17.5857 27.5592C17.8344 28.2054 18.5598 28.5276 19.2059 28.279Z" fill="#FFCA54"/>
<path d="M14.677 21.7324L14.834 19.4618C14.8141 19.4417 14.7951 19.4206 14.777 19.3991C14.218 19.1509 14.5955 19.3185 12.9126 18.5709L12.9108 18.5967L12.7531 20.8777L14.677 21.7324Z" fill="#F9B24B"/>
<path d="M22.8028 17.4931C22.6198 17.2656 22.6558 16.9328 22.8834 16.7498C23.5503 16.2135 25.031 14.7402 24.3813 12.6473C23.9957 11.4058 24.0701 10.2755 24.6024 9.28788C25.5699 7.49269 27.7056 6.85893 27.7961 6.83281C28.0765 6.75188 28.3696 6.91362 28.4506 7.1942C28.5315 7.4744 28.3704 7.76702 28.0904 7.84842C28.0724 7.85367 26.2822 8.39259 25.5302 9.79519C25.1405 10.522 25.0937 11.3761 25.391 12.3338C25.9841 14.244 25.3116 16.1538 23.546 17.5739C23.3194 17.7562 22.9863 17.7214 22.8028 17.4931Z" fill="#F9B732"/>
<path d="M22.4412 13.8811C22.795 13.745 22.9715 13.3477 22.8353 12.9939C22.6991 12.64 22.3019 12.4636 21.9481 12.5998C21.5942 12.7359 21.4178 13.1332 21.5539 13.487C21.6901 13.8408 22.0873 14.0173 22.4412 13.8811Z" fill="#FF4B4E"/>
<path d="M16.3533 7.58621C16.7071 7.45004 16.8836 7.05281 16.7474 6.69897C16.6112 6.34513 16.214 6.16867 15.8602 6.30484C15.5063 6.44101 15.3299 6.83824 15.466 7.19208C15.6022 7.54592 15.9994 7.72238 16.3533 7.58621Z" fill="#FF4B4E"/>
<path d="M29.5108 21.7525C29.3973 21.4834 29.5235 21.1734 29.7927 21.06L30.7637 20.6508C31.0323 20.5357 31.3428 20.6636 31.4562 20.9328C31.5696 21.2018 31.4434 21.5118 31.1742 21.6253L30.2032 22.0344C29.9368 22.1472 29.6249 22.0235 29.5108 21.7525Z" fill="#00CDB3"/>
<path d="M15.1228 10.9394C14.8472 11.0357 14.5457 10.8902 14.4494 10.6146L14.1021 9.6198C14.0059 9.34412 14.1504 9.04168 14.427 8.94636C14.7026 8.85009 15.0041 8.99553 15.1004 9.27125L15.4477 10.266C15.5459 10.5471 15.3917 10.8476 15.1228 10.9394Z" fill="#00CDB3"/>
<path d="M20.5191 9.74723C20.4057 9.47815 20.5318 9.16814 20.801 9.0547L21.7719 8.64555C22.0405 8.53136 22.351 8.65833 22.4644 8.92748C22.5778 9.19654 22.4516 9.50657 22.1825 9.61995L21.2115 10.0291C20.9495 10.1417 20.6342 10.0206 20.5191 9.74723Z" fill="#57BAE5"/>
<path d="M34.8316 11.6974C32.2107 12.2084 32.0534 14.1182 31.9387 15.5128C31.8244 16.9 31.7616 17.6644 30.0778 17.6096C28.5152 17.559 27.3675 17.9214 26.6662 18.687C26.107 19.2975 26.0612 19.9363 26.0578 20.0071C26.0395 20.3897 26.4215 20.6621 26.7755 20.5259C26.9651 20.4529 27.1037 20.2734 27.114 20.0575C27.1147 20.0427 27.2175 18.5749 30.0435 18.6664C32.652 18.7512 32.8689 17.0998 32.9924 15.5995C33.1077 14.1991 33.1986 13.0929 35.034 12.7353C35.3208 12.6796 35.5076 12.4018 35.4517 12.1152C35.3958 11.8286 35.1182 11.6416 34.8316 11.6974Z" fill="#F9B732"/>
<path d="M18.6911 4.66931C18.441 4.81997 18.3603 5.14492 18.5111 5.39499C20.0542 7.95655 17.0594 8.67263 16.5494 10.6053C16.3363 11.4131 16.6327 12.2207 17.4555 13.0741C19.3598 15.0491 18.4435 16.1185 18.3832 16.1845C18.3384 16.2287 17.9357 16.6421 18.2487 16.953C18.6917 17.393 19.1327 16.9303 19.1327 16.9303C19.5957 16.47 20.5322 14.7419 18.2167 12.3402C17.0474 11.1275 17.5412 10.6016 18.525 9.55379C19.4829 8.53372 20.7947 7.13665 19.4167 4.84938C19.2661 4.59925 18.9414 4.51895 18.6911 4.66931Z" fill="#F9B732"/>
<path d="M29.4808 23.6628C28.0076 23.0084 15.6214 17.5066 14.1241 16.8411C13.5758 16.5976 12.9337 16.8446 12.6901 17.393C12.4465 17.9414 12.6935 18.5834 13.2419 18.827L28.5987 25.6487C29.147 25.8922 29.7889 25.6452 30.0327 25.0968C30.2762 24.5485 30.0291 23.9064 29.4808 23.6628Z" fill="#57BAE5"/>
<path d="M28.5985 25.6488C29.1469 25.8924 29.7888 25.6453 30.0325 25.097C30.2761 24.5487 30.029 23.9067 29.4807 23.6629L20.567 19.7034C20.1783 20.319 19.8312 20.9593 19.5264 21.6189L28.5985 25.6488Z" fill="#70D1F2"/>
<path d="M12.9113 18.5979C13.0998 18.7887 13.0864 18.7582 14.8299 19.5326L14.8347 19.463C14.2307 18.8519 14.541 17.8163 15.3822 17.6377L15.3813 17.6368C15.3813 17.6368 15.7121 17.5472 15.4011 17.4089L14.1245 16.8415C13.5444 16.5839 12.8604 16.876 12.6545 17.4873C12.5237 17.8706 12.6223 18.3059 12.9113 18.5979Z" fill="#34A9D1"/>
</g>
<defs>
<clipPath id="clip0">
<rect width="33" height="33" fill="white" transform="translate(0 11.8522) rotate(-21.0483)"/>
</clipPath>
</defs>
</svg>
