<svg width="20" height="20" viewBox="0 0 20 20" fill="none" xmlns="http://www.w3.org/2000/svg">
<g clip-path="url(#clip0)">
<path d="M16.9086 2.84203C12.9851 -0.947343 6.76496 -0.947343 2.84152 2.84203C-1.04301 6.86399 -0.931602 13.2734 3.09036 17.1579C7.0138 20.9473 13.234 20.9473 17.1574 17.1579C21.0419 13.136 20.9305 6.72656 16.9086 2.84203ZM16.6816 16.6821L16.6782 16.6787C12.9863 20.3673 7.00324 20.3646 3.31467 16.6726C-0.37389 12.9807 -0.371161 6.9977 3.32076 3.30914C7.01269 -0.379428 12.9957 -0.376699 16.6843 3.31519C18.456 5.08854 19.4506 7.4932 19.4489 9.99998C19.4491 12.5062 18.4537 14.9098 16.6816 16.6821Z" fill="#223B55"/>
<path d="M15.6865 12.8821L13.7899 10.9922C13.3595 10.5607 12.6607 10.5599 12.2292 10.9903C12.2286 10.9909 12.228 10.9915 12.2274 10.9922L11.1407 12.0788C11.0585 12.1613 10.9289 12.1726 10.8336 12.1058C10.2389 11.6902 9.68209 11.2226 9.16986 10.7087C8.7111 10.2509 8.28908 9.75785 7.90767 9.23388C7.83854 9.13975 7.84859 9.00924 7.93128 8.92678L9.04497 7.8131C9.47494 7.3823 9.47494 6.68474 9.04497 6.25394L7.14834 4.35732C6.71129 3.93949 6.02287 3.93949 5.58582 4.35732L4.98512 4.95802C4.07792 5.85502 3.75406 7.18693 4.14816 8.40031C4.44224 9.28806 4.85793 10.1308 5.38334 10.9044C5.85633 11.6137 6.39898 12.2739 7.00324 12.8753C7.66018 13.5369 8.38787 14.1243 9.17322 14.6268C10.0366 15.1902 10.9845 15.6117 11.981 15.8755C12.2372 15.9386 12.5002 15.9704 12.764 15.97C13.6685 15.9644 14.5339 15.6003 15.1702 14.9575L15.6866 14.4412C16.1165 14.0104 16.1165 13.3129 15.6865 12.8821ZM15.2086 13.9809C15.2082 13.9813 15.2078 13.9818 15.2073 13.9823L15.2106 13.9721L14.6943 14.4885C14.0309 15.1603 13.0647 15.4367 12.1463 15.2174C11.2211 14.9698 10.3415 14.5756 9.54098 14.0498C8.79724 13.5744 8.10799 13.0188 7.48573 12.3927C6.91319 11.8244 6.39882 11.2003 5.95018 10.5298C5.45947 9.8084 5.07106 9.02249 4.796 8.19446C4.48068 7.22173 4.74198 6.15436 5.47098 5.43727L6.07168 4.83657C6.23869 4.6688 6.51007 4.66821 6.6778 4.83522C6.67823 4.83566 6.6787 4.83609 6.67914 4.83657L8.57576 6.73319C8.74353 6.9002 8.74412 7.17158 8.57711 7.33931C8.57667 7.33974 8.57624 7.34018 8.57576 7.34065L7.46208 8.45434C7.14253 8.77041 7.10235 9.27267 7.3676 9.63553C7.7704 10.1883 8.21615 10.7085 8.70066 11.1913C9.24085 11.7339 9.8281 12.2274 10.4555 12.6661C10.8181 12.919 11.3096 12.8764 11.6232 12.5649L12.6998 11.4714C12.8668 11.3037 13.1382 11.3031 13.3059 11.4701C13.3063 11.4705 13.3067 11.471 13.3072 11.4714L15.2072 13.3748C15.3751 13.5418 15.3756 13.8132 15.2086 13.9809Z" fill="#223B55"/>
</g>
<defs>
<clipPath id="clip0">
<rect width="20" height="20" fill="white"/>
</clipPath>
</defs>
</svg>
