<?xml version="1.0" encoding="UTF-8" standalone="no"?>
<!DOCTYPE svg PUBLIC "-//W3C//DTD SVG 1.1//EN" "http://www.w3.org/Graphics/SVG/1.1/DTD/svg11.dtd">
<svg version="1.1" xmlns="http://www.w3.org/2000/svg" xmlns:xlink="http://www.w3.org/1999/xlink" preserveAspectRatio="xMidYMid meet" viewBox="135.95652173913044 136.6811594202899 354 354" width="350" height="350"><defs><path d="M311.96 137.68C215.31 137.68 136.96 216.03 136.96 312.68C136.96 409.33 215.31 487.68 311.96 487.68C408.61 487.68 486.96 409.33 486.96 312.68C486.96 216.03 408.61 137.68 311.96 137.68Z" id="qf2WHIjhI"></path><path d="M365.1 254.4C322.66 238.68 299.08 229.94 294.36 228.19C289.46 226.37 283.83 228.46 281.8 232.86C277.19 242.85 240.3 322.79 235.69 332.78C233.66 337.18 235.99 342.22 240.9 344.03C249.77 347.32 320.68 373.6 329.55 376.88C334.46 378.7 340.08 376.61 342.11 372.21C344.69 366.62 357.59 338.66 380.82 288.34C385.26 278.71 387.73 273.36 388.22 272.29C390.25 267.9 387.92 262.86 383.01 261.04C380.62 260.15 374.65 257.94 365.1 254.4Z" id="b1k7ncvRwn"></path><path d="M264.64 243.77C259.33 243.77 255.02 247.63 255.02 252.39C255.02 263.2 255.02 349.7 255.02 360.51C255.02 365.27 259.33 369.13 264.64 369.13C274.23 369.13 350.97 369.13 360.57 369.13C365.88 369.13 370.18 365.27 370.18 360.51C370.18 354.46 370.18 324.21 370.18 269.75L341.18 243.77C295.26 243.77 269.74 243.77 264.64 243.77Z" id="bBGPXVN37"></path><path d="M370.18 269.75L341.19 243.77C341.19 254.19 341.19 259.98 341.19 261.14C341.19 265.9 345.49 269.75 350.8 269.75C353.38 269.75 359.85 269.75 370.18 269.75Z" id="d61MstdFv"></path><path d="M303.67 295.76C300.76 295.76 277.47 295.76 274.56 295.76C272.94 295.76 271.62 294.59 271.6 293.14C271.58 291.42 271.58 286.27 271.66 283.79C271.84 279.04 275.72 277.99 275.72 277.99C276.2 277.84 278.6 277.11 282.91 275.8L288.22 274.81L288.22 274.48L289.12 274.65L290.02 274.48L290.02 274.81L295.32 275.8L297.52 276.47C300.51 277.38 302.17 277.89 302.51 277.99C302.51 277.99 306.4 279.04 306.56 283.79C306.65 286.27 306.64 291.42 306.62 293.14C306.6 294.59 305.29 295.76 303.67 295.76Z" id="cZghbXJGI"></path><path d="M289.05 278.72L284.39 279.27L284.39 271.07L293.83 271.07L293.83 279.27L289.05 278.72Z" id="cyDp0QIiV"></path><path d="M294.8 267.77C294.59 268.98 294.98 270.04 295.68 270.14C296.38 270.24 297.12 269.34 297.34 268.13C297.55 266.92 297.16 265.86 296.46 265.76C295.76 265.66 295.02 266.56 294.8 267.77Z" id="b3pqhqG7bi"></path><path d="M283.14 267.77C283.36 268.99 282.96 270.05 282.26 270.15C281.56 270.25 280.81 269.35 280.6 268.13C280.38 266.92 280.78 265.85 281.48 265.75C282.18 265.65 282.93 266.56 283.14 267.77Z" id="c25QTqo5UT"></path><path d="M296.36 266.45C296.36 262.02 293.04 258.42 288.95 258.42C284.87 258.42 281.55 262.02 281.55 266.45C281.55 270.89 284.87 274.49 288.95 274.49C293.04 274.49 296.36 270.89 296.36 266.45Z" id="e3w5wPizFz"></path><path d="M288.1 278.67L287.01 279.78L288.1 282.04L290.27 282.04L291.35 279.78L290.27 278.67L288.1 278.67Z" id="d2stE1RDMg"></path><path d="M289.12 278.71L293.41 281.34L295.41 275.79L293.83 273.86L289.12 278.71Z" id="abOgtPuE6"></path><path d="M289.18 278.71L284.81 281.34L282.82 275.79L284.39 273.86L289.18 278.71Z" id="b14Tevkuc"></path><path d="M287.27 295.75L288.1 282.04L290.27 282.04L291.09 295.75L287.27 295.75Z" id="bF6ncDAVx"></path><path d="M302.51 277.99C302.01 277.84 298.02 276.62 297.52 276.47C297.23 277.75 293.69 292.58 289.43 295.52C289.34 295.58 289.27 295.71 289.18 295.76C290.63 295.76 302.22 295.76 303.67 295.76C305.29 295.76 306.6 294.59 306.62 293.14C306.64 291.42 306.65 286.27 306.56 283.79C306.4 279.04 303.32 279.15 302.51 277.99Z" id="c23sAzQc17"></path><path d="M275.72 277.99C276.22 277.84 280.21 276.62 280.71 276.47C281 277.74 284.58 292.31 288.8 295.42C288.93 295.52 289.05 295.69 289.18 295.76C287.72 295.76 276.02 295.76 274.56 295.76C272.94 295.76 271.63 294.59 271.61 293.14C271.58 291.42 271.57 286.27 271.67 283.79C271.83 279.04 274.91 279.15 275.72 277.99Z" id="b5Uuqj6vu"></path><path d="M289.18 295.75C289.18 295.75 294.69 292.35 298.53 284.79C298.45 284.64 298.08 283.89 297.4 282.53L299.06 281.34L297.78 276.54L294.9 275.17C295.65 283.65 293.74 290.51 289.18 295.75Z" id="hZTwEbY1m"></path><path d="M289.18 295.76C289.18 295.76 283.81 292.35 279.98 284.79C280.06 284.64 280.43 283.89 281.11 282.53L279.44 281.34L280.71 276.47L283.46 275C282.71 283.59 284.62 290.51 289.18 295.76Z" id="c1xAxKQYXd"></path><path d="M291.08 262.78C291.89 262.49 292.88 262.29 293.73 262.63C295.52 263.35 294.88 264.65 294.88 266.29C294.88 267.93 295.31 268.8 295.31 269.75C295.34 269.75 295.61 269.75 295.65 269.75C295.65 269.75 295.65 266.92 296.63 264.73C297.61 262.55 298.5 257.55 293.61 257.55C293.61 257.55 290.11 255.24 287.43 256.17C284.75 257.09 282.62 257.09 281.43 259.99C280.24 262.89 281.64 265.45 281.98 266.62C282.32 267.8 282.37 269.27 282.37 269.27C282.43 269.27 282.94 269.27 283 269.27C283 269.27 283.18 267.46 283.52 266.41C283.52 266.41 281.73 260.41 284.15 261.08C285.98 261.58 287.18 261.54 288.34 262.38C289.12 262.94 290.16 263.12 291.08 262.78Z" id="b3taP024wC"></path><path d="M353.61 306.45L353.61 313.14L271.59 313.14L271.59 306.45L353.61 306.45Z" id="epALNggit"></path><path d="M353.61 323.81L353.61 330.5L271.59 330.5L271.59 323.81L353.61 323.81Z" id="cjy7N9dkQ"></path><path d="M353.61 341.16L353.61 347.85L271.59 347.85L271.59 341.16L353.61 341.16Z" id="a5TqhC8INh"></path></defs><g><g><use xlink:href="#qf2WHIjhI" opacity="1" fill="#ffffff" fill-opacity="1"></use><g><use xlink:href="#qf2WHIjhI" opacity="1" fill-opacity="0" stroke="#000000" stroke-width="1" stroke-opacity="0"></use></g></g><g><use xlink:href="#b1k7ncvRwn" opacity="1" fill="#f6f9fc" fill-opacity="1"></use><g><use xlink:href="#b1k7ncvRwn" opacity="1" fill-opacity="0" stroke="#000000" stroke-width="1" stroke-opacity="0"></use></g></g><g><use xlink:href="#bBGPXVN37" opacity="1" fill="#eef4f9" fill-opacity="1"></use><g><use xlink:href="#bBGPXVN37" opacity="1" fill-opacity="0" stroke="#000000" stroke-width="1" stroke-opacity="0"></use></g></g><g><use xlink:href="#d61MstdFv" opacity="1" fill="#ffffff" fill-opacity="1"></use><g><use xlink:href="#d61MstdFv" opacity="1" fill-opacity="0" stroke="#000000" stroke-width="1" stroke-opacity="0"></use></g></g><g><use xlink:href="#cZghbXJGI" opacity="1" fill="#eef4f9" fill-opacity="1"></use><g><use xlink:href="#cZghbXJGI" opacity="1" fill-opacity="0" stroke="#000000" stroke-width="1" stroke-opacity="0"></use></g></g><g><use xlink:href="#cyDp0QIiV" opacity="1" fill="#d6b250" fill-opacity="1"></use><g><use xlink:href="#cyDp0QIiV" opacity="1" fill-opacity="0" stroke="#000000" stroke-width="1" stroke-opacity="0"></use></g></g><g><use xlink:href="#b3pqhqG7bi" opacity="1" fill="#fed35b" fill-opacity="1"></use><g><use xlink:href="#b3pqhqG7bi" opacity="1" fill-opacity="0" stroke="#000000" stroke-width="1" stroke-opacity="0"></use></g></g><g><use xlink:href="#c25QTqo5UT" opacity="1" fill="#fed35b" fill-opacity="1"></use><g><use xlink:href="#c25QTqo5UT" opacity="1" fill-opacity="0" stroke="#000000" stroke-width="1" stroke-opacity="0"></use></g></g><g><use xlink:href="#e3w5wPizFz" opacity="1" fill="#feda6f" fill-opacity="1"></use><g><use xlink:href="#e3w5wPizFz" opacity="1" fill-opacity="0" stroke="#000000" stroke-width="1" stroke-opacity="0"></use></g></g><g><use xlink:href="#d2stE1RDMg" opacity="1" fill="#1cd49c" fill-opacity="1"></use><g><use xlink:href="#d2stE1RDMg" opacity="1" fill-opacity="0" stroke="#000000" stroke-width="1" stroke-opacity="0"></use></g></g><g><use xlink:href="#abOgtPuE6" opacity="1" fill="#ffffff" fill-opacity="1"></use><g><use xlink:href="#abOgtPuE6" opacity="1" fill-opacity="0" stroke="#000000" stroke-width="1" stroke-opacity="0"></use></g></g><g><use xlink:href="#b14Tevkuc" opacity="1" fill="#ffffff" fill-opacity="1"></use><g><use xlink:href="#b14Tevkuc" opacity="1" fill-opacity="0" stroke="#000000" stroke-width="1" stroke-opacity="0"></use></g></g><g><use xlink:href="#bF6ncDAVx" opacity="1" fill="#1cd49c" fill-opacity="1"></use><g><use xlink:href="#bF6ncDAVx" opacity="1" fill-opacity="0" stroke="#000000" stroke-width="1" stroke-opacity="0"></use></g></g><g><use xlink:href="#c23sAzQc17" opacity="1" fill="#223b55" fill-opacity="1"></use><g><use xlink:href="#c23sAzQc17" opacity="1" fill-opacity="0" stroke="#000000" stroke-width="1" stroke-opacity="0"></use></g></g><g><use xlink:href="#b5Uuqj6vu" opacity="1" fill="#223b55" fill-opacity="1"></use><g><use xlink:href="#b5Uuqj6vu" opacity="1" fill-opacity="0" stroke="#000000" stroke-width="1" stroke-opacity="0"></use></g></g><g><use xlink:href="#hZTwEbY1m" opacity="1" fill="#617487" fill-opacity="1"></use><g><use xlink:href="#hZTwEbY1m" opacity="1" fill-opacity="0" stroke="#000000" stroke-width="1" stroke-opacity="0"></use></g></g><g><use xlink:href="#c1xAxKQYXd" opacity="1" fill="#617487" fill-opacity="1"></use><g><use xlink:href="#c1xAxKQYXd" opacity="1" fill-opacity="0" stroke="#000000" stroke-width="1" stroke-opacity="0"></use></g></g><g><use xlink:href="#b3taP024wC" opacity="1" fill="#344d5b" fill-opacity="1"></use><g><use xlink:href="#b3taP024wC" opacity="1" fill-opacity="0" stroke="#000000" stroke-width="1" stroke-opacity="0"></use></g></g><g><use xlink:href="#epALNggit" opacity="1" fill="#ffffff" fill-opacity="1"></use><g><use xlink:href="#epALNggit" opacity="1" fill-opacity="0" stroke="#000000" stroke-width="1" stroke-opacity="0"></use></g></g><g><use xlink:href="#cjy7N9dkQ" opacity="1" fill="#ffffff" fill-opacity="1"></use><g><use xlink:href="#cjy7N9dkQ" opacity="1" fill-opacity="0" stroke="#000000" stroke-width="1" stroke-opacity="0"></use></g></g><g><use xlink:href="#a5TqhC8INh" opacity="1" fill="#ffffff" fill-opacity="1"></use><g><use xlink:href="#a5TqhC8INh" opacity="1" fill-opacity="0" stroke="#000000" stroke-width="1" stroke-opacity="0"></use></g></g></g></svg>
