<svg width="50" height="50" viewBox="0 0 50 50" fill="none" xmlns="http://www.w3.org/2000/svg">
<path d="M25 0C11.2152 0 0 11.2152 0 25C0 38.7848 11.2152 50 25 50C38.7859 50 50 38.7848 50 25C50 11.2152 38.7859 0 25 0ZM25 47.8261C12.413 47.8261 2.17391 37.587 2.17391 25C2.17391 12.413 12.413 2.17391 25 2.17391C37.5859 2.17391 47.8261 12.413 47.8261 25C47.8261 37.587 37.5859 47.8261 25 47.8261Z" fill="#FD3A9C"/>
<path d="M19.5652 20.6522C19.5652 18.8544 18.1022 17.3914 16.3043 17.3914C14.5065 17.3914 13.0435 18.8544 13.0435 20.6522C13.0435 22.4501 14.5065 23.9131 16.3043 23.9131C18.1022 23.9131 19.5652 22.4501 19.5652 20.6522ZM15.2174 20.6522C15.2174 20.0533 15.7054 19.5653 16.3043 19.5653C16.9032 19.5653 17.3913 20.0533 17.3913 20.6522C17.3913 21.2511 16.9032 21.7392 16.3043 21.7392C15.7054 21.7392 15.2174 21.2511 15.2174 20.6522Z" fill="#FD3A9C"/>
<path d="M33.6954 17.3914C31.8976 17.3914 30.4346 18.8544 30.4346 20.6522C30.4346 22.4501 31.8976 23.9131 33.6954 23.9131C35.4933 23.9131 36.9563 22.4501 36.9563 20.6522C36.9563 18.8544 35.4933 17.3914 33.6954 17.3914ZM33.6954 21.7392C33.0954 21.7392 32.6085 21.2511 32.6085 20.6522C32.6085 20.0533 33.0954 19.5653 33.6954 19.5653C34.2954 19.5653 34.7824 20.0533 34.7824 20.6522C34.7824 21.2511 34.2954 21.7392 33.6954 21.7392Z" fill="#FD3A9C"/>
<path d="M25.0001 30.4348C20.9479 30.4348 17.087 32.1511 14.4077 35.1446C14.0077 35.5924 14.0457 36.2794 14.4924 36.6794C14.9403 37.0805 15.6272 37.0413 16.0272 36.5946C18.2946 34.0609 21.5653 32.6087 25.0001 32.6087C28.4348 32.6087 31.7055 34.0609 33.9729 36.5946C34.187 36.8348 34.4848 36.9566 34.7827 36.9566C35.0403 36.9566 35.3011 36.8653 35.5077 36.6794C35.9544 36.2794 35.9925 35.5924 35.5925 35.1446C32.9131 32.1522 29.0533 30.4348 25.0001 30.4348Z" fill="#FD3A9C"/>
</svg>
